<svg width="42" height="42" viewBox="0 0 42 42" fill="none" xmlns="http://www.w3.org/2000/svg">
<g clip-path="url(#clip0_1360_1512)">
<path d="M41.2988 20.9992C41.2988 32.6416 31.5058 41.9901 19.7052 41.2593C9.59441 40.6328 1.36521 32.4036 0.739412 22.2928C0.00791222 10.4922 9.35641 0.699219 20.9988 0.699219C24.1964 0.699219 27.2239 1.43702 29.9168 2.75792C30.6385 3.11212 30.9031 4.01092 30.5048 4.70952L30.502 4.71442C30.1338 5.35982 29.3302 5.59992 28.6638 5.27162C25.9912 3.95562 22.9357 3.31512 19.7108 3.54542C11.2408 4.14952 4.32341 10.943 3.56951 19.4011C2.63151 29.9284 11.0679 38.7645 21.4636 38.4929C30.3662 38.2605 37.7974 31.2003 38.4491 22.3187C38.6185 20.0115 38.3406 17.7778 37.6798 15.7184C37.4705 15.0653 37.775 14.3604 38.3882 14.0538C39.154 13.6709 40.0927 14.0538 40.3524 14.8693C40.967 16.802 41.2988 18.8614 41.2988 20.9992Z" fill="#083A74"/>
<path d="M10.7872 15.7296L21.857 30.7075C22.6928 31.8387 24.3938 31.7407 25.0987 30.5213L41.0951 2.83071C41.9281 1.38871 40.0276 -0.0609927 38.8943 1.15281L22.2287 19.0042L12.5589 13.652C11.252 12.9289 9.89404 14.5207 10.7872 15.7296Z" fill="#083A74"/>
</g>
<defs>
<clipPath id="clip0_1360_1512">
<rect width="42" height="42" fill="white"/>
</clipPath>
</defs>
</svg>
