<svg width="28" height="28" viewBox="0 0 28 28" fill="none" xmlns="http://www.w3.org/2000/svg">
<path d="M21.8755 7V18.375C21.8755 18.6071 21.7833 18.8296 21.6192 18.9937C21.4551 19.1578 21.2326 19.25 21.0005 19.25C20.7684 19.25 20.5459 19.1578 20.3818 18.9937C20.2177 18.8296 20.1255 18.6071 20.1255 18.375V9.11203L7.61955 21.6191C7.45536 21.7832 7.23268 21.8755 7.00049 21.8755C6.76829 21.8755 6.54561 21.7832 6.38142 21.6191C6.21724 21.4549 6.125 21.2322 6.125 21C6.125 20.7678 6.21724 20.5451 6.38142 20.3809L18.8885 7.875H9.62549C9.39342 7.875 9.17086 7.78281 9.00677 7.61872C8.84267 7.45462 8.75049 7.23206 8.75049 7C8.75049 6.76794 8.84267 6.54538 9.00677 6.38128C9.17086 6.21719 9.39342 6.125 9.62549 6.125H21.0005C21.2326 6.125 21.4551 6.21719 21.6192 6.38128C21.7833 6.54538 21.8755 6.76794 21.8755 7Z" fill="black"/>
</svg>
