<svg width="28" height="28" viewBox="0 0 28 28" fill="none" xmlns="http://www.w3.org/2000/svg">
<path d="M17.5207 5.85417C18.5958 6.0639 19.6629 6.53801 20.4374 7.3125C21.2119 8.08699 21.686 9.15414 21.8957 10.2292M18.2499 0.75C20.4833 0.998121 22.4932 2.07864 24.0832 3.66667C25.6733 5.25469 26.7489 7.26684 26.9999 9.5M26.9992 20.4035V24.3552C27.0053 25.8658 25.647 27.1273 24.1219 26.9896C10.9584 27 0.749992 16.6969 0.760303 3.62174C0.622942 2.10472 1.87813 0.751546 3.38682 0.750131H7.3464C7.98693 0.743831 8.60791 0.970208 9.09358 1.38706C10.4743 2.57217 11.3625 6.59466 11.0208 8.19374C10.754 9.44219 9.49547 10.3156 8.63987 11.1695C10.5188 14.4674 13.2547 17.1978 16.559 19.0731C17.4146 18.2191 18.2899 16.9632 19.5407 16.6969C21.1454 16.3553 25.1938 17.2446 26.3741 18.635C26.7928 19.1281 27.0152 19.7575 26.9992 20.4035Z" stroke="white" stroke-width="1.5" stroke-linecap="round" stroke-linejoin="round"/>
</svg>
