<svg width="26" height="25" viewBox="0 0 26 25" fill="none" xmlns="http://www.w3.org/2000/svg">
<path d="M5.39768 7.49681C6.70678 7.49681 7.76801 6.47639 7.76801 5.21764C7.76801 3.95889 6.70678 2.93848 5.39768 2.93848C4.08858 2.93848 3.02734 3.95889 3.02734 5.21764C3.02734 6.47639 4.08858 7.49681 5.39768 7.49681Z" fill="#083A74"/>
<path d="M10.0054 9.22363V21.8684H14.0885V15.6153C14.0885 13.9653 14.4113 12.3674 16.539 12.3674C18.6374 12.3674 18.6634 14.2538 18.6634 15.7195V21.8695H22.7486V14.9351C22.7486 11.5288 21.986 8.91113 17.8455 8.91113C15.8576 8.91113 14.5251 9.96009 13.9801 10.9528H13.9249V9.22363H10.0054ZM3.35156 9.22363H7.44115V21.8684H3.35156V9.22363Z" fill="#083A74"/>
</svg>
