<svg width="26" height="25" viewBox="0 0 26 25" fill="none" xmlns="http://www.w3.org/2000/svg">
<path d="M17.7394 3.38525C18.9954 3.38886 20.1988 3.87019 21.0869 4.72413C21.975 5.57807 22.4756 6.73523 22.4793 7.94287V17.0571C22.4756 18.2648 21.975 19.4219 21.0869 20.2759C20.1988 21.1298 18.9954 21.6111 17.7394 21.6147H8.26059C7.00463 21.6111 5.80119 21.1298 4.9131 20.2759C4.025 19.4219 3.52441 18.2648 3.52066 17.0571V7.94287C3.52441 6.73523 4.025 5.57807 4.9131 4.72413C5.80119 3.87019 7.00463 3.38886 8.26059 3.38525H17.7394ZM17.7394 1.5625H8.26059C4.61094 1.5625 1.625 4.43359 1.625 7.94287V17.0571C1.625 20.5664 4.61094 23.4375 8.26059 23.4375H17.7394C21.3891 23.4375 24.375 20.5664 24.375 17.0571V7.94287C24.375 4.43359 21.3891 1.5625 17.7394 1.5625Z" fill="#083A74"/>
<path d="M19.1602 7.94336C18.8789 7.94336 18.604 7.86318 18.3702 7.71295C18.1364 7.56272 17.9541 7.34919 17.8465 7.09937C17.7389 6.84955 17.7107 6.57466 17.7656 6.30945C17.8205 6.04424 17.9559 5.80063 18.1547 5.60942C18.3536 5.41822 18.6069 5.28801 18.8828 5.23526C19.1586 5.1825 19.4445 5.20958 19.7043 5.31306C19.9641 5.41654 20.1862 5.59177 20.3424 5.8166C20.4986 6.04144 20.582 6.30577 20.582 6.57617C20.5824 6.75582 20.5459 6.93378 20.4746 7.09983C20.4033 7.26588 20.2986 7.41675 20.1665 7.54378C20.0344 7.67081 19.8775 7.77151 19.7048 7.84008C19.5321 7.90865 19.347 7.94375 19.1602 7.94336Z" fill="#083A74"/>
<path d="M13 8.854C13.75 8.854 14.4831 9.06784 15.1066 9.46847C15.7302 9.86909 16.2162 10.4385 16.5032 11.1047C16.7902 11.771 16.8653 12.504 16.719 13.2113C16.5727 13.9186 16.2115 14.5682 15.6812 15.0781C15.1509 15.588 14.4753 15.9353 13.7398 16.0759C13.0042 16.2166 12.2418 16.1444 11.5489 15.8685C10.8561 15.5925 10.2639 15.1252 9.84721 14.5256C9.43055 13.926 9.20817 13.2211 9.20817 12.5C9.20924 11.5333 9.60908 10.6066 10.32 9.92303C11.0308 9.2395 11.9947 8.85504 13 8.854ZM13 7.03125C11.8751 7.03125 10.7755 7.35199 9.8402 7.9529C8.90489 8.55381 8.17591 9.40792 7.74544 10.4072C7.31496 11.4065 7.20233 12.5061 7.42179 13.5669C7.64124 14.6277 8.18292 15.6022 8.97833 16.367C9.77374 17.1318 10.7872 17.6527 11.8904 17.8637C12.9937 18.0747 14.1373 17.9664 15.1765 17.5525C16.2158 17.1386 17.104 16.4376 17.729 15.5383C18.3539 14.6389 18.6875 13.5816 18.6875 12.5C18.6875 11.0496 18.0883 9.6586 17.0217 8.63301C15.9551 7.60742 14.5084 7.03125 13 7.03125Z" fill="#083A74"/>
</svg>
