<svg width="25" height="25" viewBox="0 0 25 25" fill="none" xmlns="http://www.w3.org/2000/svg">
<g clip-path="url(#clip0_1195_5318)">
<path d="M25 12.5762C25 5.67305 19.4031 0.0761719 12.5 0.0761719C5.59687 0.0761719 0 5.67305 0 12.5762C0 18.8158 4.57083 23.9866 10.5469 24.9241V16.1897H7.37292V12.5751H10.5469V9.82305C10.5469 6.69076 12.4135 4.95951 15.2687 4.95951C16.6354 4.95951 18.0667 5.2043 18.0667 5.2043V8.28034H16.4896C14.9365 8.28034 14.4521 9.24388 14.4521 10.2324V12.5762H17.9187L17.3646 16.1908H14.4521V24.9251C20.4292 23.9866 25 18.8147 25 12.5762Z" fill="#083A74"/>
</g>
<defs>
<clipPath id="clip0_1195_5318">
<rect width="25" height="25" fill="white"/>
</clipPath>
</defs>
</svg>
