<svg width="18" height="18" viewBox="0 0 18 18" fill="none" xmlns="http://www.w3.org/2000/svg">
<g clip-path="url(#clip0_171_1450)">
<path d="M18 9C18 13.9705 13.9705 18 9 18C4.02943 18 0 13.9705 0 9C0 4.02943 4.02943 0 9 0C13.9705 0 18 4.02943 18 9Z" fill="#E5E5E8"/>
<path fill-rule="evenodd" clip-rule="evenodd" d="M9 16.65C13.225 16.65 16.65 13.225 16.65 9C16.65 4.77502 13.225 1.35 9 1.35C4.77502 1.35 1.35 4.77502 1.35 9C1.35 13.225 4.77502 16.65 9 16.65ZM9 18C13.9705 18 18 13.9705 18 9C18 4.02943 13.9705 0 9 0C4.02943 0 0 4.02943 0 9C0 13.9705 4.02943 18 9 18Z" fill="#022B5B"/>
<path d="M6.3271 9.42291L7.42741 10.5232C8.28779 8.71355 9.28528 7.5441 10.1303 6.80469C10.6195 6.37665 11.0538 6.09609 11.3745 5.91968C11.5348 5.8315 11.6666 5.76942 11.7627 5.72795C11.8107 5.70721 11.8497 5.69163 11.879 5.6805C11.8937 5.67494 11.9058 5.67049 11.9154 5.66707L11.9279 5.66271L11.9326 5.66108L11.9346 5.6604L11.9363 5.65982C12.29 5.54194 12.6723 5.73307 12.7902 6.08673C12.9075 6.43869 12.7182 6.81915 12.3679 6.939L12.3591 6.94227C12.3479 6.94653 12.3272 6.95468 12.2979 6.96733C12.2393 6.99266 12.146 7.03605 12.0251 7.10256C11.7833 7.23552 11.4301 7.46121 11.0193 7.82067C10.2006 8.53704 9.1375 9.79848 8.27653 11.9508C8.19226 12.1615 8.00779 12.3158 7.78552 12.3614C7.56326 12.407 7.33295 12.3379 7.17251 12.1774L5.37251 10.3774C5.1089 10.1138 5.1089 9.68652 5.37251 9.42291C5.63611 9.1593 6.0635 9.1593 6.3271 9.42291Z" fill="#022B5B"/>
</g>
<defs>
<clipPath id="clip0_171_1450">
<rect width="18" height="18" fill="white"/>
</clipPath>
</defs>
</svg>
