<svg width="500" height="414" viewBox="0 0 500 414" fill="none" xmlns="http://www.w3.org/2000/svg">
<path d="M410.943 365.972H74.0502C61.8076 365.972 51.8828 356.047 51.8828 343.804V169.54C51.8828 157.298 61.8076 147.373 74.0502 147.373H410.943C423.186 147.373 433.111 157.298 433.111 169.54V343.804C433.112 356.047 423.186 365.972 410.943 365.972Z" fill="#272727"/>
<path d="M404.242 352.765H80.8823C68.6397 352.765 58.7148 342.84 58.7148 330.597V175.119C58.7148 162.876 68.6397 152.951 80.8823 152.951H404.242C416.485 152.951 426.41 162.876 426.41 175.119V330.596C426.41 342.839 416.485 352.765 404.242 352.765Z" fill="white"/>
<path d="M419.327 374.652H64.5217C46.0081 374.652 31 359.644 31 341.131V341H452.849V341.131C452.849 359.644 437.841 374.652 419.327 374.652Z" fill="#272727"/>
<path d="M407.786 180.151C407.786 183.671 406.376 186.86 404.076 189.18C401.75 191.54 398.512 193.003 394.934 193.003C391.619 193.003 388.594 191.745 386.313 189.688C383.716 187.328 382.082 183.934 382.082 180.151C382.082 173.053 387.836 167.299 394.934 167.299C402.032 167.299 407.786 173.053 407.786 180.151Z" fill="#FECA57"/>
<path d="M406.501 181.873C406.501 185.807 404.924 189.373 402.353 191.967C399.752 194.605 396.134 196.24 392.133 196.24C388.427 196.24 385.045 194.833 382.496 192.534C379.593 189.896 377.766 186.101 377.766 181.873C377.766 173.937 384.198 167.505 392.133 167.505C400.068 167.505 406.501 173.936 406.501 181.873Z" stroke="black" stroke-width="0.5" stroke-miterlimit="10"/>
<path d="M399.875 178.173C399.875 180.902 397.661 183.116 394.932 183.116C392.201 183.116 389.988 180.902 389.988 178.173C389.988 175.443 392.201 173.229 394.932 173.229C397.661 173.229 399.875 175.443 399.875 178.173Z" fill="#083A74"/>
<path d="M404.075 189.181C401.749 191.54 398.512 193.003 394.934 193.003C391.619 193.003 388.593 191.745 386.312 189.688C387.136 186.268 389.74 183.585 393.042 182.741C393.754 182.556 394.499 182.457 395.263 182.457C395.87 182.457 396.47 182.517 397.042 182.635C400.383 183.314 403.079 185.858 404.075 189.181Z" fill="#083A74"/>
<path d="M140.685 285.433H139.444C139.371 285.076 139.242 284.762 139.059 284.492C138.878 284.222 138.658 283.995 138.398 283.811C138.141 283.624 137.856 283.484 137.542 283.391C137.228 283.297 136.901 283.251 136.561 283.251C135.94 283.251 135.378 283.408 134.874 283.721C134.374 284.035 133.975 284.497 133.678 285.108C133.384 285.718 133.237 286.467 133.237 287.355C133.237 288.243 133.384 288.992 133.678 289.602C133.975 290.213 134.374 290.675 134.874 290.989C135.378 291.303 135.94 291.459 136.561 291.459C136.901 291.459 137.228 291.413 137.542 291.319C137.856 291.226 138.141 291.087 138.398 290.904C138.658 290.717 138.878 290.488 139.059 290.218C139.242 289.944 139.371 289.631 139.444 289.277H140.685C140.592 289.801 140.422 290.27 140.175 290.684C139.928 291.097 139.621 291.449 139.254 291.74C138.887 292.027 138.475 292.245 138.018 292.395C137.564 292.546 137.078 292.621 136.561 292.621C135.687 292.621 134.909 292.407 134.229 291.98C133.548 291.553 133.012 290.946 132.622 290.158C132.231 289.371 132.036 288.436 132.036 287.355C132.036 286.274 132.231 285.34 132.622 284.552C133.012 283.765 133.548 283.157 134.229 282.73C134.909 282.303 135.687 282.089 136.561 282.089C137.078 282.089 137.564 282.165 138.018 282.315C138.475 282.465 138.887 282.685 139.254 282.975C139.621 283.262 139.928 283.613 140.175 284.027C140.422 284.437 140.592 284.906 140.685 285.433ZM145.654 292.641C144.96 292.641 144.351 292.475 143.827 292.145C143.307 291.815 142.9 291.353 142.606 290.759C142.316 290.165 142.171 289.471 142.171 288.676C142.171 287.876 142.316 287.177 142.606 286.579C142.9 285.982 143.307 285.518 143.827 285.188C144.351 284.857 144.96 284.692 145.654 284.692C146.348 284.692 146.956 284.857 147.476 285.188C148 285.518 148.407 285.982 148.698 286.579C148.991 287.177 149.138 287.876 149.138 288.676C149.138 289.471 148.991 290.165 148.698 290.759C148.407 291.353 148 291.815 147.476 292.145C146.956 292.475 146.348 292.641 145.654 292.641ZM145.654 291.58C146.182 291.58 146.615 291.444 146.956 291.174C147.296 290.904 147.548 290.548 147.712 290.108C147.875 289.667 147.957 289.19 147.957 288.676C147.957 288.163 147.875 287.684 147.712 287.24C147.548 286.796 147.296 286.437 146.956 286.164C146.615 285.89 146.182 285.753 145.654 285.753C145.127 285.753 144.693 285.89 144.353 286.164C144.013 286.437 143.761 286.796 143.597 287.24C143.434 287.684 143.352 288.163 143.352 288.676C143.352 289.19 143.434 289.667 143.597 290.108C143.761 290.548 144.013 290.904 144.353 291.174C144.693 291.444 145.127 291.58 145.654 291.58ZM152.122 287.856V292.48H150.941V284.792H152.082V285.994H152.182C152.363 285.603 152.636 285.29 153.003 285.053C153.37 284.812 153.844 284.692 154.425 284.692C154.945 284.692 155.401 284.799 155.791 285.013C156.182 285.223 156.485 285.543 156.702 285.974C156.919 286.401 157.028 286.941 157.028 287.595V292.48H155.846V287.675C155.846 287.071 155.69 286.601 155.376 286.264C155.062 285.924 154.632 285.753 154.085 285.753C153.707 285.753 153.37 285.835 153.073 285.999C152.78 286.162 152.548 286.401 152.378 286.714C152.208 287.028 152.122 287.408 152.122 287.856ZM162.53 284.792V285.793H158.545V284.792H162.53ZM159.707 282.95H160.888V290.278C160.888 290.612 160.936 290.862 161.033 291.029C161.133 291.192 161.26 291.303 161.414 291.359C161.57 291.413 161.736 291.439 161.909 291.439C162.039 291.439 162.146 291.433 162.229 291.419C162.313 291.403 162.38 291.389 162.43 291.379L162.67 292.44C162.59 292.47 162.478 292.5 162.334 292.531C162.191 292.564 162.009 292.581 161.789 292.581C161.455 292.581 161.128 292.509 160.808 292.365C160.491 292.222 160.227 292.003 160.017 291.71C159.81 291.416 159.707 291.046 159.707 290.598V282.95ZM167.447 292.641C166.707 292.641 166.068 292.477 165.53 292.15C164.996 291.82 164.584 291.359 164.294 290.769C164.007 290.175 163.864 289.484 163.864 288.696C163.864 287.909 164.007 287.215 164.294 286.614C164.584 286.01 164.988 285.54 165.505 285.203C166.026 284.862 166.633 284.692 167.327 284.692C167.728 284.692 168.123 284.759 168.514 284.892C168.904 285.026 169.259 285.243 169.58 285.543C169.9 285.84 170.155 286.234 170.345 286.724C170.536 287.215 170.631 287.819 170.631 288.536V289.037H164.704V288.016H169.429C169.429 287.582 169.343 287.195 169.169 286.855C168.999 286.514 168.755 286.246 168.438 286.049C168.125 285.852 167.754 285.753 167.327 285.753C166.857 285.753 166.45 285.87 166.106 286.104C165.766 286.334 165.504 286.634 165.32 287.005C165.137 287.375 165.045 287.772 165.045 288.196V288.877C165.045 289.457 165.145 289.949 165.345 290.353C165.549 290.754 165.831 291.059 166.191 291.269C166.551 291.476 166.97 291.58 167.447 291.58C167.758 291.58 168.038 291.536 168.288 291.449C168.542 291.359 168.76 291.226 168.944 291.049C169.127 290.869 169.269 290.645 169.369 290.378L170.511 290.699C170.39 291.086 170.189 291.426 169.905 291.72C169.621 292.01 169.271 292.237 168.854 292.4C168.437 292.561 167.968 292.641 167.447 292.641ZM173.609 287.856V292.48H172.428V284.792H173.569V285.994H173.669C173.849 285.603 174.123 285.29 174.49 285.053C174.857 284.812 175.331 284.692 175.911 284.692C176.432 284.692 176.887 284.799 177.278 285.013C177.668 285.223 177.972 285.543 178.189 285.974C178.406 286.401 178.514 286.941 178.514 287.595V292.48H177.333V287.675C177.333 287.071 177.176 286.601 176.862 286.264C176.549 285.924 176.118 285.753 175.571 285.753C175.194 285.753 174.857 285.835 174.56 285.999C174.266 286.162 174.034 286.401 173.864 286.714C173.694 287.028 173.609 287.408 173.609 287.856ZM184.016 284.792V285.793H180.032V284.792H184.016ZM181.193 282.95H182.374V290.278C182.374 290.612 182.423 290.862 182.52 291.029C182.62 291.192 182.746 291.303 182.9 291.359C183.057 291.413 183.222 291.439 183.395 291.439C183.526 291.439 183.632 291.433 183.716 291.419C183.799 291.403 183.866 291.389 183.916 291.379L184.156 292.44C184.076 292.47 183.964 292.5 183.821 292.531C183.677 292.564 183.496 292.581 183.275 292.581C182.942 292.581 182.615 292.509 182.294 292.365C181.977 292.222 181.714 292.003 181.503 291.71C181.297 291.416 181.193 291.046 181.193 290.598V282.95ZM189.917 282.23H191.399L194.883 290.739H195.003L198.486 282.23H199.968V292.48H198.807V284.692H198.707L195.503 292.48H194.382L191.179 284.692H191.079V292.48H189.917V282.23ZM204.559 292.661C204.072 292.661 203.63 292.569 203.233 292.385C202.836 292.199 202.52 291.93 202.287 291.58C202.053 291.226 201.936 290.799 201.936 290.298C201.936 289.858 202.023 289.501 202.197 289.227C202.37 288.95 202.602 288.733 202.892 288.576C203.183 288.42 203.503 288.303 203.853 288.226C204.207 288.146 204.562 288.082 204.919 288.036C205.387 287.976 205.765 287.931 206.056 287.901C206.349 287.867 206.563 287.812 206.696 287.735C206.833 287.659 206.902 287.525 206.902 287.335V287.295C206.902 286.801 206.766 286.417 206.496 286.144C206.229 285.87 205.824 285.733 205.28 285.733C204.716 285.733 204.274 285.857 203.953 286.104C203.633 286.351 203.408 286.614 203.278 286.895L202.157 286.494C202.357 286.027 202.624 285.663 202.957 285.403C203.294 285.139 203.662 284.956 204.059 284.852C204.459 284.746 204.853 284.692 205.24 284.692C205.487 284.692 205.77 284.722 206.091 284.782C206.414 284.839 206.726 284.958 207.027 285.138C207.33 285.318 207.582 285.59 207.783 285.954C207.983 286.317 208.083 286.804 208.083 287.415V292.48H206.902V291.439H206.842C206.761 291.606 206.628 291.785 206.441 291.975C206.254 292.165 206.006 292.327 205.695 292.46C205.385 292.594 205.006 292.661 204.559 292.661ZM204.739 291.6C205.206 291.6 205.6 291.508 205.921 291.324C206.244 291.141 206.488 290.904 206.651 290.613C206.818 290.323 206.902 290.018 206.902 289.698V288.616C206.852 288.676 206.741 288.732 206.571 288.782C206.404 288.828 206.211 288.87 205.991 288.907C205.774 288.94 205.562 288.97 205.355 288.997C205.151 289.02 204.986 289.04 204.859 289.057C204.552 289.097 204.265 289.162 203.999 289.252C203.735 289.339 203.521 289.471 203.358 289.647C203.198 289.821 203.118 290.058 203.118 290.358C203.118 290.769 203.269 291.079 203.573 291.289C203.88 291.496 204.269 291.6 204.739 291.6ZM211.42 287.856V292.48H210.239V284.792H211.38V285.994H211.48C211.66 285.603 211.934 285.29 212.301 285.053C212.668 284.812 213.142 284.692 213.723 284.692C214.243 284.692 214.699 284.799 215.089 285.013C215.479 285.223 215.783 285.543 216 285.974C216.217 286.401 216.325 286.941 216.325 287.595V292.48H215.144V287.675C215.144 287.071 214.987 286.601 214.674 286.264C214.36 285.924 213.929 285.753 213.382 285.753C213.005 285.753 212.668 285.835 212.371 285.999C212.077 286.162 211.846 286.401 211.675 286.714C211.505 287.028 211.42 287.408 211.42 287.856ZM220.746 292.661C220.259 292.661 219.817 292.569 219.42 292.385C219.023 292.199 218.707 291.93 218.474 291.58C218.24 291.226 218.123 290.799 218.123 290.298C218.123 289.858 218.21 289.501 218.384 289.227C218.557 288.95 218.789 288.733 219.079 288.576C219.37 288.42 219.69 288.303 220.04 288.226C220.394 288.146 220.75 288.082 221.107 288.036C221.574 287.976 221.953 287.931 222.243 287.901C222.536 287.867 222.75 287.812 222.883 287.735C223.02 287.659 223.089 287.525 223.089 287.335V287.295C223.089 286.801 222.954 286.417 222.683 286.144C222.416 285.87 222.011 285.733 221.467 285.733C220.903 285.733 220.461 285.857 220.141 286.104C219.82 286.351 219.595 286.614 219.465 286.895L218.344 286.494C218.544 286.027 218.811 285.663 219.145 285.403C219.482 285.139 219.849 284.956 220.246 284.852C220.646 284.746 221.04 284.692 221.427 284.692C221.674 284.692 221.958 284.722 222.278 284.782C222.602 284.839 222.914 284.958 223.214 285.138C223.517 285.318 223.769 285.59 223.97 285.954C224.17 286.317 224.27 286.804 224.27 287.415V292.48H223.089V291.439H223.029C222.949 291.606 222.815 291.785 222.628 291.975C222.441 292.165 222.193 292.327 221.882 292.46C221.572 292.594 221.193 292.661 220.746 292.661ZM220.926 291.6C221.394 291.6 221.787 291.508 222.108 291.324C222.431 291.141 222.675 290.904 222.838 290.613C223.005 290.323 223.089 290.018 223.089 289.698V288.616C223.039 288.676 222.929 288.732 222.758 288.782C222.592 288.828 222.398 288.87 222.178 288.907C221.961 288.94 221.749 288.97 221.542 288.997C221.339 289.02 221.173 289.04 221.047 289.057C220.74 289.097 220.453 289.162 220.186 289.252C219.922 289.339 219.708 289.471 219.545 289.647C219.385 289.821 219.305 290.058 219.305 290.358C219.305 290.769 219.457 291.079 219.76 291.289C220.067 291.496 220.456 291.6 220.926 291.6ZM229.529 295.524C228.959 295.524 228.468 295.45 228.058 295.303C227.647 295.16 227.305 294.97 227.032 294.733C226.761 294.499 226.546 294.249 226.386 293.982L227.327 293.321C227.434 293.462 227.569 293.622 227.732 293.802C227.896 293.985 228.119 294.144 228.403 294.277C228.69 294.414 229.065 294.483 229.529 294.483C230.15 294.483 230.662 294.332 231.066 294.032C231.47 293.732 231.672 293.261 231.672 292.621V291.059H231.571C231.485 291.199 231.361 291.373 231.201 291.58C231.044 291.783 230.817 291.965 230.52 292.125C230.227 292.282 229.83 292.36 229.329 292.36C228.708 292.36 228.151 292.214 227.657 291.92C227.167 291.626 226.778 291.199 226.491 290.639C226.207 290.078 226.066 289.397 226.066 288.596C226.066 287.809 226.204 287.123 226.481 286.539C226.758 285.952 227.143 285.498 227.637 285.178C228.131 284.854 228.702 284.692 229.349 284.692C229.85 284.692 230.247 284.776 230.54 284.943C230.837 285.106 231.064 285.293 231.221 285.503C231.381 285.71 231.505 285.88 231.591 286.014H231.712V284.792H232.853V292.701C232.853 293.361 232.703 293.899 232.402 294.312C232.105 294.73 231.705 295.035 231.201 295.228C230.701 295.425 230.143 295.524 229.529 295.524ZM229.489 291.299C229.963 291.299 230.363 291.191 230.69 290.974C231.018 290.757 231.266 290.445 231.436 290.038C231.606 289.631 231.692 289.144 231.692 288.576C231.692 288.022 231.608 287.534 231.441 287.11C231.274 286.686 231.028 286.354 230.701 286.114C230.373 285.873 229.97 285.753 229.489 285.753C228.989 285.753 228.572 285.88 228.238 286.134C227.908 286.387 227.659 286.728 227.492 287.155C227.329 287.582 227.247 288.056 227.247 288.576C227.247 289.11 227.33 289.582 227.497 289.993C227.667 290.4 227.918 290.72 228.248 290.954C228.582 291.184 228.995 291.299 229.489 291.299ZM238.238 292.641C237.498 292.641 236.859 292.477 236.321 292.15C235.788 291.82 235.375 291.359 235.085 290.769C234.798 290.175 234.655 289.484 234.655 288.696C234.655 287.909 234.798 287.215 235.085 286.614C235.375 286.01 235.779 285.54 236.296 285.203C236.817 284.862 237.424 284.692 238.118 284.692C238.519 284.692 238.914 284.759 239.305 284.892C239.695 285.026 240.05 285.243 240.371 285.543C240.691 285.84 240.946 286.234 241.137 286.724C241.327 287.215 241.422 287.819 241.422 288.536V289.037H235.496V288.016H240.221C240.221 287.582 240.134 287.195 239.96 286.855C239.79 286.514 239.547 286.246 239.23 286.049C238.916 285.852 238.545 285.753 238.118 285.753C237.648 285.753 237.241 285.87 236.897 286.104C236.557 286.334 236.295 286.634 236.111 287.005C235.928 287.375 235.836 287.772 235.836 288.196V288.877C235.836 289.457 235.936 289.949 236.136 290.353C236.34 290.754 236.622 291.059 236.982 291.269C237.343 291.476 237.761 291.58 238.238 291.58C238.549 291.58 238.829 291.536 239.079 291.449C239.333 291.359 239.552 291.226 239.735 291.049C239.919 290.869 240.06 290.645 240.161 290.378L241.302 290.699C241.182 291.086 240.98 291.426 240.696 291.72C240.412 292.01 240.062 292.237 239.645 292.4C239.228 292.561 238.759 292.641 238.238 292.641ZM243.219 292.48V284.792H244.36V285.994H244.46C244.62 285.583 244.879 285.265 245.236 285.038C245.593 284.807 246.022 284.692 246.522 284.692C247.029 284.692 247.452 284.807 247.789 285.038C248.129 285.265 248.394 285.583 248.584 285.994H248.664C248.861 285.597 249.157 285.281 249.55 285.048C249.944 284.811 250.416 284.692 250.967 284.692C251.654 284.692 252.217 284.907 252.654 285.338C253.091 285.765 253.309 286.431 253.309 287.335V292.48H252.128V287.335C252.128 286.768 251.973 286.362 251.663 286.119C251.352 285.875 250.987 285.753 250.566 285.753C250.026 285.753 249.607 285.917 249.31 286.244C249.013 286.568 248.865 286.978 248.865 287.475V292.48H247.663V287.215C247.663 286.778 247.522 286.426 247.238 286.159C246.954 285.888 246.589 285.753 246.142 285.753C245.835 285.753 245.548 285.835 245.281 285.999C245.017 286.162 244.804 286.389 244.64 286.679C244.48 286.966 244.4 287.298 244.4 287.675V292.48H243.219ZM258.693 292.641C257.952 292.641 257.313 292.477 256.776 292.15C256.242 291.82 255.83 291.359 255.539 290.769C255.252 290.175 255.109 289.484 255.109 288.696C255.109 287.909 255.252 287.215 255.539 286.614C255.83 286.01 256.233 285.54 256.751 285.203C257.271 284.862 257.878 284.692 258.572 284.692C258.973 284.692 259.368 284.759 259.759 284.892C260.149 285.026 260.505 285.243 260.825 285.543C261.145 285.84 261.4 286.234 261.591 286.724C261.781 287.215 261.876 287.819 261.876 288.536V289.037H255.95V288.016H260.675C260.675 287.582 260.588 287.195 260.414 286.855C260.244 286.514 260.001 286.246 259.684 286.049C259.37 285.852 259 285.753 258.572 285.753C258.102 285.753 257.695 285.87 257.351 286.104C257.011 286.334 256.749 286.634 256.565 287.005C256.382 287.375 256.29 287.772 256.29 288.196V288.877C256.29 289.457 256.39 289.949 256.59 290.353C256.794 290.754 257.076 291.059 257.436 291.269C257.797 291.476 258.215 291.58 258.693 291.58C259.003 291.58 259.283 291.536 259.533 291.449C259.787 291.359 260.006 291.226 260.189 291.049C260.373 290.869 260.515 290.645 260.615 290.378L261.756 290.699C261.636 291.086 261.434 291.426 261.15 291.72C260.867 292.01 260.516 292.237 260.099 292.4C259.682 292.561 259.213 292.641 258.693 292.641ZM264.854 287.856V292.48H263.673V284.792H264.814V285.994H264.914C265.094 285.603 265.368 285.29 265.735 285.053C266.102 284.812 266.576 284.692 267.157 284.692C267.677 284.692 268.133 284.799 268.523 285.013C268.913 285.223 269.217 285.543 269.434 285.974C269.651 286.401 269.759 286.941 269.759 287.595V292.48H268.578V287.675C268.578 287.071 268.421 286.601 268.108 286.264C267.794 285.924 267.363 285.753 266.816 285.753C266.439 285.753 266.102 285.835 265.805 285.999C265.511 286.162 265.28 286.401 265.109 286.714C264.939 287.028 264.854 287.408 264.854 287.856ZM275.261 284.792V285.793H271.277V284.792H275.261ZM272.438 282.95H273.62V290.278C273.62 290.612 273.668 290.862 273.765 291.029C273.865 291.192 273.992 291.303 274.145 291.359C274.302 291.413 274.467 291.439 274.641 291.439C274.771 291.439 274.878 291.433 274.961 291.419C275.044 291.403 275.111 291.389 275.161 291.379L275.402 292.44C275.321 292.47 275.21 292.5 275.066 292.531C274.923 292.564 274.741 292.581 274.521 292.581C274.187 292.581 273.86 292.509 273.54 292.365C273.223 292.222 272.959 292.003 272.749 291.71C272.542 291.416 272.438 291.046 272.438 290.598V282.95ZM286.769 284.792C286.708 284.285 286.465 283.891 286.038 283.611C285.611 283.331 285.087 283.191 284.466 283.191C284.012 283.191 283.615 283.264 283.275 283.411C282.938 283.558 282.674 283.76 282.484 284.017C282.297 284.273 282.204 284.565 282.204 284.892C282.204 285.166 282.269 285.401 282.399 285.598C282.532 285.792 282.703 285.954 282.909 286.084C283.116 286.211 283.333 286.316 283.56 286.399C283.787 286.479 283.996 286.544 284.186 286.594L285.227 286.875C285.494 286.945 285.791 287.041 286.118 287.165C286.448 287.288 286.764 287.457 287.064 287.67C287.367 287.881 287.618 288.151 287.815 288.481C288.011 288.812 288.11 289.217 288.11 289.698C288.11 290.251 287.965 290.752 287.674 291.199C287.388 291.646 286.967 292.002 286.413 292.265C285.863 292.529 285.194 292.661 284.406 292.661C283.672 292.661 283.036 292.542 282.499 292.305C281.965 292.068 281.545 291.738 281.238 291.314C280.934 290.89 280.762 290.398 280.722 289.838H282.003C282.037 290.225 282.167 290.545 282.394 290.799C282.624 291.049 282.914 291.236 283.265 291.359C283.619 291.479 283.999 291.539 284.406 291.539C284.88 291.539 285.305 291.463 285.682 291.309C286.059 291.152 286.358 290.936 286.578 290.659C286.799 290.378 286.909 290.051 286.909 289.678C286.909 289.337 286.814 289.06 286.623 288.847C286.433 288.633 286.183 288.46 285.873 288.326C285.562 288.193 285.227 288.076 284.867 287.976L283.605 287.615C282.804 287.385 282.17 287.056 281.703 286.629C281.236 286.202 281.002 285.643 281.002 284.953C281.002 284.379 281.158 283.878 281.468 283.451C281.782 283.02 282.202 282.687 282.729 282.45C283.26 282.21 283.852 282.089 284.506 282.089C285.167 282.089 285.754 282.208 286.268 282.445C286.782 282.678 287.189 282.999 287.489 283.406C287.793 283.813 287.953 284.275 287.97 284.792H286.769ZM290.751 295.364C290.551 295.364 290.373 295.347 290.216 295.313C290.059 295.283 289.951 295.253 289.891 295.223L290.191 294.182C290.478 294.256 290.731 294.282 290.952 294.262C291.172 294.242 291.367 294.144 291.537 293.967C291.711 293.794 291.869 293.512 292.013 293.121L292.233 292.521L289.39 284.792H290.671L292.794 290.919H292.874L294.996 284.792H296.277L293.014 293.602C292.867 293.999 292.685 294.327 292.468 294.588C292.251 294.851 291.999 295.047 291.712 295.173C291.429 295.3 291.109 295.364 290.751 295.364ZM303.282 286.514L302.221 286.814C302.154 286.638 302.056 286.466 301.926 286.299C301.799 286.129 301.625 285.989 301.405 285.878C301.185 285.768 300.903 285.713 300.559 285.713C300.089 285.713 299.697 285.822 299.383 286.039C299.073 286.252 298.918 286.524 298.918 286.855C298.918 287.148 299.024 287.38 299.238 287.55C299.452 287.72 299.785 287.862 300.239 287.976L301.38 288.256C302.068 288.423 302.58 288.678 302.917 289.022C303.254 289.362 303.422 289.801 303.422 290.338C303.422 290.779 303.296 291.172 303.042 291.519C302.792 291.866 302.441 292.14 301.991 292.34C301.54 292.541 301.016 292.641 300.419 292.641C299.635 292.641 298.986 292.47 298.472 292.13C297.958 291.79 297.633 291.293 297.496 290.639L298.617 290.358C298.724 290.772 298.926 291.082 299.223 291.289C299.523 291.496 299.915 291.6 300.399 291.6C300.95 291.6 301.387 291.483 301.711 291.249C302.038 291.012 302.201 290.729 302.201 290.398C302.201 290.131 302.108 289.908 301.921 289.728C301.734 289.544 301.447 289.407 301.06 289.317L299.779 289.017C299.074 288.85 298.557 288.591 298.227 288.241C297.9 287.887 297.736 287.445 297.736 286.915C297.736 286.481 297.858 286.097 298.102 285.763C298.349 285.43 298.684 285.168 299.108 284.978C299.535 284.787 300.019 284.692 300.559 284.692C301.32 284.692 301.917 284.859 302.351 285.193C302.788 285.526 303.099 285.967 303.282 286.514ZM308.544 284.792V285.793H304.56V284.792H308.544ZM305.721 282.95H306.902V290.278C306.902 290.612 306.951 290.862 307.047 291.029C307.148 291.192 307.274 291.303 307.428 291.359C307.585 291.413 307.75 291.439 307.923 291.439C308.054 291.439 308.16 291.433 308.244 291.419C308.327 291.403 308.394 291.389 308.444 291.379L308.684 292.44C308.604 292.47 308.492 292.5 308.349 292.531C308.205 292.564 308.023 292.581 307.803 292.581C307.47 292.581 307.143 292.509 306.822 292.365C306.505 292.222 306.242 292.003 306.031 291.71C305.825 291.416 305.721 291.046 305.721 290.598V282.95ZM313.462 292.641C312.721 292.641 312.082 292.477 311.545 292.15C311.011 291.82 310.599 291.359 310.308 290.769C310.021 290.175 309.878 289.484 309.878 288.696C309.878 287.909 310.021 287.215 310.308 286.614C310.599 286.01 311.002 285.54 311.52 285.203C312.04 284.862 312.648 284.692 313.342 284.692C313.742 284.692 314.137 284.759 314.528 284.892C314.918 285.026 315.274 285.243 315.594 285.543C315.914 285.84 316.17 286.234 316.36 286.724C316.55 287.215 316.645 287.819 316.645 288.536V289.037H310.719V288.016H315.444C315.444 287.582 315.357 287.195 315.184 286.855C315.013 286.514 314.77 286.246 314.453 286.049C314.139 285.852 313.769 285.753 313.342 285.753C312.871 285.753 312.464 285.87 312.12 286.104C311.78 286.334 311.518 286.634 311.334 287.005C311.151 287.375 311.059 287.772 311.059 288.196V288.877C311.059 289.457 311.159 289.949 311.36 290.353C311.563 290.754 311.845 291.059 312.205 291.269C312.566 291.476 312.985 291.58 313.462 291.58C313.772 291.58 314.052 291.536 314.303 291.449C314.556 291.359 314.775 291.226 314.958 291.049C315.142 290.869 315.284 290.645 315.384 290.378L316.525 290.699C316.405 291.086 316.203 291.426 315.919 291.72C315.636 292.01 315.285 292.237 314.868 292.4C314.451 292.561 313.982 292.641 313.462 292.641ZM318.442 292.48V284.792H319.583V285.994H319.683C319.843 285.583 320.102 285.265 320.459 285.038C320.816 284.807 321.245 284.692 321.745 284.692C322.253 284.692 322.675 284.807 323.012 285.038C323.352 285.265 323.617 285.583 323.808 285.994H323.888C324.085 285.597 324.38 285.281 324.774 285.048C325.167 284.811 325.64 284.692 326.19 284.692C326.878 284.692 327.44 284.907 327.877 285.338C328.314 285.765 328.533 286.431 328.533 287.335V292.48H327.351V287.335C327.351 286.768 327.196 286.362 326.886 286.119C326.576 285.875 326.21 285.753 325.79 285.753C325.249 285.753 324.83 285.917 324.533 286.244C324.236 286.568 324.088 286.978 324.088 287.475V292.48H322.887V287.215C322.887 286.778 322.745 286.426 322.461 286.159C322.178 285.888 321.812 285.753 321.365 285.753C321.058 285.753 320.771 285.835 320.504 285.999C320.241 286.162 320.027 286.389 319.864 286.679C319.703 286.966 319.623 287.298 319.623 287.675V292.48H318.442Z" fill="#272727"/>
<path d="M173.925 167.25H96.9102V221.106H173.925V167.25Z" fill="#FECA57"/>
<path d="M121.576 187.284L98.9023 221.107H153.061L130.388 187.284C128.287 184.15 123.677 184.15 121.576 187.284Z" fill="#272727"/>
<path d="M135.112 187.071L111.836 221.106H167.086L143.81 187.071C141.717 184.013 137.203 184.013 135.112 187.071Z" fill="#0090A7"/>
<path d="M112.53 178.021C112.53 180.995 110.119 183.406 107.144 183.406C104.17 183.406 101.758 180.995 101.758 178.021C101.758 175.046 104.169 172.635 107.144 172.635C110.119 172.635 112.53 175.046 112.53 178.021Z" fill="#083A74"/>
<path d="M170.109 171.907H93.0938V225.763H170.109V171.907Z" stroke="black" stroke-width="0.5" stroke-miterlimit="10"/>
<path d="M226.281 180.45H188.52V203.107H226.281V180.45Z" fill="#E0E0E0"/>
<path d="M203.028 186.577L191.879 203.209H216.635L205.484 186.577C204.898 185.703 203.614 185.703 203.028 186.577Z" fill="#BCBCBC"/>
<path d="M209.206 186.516L197.789 203.21H223.043L211.626 186.516C211.043 185.665 209.787 185.665 209.206 186.516Z" fill="#CECECE"/>
<path d="M198.107 183.515C198.107 184.875 197.004 185.977 195.645 185.977C194.286 185.977 193.184 184.874 193.184 183.515C193.184 182.155 194.286 181.054 195.645 181.054C197.004 181.054 198.107 182.156 198.107 183.515Z" fill="#BCBCBC"/>
<path d="M268.359 180.45H230.598V203.107H268.359V180.45Z" fill="#E0E0E0"/>
<path d="M245.108 186.577L233.957 203.209H258.713L247.562 186.577C246.978 185.703 245.693 185.703 245.108 186.577Z" fill="#BCBCBC"/>
<path d="M251.288 186.516L239.871 203.21H265.125L253.708 186.516C253.125 185.665 251.869 185.665 251.288 186.516Z" fill="#CECECE"/>
<path d="M240.185 183.515C240.185 184.875 239.082 185.977 237.723 185.977C236.363 185.977 235.262 184.874 235.262 183.515C235.262 182.155 236.364 181.054 237.723 181.054C239.083 181.054 240.185 182.156 240.185 183.515Z" fill="#BCBCBC"/>
<path d="M268.357 169.661H188.52V171.818H268.357V169.661Z" fill="#E0E0E0"/>
<path d="M261.884 211.739H188.52V213.897H261.884V211.739Z" fill="#E0E0E0"/>
<path d="M362.22 179.372H288.855V181.529H362.22V179.372Z" fill="#E0E0E0"/>
<path d="M242.464 220.371H188.52V222.528H242.464V220.371Z" fill="#E0E0E0"/>
<path d="M342.8 188.003H288.855V190.16H342.8V188.003Z" fill="#E0E0E0"/>
<path d="M360.063 170.74H288.855V172.898H360.063V170.74Z" fill="#E0E0E0"/>
<path d="M201.974 236.752C200.67 236.752 199.512 237.009 198.5 237.522C197.503 238.02 196.66 238.746 195.971 239.699C195.297 240.652 194.784 241.802 194.432 243.151C194.08 244.5 193.904 246.017 193.904 247.703C193.904 249.975 194.183 251.917 194.74 253.53C195.312 255.128 196.191 256.352 197.379 257.202C198.566 258.037 200.098 258.455 201.974 258.455C203.279 258.455 204.584 258.309 205.888 258.015C207.208 257.722 208.637 257.304 210.176 256.762V262.479C208.754 263.065 207.354 263.483 205.976 263.732C204.598 263.996 203.052 264.128 201.337 264.128C198.024 264.128 195.297 263.447 193.157 262.083C191.031 260.705 189.455 258.785 188.429 256.322C187.403 253.845 186.89 250.957 186.89 247.659C186.89 245.225 187.22 242.997 187.88 240.974C188.539 238.951 189.507 237.199 190.782 235.719C192.057 234.238 193.633 233.095 195.51 232.289C197.386 231.482 199.541 231.079 201.974 231.079C203.572 231.079 205.17 231.285 206.768 231.695C208.38 232.091 209.92 232.64 211.385 233.344L209.187 238.885C207.985 238.314 206.775 237.815 205.558 237.39C204.342 236.965 203.147 236.752 201.974 236.752ZM230.648 263.688L222.908 238.467H222.71C222.739 239.068 222.783 239.977 222.842 241.194C222.915 242.396 222.981 243.679 223.039 245.042C223.098 246.405 223.127 247.637 223.127 248.736V263.688H217.037V231.541H226.316L233.924 256.124H234.056L242.126 231.541H251.405V263.688H245.05V248.472C245.05 247.461 245.065 246.295 245.094 244.976C245.138 243.657 245.189 242.403 245.248 241.216C245.307 240.014 245.351 239.112 245.38 238.511H245.182L236.892 263.688H230.648ZM278.495 254.761C278.495 256.667 278.033 258.323 277.11 259.731C276.186 261.138 274.837 262.223 273.064 262.985C271.305 263.747 269.164 264.128 266.643 264.128C265.529 264.128 264.437 264.055 263.367 263.908C262.311 263.762 261.292 263.549 260.31 263.271C259.343 262.978 258.419 262.618 257.54 262.193V255.861C259.064 256.535 260.647 257.143 262.289 257.686C263.931 258.228 265.558 258.499 267.171 258.499C268.285 258.499 269.179 258.353 269.853 258.059C270.542 257.766 271.041 257.363 271.349 256.85C271.656 256.337 271.81 255.751 271.81 255.091C271.81 254.285 271.539 253.596 270.997 253.024C270.454 252.452 269.707 251.917 268.754 251.419C267.816 250.92 266.753 250.385 265.566 249.814C264.818 249.462 264.004 249.037 263.125 248.538C262.245 248.025 261.41 247.402 260.618 246.669C259.827 245.936 259.174 245.049 258.661 244.009C258.163 242.953 257.913 241.692 257.913 240.227C257.913 238.306 258.353 236.664 259.233 235.301C260.112 233.938 261.366 232.897 262.993 232.179C264.635 231.446 266.57 231.079 268.798 231.079C270.469 231.079 272.06 231.277 273.569 231.673C275.094 232.054 276.684 232.611 278.341 233.344L276.142 238.643C274.662 238.042 273.335 237.581 272.162 237.258C270.989 236.921 269.795 236.752 268.578 236.752C267.728 236.752 267.002 236.892 266.401 237.17C265.8 237.434 265.346 237.815 265.038 238.314C264.73 238.797 264.576 239.362 264.576 240.007C264.576 240.769 264.796 241.414 265.236 241.942C265.69 242.455 266.364 242.953 267.259 243.437C268.168 243.921 269.296 244.485 270.645 245.13C272.287 245.907 273.687 246.721 274.845 247.571C276.018 248.406 276.919 249.396 277.549 250.539C278.18 251.668 278.495 253.075 278.495 254.761Z" fill="#083A74"/>
<path d="M502.48 255.854C502.48 263.547 496.233 269.793 488.541 269.793C488.454 269.793 488.368 269.793 488.282 269.782V269.793H416.556C415.952 269.793 415.359 269.75 414.776 269.675C407.914 268.801 402.617 262.943 402.617 255.854C402.617 248.151 408.853 241.915 416.556 241.915C418.272 241.915 419.923 242.227 421.443 242.8C421.066 241.213 420.86 239.562 420.86 237.858C420.86 226.097 430.397 216.561 442.157 216.561C451.425 216.561 459.323 222.494 462.236 230.781C464.501 229.162 467.296 228.224 470.284 228.224C477.987 228.224 484.223 234.46 484.223 242.163C484.223 242.314 484.223 242.454 484.213 242.605C485.571 242.151 487.028 241.914 488.539 241.914C496.233 241.915 502.48 248.151 502.48 255.854Z" fill="#0090A7"/>
<path d="M416.558 269.794H414.777V269.676C415.36 269.751 415.953 269.794 416.558 269.794Z" fill="#0090A7"/>
<path d="M493.847 260.17C493.847 267.862 487.6 274.109 479.908 274.109C479.821 274.109 479.735 274.109 479.649 274.098V274.109H407.923C407.319 274.109 406.726 274.066 406.143 273.991C399.282 273.117 393.984 267.259 393.984 260.17C393.984 252.466 400.221 246.231 407.923 246.231C409.639 246.231 411.29 246.544 412.81 247.116C412.433 245.53 412.227 243.879 412.227 242.175C412.227 230.415 421.764 220.878 433.524 220.878C442.792 220.878 450.69 226.812 453.603 235.098C455.869 233.48 458.663 232.541 461.652 232.541C469.354 232.541 475.591 238.777 475.591 246.48C475.591 246.631 475.591 246.771 475.58 246.923C476.94 246.469 478.396 246.232 479.906 246.232C487.601 246.231 493.847 252.467 493.847 260.17Z" stroke="black" stroke-width="0.5" stroke-miterlimit="10"/>
<path d="M407.925 274.11H406.145V273.991C406.728 274.067 407.321 274.11 407.925 274.11Z" stroke="black" stroke-width="0.5" stroke-miterlimit="10"/>
<path d="M116.772 125.73C116.772 126.921 115.806 127.887 114.614 127.887C113.423 127.887 112.457 126.921 112.457 125.73C112.457 124.537 113.423 123.572 114.614 123.572C115.806 123.571 116.772 124.537 116.772 125.73Z" stroke="black" stroke-width="0.5" stroke-miterlimit="10"/>
<path d="M116.772 134.36C116.772 135.552 115.806 136.518 114.614 136.518C113.423 136.518 112.457 135.552 112.457 134.36C112.457 133.169 113.423 132.203 114.614 132.203C115.806 132.203 116.772 133.168 116.772 134.36Z" stroke="black" stroke-width="0.5" stroke-miterlimit="10"/>
<path d="M116.772 142.991C116.772 144.183 115.806 145.149 114.614 145.149C113.423 145.149 112.457 144.183 112.457 142.991C112.457 141.799 113.423 140.834 114.614 140.834C115.806 140.834 116.772 141.8 116.772 142.991Z" stroke="black" stroke-width="0.5" stroke-miterlimit="10"/>
<path d="M162.623 51.4229H67.6797V116.742H162.623V51.4229Z" fill="#0090A7"/>
<path d="M158.306 55.7363H63.3633V121.056H158.306V55.7363Z" stroke="black" stroke-width="0.5" stroke-miterlimit="10"/>
<path d="M141.162 68.376V102.077H110.137V59.7705H131.852L141.162 68.376Z" fill="#083A74"/>
<path d="M141.193 68.4049L141.161 68.4084L131.223 69.7086L131.73 59.7706L131.737 59.6641L131.85 59.7706L141.161 68.3761L141.193 68.4049Z" fill="#272727"/>
<path d="M121.138 75.6573V109.359H90.1133V67.0518H111.827L121.138 75.6573Z" fill="white"/>
<path d="M121.17 75.6861L121.137 75.6897L111.199 76.9899L111.707 67.0519L111.714 66.9453L111.827 67.0519L121.137 75.6574L121.17 75.6861Z" fill="#272727"/>
<path d="M120.547 267.842H6.18359V329.339H120.547V267.842Z" fill="#0090A7"/>
<path d="M114.613 273.775H0.25V335.272H114.613V273.775Z" stroke="black" stroke-width="0.5" stroke-miterlimit="10"/>
<path d="M39.6289 287.427H63.3647" stroke="white" stroke-width="0.5" stroke-miterlimit="10"/>
<path d="M67.6797 287.8H111.914" stroke="white" stroke-width="0.5" stroke-miterlimit="10"/>
<path d="M39.6289 295.354H83.8644" stroke="white" stroke-width="0.5" stroke-miterlimit="10"/>
<path d="M12.6562 303.984H56.8905" stroke="white" stroke-width="0.5" stroke-miterlimit="10"/>
<path d="M63.3633 303.984H112.992" stroke="white" stroke-width="0.5" stroke-miterlimit="10"/>
<path d="M12.6562 311.536H87.0996" stroke="white" stroke-width="0.5" stroke-miterlimit="10"/>
<path d="M20.1672 292.923L19.4746 290.649H15.9921L15.2995 292.923H13.1172L16.4886 283.331H18.965L22.3495 292.923H20.1672ZM18.9911 288.95L18.2985 286.729C18.255 286.581 18.1962 286.391 18.1221 286.16C18.0524 285.925 17.9805 285.688 17.9065 285.448C17.8368 285.204 17.7802 284.993 17.7366 284.814C17.6931 284.993 17.6321 285.215 17.5537 285.481C17.4796 285.742 17.4077 285.99 17.338 286.226C17.2684 286.461 17.2183 286.629 17.1878 286.729L16.5017 288.95H18.9911ZM26.3939 285.468C27.374 285.468 28.1254 285.681 28.6481 286.108C29.1708 286.535 29.4322 287.184 29.4322 288.055V292.923H28.0405L27.655 291.93H27.6027C27.3936 292.191 27.1802 292.405 26.9624 292.57C26.7446 292.736 26.4941 292.858 26.211 292.936C25.9279 293.014 25.5838 293.054 25.1787 293.054C24.7474 293.054 24.3597 292.971 24.0156 292.805C23.6759 292.64 23.408 292.387 23.212 292.047C23.016 291.703 22.9179 291.268 22.9179 290.741C22.9179 289.965 23.1902 289.395 23.7347 289.029C24.2792 288.658 25.0959 288.454 26.1849 288.415L27.4524 288.375V288.055C27.4524 287.672 27.3522 287.391 27.1519 287.212C26.9515 287.034 26.6727 286.944 26.3155 286.944C25.9627 286.944 25.6164 286.994 25.2767 287.095C24.9369 287.195 24.5971 287.321 24.2574 287.474L23.5975 286.128C23.9851 285.923 24.4185 285.762 24.8977 285.644C25.3812 285.527 25.88 285.468 26.3939 285.468ZM27.4524 289.538L26.6814 289.564C26.0368 289.582 25.5881 289.697 25.3355 289.911C25.0872 290.124 24.963 290.405 24.963 290.754C24.963 291.059 25.0523 291.276 25.2309 291.407C25.4095 291.533 25.6426 291.596 25.93 291.596C26.3569 291.596 26.7163 291.47 27.0081 291.218C27.3043 290.965 27.4524 290.606 27.4524 290.139V289.538Z" fill="#272727"/>
<path d="M22.3274 292.923L21.6348 290.649H18.1522L17.4596 292.923H15.2773L18.6488 283.331H21.1251L24.5097 292.923H22.3274ZM21.1513 288.95L20.4587 286.729C20.4151 286.581 20.3563 286.391 20.2823 286.16C20.2126 285.925 20.1407 285.688 20.0666 285.448C19.997 285.204 19.9403 284.993 19.8968 284.814C19.8532 284.993 19.7922 285.215 19.7138 285.481C19.6398 285.742 19.5679 285.99 19.4982 286.226C19.4285 286.461 19.3784 286.629 19.3479 286.729L18.6619 288.95H21.1513ZM28.5541 285.468C29.5342 285.468 30.2856 285.681 30.8083 286.108C31.331 286.535 31.5923 287.184 31.5923 288.055V292.923H30.2006L29.8151 291.93H29.7629C29.5538 292.191 29.3403 292.405 29.1225 292.57C28.9048 292.736 28.6543 292.858 28.3712 292.936C28.088 293.014 27.7439 293.054 27.3388 293.054C26.9076 293.054 26.5199 292.971 26.1758 292.805C25.836 292.64 25.5681 292.387 25.3721 292.047C25.1761 291.703 25.0781 291.268 25.0781 290.741C25.0781 289.965 25.3503 289.395 25.8948 289.029C26.4393 288.658 27.256 288.454 28.345 288.415L29.6126 288.375V288.055C29.6126 287.672 29.5124 287.391 29.312 287.212C29.1117 287.034 28.8329 286.944 28.4757 286.944C28.1229 286.944 27.7766 286.994 27.4368 287.095C27.0971 287.195 26.7573 287.321 26.4175 287.474L25.7576 286.128C26.1453 285.923 26.5787 285.762 27.0579 285.644C27.5414 285.527 28.0401 285.468 28.5541 285.468ZM29.6126 289.538L28.8416 289.564C28.1969 289.582 27.7483 289.697 27.4956 289.911C27.2473 290.124 27.1232 290.405 27.1232 290.754C27.1232 291.059 27.2125 291.276 27.3911 291.407C27.5697 291.533 27.8027 291.596 28.0902 291.596C28.5171 291.596 28.8764 291.47 29.1683 291.218C29.4645 290.965 29.6126 290.606 29.6126 290.139V289.538Z" fill="white"/>
<path d="M377.276 124.888C377.276 126.079 376.31 127.045 375.118 127.045C373.926 127.045 372.961 126.079 372.961 124.888C372.961 123.697 373.927 122.73 375.118 122.73C376.31 122.73 377.276 123.697 377.276 124.888Z" stroke="black" stroke-width="0.5" stroke-miterlimit="10"/>
<path d="M377.276 133.519C377.276 134.71 376.31 135.676 375.118 135.676C373.926 135.676 372.961 134.71 372.961 133.519C372.961 132.327 373.927 131.361 375.118 131.361C376.31 131.361 377.276 132.327 377.276 133.519Z" stroke="black" stroke-width="0.5" stroke-miterlimit="10"/>
<path d="M377.276 142.151C377.276 143.343 376.31 144.308 375.118 144.308C373.926 144.308 372.961 143.342 372.961 142.151C372.961 140.959 373.927 139.993 375.118 139.993C376.31 139.993 377.276 140.958 377.276 142.151Z" stroke="black" stroke-width="0.5" stroke-miterlimit="10"/>
<path d="M422.376 45.5869H323.754V114.553H422.376V45.5869Z" fill="#130F40"/>
<path d="M420.482 47.1074H325.539V112.427H420.482V47.1074Z" fill="#272727"/>
<path d="M417.249 107.085H328.098V109.242H417.249V107.085Z" fill="white"/>
<path d="M366.54 107.085H327.699V109.242H366.54V107.085Z" fill="#083A74"/>
<path d="M385.198 79.7317L366.629 90.4527V69.0107L385.198 79.7317Z" fill="#083A74"/>
<path d="M380.669 95.3647C390.424 91.2779 395.019 80.0572 390.932 70.3024C386.845 60.5477 375.624 55.9529 365.87 60.0397C356.115 64.1265 351.52 75.3472 355.607 85.1019C359.694 94.8567 370.914 99.4514 380.669 95.3647Z" stroke="white" stroke-width="0.5" stroke-miterlimit="10"/>
<path d="M430.948 38.8408H328.098V51.5839H430.948V38.8408Z" fill="white"/>
<path d="M337.768 44.8695C337.768 45.862 336.964 46.6677 335.97 46.6677C334.976 46.6677 334.172 45.862 334.172 44.8695C334.172 43.877 334.976 43.0713 335.97 43.0713C336.963 43.0713 337.768 43.877 337.768 44.8695Z" fill="#083A74"/>
<path d="M344.964 44.8695C344.964 45.862 344.159 46.6677 343.165 46.6677C342.172 46.6677 341.367 45.862 341.367 44.8695C341.367 43.877 342.172 43.0713 343.165 43.0713C344.159 43.0713 344.964 43.877 344.964 44.8695Z" fill="#FECA57"/>
<path d="M352.514 44.8695C352.514 45.862 351.71 46.6677 350.716 46.6677C349.723 46.6677 348.918 45.862 348.918 44.8695C348.918 43.877 349.723 43.0713 350.716 43.0713C351.71 43.0713 352.514 43.877 352.514 44.8695Z" fill="#0090A7"/>
<path d="M301.802 6.10742H206.859V71.4269H301.802V6.10742Z" fill="#083A74"/>
<path d="M242.462 33.7009L226.307 43.0271L242.462 52.3545V56.2263L219.602 43.0271L242.462 29.8291V33.7009Z" fill="#272727"/>
<path d="M267.277 27.6049L283.432 36.9323L267.277 46.2598V50.1303L290.138 36.9323L267.277 23.7344V27.6049Z" fill="#272727"/>
<path d="M265.07 22.2688L262.598 21.082L245.716 56.2547L248.188 57.4415L265.07 22.2688Z" fill="#272727"/>
<path d="M296.408 10.4238H201.465V75.7433H296.408V10.4238Z" stroke="black" stroke-width="0.5" stroke-miterlimit="10"/>
<path d="M254.869 81.7316C254.869 82.9228 253.903 83.8889 252.712 83.8889C251.521 83.8889 250.555 82.9228 250.555 81.7316C250.555 80.5404 251.521 79.5742 252.712 79.5742C253.903 79.573 254.869 80.5392 254.869 81.7316Z" stroke="black" stroke-width="0.5" stroke-miterlimit="10"/>
<path d="M254.869 90.3624C254.869 91.5537 253.903 92.5198 252.712 92.5198C251.521 92.5198 250.555 91.5537 250.555 90.3624C250.555 89.1712 251.521 88.2051 252.712 88.2051C253.903 88.2051 254.869 89.1712 254.869 90.3624Z" stroke="black" stroke-width="0.5" stroke-miterlimit="10"/>
<path d="M254.869 98.9943C254.869 100.185 253.903 101.152 252.712 101.152C251.521 101.152 250.555 100.185 250.555 98.9943C250.555 97.8031 251.521 96.8369 252.712 96.8369C253.903 96.8357 254.869 97.8019 254.869 98.9943Z" stroke="black" stroke-width="0.5" stroke-miterlimit="10"/>
<path d="M254.869 107.625C254.869 108.816 253.903 109.783 252.712 109.783C251.521 109.783 250.555 108.816 250.555 107.625C250.555 106.434 251.521 105.468 252.712 105.468C253.903 105.468 254.869 106.434 254.869 107.625Z" stroke="black" stroke-width="0.5" stroke-miterlimit="10"/>
<path d="M254.869 116.255C254.869 117.446 253.903 118.412 252.712 118.412C251.521 118.412 250.555 117.446 250.555 116.255C250.555 115.064 251.521 114.098 252.712 114.098C253.903 114.098 254.869 115.064 254.869 116.255Z" stroke="black" stroke-width="0.5" stroke-miterlimit="10"/>
<path d="M254.869 124.887C254.869 126.078 253.903 127.044 252.712 127.044C251.521 127.044 250.555 126.078 250.555 124.887C250.555 123.696 251.521 122.729 252.712 122.729C253.903 122.729 254.869 123.696 254.869 124.887Z" stroke="black" stroke-width="0.5" stroke-miterlimit="10"/>
<path d="M254.869 133.518C254.869 134.709 253.903 135.675 252.712 135.675C251.521 135.675 250.555 134.709 250.555 133.518C250.555 132.326 251.521 131.36 252.712 131.36C253.903 131.36 254.869 132.326 254.869 133.518Z" stroke="black" stroke-width="0.5" stroke-miterlimit="10"/>
<path d="M254.869 142.15C254.869 143.342 253.903 144.307 252.712 144.307C251.521 144.307 250.555 143.341 250.555 142.15C250.555 140.958 251.521 139.992 252.712 139.992C253.903 139.992 254.869 140.957 254.869 142.15Z" stroke="black" stroke-width="0.5" stroke-miterlimit="10"/>
<path d="M314.425 0H211.574V12.743H314.425V0Z" fill="white"/>
<path d="M221.245 6.02964C221.245 7.02332 220.439 7.82784 219.447 7.82784C218.453 7.82784 217.648 7.02332 217.648 6.02964C217.648 5.03716 218.453 4.23145 219.447 4.23145C220.439 4.23145 221.245 5.03597 221.245 6.02964Z" fill="#083A74"/>
<path d="M228.44 6.02964C228.44 7.02332 227.634 7.82784 226.642 7.82784C225.648 7.82784 224.844 7.02332 224.844 6.02964C224.844 5.03716 225.648 4.23145 226.642 4.23145C227.634 4.23145 228.44 5.03597 228.44 6.02964Z" fill="#FECA57"/>
<path d="M235.991 6.02964C235.991 7.02332 235.185 7.82784 234.193 7.82784C233.2 7.82784 232.395 7.02332 232.395 6.02964C232.395 5.03716 233.2 4.23145 234.193 4.23145C235.185 4.23145 235.991 5.03597 235.991 6.02964Z" fill="#0090A7"/>
<path d="M65.5251 188.478V224.846H40.3766L32.3925 238.679L24.4095 224.846H12.6602V188.478H65.5251Z" fill="#083A74"/>
<path d="M61.2099 191.714V228.084H36.0602L28.0773 241.915L20.0931 228.084H8.34375V191.714H61.2099Z" stroke="black" stroke-width="0.5" stroke-miterlimit="10"/>
<path d="M27.7647 206.344C27.7647 208.728 25.8324 210.66 23.4487 210.66C21.0651 210.66 19.1328 208.728 19.1328 206.344C19.1328 203.961 21.0651 202.028 23.4487 202.028C25.8324 202.028 27.7647 203.961 27.7647 206.344Z" fill="white"/>
<path d="M43.9482 206.344C43.9482 208.728 42.016 210.66 39.6323 210.66C37.2487 210.66 35.3164 208.728 35.3164 206.344C35.3164 203.961 37.2487 202.028 39.6323 202.028C42.016 202.028 43.9482 203.961 43.9482 206.344Z" fill="white"/>
<path d="M60.1318 206.344C60.1318 208.728 58.1996 210.66 55.8159 210.66C53.4323 210.66 51.5 208.728 51.5 206.344C51.5 203.961 53.4323 202.028 55.8159 202.028C58.1996 202.028 60.1318 203.961 60.1318 206.344Z" fill="white"/>
<path d="M475.501 322.865H319.004V407.019H475.501V322.865Z" fill="#FECA57"/>
<path d="M346.992 337.406L343.666 350.478H340.51L338.74 343.611C338.704 343.48 338.656 343.28 338.597 343.012C338.537 342.744 338.475 342.451 338.409 342.136C338.343 341.814 338.284 341.513 338.23 341.232C338.182 340.946 338.15 340.72 338.132 340.553C338.114 340.72 338.078 340.943 338.024 341.224C337.977 341.504 337.92 341.802 337.855 342.118C337.795 342.434 337.735 342.729 337.676 343.003C337.616 343.277 337.568 343.486 337.533 343.629L335.771 350.478H332.624L329.289 337.406H332.016L333.688 344.541C333.736 344.755 333.789 345.012 333.849 345.31C333.915 345.608 333.977 345.921 334.037 346.248C334.102 346.57 334.159 346.883 334.207 347.187C334.26 347.485 334.299 347.745 334.323 347.965C334.353 347.739 334.391 347.476 334.439 347.178C334.487 346.874 334.537 346.567 334.591 346.257C334.651 345.941 334.71 345.649 334.77 345.381C334.83 345.113 334.883 344.895 334.931 344.728L336.835 337.406H339.455L341.359 344.728C341.401 344.889 341.449 345.107 341.503 345.381C341.562 345.649 341.622 345.941 341.681 346.257C341.741 346.573 341.795 346.883 341.842 347.187C341.896 347.485 341.935 347.745 341.959 347.965C342 347.667 342.057 347.306 342.128 346.883C342.206 346.454 342.286 346.028 342.37 345.605C342.459 345.181 342.537 344.827 342.602 344.541L344.265 337.406H346.992ZM364.696 337.406L361.37 350.478H358.213L356.443 343.611C356.407 343.48 356.36 343.28 356.3 343.012C356.24 342.744 356.178 342.451 356.112 342.136C356.047 341.814 355.987 341.513 355.933 341.232C355.886 340.946 355.853 340.72 355.835 340.553C355.817 340.72 355.781 340.943 355.728 341.224C355.68 341.504 355.623 341.802 355.558 342.118C355.498 342.434 355.439 342.729 355.379 343.003C355.319 343.277 355.272 343.486 355.236 343.629L353.475 350.478H350.327L346.992 337.406H349.719L351.391 344.541C351.439 344.755 351.493 345.012 351.552 345.31C351.618 345.608 351.68 345.921 351.74 346.248C351.806 346.57 351.862 346.883 351.91 347.187C351.964 347.485 352.002 347.745 352.026 347.965C352.056 347.739 352.095 347.476 352.142 347.178C352.19 346.874 352.241 346.567 352.294 346.257C352.354 345.941 352.414 345.649 352.473 345.381C352.533 345.113 352.586 344.895 352.634 344.728L354.539 337.406H357.158L359.063 344.728C359.105 344.889 359.152 345.107 359.206 345.381C359.265 345.649 359.325 345.941 359.385 346.257C359.444 346.573 359.498 346.883 359.546 347.187C359.599 347.485 359.638 347.745 359.662 347.965C359.704 347.667 359.76 347.306 359.832 346.883C359.909 346.454 359.99 346.028 360.073 345.605C360.163 345.181 360.24 344.827 360.306 344.541L361.969 337.406H364.696ZM382.399 337.406L379.073 350.478H375.917L374.146 343.611C374.111 343.48 374.063 343.28 374.003 343.012C373.944 342.744 373.881 342.451 373.816 342.136C373.75 341.814 373.69 341.513 373.637 341.232C373.589 340.946 373.556 340.72 373.538 340.553C373.521 340.72 373.485 340.943 373.431 341.224C373.383 341.504 373.327 341.802 373.261 342.118C373.202 342.434 373.142 342.729 373.082 343.003C373.023 343.277 372.975 343.486 372.939 343.629L371.178 350.478H368.031L364.696 337.406H367.423L369.095 344.541C369.142 344.755 369.196 345.012 369.256 345.31C369.321 345.608 369.384 345.921 369.443 346.248C369.509 346.57 369.566 346.883 369.613 347.187C369.667 347.485 369.706 347.745 369.729 347.965C369.759 347.739 369.798 347.476 369.846 347.178C369.893 346.874 369.944 346.567 369.998 346.257C370.057 345.941 370.117 345.649 370.177 345.381C370.236 345.113 370.29 344.895 370.337 344.728L372.242 337.406H374.862L376.766 344.728C376.808 344.889 376.856 345.107 376.909 345.381C376.969 345.649 377.028 345.941 377.088 346.257C377.148 346.573 377.201 346.883 377.249 347.187C377.303 347.485 377.341 347.745 377.365 347.965C377.407 347.667 377.464 347.306 377.535 346.883C377.613 346.454 377.693 346.028 377.776 345.605C377.866 345.181 377.943 344.827 378.009 344.541L379.672 337.406H382.399Z" fill="#272727"/>
<path d="M349.149 337.406L345.823 350.478H342.666L340.896 343.611C340.86 343.48 340.813 343.28 340.753 343.012C340.693 342.744 340.631 342.451 340.565 342.136C340.5 341.814 340.44 341.513 340.386 341.232C340.339 340.946 340.306 340.72 340.288 340.553C340.27 340.72 340.234 340.943 340.181 341.224C340.133 341.504 340.076 341.802 340.011 342.118C339.951 342.434 339.892 342.729 339.832 343.003C339.772 343.277 339.725 343.486 339.689 343.629L337.928 350.478H334.78L331.445 337.406H334.172L335.844 344.541C335.892 344.755 335.946 345.012 336.005 345.31C336.071 345.608 336.133 345.921 336.193 346.248C336.259 346.57 336.315 346.883 336.363 347.187C336.417 347.485 336.455 347.745 336.479 347.965C336.509 347.739 336.548 347.476 336.595 347.178C336.643 346.874 336.694 346.567 336.747 346.257C336.807 345.941 336.867 345.649 336.926 345.381C336.986 345.113 337.039 344.895 337.087 344.728L338.992 337.406H341.611L343.516 344.728C343.557 344.889 343.605 345.107 343.659 345.381C343.718 345.649 343.778 345.941 343.838 346.257C343.897 346.573 343.951 346.883 343.999 347.187C344.052 347.485 344.091 347.745 344.115 347.965C344.157 347.667 344.213 347.306 344.285 346.883C344.362 346.454 344.443 346.028 344.526 345.605C344.616 345.181 344.693 344.827 344.759 344.541L346.422 337.406H349.149ZM366.852 337.406L363.526 350.478H360.37L358.599 343.611C358.564 343.48 358.516 343.28 358.456 343.012C358.397 342.744 358.334 342.451 358.269 342.136C358.203 341.814 358.143 341.513 358.09 341.232C358.042 340.946 358.009 340.72 357.991 340.553C357.973 340.72 357.938 340.943 357.884 341.224C357.836 341.504 357.78 341.802 357.714 342.118C357.655 342.434 357.595 342.729 357.535 343.003C357.476 343.277 357.428 343.486 357.392 343.629L355.631 350.478H352.484L349.149 337.406H351.876L353.548 344.541C353.595 344.755 353.649 345.012 353.709 345.31C353.774 345.608 353.837 345.921 353.896 346.248C353.962 346.57 354.019 346.883 354.066 347.187C354.12 347.485 354.159 347.745 354.182 347.965C354.212 347.739 354.251 347.476 354.299 347.178C354.346 346.874 354.397 346.567 354.451 346.257C354.51 345.941 354.57 345.649 354.629 345.381C354.689 345.113 354.743 344.895 354.79 344.728L356.695 337.406H359.315L361.219 344.728C361.261 344.889 361.308 345.107 361.362 345.381C361.422 345.649 361.481 345.941 361.541 346.257C361.601 346.573 361.654 346.883 361.702 347.187C361.756 347.485 361.794 347.745 361.818 347.965C361.86 347.667 361.916 347.306 361.988 346.883C362.065 346.454 362.146 346.028 362.229 345.605C362.319 345.181 362.396 344.827 362.462 344.541L364.125 337.406H366.852ZM384.555 337.406L381.229 350.478H378.073L376.303 343.611C376.267 343.48 376.219 343.28 376.16 343.012C376.1 342.744 376.037 342.451 375.972 342.136C375.906 341.814 375.847 341.513 375.793 341.232C375.745 340.946 375.713 340.72 375.695 340.553C375.677 340.72 375.641 340.943 375.587 341.224C375.54 341.504 375.483 341.802 375.417 342.118C375.358 342.434 375.298 342.729 375.239 343.003C375.179 343.277 375.131 343.486 375.096 343.629L373.334 350.478H370.187L366.852 337.406H369.579L371.251 344.541C371.299 344.755 371.352 345.012 371.412 345.31C371.477 345.608 371.54 345.921 371.6 346.248C371.665 346.57 371.722 346.883 371.77 347.187C371.823 347.485 371.862 347.745 371.886 347.965C371.916 347.739 371.954 347.476 372.002 347.178C372.05 346.874 372.1 346.567 372.154 346.257C372.214 345.941 372.273 345.649 372.333 345.381C372.392 345.113 372.446 344.895 372.494 344.728L374.398 337.406H377.018L378.922 344.728C378.964 344.889 379.012 345.107 379.065 345.381C379.125 345.649 379.185 345.941 379.244 346.257C379.304 346.573 379.357 346.883 379.405 347.187C379.459 347.485 379.498 347.745 379.521 347.965C379.563 347.667 379.62 347.306 379.691 346.883C379.769 346.454 379.849 346.028 379.933 345.605C380.022 345.181 380.1 344.827 380.165 344.541L381.828 337.406H384.555Z" fill="white"/>
<path d="M470.108 378.968H423.715V381.125H470.108V378.968Z" fill="white"/>
<path d="M457.827 387.6H423.715V389.757H457.827V387.6Z" fill="white"/>
<path d="M457.827 361.705H423.715V363.862H457.827V361.705Z" fill="white"/>
<path d="M468.743 370.337H423.715V372.494H468.743V370.337Z" fill="white"/>
<path d="M457.161 334.733H423.715V355.232H457.161V334.733Z" fill="#083A74"/>
<path d="M469.565 326.642H308.27V413.438H469.565V326.642Z" stroke="black" stroke-width="0.5" stroke-miterlimit="10"/>
<path d="M392.424 361.729H329.309V391.375H392.424V361.729Z" fill="white"/>
<path d="M385.952 363.413H320.68V394.072H385.952V363.413Z" stroke="black" stroke-width="0.5" stroke-miterlimit="10"/>
<path d="M231.131 377.349C231.131 378.54 230.165 379.506 228.974 379.506C227.783 379.506 226.816 378.54 226.816 377.349C226.816 376.158 227.783 375.191 228.974 375.191C230.165 375.191 231.131 376.158 231.131 377.349Z" stroke="black" stroke-width="0.5" stroke-miterlimit="10"/>
<path d="M231.131 385.981C231.131 387.172 230.165 388.138 228.974 388.138C227.783 388.138 226.816 387.172 226.816 385.981C226.816 384.789 227.783 383.823 228.974 383.823C230.165 383.822 231.131 384.788 231.131 385.981Z" stroke="black" stroke-width="0.5" stroke-miterlimit="10"/>
<path d="M231.131 394.611C231.131 395.803 230.165 396.769 228.974 396.769C227.783 396.769 226.816 395.803 226.816 394.611C226.816 393.42 227.783 392.454 228.974 392.454C230.165 392.454 231.131 393.42 231.131 394.611Z" stroke="black" stroke-width="0.5" stroke-miterlimit="10"/>
<path d="M231.131 403.243C231.131 404.435 230.165 405.401 228.974 405.401C227.783 405.401 226.816 404.435 226.816 403.243C226.816 402.051 227.783 401.086 228.974 401.086C230.165 401.085 231.131 402.051 231.131 403.243Z" stroke="black" stroke-width="0.5" stroke-miterlimit="10"/>
<path d="M239.763 401.084C240.954 401.084 241.92 402.05 241.92 403.241C241.92 404.433 240.954 405.399 239.763 405.399C238.572 405.399 237.605 404.433 237.605 403.241C237.605 402.05 238.572 401.084 239.763 401.084Z" stroke="black" stroke-width="0.5" stroke-miterlimit="10"/>
<path d="M248.396 401.084C249.587 401.084 250.553 402.05 250.553 403.241C250.553 404.433 249.587 405.399 248.396 405.399C247.204 405.399 246.238 404.433 246.238 403.241C246.237 402.05 247.203 401.084 248.396 401.084Z" stroke="black" stroke-width="0.5" stroke-miterlimit="10"/>
<path d="M257.025 401.084C258.216 401.084 259.182 402.05 259.182 403.241C259.182 404.433 258.216 405.399 257.025 405.399C255.833 405.399 254.867 404.433 254.867 403.241C254.867 402.05 255.833 401.084 257.025 401.084Z" stroke="black" stroke-width="0.5" stroke-miterlimit="10"/>
<path d="M265.657 401.084C266.849 401.084 267.815 402.05 267.815 403.241C267.815 404.433 266.849 405.399 265.657 405.399C264.465 405.399 263.5 404.433 263.5 403.241C263.499 402.05 264.465 401.084 265.657 401.084Z" stroke="black" stroke-width="0.5" stroke-miterlimit="10"/>
<path d="M274.286 401.084C275.477 401.084 276.444 402.05 276.444 403.241C276.444 404.433 275.477 405.399 274.286 405.399C273.095 405.399 272.129 404.433 272.129 403.241C272.129 402.05 273.095 401.084 274.286 401.084Z" stroke="black" stroke-width="0.5" stroke-miterlimit="10"/>
<path d="M282.919 401.084C284.11 401.084 285.076 402.05 285.076 403.241C285.076 404.433 284.11 405.399 282.919 405.399C281.728 405.399 280.762 404.433 280.762 403.241C280.761 402.05 281.727 401.084 282.919 401.084Z" stroke="black" stroke-width="0.5" stroke-miterlimit="10"/>
<path d="M291.552 401.084C292.743 401.084 293.709 402.05 293.709 403.241C293.709 404.433 292.743 405.399 291.552 405.399C290.361 405.399 289.395 404.433 289.395 403.241C289.395 402.05 290.361 401.084 291.552 401.084Z" stroke="black" stroke-width="0.5" stroke-miterlimit="10"/>
<path d="M300.181 401.084C301.372 401.084 302.338 402.05 302.338 403.241C302.338 404.433 301.372 405.399 300.181 405.399C298.988 405.399 298.023 404.433 298.023 403.241C298.022 402.05 298.988 401.084 300.181 401.084Z" stroke="black" stroke-width="0.5" stroke-miterlimit="10"/>
<path d="M418.859 376.271H462.599" stroke="black" stroke-width="0.5" stroke-miterlimit="10"/>
<path d="M418.859 366.561H462.599" stroke="black" stroke-width="0.5" stroke-miterlimit="10"/>
<path d="M418.859 384.902H462.599" stroke="black" stroke-width="0.5" stroke-miterlimit="10"/>
</svg>
