<svg width="750" height="500" viewBox="0 0 750 500" fill="none" xmlns="http://www.w3.org/2000/svg">
<g clip-path="url(#clip0_1326_1792)">
<path d="M750 0H0V500H750V0Z" fill="white"/>
<path d="M191.965 98.8971V339.081C191.965 347.665 198.924 354.624 207.507 354.624H541.486C550.052 354.624 557.011 347.665 557.011 339.081V98.8971C557.011 90.3127 550.052 83.3535 541.486 83.3535H207.507C198.923 83.3535 191.965 90.3127 191.965 98.8971Z" fill="#083A74"/>
<path d="M203.027 140.721V333.263C203.027 340.27 209.565 345.951 217.63 345.951H531.355C539.403 345.951 545.941 340.27 545.941 333.263V140.721C545.941 133.713 539.403 128.032 531.355 128.032H217.63C209.565 128.032 203.027 133.713 203.027 140.721Z" fill="white"/>
<path d="M528.755 112.482C531.092 112.482 532.986 110.588 532.986 108.251C532.986 105.914 531.092 104.02 528.755 104.02C526.418 104.02 524.523 105.914 524.523 108.251C524.523 110.588 526.418 112.482 528.755 112.482Z" fill="white"/>
<path d="M499.454 112.482C501.791 112.482 503.686 110.588 503.686 108.251C503.686 105.914 501.791 104.02 499.454 104.02C497.117 104.02 495.223 105.914 495.223 108.251C495.223 110.588 497.117 112.482 499.454 112.482Z" fill="white"/>
<path d="M514.103 112.482C516.44 112.482 518.334 110.588 518.334 108.251C518.334 105.914 516.44 104.02 514.103 104.02C511.766 104.02 509.871 105.914 509.871 108.251C509.871 110.588 511.766 112.482 514.103 112.482Z" fill="white"/>
<path d="M345.499 242.964H235.8C233.293 242.964 231.262 240.932 231.262 238.426V173.269C231.262 170.762 233.294 168.73 235.8 168.73H345.499C348.006 168.73 350.037 170.763 350.037 173.269V238.426C350.038 240.933 348.006 242.964 345.499 242.964Z" fill="#083A74"/>
<path d="M265.306 215.376C263.86 215.376 262.725 215.142 261.901 214.676C261.093 214.194 260.525 213.502 260.198 212.6C259.872 211.683 259.709 210.563 259.709 209.242V196.204H263.837V209.871C263.837 210.26 263.868 210.649 263.93 211.037C263.992 211.426 264.125 211.745 264.327 211.994C264.544 212.242 264.871 212.367 265.306 212.367C265.757 212.367 266.084 212.242 266.286 211.994C266.488 211.745 266.612 211.426 266.659 211.037C266.721 210.649 266.752 210.26 266.752 209.871V196.204H270.904V209.242C270.904 210.563 270.733 211.683 270.391 212.6C270.064 213.502 269.497 214.194 268.688 214.676C267.88 215.142 266.752 215.376 265.306 215.376ZM273.583 215.096V196.204H277.758V215.096H273.583ZM280.179 215.096L285.963 196.204H288.015L282.208 215.096H280.179ZM295.872 215.376C294.426 215.376 293.291 215.142 292.467 214.676C291.659 214.194 291.091 213.502 290.765 212.6C290.438 211.683 290.275 210.563 290.275 209.242V196.204H294.403V209.871C294.403 210.26 294.434 210.649 294.496 211.037C294.559 211.426 294.691 211.745 294.893 211.994C295.11 212.242 295.437 212.367 295.872 212.367C296.323 212.367 296.65 212.242 296.852 211.994C297.054 211.745 297.178 211.426 297.225 211.037C297.287 210.649 297.318 210.26 297.318 209.871V196.204H301.47V209.242C301.47 210.563 301.299 211.683 300.957 212.6C300.63 213.502 300.063 214.194 299.254 214.676C298.446 215.142 297.318 215.376 295.872 215.376ZM302.89 215.096L306.552 204.927L303.053 196.204H306.995L309.071 201.312L310.75 196.204H314.225L310.913 206.023L314.598 215.096H310.68L308.371 209.451L306.342 215.096H302.89Z" fill="white"/>
<path d="M506.964 325.869H397.265C394.758 325.869 392.727 323.837 392.727 321.331V256.174C392.727 253.667 394.759 251.636 397.265 251.636H506.964C509.471 251.636 511.502 253.668 511.502 256.174V321.331C511.503 323.838 509.471 325.869 506.964 325.869Z" stroke="#083A74" stroke-width="1.2469" stroke-miterlimit="10" stroke-dasharray="3.72 3.72"/>
<path d="M337.157 237.32H244.142C242.017 237.32 240.293 235.598 240.293 233.471V178.223C240.293 176.098 242.015 174.374 244.142 174.374H337.157C339.282 174.374 341.005 176.096 341.005 178.223V233.471C341.005 235.598 339.282 237.32 337.157 237.32Z" stroke="white" stroke-width="0.6127" stroke-miterlimit="10"/>
<path d="M516.358 179.969H373.785V183.451H516.358V179.969Z" fill="#083A74"/>
<path d="M516.358 196.027H373.785V199.509H516.358V196.027Z" fill="#083A74"/>
<path d="M516.358 212.085H373.785V215.567H516.358V212.085Z" fill="#083A74"/>
<path d="M516.358 228.144H373.785V231.625H516.358V228.144Z" fill="#083A74"/>
<path d="M474.418 158.176H240.506C235.318 158.176 231.113 153.97 231.113 148.783C231.113 143.595 235.319 139.39 240.506 139.39H474.418C479.606 139.39 483.811 143.596 483.811 148.783C483.812 153.97 479.606 158.176 474.418 158.176Z" stroke="#083A74" stroke-width="0.765" stroke-miterlimit="10"/>
<path d="M472.039 151.205C474.226 151.205 476 149.431 476 147.244C476 145.057 474.226 143.283 472.039 143.283C469.851 143.283 468.078 145.057 468.078 147.244C468.078 149.431 469.851 151.205 472.039 151.205Z" stroke="#083A74" stroke-width="0.6297" stroke-miterlimit="10"/>
<path d="M469.043 150.244L465.492 153.795" stroke="#083A74" stroke-width="0.6297" stroke-miterlimit="10"/>
<path d="M459.613 139.418V158.062" stroke="#083A74" stroke-width="0.6297" stroke-miterlimit="10"/>
<path d="M424.786 386.812H288.151C284.838 386.812 282.152 384.126 282.152 380.813V298.701C282.152 295.388 284.838 292.702 288.151 292.702H424.786C428.099 292.702 430.785 295.388 430.785 298.701V380.813C430.784 384.126 428.099 386.812 424.786 386.812Z" fill="white" stroke="#083A74" stroke-width="1.3973" stroke-miterlimit="10"/>
<path d="M368.788 331.356L344.141 317.125V345.586L368.788 331.356Z" fill="#083A74"/>
<path d="M412.626 364.124H300.312V365.805H412.626V364.124Z" fill="#083A74"/>
<path d="M357.169 367.486C358.561 367.486 359.69 366.357 359.69 364.965C359.69 363.573 358.561 362.444 357.169 362.444C355.777 362.444 354.648 363.573 354.648 364.965C354.648 366.357 355.777 367.486 357.169 367.486Z" fill="#F6BC2D"/>
<path d="M487.042 445.828C487.042 445.828 484.972 452.578 492.495 453.813C497.83 454.689 508.047 454.302 514.483 455.263C520.92 456.224 522.807 457.328 528.315 456.9C533.822 456.47 536.656 456.046 535.865 450.37C535.151 445.259 523.188 449.025 523.188 449.025L506.489 448.183L487.042 445.828Z" fill="#083A74"/>
<path d="M533.241 436.958C533.241 436.958 536.423 424.802 536.76 421.788L518.51 421.529L515.508 435.226L519.072 444.498L528.657 444.318L533.241 436.958Z" fill="#C95C47"/>
<path d="M486.83 447.137C486.912 449.328 488.996 451.956 497.113 452.231C499.43 452.311 502.652 451.927 506.492 451.697C510.37 451.453 514.875 451.371 519.68 452.057C519.793 452.075 519.907 452.085 520.019 452.105C521.151 452.252 522.243 452.343 523.286 452.377C530.864 452.673 535.864 450.365 535.864 450.365C535.864 450.365 535.444 447.062 534.5 444.96C534.492 444.95 534.494 444.933 534.486 444.923C534.23 444.354 534.037 443.764 533.889 443.169C533.638 442.16 533.528 441.147 533.47 440.244C533.354 438.437 533.472 437.048 533.243 436.957C532.817 436.795 531.042 440.04 527.689 440.614C525.095 441.054 520.144 440.233 518.893 436.888C517.649 433.543 516.662 433.453 515.81 433.252C515.81 433.252 513.167 436.946 510.935 438.335C505.465 441.752 499.453 443.482 494.509 443.356C488.922 443.226 486.748 445.052 486.83 447.137Z" fill="#083A74"/>
<path d="M512.867 437.123C512.876 437.187 514.838 439.349 514.838 439.349" stroke="white" stroke-width="0.7578" stroke-miterlimit="10" stroke-linecap="round" stroke-linejoin="round"/>
<path d="M510.102 438.832C510.111 438.894 511.789 440.767 511.789 440.767" stroke="white" stroke-width="0.7578" stroke-miterlimit="10" stroke-linecap="round" stroke-linejoin="round"/>
<path d="M507.473 440.187C507.482 440.249 509.16 442.122 509.16 442.122" stroke="white" stroke-width="0.7578" stroke-miterlimit="10" stroke-linecap="round" stroke-linejoin="round"/>
<path d="M504.586 441.415C504.595 441.478 506.274 443.35 506.274 443.35" stroke="white" stroke-width="0.7578" stroke-miterlimit="10" stroke-linecap="round" stroke-linejoin="round"/>
<path d="M501.027 442.52C501.037 442.582 502.715 444.455 502.715 444.455" stroke="white" stroke-width="0.7578" stroke-miterlimit="10" stroke-linecap="round" stroke-linejoin="round"/>
<path d="M626.27 453.326C626.27 453.326 629.216 459.817 635.733 455.722C640.354 452.818 647.824 445.695 653.335 442.119C658.845 438.544 661.012 438.117 664.891 434.111C668.769 430.105 670.631 427.889 666.237 424.124C662.282 420.736 655.749 431.582 655.749 431.582L642.553 442.109L626.27 453.326Z" fill="#083A74"/>
<path d="M655.285 415.735C655.285 415.735 650.097 404.425 648.338 401.921L633.59 415.932L640.712 426.279L649.608 430.911L656.738 424.367L655.285 415.735Z" fill="#C95C47"/>
<path d="M626.978 454.46C628.504 456.063 631.837 456.658 638.161 451.44C639.967 449.951 642.148 447.508 644.9 444.766C647.67 441.988 651.024 438.915 655.116 436.222C655.215 436.16 655.307 436.093 655.406 436.032C656.36 435.388 657.246 434.726 658.059 434.054C663.99 429.212 666.229 424.124 666.229 424.124C666.229 424.124 663.703 421.905 661.584 420.946C661.571 420.944 661.561 420.93 661.549 420.928C660.975 420.669 660.435 420.351 659.925 420C659.061 419.404 658.3 418.711 657.652 418.067C656.356 416.779 655.517 415.65 655.283 415.734C654.853 415.896 655.679 419.536 653.526 422.212C651.859 424.279 647.564 426.966 644.38 425.274C641.204 423.576 640.398 424.167 639.618 424.586C639.618 424.586 640.088 429.147 639.329 431.689C637.476 437.931 634.085 443.259 630.261 446.469C625.946 450.104 625.521 452.938 626.978 454.46Z" fill="#083A74"/>
<path d="M639.984 429.478C640.034 429.519 642.963 429.843 642.963 429.843" stroke="white" stroke-width="0.765" stroke-miterlimit="10" stroke-linecap="round" stroke-linejoin="round"/>
<path d="M639.035 432.619C639.085 432.661 641.606 432.955 641.606 432.955" stroke="white" stroke-width="0.765" stroke-miterlimit="10" stroke-linecap="round" stroke-linejoin="round"/>
<path d="M637.949 435.402C637.999 435.444 640.52 435.738 640.52 435.738" stroke="white" stroke-width="0.765" stroke-miterlimit="10" stroke-linecap="round" stroke-linejoin="round"/>
<path d="M636.586 438.261C636.636 438.302 639.156 438.596 639.156 438.596" stroke="white" stroke-width="0.765" stroke-miterlimit="10" stroke-linecap="round" stroke-linejoin="round"/>
<path d="M634.633 441.476C634.683 441.517 637.203 441.811 637.203 441.811" stroke="white" stroke-width="0.765" stroke-miterlimit="10" stroke-linecap="round" stroke-linejoin="round"/>
<path d="M570.067 274.676C570.067 274.676 530.499 327.04 527.35 339.835C524.2 352.63 512.586 429.582 512.586 429.582C512.586 429.582 527.035 433.661 537.468 430.709L555.869 354.787L588.108 319.103C588.108 319.103 586.217 361.49 588.935 370.117C593.198 383.643 630.348 424.109 630.348 424.109C630.348 424.109 641.128 425.298 653.219 407.632L623.004 362.41C623.004 362.41 631.029 303.403 629.321 288.653C627.261 270.869 620.266 262.471 620.266 262.471L583.65 268.179L570.067 274.676Z" fill="#083A74"/>
<path d="M623.004 362.409C623.004 362.409 621.787 370.52 620.57 374.576L623.004 362.409Z" fill="white"/>
<path d="M555.87 354.786C555.87 354.786 553.516 350.047 548.598 349.72L555.87 354.786Z" fill="white"/>
<path d="M588.109 319.102L592.986 275.239" stroke="white" stroke-width="0.3257" stroke-miterlimit="10"/>
<path d="M590.521 299.094C590.521 299.094 587.57 298.848 587.079 297.864C586.587 296.881 588.555 275.485 588.555 275.485" stroke="white" stroke-width="0.3257" stroke-miterlimit="10"/>
<path d="M590.553 172.772L597.068 211.151L575.424 213.991L572.41 174.194L590.553 172.772Z" fill="#C95C47"/>
<path d="M550.751 194.02C550.751 194.02 543.202 197.138 542.208 208.072C541.214 219.006 537.056 235.594 537.056 235.594L521.369 229.03L511.047 235.594C511.047 235.594 537.552 259.284 545.836 257.13C554.118 254.976 560.891 218.532 560.891 218.532L553.455 197.327L550.751 194.02Z" fill="#C95C47"/>
<path d="M521.551 229.091C521.551 229.091 521.224 226.972 516.101 226.756C513.39 226.641 512.655 226.092 511.187 225.386C509.719 224.679 505.403 223.607 504.532 224.585C503.661 225.562 506.197 227.686 506.197 227.686C506.197 227.686 502.163 227.686 501.406 227.379C500.648 227.073 497.795 220.805 494.733 221.008C494.733 221.008 493.265 217.934 490.311 218.32L491.36 221.534C491.36 221.534 489.105 219.317 487.541 219.297C485.977 219.277 485.562 220.086 485.562 220.086L488.947 223.995C488.947 223.995 487.317 223.732 486.512 224.719C486.512 224.719 490.113 227.559 491.54 228.559C492.966 229.56 494.686 230.601 496.677 231.148C498.668 231.695 504.151 234.898 504.941 235.443C505.731 235.988 516.415 236.588 518.068 236.92C519.721 237.252 521.551 229.091 521.551 229.091Z" fill="#C95C47"/>
<path d="M494.734 221.008C494.734 221.008 496.561 227.465 498.133 229.086C499.705 230.706 504.624 233.664 504.624 233.664" stroke="#083A74" stroke-width="0.3264" stroke-miterlimit="10" stroke-linecap="round" stroke-linejoin="round"/>
<path d="M491.359 221.533C491.359 221.533 494.56 228.65 495.641 229.736C496.721 230.822 500.184 232.274 500.184 232.274" stroke="#083A74" stroke-width="0.3264" stroke-miterlimit="10" stroke-linecap="round" stroke-linejoin="round"/>
<path d="M488.945 223.995C488.945 223.995 493.23 229.331 495.669 230.241" stroke="#083A74" stroke-width="0.3264" stroke-miterlimit="10" stroke-linecap="round" stroke-linejoin="round"/>
<path d="M549.875 193.348C549.875 193.348 561.369 228.555 563.106 239.732C563.408 241.62 563.77 243.749 564.163 245.969C564.36 246.997 564.556 248.039 564.752 249.096C566.656 259.276 568.357 277.696 568.357 277.696C568.357 277.696 575.904 281.338 585.087 280.13C596.823 278.574 623.614 265.832 623.614 265.832C623.614 265.832 621.379 260.863 620.382 249.429C619.399 237.996 620.231 195.569 617.738 192.337C615.262 189.12 592.636 184.604 592.636 184.604C592.636 184.604 588.135 193.877 579.39 195.75C574.436 196.823 573.47 186.521 573.47 186.521L559.045 190.69L555.963 191.581L549.875 193.348Z" fill="#F6BC2D"/>
<path d="M598.622 185.796C597.664 184 591.915 181.006 591.915 181.006L578.621 195.977C578.621 195.977 582.334 199.33 586.167 199.449C589.999 199.569 598.622 185.796 598.622 185.796Z" fill="#F6BC2D"/>
<path d="M578.621 195.975C578.621 195.975 582.334 199.328 586.167 199.447C589.999 199.567 598.623 185.794 598.623 185.794" stroke="#083A74" stroke-width="0.3264" stroke-miterlimit="10" stroke-linecap="round" stroke-linejoin="round"/>
<path d="M578.622 195.976L573.351 184.598C573.351 184.598 567.602 187.951 567.363 188.55C567.123 189.15 570.836 199.21 572.273 199.928C573.711 200.647 578.622 195.976 578.622 195.976Z" fill="#F6BC2D"/>
<path d="M567.363 188.551C567.123 189.15 570.836 199.21 572.273 199.929C573.71 200.647 578.62 195.976 578.62 195.976C578.62 195.976 578.78 201.445 579.738 211.985" stroke="#083A74" stroke-width="0.3264" stroke-miterlimit="10" stroke-linecap="round" stroke-linejoin="round"/>
<path d="M620.888 195.586C620.888 195.586 640.166 219.531 643.79 227.019C647.415 234.507 648.363 293.442 648.363 293.442L637.55 292.82C637.55 292.82 629.115 239.525 628.896 238.817C628.678 238.109 613.094 220.739 613.094 220.739L616.898 199.876L620.888 195.586Z" fill="#C95C47"/>
<path d="M486.435 186.024L465.465 187.28L465.431 186.8L464.639 185.745C464.639 185.745 463.17 186.423 463.434 187.403L476.044 228.357L496.607 221.574L486.435 186.024Z" fill="#083A74"/>
<path d="M464.641 185.743L477.249 226.697L497.812 219.914L487.641 184.365L464.641 185.743Z" fill="#083A74"/>
<path d="M467.695 187.891L485.891 186.802L494.984 218.396L478.805 223.733L467.695 187.891Z" fill="white"/>
<path d="M521.529 222.825L497.815 221.704L484.634 226.053L477.252 226.698L476.047 228.356L521.246 229.946L531.58 223.11V221.32L521.529 222.825Z" fill="#083A74"/>
<path d="M477.25 226.698L521.243 228.157L531.578 221.321L497.813 219.915L477.25 226.698Z" fill="#083A74"/>
<path d="M465.047 187.114L477.25 226.698L519.109 228.238" stroke="white" stroke-width="0.265" stroke-miterlimit="10" stroke-linecap="round" stroke-linejoin="round"/>
<path d="M565.802 167.541C564.821 176.374 565.259 185.722 573.616 187.258C579.458 188.332 587.479 182.497 591.127 175.862C593.006 172.436 594.688 169.46 595.504 167.062C596.152 165.167 596.473 163.949 596.473 163.949L596.538 159.363L596.571 156.675C596.571 156.675 595.29 154.61 593.863 152.298C592.083 149.397 587.236 151.015 587.217 150.851C587.19 150.602 576.589 145.176 571.531 148.417C571.513 148.423 571.504 148.431 571.503 148.439C571.041 148.734 570.652 149.063 570.35 149.429C570.099 149.735 569.911 150.066 569.788 150.422C569.553 151.11 569.222 152.15 568.811 153.466C568.654 154.021 568.464 154.622 568.286 155.268C567.982 156.353 567.664 157.546 567.361 158.819C566.721 161.476 566.138 164.487 565.802 167.541Z" fill="#C95C47"/>
<path d="M579.622 141.164C579.622 141.164 565.278 154.922 568.977 155.907C572.676 156.893 578.375 154.905 578.375 154.905C578.375 154.905 579.331 159.49 585.855 155.148C585.855 155.148 585.139 157.829 588.972 163.206C591.133 166.238 588.776 172.144 588.776 172.144L590.208 172.375C590.208 172.375 591.947 166.385 594.102 166.392C596.257 166.399 593.903 173.743 593.903 173.743C593.903 173.743 607.137 151.637 596.901 149.375C596.901 149.375 593.015 137.149 579.622 141.164Z" fill="#083A74"/>
<path d="M590.715 176.049C594.422 175.739 598.582 167.975 596.329 166.152C594.075 164.328 592.349 167.079 592.349 167.079L590.715 176.049Z" fill="#C95C47"/>
<path d="M592.098 171.856C592.098 171.856 593.091 167.52 594.375 167.54C595.361 167.555 595.366 169.242 595.366 169.242" stroke="#083A74" stroke-width="0.3457" stroke-miterlimit="10" stroke-linecap="round" stroke-linejoin="round"/>
<path d="M593.109 168.943C593.109 168.943 594.076 167.842 594.726 168.919" stroke="#083A74" stroke-width="0.3457" stroke-miterlimit="10" stroke-linecap="round" stroke-linejoin="round"/>
<path d="M569.332 142.37C569.34 142.227 569.349 142.083 569.369 141.94C569.783 138.917 572.568 136.803 575.591 137.216C576.954 137.402 578.128 138.073 578.973 139.027C580.408 137.439 582.968 136.569 585.734 136.947C588.955 137.388 591.458 139.383 592.055 141.741C592.552 141.67 593.064 141.661 593.586 141.733C596.507 142.132 598.573 144.747 598.335 147.651C601.195 148.203 603.159 150.896 602.76 153.817C602.584 155.103 601.976 156.221 601.106 157.054C601.593 158.019 601.805 159.135 601.647 160.288C601.233 163.31 598.448 165.425 595.425 165.012C592.402 164.599 590.288 161.812 590.701 158.79C590.877 157.503 591.485 156.385 592.355 155.552C591.911 154.673 591.703 153.666 591.788 152.623C589.371 152.157 587.598 150.16 587.348 147.787C586.379 147.992 585.324 148.043 584.236 147.894C582.306 147.63 580.638 146.805 579.479 145.682C578.876 146.614 578.006 147.341 576.991 147.772C578.917 148.848 580.091 151.023 579.774 153.341C579.36 156.364 576.574 158.478 573.552 158.065C572.177 157.877 570.994 157.195 570.147 156.227C569.411 156.527 568.628 156.648 567.834 156.54C564.811 156.125 562.794 152.626 563.328 148.722C563.836 145.007 566.472 142.271 569.332 142.37Z" fill="#083A74"/>
<path d="M571.883 186.79C572.418 186.986 572.996 187.144 573.616 187.257C577.551 187.98 582.474 185.569 586.384 181.89" stroke="#083A74" stroke-width="0.3264" stroke-miterlimit="10" stroke-linecap="round" stroke-linejoin="round"/>
<path d="M577.709 177.687L573.43 177.082C573.43 177.082 574.788 180.579 577.709 177.687Z" fill="white"/>
<path d="M571.97 165.99C572.013 165.214 571.681 164.563 571.229 164.538C570.776 164.513 570.375 165.123 570.332 165.9C570.289 166.677 570.621 167.327 571.073 167.352C571.525 167.377 571.927 166.767 571.97 165.99Z" fill="#083A74"/>
<path d="M581.52 167.65C581.563 166.873 581.232 166.223 580.779 166.198C580.327 166.172 579.926 166.782 579.883 167.559C579.84 168.336 580.171 168.986 580.624 169.011C581.076 169.036 581.477 168.427 581.52 167.65Z" fill="#083A74"/>
<path d="M572.716 161.704C572.716 161.704 570.899 159.368 568.652 159.86L572.716 161.704Z" fill="#083A74"/>
<path d="M585.051 162.851C584.873 162.777 582.088 161.457 579.82 162.855L585.051 162.851Z" fill="#083A74"/>
<path d="M574.025 171.525C572.88 171.897 571.849 174.029 574.743 173.94" stroke="#083A74" stroke-width="0.3264" stroke-miterlimit="10" stroke-linecap="round" stroke-linejoin="round"/>
<path d="M539.395 222.558C539.395 222.558 546.04 230.186 559.225 234.294L561.248 224.598L559.225 207.833L549.876 193.349C549.876 193.349 545.043 195.297 543.457 200.009C542.657 202.381 541.629 208.104 540.799 213.18C540.647 214.163 540.497 215.113 540.36 216.02C539.787 219.734 539.395 222.558 539.395 222.558Z" fill="#F6BC2D"/>
<path d="M609.852 221.305L622.689 233.222C628.353 231.259 632.19 227.513 634.637 224.175C635.332 223.238 635.919 222.332 636.388 221.516C637.762 219.175 638.336 217.454 638.336 217.454C638.336 217.454 629.712 201.624 617.734 192.335C616.496 191.383 611.844 199.615 611.844 199.615L609.852 221.305Z" fill="#F6BC2D"/>
<path d="M619.82 230.468L612.035 221.604" stroke="#083A74" stroke-width="0.3264" stroke-miterlimit="10" stroke-linecap="round" stroke-linejoin="round"/>
<path d="M560.536 227.833C560.536 227.833 558.021 217.533 555.746 212.982" stroke="#083A74" stroke-width="0.3264" stroke-miterlimit="10" stroke-linecap="round" stroke-linejoin="round"/>
<path d="M646.239 285.902C646.239 285.902 652.949 296.821 652.801 299.618C652.653 302.415 649.337 311.016 647.924 312.055C646.512 313.093 642.726 314.448 639.481 314.652C636.236 314.855 633.341 313.421 633.477 312.78C633.614 312.139 635.59 310.549 637.359 310.627C637.359 310.627 634.459 309.564 635.103 308.287C635.747 307.01 638.057 308.395 639.97 308.503C641.882 308.612 644.992 306.593 645.345 304.584C645.697 302.575 643.955 297.812 643.955 297.812C643.955 297.812 641.125 294.933 639.204 293.056C637.356 291.249 637.076 292.252 637.967 288.644C638.856 285.038 646.239 285.902 646.239 285.902Z" fill="#C95C47"/>
<path d="M643.956 297.812C643.956 297.812 642.639 301.552 642.414 303.663C642.188 305.774 641.915 309.512 639.407 309.054C636.899 308.596 638.95 304.269 637.792 300.894C635.032 292.852 637.967 288.644 637.967 288.644L642.985 291.873L643.956 297.812Z" fill="#C95C47"/>
<path d="M660.812 113.108L657.31 113.097C656.7 110.369 655.659 107.799 654.272 105.456L656.858 102.886C657.772 101.978 657.776 100.5 656.868 99.5855L651.24 93.923C650.332 93.0092 648.855 93.0046 647.94 93.9126L645.455 96.3812C643.157 94.9271 640.611 93.8166 637.905 93.1191L637.917 89.4799C637.92 88.1912 636.879 87.1432 635.59 87.1397L627.607 87.1143C626.319 87.1096 625.271 88.1519 625.267 89.4405L625.256 92.9467C622.527 93.5564 619.955 94.5986 617.612 95.9763L615.045 93.3932C614.137 92.4794 612.66 92.4748 611.745 93.3828L606.082 99.0105C605.168 99.9186 605.164 101.396 606.072 102.311L608.546 104.801C607.083 107.1 605.98 109.639 605.284 112.346L601.639 112.334C600.35 112.33 599.302 113.372 599.299 114.661L599.273 122.643C599.269 123.932 600.311 124.98 601.6 124.984L605.113 124.995C605.713 127.723 606.754 130.292 608.141 132.635L605.554 135.206C604.64 136.114 604.635 137.591 605.543 138.506L611.171 144.169C612.079 145.083 613.556 145.087 614.471 144.179L616.957 141.709L616.958 141.711C619.257 143.166 621.796 144.276 624.503 144.974L624.506 144.975L624.495 148.613C624.491 149.902 625.532 150.95 626.821 150.953L634.804 150.979C636.092 150.983 637.14 149.941 637.144 148.652L637.156 145.146L637.159 145.145C639.888 144.535 642.459 143.502 644.794 142.115L644.797 142.113L647.366 144.699C648.274 145.612 649.752 145.617 650.667 144.709L656.329 139.081C657.243 138.173 657.248 136.696 656.339 135.781L653.866 133.293L653.867 133.292C655.331 130.993 656.442 128.454 657.139 125.747L660.772 125.759C662.061 125.763 663.109 124.721 663.112 123.432L663.138 115.449C663.141 114.161 662.1 113.113 660.812 113.108ZM631.156 133.9C622.957 133.875 616.324 127.208 616.35 119C616.375 110.792 623.051 104.167 631.25 104.193C639.457 104.218 646.092 110.885 646.066 119.093C646.04 127.301 639.364 133.925 631.156 133.9Z" fill="#083A74"/>
<path d="M35.5352 456.973H714.46" stroke="#083A74" stroke-width="1.2469" stroke-miterlimit="10"/>
<path d="M489.191 66.6203H354.543C352.664 66.6203 351.141 65.0968 351.141 63.2182V42.4021C351.141 40.5235 352.664 39 354.543 39H489.191C491.07 39 492.593 40.5235 492.593 42.4021V63.2182C492.593 65.0968 491.07 66.6203 489.191 66.6203Z" fill="white" stroke="#083A74" stroke-width="1.3973" stroke-miterlimit="10"/>
<path d="M478.789 53.7111H364.943C364.446 53.7111 364.043 53.3085 364.043 52.8111C364.043 52.3137 364.446 51.9111 364.943 51.9111H478.789C479.287 51.9111 479.689 52.3137 479.689 52.8111C479.689 53.3074 479.287 53.7111 478.789 53.7111Z" fill="#083A74"/>
<path d="M456.603 58.5646C459.781 58.5646 462.358 55.988 462.358 52.8097C462.358 49.6313 459.781 47.0547 456.603 47.0547C453.424 47.0547 450.848 49.6313 450.848 52.8097C450.848 55.988 453.424 58.5646 456.603 58.5646Z" fill="#083A74"/>
<path d="M318.22 311.208H258.076C254.964 311.208 252.441 308.685 252.441 305.573V279.833C252.441 276.721 254.964 274.198 258.076 274.198H318.22C321.332 274.198 323.855 276.721 323.855 279.833V305.572C323.856 308.685 321.333 311.208 318.22 311.208Z" fill="#F6BC2D"/>
<path d="M279.642 298.522L271.903 294.602V291.457L279.642 287.537V291.057L274.799 293.005L279.642 295.002V298.522ZM281.576 303.391L287.767 283.168H289.965L283.748 303.391H281.576ZM292.383 298.522V295.002L297.227 293.005L292.383 291.057V287.537L300.123 291.457V294.602L292.383 298.522Z" fill="white"/>
<path d="M240.732 423.681C240.732 423.681 239.728 397.398 243.287 383.434C246.847 369.471 259.441 361.532 267.381 369.471C275.321 377.411 261.357 392.196 256.977 402.873C252.596 413.55 251.228 416.562 249.858 423.681H240.732Z" fill="#083A74"/>
<path d="M259.524 374.084C259.524 374.084 245.699 397.219 243.371 424.187" stroke="white" stroke-width="0.6094" stroke-miterlimit="10" stroke-linecap="round" stroke-linejoin="round"/>
<path d="M242.625 423.606L232.267 423.458C232.267 423.458 233.536 401.017 218.499 398.457C203.462 395.897 217.684 384.812 217.684 384.812L235.002 393.184L241.251 404.111L242.635 418.942L242.625 423.606Z" fill="#083A74"/>
<path d="M242.625 423.607C242.625 423.607 248.067 395.847 232.235 383.901C216.402 371.953 201.65 376.781 194.063 387.772C186.476 398.764 188.816 403.761 196.257 408.391C203.697 413.02 209.553 406.732 217.071 401.22C224.588 395.707 236.529 395.963 239.766 405.526C243.004 415.09 242.625 423.607 242.625 423.607Z" fill="#083A74"/>
<path d="M199.289 401.601C199.289 401.601 207.365 383.173 224.067 384.763C235.567 385.859 240.631 395.989 240.631 395.989" stroke="white" stroke-width="0.6094" stroke-miterlimit="10" stroke-linecap="round" stroke-linejoin="round"/>
<path d="M242.622 423.606C242.622 423.606 245.249 410.205 241.543 398.019" stroke="#083A74" stroke-width="0.6736" stroke-miterlimit="10"/>
<path d="M224.56 456.222H258.71L261.347 423.093H221.922L224.56 456.222Z" fill="#083A74"/>
<path d="M250.686 228.695H152.929C148.346 228.695 144.629 224.979 144.629 220.395V112.837C144.629 108.254 148.344 104.537 152.929 104.537H250.686C255.269 104.537 258.985 108.253 258.985 112.837V220.395C258.984 224.979 255.269 228.695 250.686 228.695Z" fill="white" stroke="#083A74" stroke-width="1.3973" stroke-miterlimit="10"/>
<path d="M239.648 175.906H163.972C162.227 175.906 160.812 174.491 160.812 172.747V126.969C160.812 125.224 162.227 123.81 163.972 123.81H239.648C241.392 123.81 242.807 125.224 242.807 126.969V172.747C242.806 174.491 241.392 175.906 239.648 175.906Z" fill="#F6BC2D"/>
<path d="M241.269 188.186H162.35C161.501 188.186 160.812 187.498 160.812 186.649C160.812 185.8 161.501 185.111 162.35 185.111H241.269C242.118 185.111 242.806 185.8 242.806 186.649C242.806 187.498 242.118 188.186 241.269 188.186Z" fill="#083A74"/>
<path d="M241.269 198.803H162.35C161.501 198.803 160.812 198.115 160.812 197.266C160.812 196.417 161.501 195.729 162.35 195.729H241.269C242.118 195.729 242.806 196.417 242.806 197.266C242.806 198.115 242.118 198.803 241.269 198.803Z" fill="#083A74"/>
<path d="M241.269 209.422H162.35C161.501 209.422 160.812 208.734 160.812 207.885C160.812 207.036 161.501 206.348 162.35 206.348H241.269C242.118 206.348 242.806 207.036 242.806 207.885C242.806 208.734 242.118 209.422 241.269 209.422Z" fill="#083A74"/>
<path d="M239.265 166.486H164.355C166.453 161.87 173.368 148.197 181.486 148.197C186.961 148.197 193.463 152.35 199.156 151.023C204.85 149.696 208.218 134.892 217.988 133.565C227.751 132.236 239.265 166.486 239.265 166.486Z" fill="white"/>
<path d="M181.861 143.343C184.523 143.343 186.682 141.184 186.682 138.522C186.682 135.859 184.523 133.7 181.861 133.7C179.198 133.7 177.039 135.859 177.039 138.522C177.039 141.184 179.198 143.343 181.861 143.343Z" fill="white"/>
<path d="M158.632 447.644C158.632 447.644 141.446 450.246 139.817 453.1C138.868 454.76 138.499 459.424 141.263 460.291C144.987 461.458 152.228 461.4 158.626 458.462C162.258 456.794 167.311 457.186 169.022 456.331C170.733 455.475 170.445 451.223 170.445 451.223L158.632 447.644Z" fill="#083A74"/>
<path d="M158.661 445.937L157.92 421.18L141.168 421.329L141.196 442.212L151.869 446.512L158.661 445.937Z" fill="#F79063"/>
<path d="M158.561 441.625C158.561 441.625 156.938 446.123 151.476 440.917C147.595 437.216 144.683 437.291 141.308 439.375C141.308 439.375 140.191 443.126 140.432 446.585C140.75 451.146 139.703 452.731 139.703 452.731C139.703 452.731 139.574 457.243 149.859 456.354C156.628 455.769 156.363 453.074 163.21 453.556C166.946 453.818 169.742 452.233 170.442 451.222C170.442 451.222 169.724 448.88 165.698 446.867C161.188 444.611 158.561 441.625 158.561 441.625Z" fill="#083A74"/>
<path d="M96.2638 435.984C96.2638 435.984 95.2586 437.249 99.5086 440.538C104.952 444.751 106.335 446.054 106.284 448.736C106.233 451.418 107.637 456.377 113.962 457.085C120.289 457.793 125.261 456.858 125.261 456.858L126.542 455.356L107.953 435.375L97.4715 432.61L96.2638 435.984Z" fill="#083A74"/>
<path d="M98.1597 430.823C98.1597 430.823 95.882 432.037 96.2614 435.984C96.2614 435.984 96.458 435.283 97.5269 434.985C99.4645 434.443 103.386 434.588 107.952 438.109C112.884 441.915 115.084 448.814 119.945 451.773C126.956 456.04 125.259 456.859 125.259 456.859C125.259 456.859 127.384 455.568 126.93 452.533L117.138 439.249L108.56 430.367C108.56 430.367 104.841 428.469 103.702 427.861C102.562 427.255 98.1597 430.823 98.1597 430.823Z" fill="#083A74"/>
<path d="M123.011 420.366C123.011 420.366 122.378 422.823 113.855 419.859C105.332 416.894 110.297 410.667 110.297 410.667L118.673 410.223L123.011 420.366Z" fill="#083A74"/>
<path d="M117.589 426.95L122.22 405.744L106.061 401.594L102.059 422.497C102.059 422.497 108.878 427.093 110.063 428.13C111.25 429.168 117.589 426.95 117.589 426.95Z" fill="#F79063"/>
<path d="M102.485 421.41C102.485 421.41 107.267 418.829 110.075 421.714C112.884 424.599 114.402 427.938 117.591 426.952C117.591 426.952 118.654 436.289 120.02 439.932C121.386 443.575 128.067 447.978 126.929 452.533C126.929 452.533 120.855 448.281 118.198 443.955C118.198 443.955 112.338 433.697 107.192 431.885C100.549 429.549 97.2422 431.587 97.2422 431.587C98.3793 425.437 102.485 421.41 102.485 421.41Z" fill="#083A74"/>
<path d="M170.927 260.063C170.927 260.063 178.979 277.44 176.436 305.838C173.894 334.234 167.536 360.081 167.112 366.014C166.687 371.947 159.182 434.004 159.182 434.004C159.182 434.004 150.862 437.017 139.418 432.354C139.418 432.354 140.724 385.049 142.726 363.479C144.057 349.13 144.197 323.25 142.948 313.26C142.948 313.26 138.292 346.31 135.748 357.753C133.205 369.197 123.008 420.364 123.008 420.364C123.008 420.364 122.385 418.833 121.092 417.07C118.347 413.328 107.218 406.129 103.66 412.948L111.445 355.77C111.445 355.77 110.951 298.526 112.224 284.221C113.496 269.916 119.535 259.427 119.535 259.427L170.927 260.063Z" fill="#F6BC2D"/>
<path d="M143.727 360.915C143.727 360.915 150.546 363.584 156.179 361.211" stroke="#083A74" stroke-width="0.2475" stroke-miterlimit="10" stroke-linecap="round" stroke-linejoin="round"/>
<path d="M111.445 355.77C111.445 355.77 115.223 351.649 121.783 352.094" stroke="#083A74" stroke-width="0.2475" stroke-miterlimit="10" stroke-linecap="round" stroke-linejoin="round"/>
<path d="M175.624 188.415C175.624 188.415 180.114 193.242 180.453 207.032C180.675 216.075 182.373 232.185 183.526 234.794C186.526 241.578 181.148 254.02 176.968 254.027C168.729 254.04 164.516 235.348 164.516 235.348L165.395 191.973L175.624 188.415Z" fill="#F79063"/>
<path d="M183.529 234.794L205.727 227.675L208.808 236.358C208.808 236.358 180.704 255.732 176.971 254.027C173.237 252.322 176.785 238.132 176.785 238.132L183.529 234.794Z" fill="#F79063"/>
<path d="M205.441 228.074L206.86 235.836C206.86 235.836 210.743 237.118 214.266 235.479C217.79 233.84 218.927 233.604 218.99 232.588C218.99 232.588 220.94 231.885 220.665 230.307C220.665 230.307 225.189 227.768 225.075 226.278C224.962 224.788 222.614 226.466 220.872 226.708C219.13 226.95 216.151 227.15 216.151 227.15C216.151 227.15 216.139 225.883 217.867 225.255C219.596 224.627 222.911 224.219 222.078 222.044C222.078 222.044 216.725 222.478 214.357 222.932C211.988 223.388 206.33 226.659 205.441 228.074Z" fill="#F79063"/>
<path d="M220.664 230.306L218 230.943" stroke="#083A74" stroke-width="0.3696" stroke-miterlimit="10" stroke-linecap="round" stroke-linejoin="round"/>
<path d="M218.725 232.743L217.188 233.061" stroke="#083A74" stroke-width="0.3696" stroke-miterlimit="10" stroke-linecap="round" stroke-linejoin="round"/>
<path d="M168.319 213.017C168.319 213.017 174.564 215.185 181.679 210.441C181.679 210.441 181.123 190.095 175.805 188.075C167.452 184.902 168.319 213.017 168.319 213.017Z" fill="#083A74"/>
<path d="M149.01 179.143C149.01 179.143 168.512 184.634 175.629 188.414C175.629 188.414 169.402 198.198 168.735 214.431C168.068 230.664 168.068 251.345 170.069 260.684C170.069 260.684 132.711 265.576 118.034 263.13C118.034 263.13 115.143 237.113 112.252 223.549C109.362 209.985 106.759 190.094 106.982 189.426C107.204 188.759 129.82 180.186 129.82 180.186L149.01 179.143Z" fill="#F79063"/>
<path d="M107.368 189.316C107.368 189.316 101.576 194.641 100.686 210.208C99.7965 225.774 98.8815 237.309 97.8219 250.267C96.8444 262.23 104.616 262.872 111.898 258.763C123.132 252.425 127.209 247 127.209 247L124.408 239.157L113.578 242.519C114.468 236.737 117.391 214.095 117.391 214.095L107.368 189.316Z" fill="#F79063"/>
<path d="M110.263 186.704C110.263 186.704 103.054 188.594 100.46 205.347C98.3998 218.648 98.6809 222.988 98.6809 222.988C98.6809 222.988 104.129 227.175 115.396 227.175L117.323 202.566L110.263 186.704Z" fill="#083A74"/>
<path d="M149.229 178.624C149.229 178.624 169.243 184.517 175.803 188.075C175.803 188.075 169.465 201.417 169.132 214.759C168.799 228.102 171.133 260.457 171.133 260.457C171.133 260.457 160.57 263.569 148.562 263.904C136.553 264.237 135.442 267.351 129.216 266.572C122.989 265.794 117.542 263.682 117.208 263.014C116.874 262.347 113.538 229.77 112.649 225.1C111.759 220.43 106.559 188.508 109.09 187.204C115.928 183.683 131.327 178.846 131.327 178.846L149.229 178.624Z" fill="#083A74"/>
<path d="M169.051 213.147L169.384 197.804" stroke="#083A74" stroke-width="0.2475" stroke-miterlimit="10" stroke-linecap="round" stroke-linejoin="round"/>
<path d="M112.862 226.6C112.862 226.6 109.897 207.995 108.562 196.432" stroke="#083A74" stroke-width="0.2475" stroke-miterlimit="10" stroke-linecap="round" stroke-linejoin="round"/>
<path d="M149.819 177.777C150.838 172.42 155.687 175.197 157.188 172.397C158.688 169.596 160.589 155.514 159.86 149.57C159.131 143.627 150.742 137.591 142.58 137.986C134.418 138.383 126.577 142.392 125.484 149.684C124.391 156.975 124.1 174.096 128.342 175.285C130.83 175.983 127.524 173.954 126.061 177.948C126.061 177.948 148.8 183.134 149.819 177.777Z" fill="#F79063"/>
<path d="M160.015 149.622C160.015 149.622 157.031 152.956 156.354 158.904C155.677 164.854 154.088 174.463 156.127 181.035L152.044 181.503L150.997 175.171L150.59 181.485C150.59 181.485 127.013 181.191 122.234 177.395C117.455 173.6 120.848 164.761 122.204 158.969C123.56 153.177 123.765 139.918 131.428 136.368C135.789 134.347 146.623 132.174 153.639 136.235C158.951 139.31 161.68 148.468 160.015 149.622Z" fill="#083A74"/>
<path d="M153.857 138.645C153.857 138.645 146.799 136.625 144.125 141.688" stroke="white" stroke-width="0.2475" stroke-miterlimit="10"/>
<path d="M150.996 175.171C151.152 174.643 150.158 167.014 150.59 165.083" stroke="white" stroke-width="0.2475" stroke-miterlimit="10"/>
<path d="M127.297 175.741L129.344 163.987" stroke="white" stroke-width="0.2475" stroke-miterlimit="10"/>
<path d="M131.039 169.271C131.269 168.943 131.82 159.168 133.129 155.306" stroke="white" stroke-width="0.2475" stroke-miterlimit="10"/>
<path d="M142.952 313.261L141.618 297.472C141.618 297.472 137.393 285.019 138.06 271.01" stroke="#083A74" stroke-width="0.2475" stroke-miterlimit="10" stroke-linecap="round" stroke-linejoin="round"/>
<path d="M135.412 302.05C129.334 304.497 117.215 298.9 117.215 298.9" stroke="#083A74" stroke-width="0.2475" stroke-miterlimit="10" stroke-linecap="round" stroke-linejoin="round"/>
<path d="M141.75 299.346C141.75 299.346 148.865 303.348 159.762 299.679" stroke="#083A74" stroke-width="0.2475" stroke-miterlimit="10" stroke-linecap="round" stroke-linejoin="round"/>
<path d="M111.445 355.771C111.445 355.771 119.041 351.131 127.047 356.023" stroke="#083A74" stroke-width="0.2475" stroke-miterlimit="10" stroke-linecap="round" stroke-linejoin="round"/>
<path d="M147.599 274.466L162.275 272.798C162.275 272.798 165.722 286.584 161.274 289.253C159.806 290.133 151.505 290.754 150.266 289.475C146.41 285.49 147.599 274.466 147.599 274.466Z" stroke="#083A74" stroke-width="0.2475" stroke-miterlimit="10" stroke-linecap="round" stroke-linejoin="round"/>
<path d="M133.688 275.355L119.012 273.687C119.012 273.687 115.565 287.473 120.013 290.142C121.481 291.022 129.782 291.643 131.02 290.364C134.878 286.379 133.688 275.355 133.688 275.355Z" stroke="#083A74" stroke-width="0.2475" stroke-miterlimit="10" stroke-linecap="round" stroke-linejoin="round"/>
<path d="M343.395 51.1309H172.59V86.2344" stroke="#083A74" stroke-width="1.2469" stroke-miterlimit="10" stroke-dasharray="3.74 3.74"/>
<path d="M172.52 90.4111C174.48 90.4111 176.068 88.8227 176.068 86.8633C176.068 84.9038 174.48 83.3154 172.52 83.3154C170.561 83.3154 168.973 84.9038 168.973 86.8633C168.973 88.8227 170.561 90.4111 172.52 90.4111Z" fill="#083A74"/>
<path d="M342.271 54.6777C344.23 54.6777 345.818 53.0893 345.818 51.1299C345.818 49.1705 344.23 47.582 342.271 47.582C340.311 47.582 338.723 49.1705 338.723 51.1299C338.723 53.0893 340.311 54.6777 342.271 54.6777Z" fill="#083A74"/>
</g>
<defs>
<clipPath id="clip0_1326_1792">
<rect width="750" height="500" fill="white"/>
</clipPath>
</defs>
</svg>
