<svg width="62" height="62" viewBox="0 0 62 62" fill="none" xmlns="http://www.w3.org/2000/svg">
<path d="M16.7917 25.8336C16.2156 25.8336 15.6628 25.9215 15.1125 26.0015C15.2908 25.4022 15.4742 24.7926 15.7687 24.2449C16.0632 23.4492 16.523 22.7595 16.9803 22.0646C17.3626 21.3128 18.0368 20.8039 18.5328 20.1606C19.0521 19.5355 19.7599 19.1195 20.3205 18.6003C20.8708 18.0578 21.5915 17.7865 22.165 17.4042C22.7643 17.0606 23.2862 16.6809 23.8442 16.5L25.2366 15.9265L26.4611 15.4176L25.2082 10.4111L23.6659 10.7831C23.1725 10.9071 22.5706 11.0518 21.886 11.2249C21.1859 11.354 20.4393 11.708 19.6075 12.0309C18.786 12.3977 17.8353 12.6457 16.9518 13.2347C16.0632 13.7979 15.0376 14.268 14.1334 15.0224C13.2577 15.8 12.2011 16.4742 11.4209 17.4636C10.5684 18.3885 9.72626 19.3598 9.07268 20.4655C8.31576 21.5195 7.80168 22.6768 7.25918 23.8212C6.76834 24.9656 6.37309 26.1359 6.05018 27.2726C5.43793 29.5511 5.16409 31.7159 5.05818 33.5681C4.97034 35.423 5.02201 36.9652 5.13051 38.0812C5.16926 38.6082 5.24159 39.1197 5.29326 39.4736L5.35784 39.9076L5.42501 39.8921C5.88448 42.0384 6.94221 44.0108 8.47583 45.5811C10.0095 47.1514 11.9563 48.2554 14.0912 48.7654C16.226 49.2755 18.4617 49.1707 20.5395 48.4632C22.6173 47.7557 24.4523 46.4745 25.8323 44.7676C27.2124 43.0608 28.081 40.9981 28.3377 38.8182C28.5944 36.6384 28.2287 34.4303 27.2829 32.4496C26.3372 30.4689 24.85 28.7964 22.9934 27.6256C21.1368 26.4548 18.9866 25.8335 16.7917 25.8336ZM45.2083 25.8336C44.6323 25.8336 44.0794 25.9215 43.5292 26.0015C43.7074 25.4022 43.8908 24.7926 44.1853 24.2449C44.4798 23.4492 44.9397 22.7595 45.3969 22.0646C45.7793 21.3128 46.4535 20.8039 46.9495 20.1606C47.4688 19.5355 48.1766 19.1195 48.7372 18.6003C49.2874 18.0578 50.0082 17.7865 50.5817 17.4042C51.181 17.0606 51.7028 16.6809 52.2608 16.5L53.6533 15.9265L54.8778 15.4176L53.6248 10.4111L52.0826 10.7831C51.5892 10.9071 50.9873 11.0518 50.3027 11.2249C49.6026 11.354 48.856 11.708 48.0242 12.0309C47.2053 12.4003 46.252 12.6457 45.3685 13.2373C44.4798 13.8005 43.4543 14.2706 42.5501 15.025C41.6743 15.8025 40.6178 16.4768 39.8376 17.4636C38.9851 18.3885 38.1429 19.3598 37.4893 20.4655C36.7324 21.5195 36.2183 22.6768 35.6758 23.8212C35.185 24.9656 34.7898 26.1359 34.4668 27.2726C33.8546 29.5511 33.5808 31.7159 33.4748 33.5681C33.387 35.423 33.4387 36.9652 33.5472 38.0812C33.5859 38.6082 33.6583 39.1197 33.7099 39.4736L33.7745 39.9076L33.8417 39.8921C34.3011 42.0384 35.3589 44.0108 36.8925 45.5811C38.4261 47.1514 40.373 48.2554 42.5078 48.7654C44.6427 49.2755 46.8783 49.1707 48.9561 48.4632C51.0339 47.7557 52.869 46.4745 54.249 44.7676C55.629 43.0608 56.4976 40.9981 56.7543 38.8182C57.011 36.6384 56.6454 34.4303 55.6996 32.4496C54.7538 30.4689 53.2666 28.7964 51.41 27.6256C49.5534 26.4548 47.4033 25.8335 45.2083 25.8336Z" fill="#D2D2D2"/>
</svg>
