<svg width="100" height="100" viewBox="0 0 100 100" fill="none" xmlns="http://www.w3.org/2000/svg">
<rect width="100" height="100" rx="13" fill="#FFC4C0"/>
<path d="M33.1973 33.9243H28.5586L41.205 69.6726L48.2848 49.4409L42.7957 33.9243H37.9015V30.518H59.5747V33.9243H54.4994L67.1456 69.6726L71.6914 56.6819C77.6546 40.0384 66.8039 34.8538 66.8039 31.1394C66.8039 27.425 69.8151 24.4141 73.5293 24.4141C73.7303 24.4141 73.9254 24.4249 74.1166 24.4428C67.8231 18.5017 59.337 14.8584 49.9992 14.8584C37.7979 14.8584 27.0504 21.0777 20.75 30.518H33.1969V33.9243H33.1973Z" fill="#083A74"/>
<path d="M14.8594 50.0006C14.8594 63.4547 22.4214 75.141 33.5258 81.0462L17.6669 36.2168C15.8604 40.4491 14.8594 45.1079 14.8594 50.0006Z" fill="#083A74"/>
<path d="M80.5816 32.6836C81.0843 35.6433 80.9321 38.9699 80.1608 42.3094H80.3006L79.7692 43.8278C79.4543 44.9241 79.0579 46.0456 78.6075 47.1476L66.5156 81.0233C77.5967 75.1109 85.1395 63.4372 85.1395 50.0002C85.1395 43.7037 83.4819 37.7949 80.5816 32.6836Z" fill="#083A74"/>
<path d="M39.1602 83.4365C42.5742 84.5424 46.2158 85.1423 49.9983 85.1423C53.6061 85.1423 57.0866 84.5977 60.363 83.5877L50.0837 54.5303L39.1602 83.4365Z" fill="#083A74"/>
<path d="M79.6975 20.3023C71.7649 12.3697 61.2178 8.00098 49.9993 8.00098C38.7809 8.00098 28.2339 12.3697 20.3013 20.3023C12.3687 28.2349 8 38.7818 8 50.0005C8 61.219 12.3687 71.7659 20.3013 79.6985C28.2339 87.6311 38.781 91.9998 49.9995 91.9998C61.218 91.9998 71.7649 87.6311 79.6977 79.6985C87.6303 71.7659 91.999 61.2188 91.999 50.0005C91.9988 38.7818 87.6301 28.2349 79.6975 20.3023ZM49.9993 89.0371C28.4745 89.0371 10.9627 71.5253 10.9627 50.0005C10.9627 28.4756 28.4745 10.9637 49.9993 10.9637C71.5242 10.9637 89.0359 28.4756 89.0359 50.0005C89.0359 71.5253 71.5244 89.0371 49.9993 89.0371Z" fill="#083A74"/>
</svg>
