<svg width="82" height="92" viewBox="0 0 82 92" fill="none" xmlns="http://www.w3.org/2000/svg">
<path d="M71.1138 17.7153C71.0502 17.2508 70.6434 16.9939 70.3079 16.9658C69.9725 16.9378 63.4236 16.8382 63.4236 16.8382C63.4236 16.8382 57.9465 11.519 57.4055 10.9776C56.8644 10.4362 55.8075 10.6004 55.3973 10.7211C55.3912 10.7229 54.3695 11.0394 52.645 11.5732C52.3573 10.6385 51.9329 9.49047 51.3281 8.33687C49.3778 4.61662 46.5227 2.64743 43.0718 2.6424C43.0679 2.6424 43.0643 2.6424 43.0601 2.6424C42.821 2.6424 42.5825 2.66486 42.3439 2.6866C42.2426 2.56441 42.14 2.4433 42.032 2.32776C40.5296 0.719741 38.6003 -0.063697 36.2911 0.00404519C31.8334 0.131803 27.3964 3.35054 23.7975 9.06676C21.264 13.09 19.3394 18.144 18.7921 22.0557C13.6749 23.6403 10.0947 24.7492 10.0172 24.7734C7.43421 25.584 7.35299 25.6652 7.01428 28.0987C6.75787 29.9411 0 82.2046 0 82.2046L56.6436 91.9997L81.1932 85.8977C81.1932 85.8977 71.1773 18.1798 71.1138 17.7153ZM21.9654 21.0728C23.497 13.9111 29.4979 3.16708 36.3768 2.96925C37.4233 2.94733 38.3047 3.17697 39.0574 3.67237C37.8535 4.2975 36.689 5.19594 35.5966 6.3675C32.7655 9.40458 30.5968 14.1203 29.732 18.6676C27.0331 19.5034 24.3937 20.3208 21.9654 21.0728ZM42.4487 14.7302C39.4813 15.6489 36.2417 16.6521 32.9919 17.6583C33.9068 14.1584 35.6387 10.6737 37.7669 8.39078C38.5586 7.54158 39.6662 6.5939 40.9776 6.05287C42.2113 8.62365 42.4785 12.2681 42.4487 14.7302ZM45.4117 13.8127C45.3788 11.5556 45.1093 8.4163 44.0579 5.70247C47.4398 6.34324 49.105 10.1699 49.8078 12.4515C48.5045 12.8549 47.0199 13.3146 45.4117 13.8127Z" fill="#95BF47"/>
<path d="M70.3074 16.966C69.972 16.938 63.4231 16.8385 63.4231 16.8385C63.4231 16.8385 57.946 11.5192 57.405 10.9778C57.2032 10.7758 56.9295 10.6725 56.6445 10.6279L56.646 91.9994L81.1927 85.8979C81.1927 85.8979 71.1769 18.18 71.1133 17.7155C71.0497 17.251 70.6429 16.9941 70.3074 16.966Z" fill="#5E8E3E"/>
<path d="M43.0393 29.5888L40.1879 40.2552C40.1879 40.2552 37.0074 38.8069 33.2367 39.045C27.7079 39.3941 27.6491 42.8817 27.7043 43.7557C28.0054 48.5262 40.5552 49.5686 41.2606 60.7419C41.8157 69.5326 36.5979 75.5457 29.0796 76.0204C20.0577 76.59 15.0898 71.2664 15.0898 71.2664L17.0015 63.1328C17.0015 63.1328 22.001 66.9048 26.003 66.6522C28.6171 66.4871 29.5511 64.361 29.4562 62.8574C29.0632 56.6344 18.8441 57.001 18.1984 46.7762C17.6551 38.1707 23.3059 29.4528 35.7747 28.6654C40.5791 28.3622 43.0393 29.5888 43.0393 29.5888Z" fill="white"/>
</svg>
