<svg width="94" height="94" viewBox="0 0 94 94" fill="none" xmlns="http://www.w3.org/2000/svg">
<g clip-path="url(#clip0_1340_7130)">
<path d="M47 94C72.9574 94 94 72.9574 94 47C94 21.0426 72.9574 0 47 0C21.0426 0 0 21.0426 0 47C0 72.9574 21.0426 94 47 94Z" fill="#5F4C93"/>
<path d="M57.228 71.4307L56.8608 71.3959L56.4936 71.4307L54.6577 70.9203C53.7683 70.555 52.9612 70.015 52.2842 69.3322C51.6071 68.6495 51.0739 67.8379 50.7159 66.9455L47 57.3289L43.262 66.9455C42.9113 67.8366 42.3846 68.6479 41.7134 69.3308C41.0421 70.0137 40.24 70.5543 39.3552 70.9203L37.4862 71.4307L37.119 71.3959L36.7518 71.4307L34.8828 70.9203C34.0009 70.5493 33.2015 70.007 32.5309 69.3246C31.8602 68.6423 31.3317 67.8337 30.9759 66.9455L13.7695 22.5691H15.8423C18.7302 22.5691 20.9058 24.0654 22.3654 27.0212L37.1116 65.1445L43.5686 48.4944L33.5114 22.5691H35.5841C38.4721 22.5691 40.6458 24.0654 42.1072 27.0212L47 39.6562L51.8928 27.0176C53.3615 24.0617 55.5279 22.5654 58.4159 22.5654H60.4556L50.4314 48.4907L56.8571 65.1408L71.6383 27.0176C73.0979 24.0617 75.2734 22.5654 78.1614 22.5654H80.2305L63.0039 66.9455C62.6529 67.8365 62.1261 68.6475 61.4548 69.3304C60.7836 70.0134 59.9817 70.5541 59.097 70.9203L57.228 71.4307Z" fill="white"/>
</g>
<defs>
<clipPath id="clip0_1340_7130">
<rect width="94" height="94" fill="white"/>
</clipPath>
</defs>
</svg>
