<svg width="84" height="84" viewBox="0 0 84 84" fill="none" xmlns="http://www.w3.org/2000/svg">
<rect width="84" height="84" rx="13" fill="#DEC5FF"/>
<path d="M51.0529 25.3538C47.0077 21.2745 43.148 17.3858 41.9993 13C40.8505 17.3858 36.9903 21.2745 32.9457 25.3538C26.8788 31.4707 20 38.4034 20 48.8013C19.9982 61.0595 29.8463 70.9981 41.9966 71C54.1469 71.0018 63.9981 61.0663 64 48.8081C64 48.8058 64 48.8036 64 48.8013C64 38.4041 57.1218 31.4707 51.0529 25.3538ZM29.3507 53.9731C28.0017 53.9269 23.0234 45.2698 32.2591 36.0521L38.3707 42.7873C38.576 42.9919 38.578 43.3256 38.3752 43.5327C38.361 43.5473 38.3458 43.561 38.33 43.5738C36.8716 45.0828 30.6556 51.3716 29.8829 53.5462C29.7235 53.995 29.4905 53.978 29.3507 53.9731ZM42 65.3831C37.8212 65.3831 34.4337 61.9655 34.4336 57.7496V57.7495C34.4616 55.8986 35.1285 54.1154 36.3195 52.7073C37.6838 51.0242 41.999 46.2904 41.999 46.2904C41.999 46.2904 46.2481 51.0938 47.6682 52.6914C48.9054 54.0788 49.5826 55.8834 49.5663 57.7496C49.5664 61.9655 46.1788 65.3831 42 65.3831ZM56.482 53.0043C56.319 53.364 55.949 53.9648 55.4497 53.9831C54.5597 54.0159 54.4646 53.5557 53.8067 52.5736C52.3625 50.4174 39.7589 37.1282 37.4015 34.5581C35.3279 32.2976 37.1095 30.7039 37.9359 29.8687C38.9727 28.8209 41.9991 25.7694 41.9991 25.7694C41.9991 25.7694 51.0232 34.4074 54.7822 40.3095C58.5413 46.2116 57.2459 51.3189 56.482 53.0043Z" fill="#0077C0"/>
</svg>
