<svg width="439" height="414" viewBox="0 0 439 414" fill="none" xmlns="http://www.w3.org/2000/svg">
<path d="M210.184 412.699V366.432C210.184 351.422 198.018 339.256 183.008 339.256H121.09C106.08 339.256 93.9141 351.422 93.9141 366.432V412.699H210.184Z" fill="#DEE3F8"/>
<path d="M107.579 398.96C106.762 398.659 98.0206 395.517 91.4356 397.842C84.717 400.209 78.7352 403.999 74.4711 400.083C72.1883 403.614 70.4666 407.92 69.3901 412.997H68.5312C69.8673 406.839 72.0623 401.888 75.0322 398.014C77.0974 394.398 82.7815 386.603 92.4243 387.508C104.35 388.627 107.362 398.101 107.579 398.96Z" fill="#083A74"/>
<path d="M90.7548 344.759C85.0287 346.74 81.4556 366.113 78.9132 376.187C76.7602 384.754 68.6674 389.449 66.3845 390.609C65.35 398.145 65.35 405.077 65.4378 412.998H64.6209C64.5789 405.119 64.5331 398.233 65.5676 390.697C65.1362 390.224 64.0597 388.888 63.155 386.994L63.0252 403.57C63.8421 407.876 64.1017 411.235 64.1437 412.998H63.3268C63.2848 411.964 63.197 410.372 62.9832 408.349L62.9412 412.998H62.1243L62.2121 403.657C61.609 400.558 60.792 397.026 59.456 393.11C59.372 392.896 59.2842 392.636 59.1964 392.423C59.6698 401.592 59.7575 409.731 59.7995 413.002H58.9826C58.9826 412.14 58.9406 410.979 58.9406 409.559C58.8986 409.559 58.8528 409.559 58.8528 409.517L58.639 409.429C42.751 415.327 28.0693 393.759 28.0693 393.759C50.5881 393.114 57.1731 403.402 58.8948 407.494C58.8108 402.974 58.6352 396.729 58.2497 390.186C57.261 388.075 55.9669 385.922 54.4628 383.727C52.0502 383.295 41.2469 380.971 33.1502 371.5C23.9809 360.78 7.96309 348.294 0 347.519C0 347.519 13.819 342.266 32.1616 349.672C50.1148 356.948 57.0052 372.79 55.1079 383.169C56.2264 384.803 57.261 386.441 58.1237 388.079C57.3488 375.893 55.8409 363.105 53.0427 358.631C47.1448 349.16 26.9508 318.632 26.779 318.331C26.6912 318.201 26.6912 318.029 26.779 317.899C26.7371 317.899 26.6912 317.816 26.6912 317.77C26.0461 316.907 34.0092 317.51 43.4382 325.779C52.7373 334.001 58.9368 344.808 53.6001 357.94C53.6421 358.028 53.6879 358.112 53.7299 358.2C56.7876 363.109 58.2955 377.145 59.0704 389.976C59.5018 390.964 59.8873 391.915 60.2347 392.862C61.0936 395.4 61.6967 397.771 62.2579 400.008L62.3877 385.025C62.2999 384.723 62.2159 384.463 62.1281 384.208C61.0096 379.298 60.8379 374.305 62.7733 368.537C63.0329 364.533 63.3344 360.616 63.8078 356.871C58.9444 352.695 56.0165 347.874 57.0472 339.521C57.9519 332.115 64.8843 319.201 72.5458 311.15C80.2112 303.099 86.7122 304.218 86.7122 304.218C77.371 312.83 72.5038 332.89 71.3433 342.881C70.3546 351.664 66.3502 355.279 64.6705 356.444V356.703C64.2392 359.761 63.9834 362.945 63.7238 366.174C64.9301 363.376 66.5639 360.406 68.8887 357.135C80.4631 340.884 90.7548 344.759 90.7548 344.759Z" fill="#083A74"/>
<path d="M119.818 354.14C119.517 354.357 88.8631 377.044 81.026 383.415C73.4065 389.657 70.177 395.169 68.024 412.993H67.207C69.402 394.822 72.6736 389.225 80.5527 382.812C80.5947 382.77 80.7244 382.682 80.7664 382.64C80.1213 368.432 89.5922 360.339 101.132 355.732C111.077 351.727 118.139 352.72 119.387 353.491C119.559 353.361 119.773 353.403 119.902 353.579C120.032 353.754 119.99 354.014 119.818 354.14Z" fill="#083A74"/>
<path d="M187.043 316.554H117.055C104.274 316.554 93.9141 306.193 93.9141 293.412V223.424C93.9141 210.644 104.274 200.283 117.055 200.283H187.043C199.824 200.283 210.184 210.644 210.184 223.424V293.412C210.184 306.193 199.824 316.554 187.043 316.554Z" fill="#DEE3F8"/>
<path d="M330.086 90.5533H231.307C229.043 90.5533 227.207 88.7171 227.207 86.4534V85.0257C227.207 82.762 229.043 80.9258 231.307 80.9258H330.086C332.35 80.9258 334.186 82.762 334.186 85.0257V86.4534C334.19 88.7171 332.353 90.5533 330.086 90.5533Z" fill="#DEE3F8"/>
<path d="M330.086 112.738H231.307C229.043 112.738 227.207 110.902 227.207 108.638V107.206C227.207 104.943 229.043 103.106 231.307 103.106H330.086C332.35 103.106 334.186 104.943 334.186 107.206V108.638C334.19 110.905 332.353 112.738 330.086 112.738Z" fill="#DEE3F8"/>
<path d="M330.086 134.93H231.307C229.043 134.93 227.207 133.094 227.207 130.83V129.399C227.207 127.135 229.043 125.299 231.307 125.299H330.086C332.35 125.299 334.186 127.135 334.186 129.399V130.83C334.19 133.094 332.353 134.93 330.086 134.93Z" fill="#DEE3F8"/>
<path d="M72.5876 154.62C72.351 154.62 72.1562 154.425 72.1562 154.189V19.5222C72.1562 8.7571 80.9134 0 91.6784 0H358.438C369.299 0 378.136 8.83346 378.136 19.694V90.5563C378.136 90.793 377.945 90.9877 377.705 90.9877C377.464 90.9877 377.273 90.793 377.273 90.5563V19.694C377.273 9.30682 368.825 0.858909 358.438 0.858909H91.6784C81.3867 0.858909 73.019 9.23046 73.019 19.5222V154.192C73.019 154.429 72.8243 154.62 72.5876 154.62Z" fill="black"/>
<path d="M376.846 38.6977H73.2751C73.0384 38.6977 72.8438 38.503 72.8438 38.2663C72.8438 38.0296 73.0384 37.835 73.2751 37.835H376.846C377.087 37.835 377.277 38.0296 377.277 38.2663C377.274 38.5068 377.083 38.6977 376.846 38.6977Z" fill="black"/>
<path d="M187.043 178.273H117.055C104.274 178.273 93.9141 167.913 93.9141 155.132V85.144C93.9141 72.3634 104.274 62.0029 117.055 62.0029H187.043C199.824 62.0029 210.184 72.3634 210.184 85.144V155.132C210.184 167.913 199.824 178.273 187.043 178.273Z" fill="#DEE3F8"/>
<path d="M100.833 20.552C100.833 23.1898 98.6948 25.3238 96.0608 25.3238C93.4268 25.3238 91.2891 23.186 91.2891 20.552C91.2891 17.918 93.4268 15.7803 96.0608 15.7803C98.6948 15.7803 100.833 17.9142 100.833 20.552Z" fill="#FE6555"/>
<path d="M124.047 20.552C124.047 23.1898 121.91 25.3238 119.276 25.3238C116.642 25.3238 114.504 23.186 114.504 20.552C114.504 17.918 116.642 15.7803 119.276 15.7803C121.91 15.7803 124.047 17.9142 124.047 20.552Z" fill="#FE6555"/>
<path d="M147.266 20.552C147.266 23.1898 145.128 25.3238 142.494 25.3238C139.86 25.3238 137.723 23.186 137.723 20.552C137.723 17.918 139.86 15.7803 142.494 15.7803C145.128 15.7803 147.266 17.9142 147.266 20.552Z" fill="#FE6555"/>
<path d="M281.983 165.115H233.601C230.07 165.115 227.207 162.252 227.207 158.721V156.492C227.207 152.961 230.07 150.098 233.601 150.098H281.983C285.514 150.098 288.377 152.961 288.377 156.492V158.721C288.377 162.252 285.514 165.115 281.983 165.115Z" fill="#FE6555"/>
<path d="M330.086 228.151H231.307C229.043 228.151 227.207 226.315 227.207 224.051V222.619C227.207 220.356 229.043 218.52 231.307 218.52H330.086C332.35 218.52 334.186 220.356 334.186 222.619V224.051C334.19 226.315 332.353 228.151 330.086 228.151Z" fill="#DEE3F8"/>
<path d="M330.086 250.336H231.307C229.043 250.336 227.207 248.5 227.207 246.236V244.805C227.207 242.541 229.043 240.705 231.307 240.705H330.086C332.35 240.705 334.186 242.541 334.186 244.805V246.236C334.19 248.5 332.353 250.336 330.086 250.336Z" fill="#DEE3F8"/>
<path d="M330.086 272.525H231.307C229.043 272.525 227.207 270.689 227.207 268.425V266.993C227.207 264.73 229.043 262.894 231.307 262.894H330.086C332.35 262.894 334.186 264.73 334.186 266.993V268.425C334.19 270.689 332.353 272.525 330.086 272.525Z" fill="#DEE3F8"/>
<path d="M281.983 302.709H233.601C230.07 302.709 227.207 299.846 227.207 296.311V294.082C227.207 290.551 230.07 287.688 233.601 287.688H281.983C285.514 287.688 288.377 290.551 288.377 294.082V296.311C288.377 299.846 285.514 302.709 281.983 302.709Z" fill="#FE6555"/>
<path d="M330.086 367.121H231.307C229.043 367.121 227.207 365.284 227.207 363.021V361.589C227.207 359.325 229.043 357.489 231.307 357.489H330.086C332.35 357.489 334.186 359.325 334.186 361.589V363.021C334.19 365.284 332.353 367.121 330.086 367.121Z" fill="#DEE3F8"/>
<path d="M330.086 389.306H231.307C229.043 389.306 227.207 387.47 227.207 385.206V383.775C227.207 381.511 229.043 379.675 231.307 379.675H330.086C332.35 379.675 334.186 381.511 334.186 383.775V385.206C334.19 387.47 332.353 389.306 330.086 389.306Z" fill="#DEE3F8"/>
<path d="M330.086 411.495H231.307C229.043 411.495 227.207 409.658 227.207 407.395V405.967C227.207 403.703 229.043 401.867 231.307 401.867H330.086C332.35 401.867 334.186 403.703 334.186 405.967V407.395C334.19 409.658 332.353 411.495 330.086 411.495Z" fill="#DEE3F8"/>
<path d="M428.496 413.641H15.7126C15.476 413.641 15.2812 413.45 15.2812 413.21C15.2812 412.973 15.476 412.778 15.7126 412.778H428.499C428.74 412.778 428.931 412.969 428.931 413.21C428.927 413.45 428.736 413.641 428.496 413.641Z" fill="black"/>
<path d="M270.005 210.796C269.001 207.375 268.539 205.978 268.947 200.302C269.356 194.621 271.073 192.499 270.203 191.518C269.333 190.537 265.279 187.54 264.145 186.509C263.011 185.483 263.217 182.963 265.225 183.433C267.229 183.898 269.68 185.231 269.68 185.231L264.477 180.153C262.786 178.485 264.049 175.347 267.588 177.038L273.517 180.764L266.802 174.473C264.504 172.427 266.886 169.106 270.081 171.461C270.081 171.461 273.211 173.691 276.441 176.004C275.88 174.061 275.089 171.45 274.444 169.896C273.326 167.201 270.043 159.711 273.654 159.578C276.842 159.463 283.442 178.378 284.961 182.86C285.625 184.169 285.511 185.914 284.778 189.544C283.526 195.74 282.495 208.795 282.495 208.795L284.805 258.914L263.775 280.207L270.005 210.796Z" fill="white"/>
<path d="M263.778 280.637C263.717 280.637 263.652 280.622 263.595 280.595C263.431 280.519 263.331 280.347 263.35 280.168L269.569 210.836L269.527 210.679C268.557 207.393 268.115 205.892 268.519 200.269C268.729 197.383 269.275 195.368 269.642 194.032C269.993 192.742 270.149 192.108 269.882 191.802C269.39 191.245 267.733 189.94 266.271 188.787C265.271 188 264.324 187.252 263.858 186.828C263.049 186.095 262.786 184.748 263.27 183.824C263.652 183.095 264.393 182.793 265.324 183.011C266.061 183.183 266.847 183.461 267.561 183.752L264.183 180.457C263.213 179.503 263.022 178.083 263.725 177.083C264.018 176.663 265.164 175.395 267.779 176.644L269.962 178.018L266.511 174.785C265.183 173.601 265.24 172.04 265.988 171.116C266.801 170.12 268.458 169.73 270.336 171.116C270.336 171.116 272.844 172.899 275.677 174.93C275.211 173.364 274.577 171.345 274.051 170.062L273.906 169.715C272.237 165.726 270.852 161.794 271.985 160.019C272.226 159.641 272.711 159.183 273.638 159.148C273.654 159.148 273.665 159.148 273.677 159.148C276.898 159.148 282.38 173.903 285.365 182.725C286.106 184.175 285.892 186.199 285.197 189.63C283.964 195.731 282.934 208.698 282.922 208.828L285.232 258.897C285.239 259.019 285.19 259.134 285.106 259.222L264.08 280.511C263.999 280.595 263.889 280.637 263.778 280.637ZM264.755 183.805C264.419 183.805 264.175 183.946 264.026 184.225C263.732 184.794 263.923 185.729 264.431 186.191C264.874 186.596 265.809 187.332 266.801 188.115C268.359 189.344 269.974 190.619 270.523 191.234C271.111 191.898 270.871 192.787 270.47 194.261C270.092 195.643 269.577 197.536 269.378 200.334C268.985 205.801 269.412 207.255 270.348 210.443L270.42 210.679C270.432 210.729 270.439 210.783 270.432 210.836L264.312 279.061L284.369 258.756L282.067 208.824C282.079 208.641 283.117 195.62 284.361 189.466C285.106 185.767 285.163 184.21 284.579 183.064C279.891 169.238 275.532 160.015 273.692 160.015C273.684 160.015 273.673 160.015 273.673 160.015C273.211 160.03 272.905 160.183 272.711 160.488C271.661 162.126 273.791 167.215 274.696 169.387L274.841 169.734C275.501 171.334 276.299 173.964 276.853 175.888C276.902 176.063 276.837 176.25 276.688 176.357C276.54 176.46 276.341 176.464 276.188 176.357C272.966 174.044 269.832 171.815 269.832 171.815C268.401 170.761 267.214 170.982 266.656 171.658C266.179 172.25 266.11 173.28 267.092 174.151L273.814 180.449C273.974 180.602 273.997 180.85 273.856 181.026C273.722 181.205 273.478 181.247 273.287 181.129L267.363 177.403C266.061 176.789 264.946 176.842 264.423 177.583C263.973 178.228 264.125 179.201 264.778 179.85L269.977 184.924C270.13 185.072 270.153 185.313 270.023 185.485C269.894 185.656 269.653 185.706 269.47 185.607C269.447 185.592 267.042 184.301 265.122 183.851C264.992 183.82 264.87 183.805 264.755 183.805Z" fill="black"/>
<path d="M407.289 293.589L387.656 330.537L395.596 344.062L422.223 301.079L407.289 293.589Z" fill="white"/>
<path d="M395.597 344.49H395.59C395.441 344.486 395.3 344.406 395.227 344.28L387.287 330.755C387.21 330.625 387.207 330.465 387.275 330.335L406.908 293.386C407.019 293.18 407.271 293.089 407.481 293.203L422.418 300.697C422.529 300.75 422.605 300.849 422.64 300.964C422.674 301.082 422.659 301.204 422.594 301.308L395.968 344.291C395.884 344.414 395.746 344.49 395.597 344.49ZM388.15 330.526L395.609 343.226L421.609 301.254L407.469 294.158L388.15 330.526Z" fill="black"/>
<path d="M397.484 248.225C397.484 248.225 403.073 294.518 409.162 300.13C415.235 305.753 428.325 312.277 426.939 281.902C425.527 251.504 414.308 217.865 414.308 217.865L405.432 211.772L397.484 248.225Z" fill="#083A74"/>
<path d="M418.692 305.33C414.519 305.33 410.267 301.746 408.866 300.451C402.735 294.794 397.284 250.18 397.055 248.279C397.047 248.233 397.051 248.184 397.062 248.138L405.006 211.686C405.037 211.544 405.136 211.43 405.27 211.376C405.396 211.327 405.556 211.342 405.671 211.418L414.546 217.507C414.622 217.56 414.683 217.637 414.71 217.728C414.825 218.064 425.968 251.768 427.365 281.88C427.96 294.943 425.952 302.635 421.398 304.75C420.52 305.158 419.612 305.33 418.692 305.33ZM397.917 248.249C398.169 250.321 403.655 294.477 409.45 299.818C411.065 301.307 416.661 306.002 421.036 303.971C425.181 302.043 427.075 294.42 426.502 281.922C425.155 252.91 414.714 220.515 413.939 218.137L405.713 212.491L397.917 248.249Z" fill="black"/>
<path d="M331.783 167.954C325.794 149.757 331.997 130.689 331.997 130.689C335.379 131.265 343.274 130.57 348.996 130.689C354.65 130.807 354.634 137.915 354.94 141.217C355.348 144.561 358.276 151.849 360.261 152.31C361.265 148.447 361.265 136.289 367.587 140.236C373.874 144.187 371.828 146.245 371.419 153.387C371.064 160.522 380.635 158.754 380.635 158.754C377.455 175.963 380.429 180.25 377.73 184.319C371.633 193.47 360.925 193.901 352.256 189.98C354.165 181.681 355.077 174.138 355.077 174.138C341.888 182.059 335.192 177.822 331.783 167.954Z" fill="white"/>
<path d="M362.647 192.729C358.902 192.729 355.203 191.786 352.08 190.373C351.897 190.289 351.794 190.083 351.84 189.885C353.348 183.323 354.245 177.173 354.543 174.955C348.4 178.501 343.472 179.513 339.502 178.078C335.914 176.772 333.257 173.504 331.386 168.095L331.382 168.087C325.42 149.966 331.535 130.746 331.596 130.555C331.665 130.352 331.848 130.219 332.081 130.265C334.077 130.604 337.723 130.494 341.571 130.372C344.11 130.291 346.732 130.207 349.015 130.257C354.546 130.372 355.02 136.533 355.298 140.213C355.325 140.56 355.348 140.885 355.375 141.175C355.776 144.45 358.318 150.478 359.967 151.692C360.112 150.986 360.242 150.088 360.387 149.081C360.941 145.237 361.631 140.453 364.143 139.285C365.189 138.804 366.418 139.003 367.816 139.869C373.023 143.137 372.755 145.282 372.225 149.558C372.087 150.669 371.931 151.928 371.847 153.406C371.767 155.001 372.217 156.238 373.183 157.086C375.596 159.204 380.505 158.338 380.554 158.326C380.692 158.292 380.833 158.345 380.936 158.445C381.031 158.544 381.081 158.689 381.054 158.826C379.401 167.771 379.417 173.291 379.428 176.94C379.44 180.406 379.443 182.494 378.084 184.548C374.088 190.56 368.32 192.729 362.647 192.729ZM352.756 189.732C360.288 193.007 371.114 193.469 377.371 184.079C378.592 182.246 378.585 180.364 378.573 176.948C378.562 173.344 378.546 167.939 380.104 159.265C378.615 159.441 374.832 159.67 372.622 157.738C371.446 156.712 370.896 155.238 370.988 153.364C371.076 151.852 371.232 150.581 371.37 149.459C371.885 145.301 372.099 143.58 367.358 140.602C366.212 139.885 365.273 139.709 364.502 140.068C362.41 141.041 361.735 145.759 361.234 149.207C361.051 150.501 360.887 151.615 360.681 152.421C360.62 152.646 360.387 152.784 360.166 152.73C357.856 152.192 354.921 144.618 354.516 141.27C354.485 140.961 354.462 140.633 354.436 140.282C354.161 136.674 353.745 131.219 348.992 131.12C346.74 131.074 344.125 131.154 341.594 131.234C337.918 131.349 334.44 131.456 332.306 131.169C331.516 133.834 326.763 151.302 332.196 167.82C333.978 172.97 336.46 176.062 339.792 177.268C343.606 178.654 348.683 177.478 354.859 173.772C354.997 173.688 355.172 173.691 355.317 173.779C355.455 173.867 355.527 174.031 355.508 174.191C355.497 174.264 354.596 181.639 352.756 189.732Z" fill="black"/>
<path d="M402.602 205.681C395.131 195.409 358.82 189.946 358.82 189.946C358.82 189.946 331.396 188.698 325.475 193.404C324.826 193.912 324.223 194.58 323.646 195.367C317.825 201.623 298.898 222.104 284.022 239.843C266.263 260.999 257.124 279.987 266.263 285.327C269.92 287.484 279.002 289.584 314.969 246.982C314.939 247.512 314.908 248.005 314.882 248.543C313.019 283.438 317.386 310.599 314.271 321.161C315.668 321.161 316.141 321.161 316.141 321.161H392.818C392.818 321.161 391.871 295.917 395.127 274.41C398.425 252.902 410.095 215.988 402.602 205.681Z" fill="#083A74"/>
<path d="M392.817 321.593H314.271C314.137 321.593 314.007 321.528 313.923 321.421C313.843 321.31 313.82 321.169 313.855 321.043C315.431 315.695 315.053 305.701 314.576 293.05C314.114 280.8 313.542 265.554 314.446 248.524L314.462 248.245C281.036 287.656 270.821 288.523 266.038 285.702C264.041 284.534 262.816 282.717 262.396 280.293C260.995 272.203 268.752 257.361 283.686 239.569C298.581 221.806 317.79 201.02 323.322 195.077C323.925 194.252 324.547 193.584 325.2 193.073C331.178 188.324 357.697 189.477 358.827 189.522C360.362 189.751 395.451 195.134 402.937 205.433C408.495 213.076 403.743 234.961 399.555 254.273C397.952 261.648 396.444 268.615 395.547 274.479C392.329 295.696 393.23 320.894 393.237 321.146C393.241 321.265 393.199 321.379 393.115 321.463C393.043 321.543 392.932 321.593 392.817 321.593ZM314.836 320.73H392.375C392.272 317.245 391.71 294.089 394.703 274.349C395.608 268.455 397.12 261.477 398.723 254.09C402.876 234.953 407.583 213.27 402.25 205.941C394.974 195.932 359.114 190.431 358.755 190.378C358.526 190.374 331.472 189.194 325.746 193.748C325.154 194.21 324.581 194.825 323.994 195.626C318.435 201.608 299.234 222.379 284.354 240.126C269.584 257.72 261.896 272.31 263.251 280.151C263.629 282.312 264.713 283.934 266.484 284.965C269.107 286.519 277.062 291.226 314.641 246.715C314.763 246.573 314.962 246.528 315.13 246.593C315.301 246.661 315.412 246.833 315.401 247.016L315.313 248.574C314.404 265.569 314.981 280.789 315.443 293.024C315.924 305.812 316.275 315.172 314.836 320.73Z" fill="black"/>
<path d="M345.596 413.216C349.413 399.939 352.021 393.007 352.586 401.584C352.036 404.741 351.62 408.673 351.311 413.216H405.77C405.816 412.433 405.858 411.659 405.896 410.91C408.671 354.371 392.821 321.167 392.821 321.167C392.821 321.167 339.118 311.677 314.496 320.698C302.929 347.164 292.133 381.089 285.781 413.22L345.596 413.216Z" fill="white"/>
<path d="M405.763 413.643H351.304C351.186 413.643 351.071 413.593 350.987 413.506C350.907 413.418 350.865 413.303 350.873 413.181C351.197 408.478 351.625 404.55 352.155 401.507C351.949 398.591 351.529 398.251 351.483 398.224C350.686 398.434 348.823 403.515 346.002 413.33C345.948 413.513 345.78 413.643 345.589 413.643H285.778C285.649 413.643 285.526 413.586 285.446 413.486C285.366 413.387 285.332 413.257 285.355 413.131C291.508 381.989 301.987 348.236 314.096 320.525C314.142 320.418 314.229 320.334 314.34 320.292C338.794 311.337 392.349 320.643 392.887 320.739C393.024 320.762 393.143 320.853 393.204 320.979C393.36 321.312 409.069 354.935 406.32 410.929C406.286 411.612 406.248 412.311 406.206 413.017L406.194 413.238C406.179 413.464 405.992 413.643 405.763 413.643ZM351.762 412.784H405.355C405.393 412.143 405.427 411.505 405.458 410.887C408.084 357.363 393.807 324.404 392.517 321.548C388.734 320.903 338.317 312.551 314.806 321.037C302.819 348.507 292.444 381.905 286.301 412.78H345.265C349.048 399.664 350.395 397.297 351.606 397.377C352.411 397.461 352.82 398.671 353.01 401.553C352.495 404.569 352.079 408.314 351.762 412.784Z" fill="black"/>
<path d="M336.21 105.066C347.384 98.0418 379.057 90.6284 386.531 112.502C386.531 112.502 393.708 116.354 395.056 131.998C397.163 156.456 416.761 189.258 419.983 240.98C423.327 294.653 363.047 304.918 348.678 260.056C343.021 242.4 344.154 205.543 350.079 181.2C356.565 154.562 353.454 132.952 347.8 132.833C342.078 132.715 333.79 138.899 324.69 137.746C315.593 136.605 311.962 120.309 336.21 105.066Z" fill="black"/>
<path d="M314.947 247.305C314.867 247.305 314.79 247.286 314.714 247.237C314.515 247.107 314.454 246.843 314.584 246.641C326.865 227.356 327.052 200.042 327.052 199.767C327.052 199.527 327.243 199.336 327.483 199.336C327.724 199.336 327.914 199.531 327.914 199.767C327.914 200.046 327.731 227.6 315.313 247.103C315.229 247.237 315.088 247.305 314.947 247.305Z" fill="black"/>
<path d="M181.562 278.074L180.443 271.275H180.439C180.703 271.164 180.855 271.084 180.855 271.084C179.256 257.754 172.533 230.948 171.392 229.291C166.765 225.294 162.349 223.332 162.349 223.332C162.349 223.332 160.768 231.807 152.088 231.807C143.407 231.807 141.826 223.332 141.826 223.332C141.826 223.332 137.41 225.294 132.783 229.291C131.641 230.948 124.919 257.757 123.32 271.084C123.32 271.084 123.476 271.16 123.739 271.271L122.617 278.07C122.617 278.07 125.473 279.555 129.416 279.497L130.603 272.645C130.794 272.653 130.97 272.676 131.168 272.68L135.054 257.601C135.054 257.601 135.092 271.645 131.958 291.774C131.874 292.305 132.13 292.843 132.619 293.076C134.982 294.213 142.372 297.351 152.099 297.439C162.421 297.531 169.522 294.221 171.686 293.064C172.114 292.835 172.32 292.358 172.236 291.881C168.945 273.55 169.14 257.597 169.14 257.597L173.026 272.676C173.224 272.668 173.4 272.649 173.591 272.641L174.778 279.494C178.706 279.559 181.562 278.074 181.562 278.074Z" fill="#FE6555"/>
<path d="M181.626 138.457C181.626 135.372 174.82 135.907 172.484 134.525C170.144 133.143 168.655 131.017 165.681 131.44C165.299 131.494 164.902 131.582 164.498 131.677C164.127 131.765 163.746 131.856 163.352 131.94C163.337 131.944 163.322 131.948 163.307 131.952C162.894 132.04 162.471 132.112 162.039 132.15C162.035 132.15 162.028 132.15 162.024 132.15C161.589 132.189 161.142 132.196 160.688 132.147C160.531 132.131 160.367 132.097 160.207 132.066C159.901 132.005 159.592 131.929 159.279 131.811C158.802 131.627 158.313 131.368 157.817 131.009C157.451 130.746 157.077 130.406 156.699 130.024C156.382 129.707 156.065 129.345 155.744 128.936C155.408 128.509 155.072 128.047 154.733 127.508C153.332 125.302 151.163 121.462 148.8 117.335C148.61 117.003 148.419 116.671 148.228 116.335C148.018 115.972 147.812 115.613 147.606 115.251C147.285 114.697 146.964 114.14 146.64 113.586C146.529 113.395 146.418 113.208 146.308 113.018C145.937 112.388 145.571 111.758 145.201 111.139C145.155 111.059 145.105 110.975 145.056 110.895C145.021 110.838 144.987 110.781 144.953 110.723C144.555 110.059 144.162 109.402 143.773 108.765C143.727 108.692 143.685 108.62 143.639 108.547C143.227 107.872 142.819 107.219 142.422 106.593C142.395 106.551 142.368 106.509 142.341 106.463C141.933 105.822 141.532 105.207 141.147 104.631C141.135 104.612 141.12 104.593 141.108 104.573C140.715 103.989 140.337 103.447 139.978 102.951C139.975 102.943 139.967 102.936 139.963 102.928C139.959 102.924 139.956 102.921 139.952 102.913C139.589 102.417 139.245 101.966 138.921 101.577C138.917 101.569 138.91 101.562 138.906 101.558C138.581 101.168 138.284 100.84 138.005 100.573C138.001 100.569 137.997 100.565 137.997 100.561C137.856 100.428 137.726 100.313 137.6 100.214C137.501 100.138 137.409 100.08 137.318 100.027C137.295 100.016 137.272 99.9926 137.249 99.9811C137.024 99.859 136.825 99.817 136.665 99.8628C134.271 100.561 128.332 109.948 128.297 112.872C128.293 113.067 128.32 113.231 128.374 113.365C128.374 113.369 128.377 113.373 128.377 113.376C128.48 113.636 128.599 113.865 128.721 114.086C128.725 114.094 128.729 114.098 128.732 114.106C128.858 114.323 128.988 114.533 129.126 114.743C129.255 114.945 129.393 115.151 129.534 115.369C129.549 115.392 129.561 115.411 129.576 115.434C129.721 115.663 129.866 115.911 130.015 116.19C130.019 116.201 130.026 116.213 130.03 116.22C130.336 116.804 130.637 117.522 130.916 118.503C131.027 118.896 131.134 119.343 131.237 119.824C131.393 120.561 131.542 121.401 131.672 122.397C131.771 123.179 131.863 124.077 131.947 125.046C131.996 125.607 132.042 126.191 132.084 126.795C132.122 127.344 132.16 127.909 132.195 128.482C132.336 130.776 132.439 133.215 132.519 135.445C132.661 139.35 132.718 142.629 132.729 143.385C132.733 143.492 132.733 143.549 132.733 143.549L135.073 143.442C135.073 143.442 135.054 141.537 135.058 138.892C135.062 137.304 135.077 135.449 135.111 133.582C135.134 132.353 135.165 131.116 135.211 129.952C135.211 129.932 135.214 129.91 135.214 129.89C135.233 129.341 135.26 128.81 135.287 128.299C135.291 128.249 135.291 128.199 135.294 128.15C135.321 127.665 135.348 127.203 135.382 126.768C135.386 126.714 135.39 126.657 135.394 126.604C135.428 126.165 135.462 125.752 135.504 125.382C135.508 125.363 135.508 125.344 135.512 125.325C135.554 124.939 135.604 124.596 135.653 124.302C135.653 124.298 135.653 124.294 135.657 124.29C135.711 123.996 135.768 123.756 135.829 123.576C135.89 123.397 135.959 123.283 136.031 123.241C136.753 122.847 137.635 122.706 138.925 123.538C139.207 123.722 139.505 123.943 139.83 124.225C140.291 124.634 140.845 125.268 141.41 125.92C141.376 125.859 141.33 125.806 141.292 125.745C141.486 125.97 141.673 126.169 141.88 126.428C142.651 127.386 143.361 128.39 144.025 129.402C144.685 130.413 145.3 131.437 145.872 132.437C147.029 134.448 148.045 136.365 149.003 137.911C149.106 138.079 149.209 138.251 149.316 138.422C149.358 138.491 149.4 138.556 149.442 138.625C149.774 139.174 150.11 139.728 150.499 140.266L150.503 140.27C150.503 140.27 150.503 140.27 150.507 140.274C150.785 140.659 151.087 141.03 151.431 141.385C151.434 141.388 151.438 141.392 151.438 141.396C151.442 141.4 151.442 141.4 151.446 141.404C151.789 141.755 152.175 142.087 152.614 142.385C152.618 142.389 152.618 142.389 152.622 142.392C152.625 142.392 152.625 142.396 152.629 142.396C153.072 142.694 153.568 142.965 154.137 143.186C154.141 143.186 154.141 143.19 154.141 143.19C154.714 143.416 155.359 143.599 156.092 143.729C156.825 143.858 157.642 143.931 158.565 143.942C159.489 143.95 160.512 143.893 161.657 143.763C161.825 143.744 162.001 143.725 162.169 143.702C162.997 143.606 163.833 143.507 164.673 143.408C164.864 143.385 165.051 143.362 165.242 143.339C166.353 143.206 167.464 143.068 168.552 142.923C168.578 142.919 168.609 142.915 168.636 142.912C168.651 142.908 168.662 142.908 168.678 142.904C169.811 142.751 170.922 142.591 171.987 142.419C171.991 142.419 171.999 142.419 172.003 142.415C173.881 142.114 175.599 141.77 177.064 141.373C177.286 141.312 177.523 141.255 177.733 141.194C178.527 140.957 179.229 140.697 179.809 140.419C180.389 140.14 180.848 139.835 181.164 139.506C181.306 139.361 181.405 139.205 181.485 139.048C181.561 138.873 181.626 138.67 181.626 138.457Z" fill="#FE6555"/>
<path d="M394.556 106.831L403.882 103.736C406.187 105.492 408.879 106.82 411.883 107.534C423.415 110.286 434.997 103.174 437.753 91.6458C440.51 80.1134 433.394 68.5315 421.862 65.7753C410.333 63.0191 398.766 70.1386 396.014 81.6709C394.88 86.4121 395.434 91.1533 397.258 95.2952L393.239 105.43C392.903 106.27 393.701 107.118 394.556 106.831Z" fill="#FE6555"/>
<path d="M408.837 79.0941C413.231 76.3074 416.617 80.621 416.922 81.0333C417.204 80.6058 420.339 76.1165 424.889 78.6589C428.989 80.9761 431.272 90.1684 417.437 98.0131L417.384 98.0513L417.323 98.0169C403.099 90.9319 404.874 81.6289 408.837 79.0941Z" fill="white"/>
<path d="M92.0346 188.985C92.2443 173.788 80.0947 161.298 64.8975 161.088C49.7004 160.878 37.2106 173.028 37.0009 188.225C36.7911 203.422 48.9408 215.912 64.138 216.122C79.3351 216.332 91.8249 204.182 92.0346 188.985Z" fill="#083A74"/>
<path d="M53.6249 198.983L71.7652 199.044C73.6357 199.052 75.2619 197.838 75.7162 196.093L79.6939 180.934C79.9344 180.014 80.7933 179.373 81.7782 179.377L83.3014 179.381C83.8511 179.385 84.2863 178.953 84.2748 178.419C84.2634 177.884 83.8053 177.453 83.2555 177.449L81.7325 177.445C79.8581 177.438 78.2281 178.655 77.7623 180.408L73.7846 195.567C73.5441 196.479 72.6967 197.116 71.7194 197.113L53.5791 197.048C53.0294 197.048 52.5942 197.475 52.6057 198.01C52.621 198.548 53.0752 198.979 53.6249 198.983Z" fill="white"/>
<path d="M78.0562 182.12L50.5519 181.975C49.5593 181.971 48.8531 182.868 49.1127 183.799L51.762 193.35C51.9452 194.015 52.5674 194.48 53.2698 194.484L75.0023 194.561L78.0562 182.12Z" fill="white"/>
<path d="M68.6218 202.423C68.6562 203.827 69.8587 204.969 71.3093 204.973C72.7599 204.976 73.9051 203.843 73.8708 202.442C73.8364 201.037 72.6339 199.895 71.1833 199.892C69.7365 199.884 68.5875 201.018 68.6218 202.423Z" fill="white"/>
<path d="M53.2351 202.37C53.2695 203.775 54.472 204.916 55.9226 204.924C57.3732 204.927 58.5184 203.794 58.484 202.389C58.4497 200.984 57.2472 199.843 55.7966 199.839C54.3498 199.831 53.2008 200.965 53.2351 202.37Z" fill="white"/>
<path d="M71.5696 191.77C71.8674 191.77 72.1346 191.575 72.2033 191.281L73.5585 185.376C73.6348 185.032 73.4096 184.681 73.0508 184.597C72.7072 184.509 72.3407 184.719 72.2567 185.067L70.9016 190.972C70.8252 191.316 71.0504 191.667 71.4093 191.751C71.4627 191.762 71.5162 191.77 71.5696 191.77Z" fill="#083A74"/>
<path d="M66.423 191.755C66.7666 191.755 67.0491 191.503 67.0681 191.167L67.4232 185.258C67.4461 184.903 67.1674 184.593 66.801 184.563C66.4345 184.551 66.1214 184.796 66.0985 185.147L65.7435 191.056C65.7206 191.411 65.9993 191.721 66.3658 191.751C66.3887 191.751 66.4078 191.755 66.423 191.755Z" fill="#083A74"/>
<path d="M61.2697 191.736C61.2888 191.736 61.3041 191.736 61.3232 191.732C61.6897 191.706 61.953 191.396 61.911 191.041L61.2659 185.128C61.2278 184.773 60.8956 184.525 60.5368 184.537C60.1703 184.563 59.9069 184.872 59.9451 185.227L60.5902 191.141C60.6322 191.48 60.9262 191.736 61.2697 191.736Z" fill="#083A74"/>
<path d="M56.1244 191.718C56.1778 191.718 56.2313 191.71 56.2809 191.699C56.6321 191.615 56.8421 191.267 56.7504 190.924L55.109 185.007C55.0135 184.663 54.6432 184.457 54.292 184.533C53.937 184.617 53.7309 184.965 53.8225 185.308L55.464 191.225C55.5518 191.523 55.8266 191.718 56.1244 191.718Z" fill="#083A74"/>
<path d="M45.8214 182.504C45.8673 184.435 47.524 186.008 49.5205 186.016C51.517 186.024 53.0936 184.462 53.0477 182.531C53.0019 180.599 51.3452 179.026 49.3525 179.019C47.3522 179.011 45.7718 180.572 45.8214 182.504Z" fill="#083A74"/>
<path d="M45.3176 182.504C45.2641 180.301 47.0698 178.515 49.3411 178.522C51.6125 178.53 53.5059 180.328 53.5593 182.531C53.6128 184.733 51.8071 186.52 49.5358 186.512C47.2644 186.505 45.371 184.707 45.3176 182.504ZM46.3406 182.508C46.3826 184.165 47.8027 185.516 49.5129 185.524C51.2231 185.527 52.5821 184.188 52.5401 182.531C52.4981 180.874 51.078 179.523 49.3678 179.515C47.6538 179.507 46.2986 180.851 46.3406 182.508Z" fill="white"/>
<path d="M47.9026 182.017L48.9142 182.02L48.8913 181.039C48.8837 180.765 49.1089 180.543 49.3914 180.547C49.6739 180.547 49.9068 180.768 49.9144 181.043L49.9373 182.024L50.9489 182.028C51.2314 182.028 51.4642 182.253 51.4719 182.524C51.4795 182.799 51.2543 183.021 50.9718 183.017L49.9602 183.013L49.9831 183.994C49.9907 184.269 49.7655 184.49 49.483 184.486C49.2005 184.486 48.9677 184.265 48.96 183.99L48.9371 183.009L47.9255 183.005C47.643 183.005 47.4102 182.78 47.4025 182.509C47.3949 182.238 47.6201 182.017 47.9026 182.017Z" fill="white"/>
<path d="M72.5876 293.934C72.351 293.934 72.1562 293.743 72.1562 293.503V223.324C72.1562 223.083 72.351 222.893 72.5876 222.893C72.8243 222.893 73.019 223.083 73.019 223.324V293.503C73.019 293.743 72.8243 293.934 72.5876 293.934Z" fill="black"/>
</svg>
