<svg width="26" height="25" viewBox="0 0 26 25" fill="none" xmlns="http://www.w3.org/2000/svg">
<path d="M5.39865 7.49681C6.70775 7.49681 7.76899 6.47639 7.76899 5.21764C7.76899 3.95889 6.70775 2.93848 5.39865 2.93848C4.08955 2.93848 3.02832 3.95889 3.02832 5.21764C3.02832 6.47639 4.08955 7.49681 5.39865 7.49681Z" fill="white"/>
<path d="M10.0064 9.22363V21.8684H14.0895V15.6153C14.0895 13.9653 14.4123 12.3674 16.54 12.3674C18.6384 12.3674 18.6644 14.2538 18.6644 15.7195V21.8695H22.7496V14.9351C22.7496 11.5288 21.987 8.91113 17.8465 8.91113C15.8585 8.91113 14.526 9.96009 13.9811 10.9528H13.9259V9.22363H10.0064ZM3.35254 9.22363H7.44212V21.8684H3.35254V9.22363Z" fill="white"/>
</svg>
