<svg width="117" height="121" viewBox="0 0 117 121" fill="none" xmlns="http://www.w3.org/2000/svg">
<path d="M58.1839 94.835C38.5979 94.835 22.7209 78.5126 22.7209 58.3809C22.7209 38.2492 38.5979 21.9267 58.1839 21.9267C77.7698 21.9267 93.6469 38.2492 93.6469 58.3809C93.6469 68.9801 89.2425 78.5201 82.2147 85.1836L104.373 93.8651C111.89 84.0278 116.368 71.7339 116.368 58.3809C116.368 26.1374 90.3169 0 58.1839 0C26.0508 0 0 26.1374 0 58.3809C0 90.6244 26.0508 116.762 58.1839 116.762C67.7616 116.762 76.7874 114.424 84.7535 110.314L77.1038 89.2084C71.6288 92.7687 65.1418 94.835 58.1839 94.835Z" fill="#1A85F8"/>
<path d="M99.1605 101.63L112.013 98.6941L80.66 86.5117C79.9388 87.1212 79.1919 87.6935 78.4229 88.2436L90.1016 120.468L93.2181 107.539L99.6094 114.099C99.786 114.277 100.069 114.281 100.25 114.102L105.544 108.84C105.725 108.661 105.725 108.375 105.548 108.193L99.1605 101.63Z" fill="#1A85F8"/>
<path d="M89.5683 45.5996L77.5106 79.7161H63.5469L58.2779 63.94L52.8212 79.7161H38.8575L26.7998 45.5996H40.3808L46.3453 63.6241L52.5636 45.5996H64.7501L70.7808 63.8137L76.9992 45.5996H89.5683Z" fill="#242424"/>
</svg>
