<svg width="32" height="24" viewBox="0 0 32 24" fill="none" xmlns="http://www.w3.org/2000/svg">
<path d="M29.1667 0H1.94444C1.42875 0 0.934168 0.204861 0.569514 0.569515C0.20486 0.934169 0 1.42875 0 1.94445V21.3889C0 21.9046 0.20486 22.3992 0.569514 22.7638C0.934168 23.1285 1.42875 23.3333 1.94444 23.3333H29.1667C29.6824 23.3333 30.1769 23.1285 30.5416 22.7638C30.9062 22.3992 31.1111 21.9046 31.1111 21.3889V1.94445C31.1111 1.42875 30.9062 0.934169 30.5416 0.569515C30.1769 0.204861 29.6824 0 29.1667 0ZM27.6694 21.3889H3.55833L10.3639 14.35L8.96389 12.9986L1.94444 20.2611V3.42222L14.0292 15.4486C14.3935 15.8108 14.8863 16.014 15.4 16.014C15.9137 16.014 16.4065 15.8108 16.7708 15.4486L29.1667 3.12083V20.1347L22.0111 12.9792L20.6403 14.35L27.6694 21.3889ZM3.21806 1.94445H27.5917L15.4 14.0681L3.21806 1.94445Z" fill="white"/>
</svg>
