<svg width="563" height="563" viewBox="0 0 563 563" fill="none" xmlns="http://www.w3.org/2000/svg">
<g clip-path="url(#clip0_1338_5640)">
<path d="M563 0H0V563H563V0Z" fill="white"/>
<path d="M482.217 430.56C494.73 429.753 500.261 410.756 503.874 401.304C510.242 384.647 518.152 368.672 523.173 351.497C533.22 317.129 537.495 278.894 530.251 243.566C522.554 206.039 493.934 179.282 457.678 168.785C432.612 161.528 407.621 153.39 384.261 141.623C361.7 130.258 342.859 112.281 320.397 101.164C297.752 89.9573 271.997 85.0445 246.818 87.2143C221.422 89.4044 197.187 99.1769 176.4 113.759C155.94 128.111 142.856 149.533 124.538 166.085C105.331 183.441 78.8417 190.046 57.9747 205.316C31.311 224.828 24.0202 258.844 28.6143 290.301C31.3932 309.323 41.0937 326.206 50.9282 342.667C54.206 348.154 57.4995 353.593 60.5566 359.05C76.6483 380.554 80.4452 404.601 74.117 431.179C117.147 429.914 160.178 429.914 203.212 428.157C209.478 427.748 215.75 427.428 222.03 427.186C272.262 425.245 322.889 428.217 373.027 428.584C379.434 428.631 385.765 428.676 391.956 428.719C402.777 428.56 413.207 429.151 423.678 429.637C434.149 430.122 444.661 430.504 455.654 429.934C472.029 430.37 482.201 430.561 482.217 430.56Z" fill="url(#paint0_linear_1338_5640)"/>
<path d="M106.128 256.055H120.575C121.397 256.055 122.063 255.389 122.063 254.567V247.838C125.794 246.89 129.295 245.371 132.468 243.365L132.471 243.364L137.107 248C137.688 248.581 138.631 248.581 139.211 248L149.427 237.784C150.008 237.203 150.008 236.261 149.427 235.681L144.657 230.911C144.658 230.909 144.661 230.907 144.661 230.907C146.582 227.698 148.015 224.161 148.866 220.404C148.866 220.404 148.867 220.402 148.867 220.4H155.422C156.244 220.4 156.909 219.734 156.909 218.912V204.465C156.909 203.643 156.244 202.977 155.422 202.977H148.685C148.685 202.977 148.685 202.975 148.684 202.973C147.736 199.241 146.217 195.741 144.223 192.567L144.221 192.565L148.854 187.932C149.435 187.351 149.435 186.408 148.854 185.828L138.638 175.612C138.057 175.031 137.115 175.031 136.534 175.612L131.761 180.385C128.542 178.467 125.006 177.021 121.253 176.182V169.617C121.253 168.795 120.587 168.13 119.766 168.13H105.317C104.495 168.13 103.83 168.795 103.83 169.617V176.363C100.098 177.311 96.5973 178.819 93.4253 180.824L88.7862 176.185C88.2052 175.604 87.2627 175.604 86.6828 176.185L76.4666 186.401C75.8856 186.983 75.8856 187.925 76.4666 188.505L81.233 193.272C79.3244 196.494 77.8787 200.031 77.0274 203.787H70.4718C69.6498 203.787 68.9844 204.454 68.9844 205.274V219.722C68.9844 220.544 69.6498 221.21 70.4718 221.21H77.2109C78.159 224.94 79.678 228.451 81.671 231.623L77.0398 236.254C76.4588 236.835 76.4588 237.776 77.0398 238.357L87.256 248.574C87.837 249.155 88.7795 249.155 89.3593 248.574L94.1302 243.803C97.3506 245.723 100.886 247.168 104.64 248.02V254.567C104.64 255.389 105.306 256.055 106.128 256.055ZM106.022 231.422C100.237 229.518 95.6109 224.916 93.6697 219.143C88.078 202.508 103.261 187.257 119.923 192.785C125.71 194.705 130.332 199.322 132.251 205.109C137.758 221.718 122.636 236.891 106.022 231.422Z" fill="#D1D6E8"/>
<path d="M54.7074 170.776H61.1718C61.9938 170.776 62.6593 170.11 62.6593 169.289V166.324C64.6816 165.811 66.5777 164.987 68.2971 163.901L68.2983 163.9L70.3284 165.93C70.9095 166.511 71.8519 166.511 72.4318 165.93L77.0034 161.358C77.5844 160.777 77.5844 159.836 77.0034 159.255L74.9011 157.153L74.9023 157.15C75.9427 155.412 76.7196 153.495 77.1813 151.461V151.459H80.0515C80.8734 151.459 81.5389 150.792 81.5389 149.971V143.507C81.5389 142.685 80.8734 142.019 80.0515 142.019H77.0833V142.017C76.5699 139.995 75.7468 138.099 74.6669 136.379L74.6658 136.378L76.6937 134.35C77.2747 133.769 77.2747 132.827 76.6937 132.247L72.1222 127.675C71.5411 127.094 70.5987 127.094 70.0188 127.675L67.9143 129.78C66.1701 128.739 64.2548 127.957 62.2212 127.502V124.627C62.2212 123.805 61.5558 123.14 60.7338 123.14H54.2694C53.4475 123.14 52.782 123.805 52.782 124.627V127.6C50.7597 128.113 48.8635 128.931 47.1441 130.016L45.1128 127.985C44.5318 127.404 43.5893 127.404 43.0094 127.985L38.4379 132.555C37.8569 133.136 37.8569 134.079 38.4379 134.659L40.539 136.76C39.5053 138.505 38.7216 140.421 38.26 142.456H35.3898C34.5678 142.456 33.9023 143.123 33.9023 143.944V150.408C33.9023 151.23 34.5689 151.895 35.3898 151.895H38.3591C38.8725 153.917 39.6956 155.818 40.7754 157.537L38.7486 159.563C38.1676 160.145 38.1676 161.086 38.7486 161.667L43.3191 166.237C43.9001 166.818 44.8426 166.818 45.4224 166.237L47.5258 164.134C49.27 165.174 51.1864 165.957 53.22 166.419V169.284C53.22 170.111 53.8855 170.776 54.7074 170.776ZM53.9688 157.431C50.834 156.399 48.3275 153.905 47.277 150.777C44.2469 141.765 52.4735 133.501 61.5017 136.496C64.6365 137.537 67.1407 140.039 68.1812 143.173C71.1628 152.172 62.97 160.393 53.9688 157.431Z" fill="#D1D6E8"/>
<path d="M284.204 463.07C414.952 463.07 520.943 453.266 520.943 441.172C520.943 429.078 414.952 419.273 284.204 419.273C153.457 419.273 47.4648 429.078 47.4648 441.172C47.4648 453.266 153.457 463.07 284.204 463.07Z" fill="url(#paint1_linear_1338_5640)"/>
<g opacity="0.2">
<path d="M435.935 439.6C435.935 439.6 426.778 415.594 440.389 402.725C454.006 389.851 462.174 386.637 462.169 374.252C462.174 361.867 454.006 358.652 440.389 345.779C426.778 332.91 435.935 308.903 435.935 308.903H498.01C498.01 308.903 507.167 332.91 493.556 345.779C479.939 358.652 471.771 361.867 471.777 374.252C471.771 386.637 479.939 389.851 493.556 402.725C507.167 415.594 498.01 439.6 498.01 439.6H435.935Z" fill="url(#paint2_linear_1338_5640)"/>
</g>
<path d="M498.011 308.903C498.011 308.903 507.168 332.91 493.556 345.779C479.94 358.652 471.772 361.867 471.777 374.252C471.772 386.637 479.94 389.851 493.556 402.725C507.168 415.594 498.011 439.6 498.011 439.6" stroke="#83C1EA" stroke-width="0.75" stroke-miterlimit="10"/>
<path d="M435.935 308.903C435.935 308.903 426.778 332.91 440.389 345.779C454.006 358.652 462.173 361.867 462.169 374.252C462.174 386.637 454.006 389.851 440.389 402.725C426.778 415.594 435.935 439.6 435.935 439.6" stroke="#004594" stroke-width="0.75" stroke-miterlimit="10"/>
<path d="M498.011 308.903C498.011 308.903 507.168 332.91 493.556 345.779C479.94 358.652 471.772 361.867 471.777 374.252C471.772 386.637 479.94 389.851 493.556 402.725C507.168 415.594 498.011 439.6 498.011 439.6" stroke="#004594" stroke-width="0.75" stroke-miterlimit="10"/>
<path d="M503.681 309.027H430.345C429.65 309.027 429.086 308.464 429.086 307.768V304.717C429.086 304.022 429.649 303.458 430.345 303.458H503.681C504.376 303.458 504.94 304.021 504.94 304.717V307.768C504.94 308.464 504.377 309.027 503.681 309.027Z" fill="url(#paint3_linear_1338_5640)"/>
<path d="M502.486 443.824H429.15C428.455 443.824 427.891 443.261 427.891 442.565V439.514C427.891 438.819 428.454 438.255 429.15 438.255H502.486C503.181 438.255 503.745 438.818 503.745 439.514V442.565C503.745 443.26 503.181 443.824 502.486 443.824Z" fill="url(#paint4_linear_1338_5640)"/>
<path d="M494.313 342.363L494.278 342.438C493.704 343.16 493.07 343.859 492.368 344.522C490.739 346.061 489.18 347.462 487.709 348.759C470.747 351.705 456.918 347.67 447.84 343.383C478.035 335.414 492.359 341.428 494.313 342.363Z" fill="#FCD55B"/>
<path d="M469.417 410.644C470.144 410.807 474.213 411.822 477.059 414.743C484.395 422.271 495.031 435.601 498.258 432.111C497.442 436.16 496.422 438.902 496.392 438.981H437.555C437.496 438.828 435.838 434.338 435.07 428.354C440.901 434.961 454.141 418.682 457.755 415.237C461.383 411.772 464.19 410.287 464.19 410.287L464.581 410.272L463.566 378.456V378.446C463.789 377.159 463.903 375.768 463.903 374.254C463.907 363.984 458.74 359.544 450.182 352.183C447.633 349.995 444.753 347.516 441.58 344.521C439.061 342.14 437.382 339.319 436.318 336.329C437.471 337.275 441.495 340.388 447.84 343.382C456.918 347.669 470.748 351.702 487.71 348.758C486.319 349.985 485.002 351.119 483.765 352.183C475.208 359.543 470.039 363.984 470.045 374.248C470.045 375.401 470.109 376.486 470.238 377.505L469.417 410.644Z" fill="#FFD53C"/>
<path d="M93.9589 408.094C127.742 418.673 129.851 441.588 138.768 437.215C139.23 436.989 139.623 436.745 139.967 436.456C145.945 431.53 134.207 417.964 142.769 385.249C148.17 364.546 159.247 326.539 145.286 319.055C133.335 312.658 129.671 345.047 112.304 337.163C99.6779 331.435 123.447 311.873 112.902 304.143C101.224 295.581 95.0387 320.8 85.8269 311.047C76.6365 301.3 78.8345 278.326 67.3391 281.789C67.159 281.842 66.9867 281.909 66.8291 281.968C56.0544 285.781 61.8916 302.637 66.2604 313.496C70.6969 324.526 72.7687 327.572 69.2725 328.662C65.7763 329.752 49.2972 322.773 47.5249 333.987C45.7616 345.214 75.3292 350.81 81.4029 364.748C87.4855 378.699 60.796 365.666 63.3644 380.427C64.8552 388.911 77.1759 402.855 93.9589 408.094Z" fill="url(#paint5_linear_1338_5640)"/>
<path d="M76.3694 382.501L112.268 389.221L95.3425 353.047L95.3267 353.089L68.0234 340.922L93.9068 349.979L74.141 307.732L86.9155 331.896L99.3352 318.123L88.1169 334.17L107.608 371.035L135.259 342.994L108.745 373.187L133.127 419.706L128.706 421.908L113.504 391.859L76.3694 382.501Z" fill="url(#paint6_linear_1338_5640)"/>
<path d="M56.3643 363.487C51.974 361.661 32.5291 353.076 38.2053 346.397C43.2644 340.444 52.2634 354.738 55.7844 360.931C54.1157 352.649 55.0852 347.591 55.3092 346.629C52.0573 340.826 44.0729 325.111 51.9031 323.373C59.8087 321.617 57.9621 339.762 57.05 346.304C57.1412 346.493 57.1784 346.71 57.1221 346.93C57.1041 347.001 55.8711 352.055 57.6434 360.772C58.9012 354.094 62.8196 337.285 69.8785 340.926C77.6975 344.959 61.6407 359.664 58.0893 362.786C58.8618 365.968 60.0204 369.563 61.7544 373.537C62.322 374.838 62.9671 376.206 63.6878 377.63C64.9118 371.443 69.1342 353.525 76.3519 357.394C84.002 361.494 68.2481 375.617 64.3668 378.941C66.9262 383.79 70.4134 389.288 75.1606 395.321C76.2157 389.758 80.4472 370.517 87.9047 374.501C95.647 378.637 79.4743 393.052 75.8283 396.169C79.1444 400.315 83.0606 404.707 87.6671 409.306C88.1479 403.728 90.4134 384.041 98.2571 387.263C106.382 390.602 91.7094 406.596 88.4125 410.044C92.0607 413.645 96.138 417.37 100.692 421.203C100.856 416.104 102.026 395.439 110.184 398.325C118.598 401.302 104.146 418.512 101.334 421.743C105.47 425.198 109.98 428.738 114.929 432.353C115.1 427.164 116.29 406.648 124.419 409.524C132.774 412.48 118.593 429.459 115.638 432.863C118.861 435.203 122.25 437.571 125.837 439.968C126.215 440.22 126.344 440.702 126.166 441.102C126.145 441.149 126.121 441.194 126.091 441.239C125.81 441.66 125.241 441.773 124.821 441.493C121.23 439.094 117.837 436.723 114.609 434.38C111.241 436.562 92.2499 448.416 89.9416 439.738C87.7279 431.416 108.465 433.18 113.75 433.76C108.72 430.082 104.137 426.478 99.9371 422.96C95.1527 425.981 78.1907 436.013 76.0175 427.841C73.9625 420.114 91.6914 421.083 98.4688 421.724C94.3623 418.227 90.6521 414.819 87.2933 411.511C82.5258 412.593 61.9053 416.781 62.6575 408.091C63.3387 400.219 79.302 406.888 85.6211 409.849C81.2906 405.475 77.5883 401.291 74.4129 397.321C69.3763 397.689 48.6197 398.706 50.6408 390.274C52.4469 382.74 66.7156 391.218 72.7453 395.195C68.4316 389.577 65.1978 384.427 62.7712 379.84C57.4756 378.929 37.64 374.971 41.563 367.362C44.9613 360.772 55.9488 371.147 61.1892 376.697C60.7591 375.795 60.3548 374.914 59.9878 374.064C58.2965 370.166 57.1525 366.639 56.3643 363.487Z" fill="url(#paint7_linear_1338_5640)"/>
<path d="M462.655 426.948H67.7773L99.8154 415.154H430.617L462.655 426.948Z" fill="#1A425B"/>
<path d="M434.461 213.874V412.249C434.461 414.853 432.106 416.958 429.187 416.958H101.237C98.3349 416.958 95.9805 414.853 95.9805 412.249V213.874C95.9805 211.271 98.3349 209.165 101.237 209.165H429.187C432.105 209.165 434.461 211.271 434.461 213.874Z" fill="#214F95"/>
<path d="M424.349 405.704C424.349 405.71 424.343 405.714 424.337 405.714H106.096C106.09 405.714 106.086 405.71 106.086 405.705V220.413H424.349V405.704Z" fill="url(#paint8_linear_1338_5640)"/>
<path d="M449.097 444.018H81.3385C73.0331 444.018 66.3008 437.286 66.3008 428.98C66.3008 427.506 67.4966 426.311 68.9705 426.311H461.465C462.94 426.311 464.135 427.506 464.135 428.98C464.135 437.286 457.401 444.018 449.097 444.018Z" fill="#4861D8"/>
<path d="M264.063 261.691C269 261.927 273.775 263.21 278.038 265.334L274.186 270.423L299.799 273.625L289.765 249.843L285.874 254.983C278.803 252.04 271.133 250.879 263.742 251.564C254.542 252.341 245.833 256.145 239.065 261.88C232.238 267.569 227.443 275.34 225.251 283.592C223.025 291.856 223.546 300.599 226.317 308.309C224.627 300.28 225.378 291.915 228.452 284.669C231.498 277.424 236.691 271.275 243.098 267.298C249.449 263.287 256.868 261.282 264.063 261.691Z" fill="url(#paint9_linear_1338_5640)"/>
<path d="M305.262 310.087C307.512 301.507 306.783 292.427 303.675 284.528C305.712 292.782 305.151 301.497 302.049 309.045C298.995 316.593 293.613 323.004 286.928 327.057C280.304 331.15 272.551 333.058 265.112 332.425C260.356 332.047 255.785 330.693 251.699 328.568L255.406 323.608L229.773 320.565L239.954 344.285L244.077 338.769C250.764 341.659 258.021 342.959 265.09 342.559C274.648 342.075 283.794 338.368 290.897 332.524C298.064 326.731 303.064 318.66 305.262 310.087Z" fill="url(#paint10_linear_1338_5640)"/>
<path d="M251.309 278.478L245.978 283.809C245.675 284.112 245.675 284.604 245.978 284.907L248.461 287.39C247.434 289.116 246.703 290.968 246.272 292.879L242.85 292.88C242.421 292.88 242.074 293.228 242.074 293.656V301.194C242.074 301.623 242.422 301.97 242.85 301.97H246.37C246.37 301.971 246.37 301.972 246.371 301.974C246.846 303.866 247.622 305.701 248.694 307.4C248.694 307.401 248.695 307.401 248.695 307.402L246.276 309.821C245.974 310.124 245.974 310.616 246.276 310.919L251.607 316.249C251.91 316.552 252.402 316.552 252.705 316.249L255.19 313.764C255.191 313.764 255.191 313.765 255.192 313.765C256.918 314.792 258.771 315.523 260.677 315.958L260.678 319.377C260.678 319.806 261.026 320.153 261.454 320.153H268.992C269.421 320.153 269.768 319.805 269.768 319.377V315.855C271.664 315.375 273.502 314.604 275.196 313.529L277.618 315.951C277.92 316.253 278.412 316.253 278.715 315.951L284.046 310.62C284.349 310.317 284.349 309.825 284.046 309.522L281.557 307.034C282.584 305.308 283.32 303.46 283.751 301.549H287.174C287.603 301.549 287.95 301.201 287.95 300.773V293.235C287.95 292.806 287.602 292.459 287.174 292.459H283.656C283.172 290.566 282.401 288.727 281.329 287.028L283.747 284.61C284.05 284.307 284.05 283.815 283.747 283.512L278.417 278.181C278.114 277.878 277.622 277.878 277.319 278.181L274.833 280.667C273.107 279.642 271.251 278.906 269.346 278.471V275.053C269.346 274.624 268.998 274.277 268.57 274.277H261.032C260.603 274.277 260.256 274.625 260.256 275.053V278.573C258.36 279.053 256.522 279.824 254.822 280.895L252.405 278.478C252.104 278.176 251.611 278.176 251.309 278.478ZM260.436 287.528C263.273 286.096 266.677 286.088 269.524 287.501C277.725 291.575 277.749 302.803 269.562 306.912C266.719 308.339 263.309 308.34 260.467 306.913C252.307 302.817 252.288 291.64 260.436 287.528Z" fill="url(#paint11_linear_1338_5640)"/>
<path d="M337.231 370.709H193.203C191.79 370.709 190.645 369.564 190.645 368.151V367.69C190.645 366.277 191.79 365.132 193.203 365.132H337.231C338.644 365.132 339.789 366.277 339.789 367.69V368.151C339.789 369.564 338.644 370.709 337.231 370.709Z" fill="#D1D6E8"/>
<path d="M295.525 370.709H193.3C191.834 370.709 190.645 369.52 190.645 368.054V367.788C190.645 366.322 191.834 365.133 193.3 365.133H295.525C296.991 365.133 298.18 366.322 298.18 367.788V368.054C298.18 369.521 296.991 370.709 295.525 370.709Z" fill="url(#paint12_linear_1338_5640)"/>
<path d="M222.756 179.734C218.024 179.734 213.346 178.477 209.226 176.099C202.955 172.478 198.47 166.633 196.595 159.639C194.722 152.645 195.683 145.34 199.303 139.069C204.132 130.706 213.136 125.511 222.803 125.511C227.534 125.511 232.213 126.768 236.333 129.147C249.277 136.62 253.729 153.232 246.255 166.176C241.427 174.539 232.423 179.734 222.756 179.734Z" fill="#D1D6E8"/>
<path d="M247.66 154.59C248.752 140.854 238.501 128.834 224.765 127.743C211.029 126.652 199.009 136.902 197.917 150.638C196.826 164.374 207.077 176.394 220.813 177.486C234.549 178.577 246.569 168.326 247.66 154.59Z" fill="white"/>
<path d="M234.679 173.844C223.163 180.492 208.44 176.547 201.792 165.032C195.144 153.517 199.089 138.793 210.604 132.145C222.119 125.497 236.843 129.443 243.491 140.957C250.139 152.472 246.193 167.195 234.679 173.844Z" fill="white"/>
<path d="M251.87 144.827C249.788 137.057 244.805 130.562 237.838 126.54C233.261 123.897 228.063 122.5 222.806 122.5C212.066 122.5 202.06 128.272 196.696 137.564C192.674 144.53 191.606 152.648 193.688 160.418C195.77 168.189 200.753 174.683 207.72 178.705C212.297 181.348 217.496 182.746 222.753 182.746C233.493 182.746 243.497 176.974 248.862 167.682C252.884 160.714 253.952 152.598 251.87 144.827ZM245.122 165.522C240.343 173.798 231.671 178.426 222.755 178.426C218.378 178.426 213.943 177.311 209.879 174.965C197.54 167.841 193.311 152.062 200.436 139.722C205.214 131.446 213.887 126.818 222.803 126.818C227.179 126.818 231.615 127.933 235.678 130.278C248.018 137.404 252.246 153.182 245.122 165.522Z" fill="#D1D6E8"/>
<path d="M222.777 133.732C222.421 133.732 222.133 133.442 222.133 133.087V129.054C222.133 128.699 222.421 128.409 222.777 128.409C223.133 128.409 223.421 128.699 223.421 129.054V133.087C223.421 133.442 223.133 133.732 222.777 133.732Z" fill="#D1D6E8"/>
<path d="M203.243 153.268H199.21C198.855 153.268 198.566 152.979 198.566 152.623C198.566 152.267 198.855 151.978 199.21 151.978H203.243C203.598 151.978 203.888 152.267 203.888 152.623C203.887 152.979 203.598 153.268 203.243 153.268Z" fill="#D1D6E8"/>
<path d="M222.777 176.835C222.421 176.835 222.133 176.546 222.133 176.19V172.158C222.133 171.802 222.421 171.513 222.777 171.513C223.133 171.513 223.421 171.802 223.421 172.158V176.19C223.421 176.546 223.133 176.835 222.777 176.835Z" fill="#D1D6E8"/>
<path d="M246.344 153.268H242.312C241.956 153.268 241.668 152.979 241.668 152.623C241.668 152.267 241.956 151.978 242.312 151.978H246.344C246.7 151.978 246.988 152.267 246.988 152.623C246.988 152.979 246.7 153.268 246.344 153.268Z" fill="#D1D6E8"/>
<path d="M222.733 153.165C222.733 153.165 222.729 153.165 222.727 153.165L209.937 153.076C209.531 153.073 209.205 152.742 209.207 152.336C209.21 151.934 209.538 151.608 209.941 151.608C209.941 151.608 209.945 151.608 209.947 151.608L222.737 151.697C223.142 151.701 223.469 152.031 223.467 152.437C223.464 152.839 223.136 153.165 222.733 153.165Z" fill="#D1D6E8"/>
<path d="M222.679 153.331C222.603 153.331 222.525 153.313 222.454 153.272C222.227 153.147 222.144 152.862 222.269 152.635L229.908 138.757C230.032 138.529 230.319 138.443 230.545 138.572C230.773 138.697 230.855 138.982 230.731 139.209L223.092 153.087C223.006 153.244 222.845 153.331 222.679 153.331Z" fill="#D1D6E8"/>
<path d="M223.596 154.037C222.814 154.489 221.815 154.221 221.364 153.439C220.912 152.658 221.18 151.659 221.962 151.208C222.743 150.756 223.742 151.024 224.194 151.806C224.645 152.587 224.377 153.587 223.596 154.037Z" fill="#D1D6E8"/>
<path d="M223.199 153.349C222.798 153.581 222.286 153.444 222.054 153.042C221.822 152.641 221.96 152.128 222.362 151.897C222.762 151.665 223.276 151.802 223.507 152.204C223.738 152.605 223.6 153.117 223.199 153.349Z" fill="white"/>
<path d="M364.776 321.664C363.603 321.885 362.708 322.851 362.391 323.995C360.969 329.131 356.488 346.414 360.21 347.657C364.587 349.117 367.646 333.566 367.959 328.964C368.221 325.128 367.613 321.131 364.776 321.664Z" fill="#F2BC97"/>
<path d="M364.623 320.992C364.623 320.992 362.247 322.243 361.214 327.089C360.183 331.936 355.367 357.794 355.367 357.794C355.367 357.794 364.998 359.67 365.248 357.919C365.498 356.168 364.623 320.992 364.623 320.992Z" fill="#FFD53C"/>
<path opacity="0.5" d="M362.404 333.812L358.934 358.669L365.874 356.981L362.404 333.812Z" fill="#FFD53C"/>
<path d="M387.407 320.774C388.574 321.027 389.442 322.018 389.727 323.17C391.006 328.343 395.008 345.744 391.253 346.882C386.838 348.221 384.21 332.592 384.024 327.982C383.868 324.14 384.587 320.161 387.407 320.774Z" fill="#F2BC97"/>
<path d="M379.925 333.126C379.154 332.998 378.359 333.658 378.196 334.553C378.065 335.266 377.899 337.019 377.911 338.245C377.94 341.283 377.819 344.112 378.814 344.586C379.808 345.06 380.846 343.209 381.138 340.207C381.401 337.493 382.351 334.178 381.697 333.671C381.365 333.416 380.6 333.239 379.925 333.126Z" fill="#F2BC97"/>
<path d="M360.84 359.045L366.176 360.399L375.94 360.36L377.381 358.206L380.232 357.057L386.997 356.363L388.889 356.168L388.908 355.714C388.908 355.714 388.953 354.878 389.02 353.467C389.069 352.499 389.129 351.264 389.193 349.846C389.339 346.51 389.508 342.165 389.601 337.921C389.748 331.596 389.736 325.49 389.263 323.277C388.137 318.024 379.883 319.179 379.883 319.179H379.868L369.879 319.9C369.879 319.9 364.499 319.806 363.61 322.133C362.539 324.926 360.84 359.045 360.84 359.045Z" fill="white"/>
<path d="M372.36 362.584C375.28 363.12 377.21 366.352 376.579 369.59C376.078 372.166 374.287 378.312 372.58 382.452C368.352 392.703 364.944 402.434 360.762 402.79C356.581 403.146 355.399 395.571 358.435 385.039C361.179 375.518 362.302 363.095 365.315 362.203C366.841 361.752 369.805 362.116 372.36 362.584Z" fill="#F2BC97"/>
<path d="M380.139 361.632C382.913 361.172 385.767 363.543 386.359 366.761C386.828 369.322 387.424 375.625 387.381 380.036C387.275 390.958 387.711 401.125 384.136 402.829C380.561 404.534 376.828 397.878 375.779 387.087C374.831 377.332 371.418 365.411 373.768 363.593C374.959 362.672 377.711 362.036 380.139 361.632Z" fill="#F2BC97"/>
<path d="M358.856 397.89C366.766 396.362 357.78 432.791 354.265 440.03C350.75 447.269 350.732 442.187 351.961 428.929C353.191 415.671 355.743 398.492 358.856 397.89Z" fill="#F2BC97"/>
<path d="M350.272 434.751L349.492 444.727L353.518 444.804L356.455 434.34L350.272 434.751Z" fill="#F2BC97"/>
<path d="M349.386 441.682C349.386 441.682 347.759 443.682 344.119 446.232C340.48 448.781 339.578 448.163 339.458 449.162C339.337 450.16 354.128 449.873 354.128 449.873L354.528 441.643C354.528 441.643 349.397 441.466 349.386 441.682Z" fill="#234F70"/>
<path d="M381.944 398.753C388.316 393.675 395.312 430.603 395.304 438.752C395.296 446.901 391.287 433.087 386.672 420.603C382.057 408.118 379.437 400.75 381.944 398.753Z" fill="#F2BC97"/>
<path d="M390.539 434.435L394.508 443.622L398.105 441.811L395.814 431.185L390.539 434.435Z" fill="#F2BC97"/>
<path d="M393.037 440.966C393.037 440.966 392.177 443.398 389.606 447.021C387.035 450.645 385.978 450.367 386.201 451.347C386.423 452.328 400.258 447.087 400.258 447.087L397.868 439.201C397.868 439.201 392.974 440.76 393.037 440.966Z" fill="#234F70"/>
<path d="M397.422 435.65L394.302 436.916L391.427 438.086C391.427 438.086 379.325 407.79 377.802 403.329C376.291 398.857 373.646 382.867 373.646 382.867L363.64 404.45C361.702 420.55 356.328 437.197 356.024 437.794C355.987 437.854 353.282 437.488 351.417 437.233C350.442 437.099 349.699 436.99 349.699 436.99C349.699 436.99 352.966 406.644 353.977 398.723C354.988 390.789 362.336 360.968 362.336 360.968L384.541 361.577L386.125 361.625C389.562 371.045 387.247 400.623 387.247 400.623C392.389 409.314 397.422 435.65 397.422 435.65Z" fill="#083A74"/>
<path d="M394.306 436.917C396.231 430.714 393.66 426.838 392.758 423.998C391.807 420.976 391.173 416.759 390.296 411.678C389.419 406.596 385.848 404.049 385.372 400.636C384.897 397.212 386.006 387.035 386.165 382.904C386.324 378.772 386.067 373.982 385.592 368.962C385.117 363.928 381.875 362.356 381.875 362.356L384.544 361.576L386.128 361.625C389.564 371.045 387.249 400.622 387.249 400.622C392.392 409.312 397.425 435.648 397.425 435.648L394.306 436.917Z" fill="#E8E9EA"/>
<path d="M386.6 362.547H362.139C362.007 362.547 361.898 362.439 361.898 362.306V360.316C361.898 360.183 362.007 360.075 362.139 360.075H386.6C386.732 360.075 386.84 360.183 386.84 360.316V362.306C386.84 362.439 386.732 362.547 386.6 362.547Z" fill="#214F95"/>
<path d="M374.324 362.65H374.028C373.911 362.65 373.816 362.555 373.816 362.438V360.056C373.816 359.939 373.911 359.845 374.028 359.845H374.324C374.441 359.845 374.536 359.939 374.536 360.056V362.438C374.536 362.555 374.441 362.65 374.324 362.65Z" fill="url(#paint13_linear_1338_5640)"/>
<path d="M363.59 362.65H363.192C363.103 362.65 363.031 362.578 363.031 362.489V360.006C363.031 359.917 363.103 359.845 363.192 359.845H363.59C363.679 359.845 363.751 359.917 363.751 360.006V362.489C363.752 362.578 363.679 362.65 363.59 362.65Z" fill="url(#paint14_linear_1338_5640)"/>
<path d="M384.181 362.65H383.884C383.766 362.65 383.672 362.555 383.672 362.438V360.056C383.672 359.939 383.766 359.845 383.884 359.845H384.18C384.297 359.845 384.391 359.939 384.391 360.056V362.438C384.392 362.555 384.298 362.65 384.181 362.65Z" fill="url(#paint15_linear_1338_5640)"/>
<path d="M373.646 382.868L363.641 404.451C361.703 420.551 356.328 437.197 356.024 437.794C355.987 437.855 353.283 437.489 351.418 437.233C357.512 434.358 356.841 430.677 358.267 424.949C359.937 418.27 361.607 407.143 361.997 403.573C362.399 399.99 372.576 378.212 372.576 378.212L373.646 382.868Z" fill="#E8E9EA"/>
<path d="M389.594 337.922C389.594 337.987 389.594 338.058 389.589 338.116C389.541 340.329 389.471 342.561 389.4 344.655C389.334 346.525 389.258 348.294 389.192 349.845C389.187 349.921 389.187 349.999 389.181 350.07C389.121 351.372 389.134 352.324 389.081 353.242C389.057 353.715 389.034 354.153 389.004 354.52C388.951 355.283 388.946 356.04 388.981 356.803C389.081 358.969 389.075 363.738 387.247 365.573C386.703 366.118 382.697 365.111 379.49 364.195C379.484 364.189 379.477 364.189 379.472 364.189C378.312 363.852 377.253 363.526 376.507 363.296C375.838 363.089 375.389 362.467 375.407 361.769C375.454 359.71 375.638 356.072 375.697 354.118C375.732 353.402 375.757 352.669 375.786 351.899C375.981 347.129 376.295 341.52 376.608 337.272C377.62 323.467 379.862 319.177 379.862 319.177H379.88C379.88 319.177 388.141 318.023 389.264 323.271C389.737 325.489 389.743 331.596 389.594 337.922Z" fill="#FFD53C"/>
<path opacity="0.5" d="M387.727 352.179C387.727 352.179 388.498 353.009 386.329 353.819C384.158 354.63 378.22 356.744 378.278 356.657C378.335 356.569 387.727 352.179 387.727 352.179Z" fill="#FFD53C"/>
<path opacity="0.5" d="M389.003 354.518C388.95 355.282 388.944 356.038 388.979 356.802C389.08 358.967 389.074 363.737 387.245 365.571C386.701 366.116 382.695 365.109 379.488 364.193C381.264 364.518 384.009 364.891 385.589 364.447C388.056 363.755 388.092 358.702 387.938 356.27C387.784 353.838 387.825 351.525 387.825 351.525C387.825 351.525 388.482 350.809 389.18 350.069C389.12 351.371 389.132 352.324 389.08 353.241C389.056 353.713 389.032 354.151 389.003 354.518Z" fill="#FFD53C"/>
<path d="M369.954 319.935L370.014 319.815L369.879 319.813C369.655 319.807 364.429 319.744 363.528 322.1C362.595 324.541 361.211 350.173 360.844 357.271C360.784 358.433 360.858 359.874 360.775 361.395C360.774 361.418 360.773 361.438 360.774 361.461C360.784 361.815 360.882 364.987 361.294 365.308C361.928 365.801 365.49 363.764 366.816 362.975C367.125 362.791 367.307 362.455 367.295 362.096L367.173 358.477L367.167 358.395C366.861 353.947 367.346 344.048 367.713 338.371C368.014 333.74 369.784 320.41 369.954 319.935Z" fill="#FFD53C"/>
<path opacity="0.5" d="M391.583 342.219C391.583 342.219 390.559 343.366 389.403 344.654C387.929 346.284 386.246 348.152 386.161 348.215C386.005 348.331 375.769 354.279 375.769 354.279L375.699 354.116C375.731 353.402 375.753 352.666 375.785 351.898C378.019 350.277 384.44 345.57 385.929 344.189C387.751 342.522 387.108 332.998 387.108 332.998L389.59 338.117L391.583 342.219Z" fill="#FFD53C"/>
<path d="M379.865 319.178C380.188 318.889 377.942 315.801 377.802 312.424C377.661 309.047 377.614 300.464 370.485 301.356C363.356 302.246 365.044 307.782 365.56 309.282C366.075 310.782 368.734 317.459 371.954 316.755C371.954 316.755 371.877 319.272 369.938 319.928C369.938 319.928 375.801 322.836 379.865 319.178Z" fill="#F2BC97"/>
<path d="M393.767 345.911C393.705 346.934 393.071 347.83 392.193 348.358C387.858 350.966 372.079 360.294 370.276 359.002C368.183 357.503 390.317 343.011 391.568 343.561C392.542 343.991 393.866 344.265 393.767 345.911Z" fill="#F2BC97"/>
<path d="M372.095 356.762C372.095 356.762 370.206 356.098 368.294 356.436C366.873 356.688 364.985 358.645 365.164 359.493C365.343 360.341 366.156 360.114 367.748 359.23C369.399 358.313 369.187 359.94 370.771 359.59C372.354 359.239 372.595 358.403 372.595 358.403" fill="#F2BC97"/>
<path d="M386.698 320.209C386.698 320.209 390.629 321.558 392.185 326.792C394.109 333.258 396.319 344.389 395.132 346.927C393.315 350.813 378.457 356.407 378.457 356.407L376.219 352.405C376.219 352.405 388.175 343.986 388.175 343.735C388.175 343.483 387.073 333.905 387.073 333.905L386.698 320.209Z" fill="#FFD53C"/>
<path d="M376.578 351.95C376.69 351.971 379.196 356.179 379.196 356.179L378.277 356.656C378.239 356.676 378.192 356.662 378.169 356.626L375.727 352.641C375.704 352.604 375.714 352.556 375.749 352.531C375.749 352.531 376.329 351.9 376.578 351.95Z" fill="white"/>
<path d="M376.975 304.094C376.793 303.656 376.597 303.223 376.388 302.797C375.642 301.264 374.499 299.648 372.802 299.469C371.445 299.326 370.208 300.157 368.959 300.707C366.967 301.584 364.68 301.773 362.571 301.238C361.665 301.009 360.743 300.645 359.823 300.817C358.588 301.049 357.708 302.221 357.407 303.442C356.942 305.338 357.68 307.474 359.215 308.68C360.736 309.875 362.98 310.089 364.715 309.231C365.922 308.634 367.231 308.029 368.561 307.779C369.221 307.655 370.02 307.616 370.601 307.998C371.174 308.374 371.498 308.987 371.808 309.579C372.094 310.124 372.392 311.053 372.999 311.33C373.596 311.601 373.521 310.621 373.486 310.304C373.414 309.661 373.327 309.019 373.236 308.378C373.187 308.034 372.959 307.232 373.315 306.969C373.367 306.929 373.436 306.916 373.503 306.908C374.113 306.837 374.723 307.185 375.127 307.618C376.105 308.67 375.658 310.247 375.966 311.519C376.178 312.394 376.801 314.096 378.003 313.832C378.573 313.704 378.566 312.851 378.572 312.404C378.583 311.614 378.651 310.819 378.619 310.03C378.588 309.233 378.354 308.467 378.163 307.698C377.862 306.469 377.464 305.263 376.975 304.094Z" fill="#214F95"/>
<path d="M343.385 343.692L349.376 359.327C349.376 359.327 365.684 360.623 365.794 360.754L359.343 344.016C359.343 344.016 343.143 343.671 343.385 343.692Z" fill="#CACBCC"/>
<path d="M377.733 360.03L365.751 360.696L365.363 359.691L364.922 358.552L377.609 357.852L377.675 358.945L377.733 360.03Z" fill="#E8E9EA"/>
<path d="M359.344 344.016L359.947 344.067L366.259 360.673L365.757 360.694L359.344 344.016Z" fill="#E8E9EA"/>
<path d="M377.734 360.031L365.751 360.697L365.363 359.693C368.415 359.513 375.458 359.096 377.675 358.945L377.734 360.031Z" fill="#E8E9EA"/>
<path d="M352.882 352.143C353.131 352.822 353.78 353.209 354.33 353.006C354.882 352.804 355.128 352.091 354.879 351.412C354.63 350.733 353.981 350.346 353.431 350.549C352.879 350.751 352.634 351.465 352.882 352.143Z" fill="#E8E9EA"/>
<path d="M473.325 301.938C461.525 303.88 451.606 303.313 451.171 300.672C450.736 298.032 459.95 294.316 471.751 292.375C483.551 290.432 493.47 291 493.905 293.64C494.34 296.281 485.126 299.997 473.325 301.938Z" fill="#F2BC97"/>
<path d="M453.287 299.984C444.961 296.061 441.926 332.478 443.77 340.384C445.616 348.289 450.495 334.772 452.882 321.93C455.271 309.088 456.563 301.528 453.287 299.984Z" fill="#F2BC97"/>
<path d="M443.876 340.877C443.876 340.877 442.762 342.324 440.316 344.22C437.871 346.116 437.222 345.718 437.172 346.416C437.123 347.114 447.403 346.416 447.403 346.416L447.195 340.677C447.195 340.677 443.876 340.727 443.876 340.877Z" fill="url(#paint16_linear_1338_5640)"/>
<path d="M462.825 298.012C451.27 301.674 441.247 302.574 440.439 300.022C439.63 297.47 448.342 292.434 459.897 288.772C471.452 285.11 481.475 284.211 482.283 286.762C483.092 289.315 474.38 294.351 462.825 298.012Z" fill="#F2BC97"/>
<path d="M443.293 298.674C433.564 301.475 458.438 331.544 465.702 336.74C472.965 341.936 466.234 329.456 458.886 317.108C451.539 304.76 447.121 297.573 443.293 298.674Z" fill="#F2BC97"/>
<path d="M466.145 337.072C466.145 337.072 466.275 339.077 465.63 342.419C464.985 345.761 464.159 345.902 464.624 346.516C465.09 347.13 473.081 339.091 473.081 339.091L468.743 334.498C468.743 334.498 466.036 336.948 466.145 337.072Z" fill="url(#paint17_linear_1338_5640)"/>
<path d="M444.954 312.14C445.81 313.5 446.743 314.893 447.707 316.286C454.359 325.806 462.882 335.261 462.882 335.261L468.132 330.53C468.132 330.53 454.293 304.524 454.821 303.478C455.349 302.423 485.937 297.346 487.338 287.19C488.74 277.035 471.76 284.701 471.76 284.701C471.76 284.701 440.717 291.493 439.984 299.933C439.736 302.759 441.878 307.268 444.954 312.14Z" fill="#083A74"/>
<path d="M444.953 312.141C445.81 313.501 446.742 314.894 447.706 316.287L454.82 303.477L460.393 293.421C459.502 293.701 448.927 293.907 446.66 300.774C445.662 303.799 445.184 308.176 444.953 312.141Z" fill="#E8E9EA"/>
<path d="M441.992 338.583H448.727C448.727 338.583 449.131 337.099 449.774 334.767C452.115 326.327 457.588 306.742 458.281 305.926C459.155 304.878 484.188 305.398 491.713 302.95C499.247 300.502 496.181 286.67 496.181 286.67L486.668 287.057H486.661L481.04 287.28C481.04 287.28 453.377 292.184 448.646 299.974C443.921 307.763 442.074 338.583 441.992 338.583Z" fill="#083A74"/>
<path d="M449.773 334.766C452.114 326.326 457.588 306.741 458.28 305.925C459.154 304.877 484.187 305.397 491.712 302.949C499.247 300.501 496.18 286.669 496.18 286.669L486.668 287.056C488.868 289.084 492.253 293.675 489.277 297.887C485.633 303.039 459.154 297.821 455.857 304.828C453.425 309.997 450.928 326.466 449.773 334.766Z" fill="#E8E9EA"/>
<path d="M480.297 248.013C478.956 248.138 476.997 247.444 476.571 248.735C474.661 254.526 468.183 271.273 472.514 272.625C475.862 273.67 479.135 260.14 480.802 253.293C481.852 248.973 483.539 247.711 480.297 248.013Z" fill="#F2BC97"/>
<path d="M474.951 269.047C474.033 268.304 472.75 268.205 471.64 268.608C466.449 270.497 447.998 277.371 447.856 279.756C447.692 282.53 474.894 273.801 475.281 272.377C475.573 271.307 476.207 270.062 474.951 269.047Z" fill="#F2BC97"/>
<path d="M451.23 278.512C450.59 276.718 447.618 278.171 446.623 278.705C445.003 279.574 443.764 281.816 444.097 282.465C444.431 283.113 448.004 280.916 448.203 281.001C448.403 281.085 446.768 282.321 447.144 282.898C447.521 283.476 449.895 282.118 450.626 281.212C451.358 280.304 451.63 279.637 451.23 278.512Z" fill="#F2BC97"/>
<path d="M479.493 264.119C479.493 264.119 482.439 248.71 477.482 248.021C472.122 247.276 471.297 263.263 471.297 263.263L479.493 264.119Z" fill="#FFD53C"/>
<path d="M471.758 284.7C471.873 284.774 471.989 284.849 472.113 284.906C472.772 285.293 473.498 285.623 474.28 285.895C482.341 288.78 496.181 286.669 496.181 286.669C495.999 285.013 495.9 282.243 495.801 278.914C495.71 275.592 495.628 271.709 495.471 267.794C495.224 261.357 494.804 254.828 493.88 250.566C493.535 248.943 493.277 247.929 490.524 246.833C487.346 245.566 480.215 245.85 476.677 247.896C474.617 249.087 472.804 253.576 473.002 257.911C473.2 262.248 475.17 263.294 475.301 269.996C475.393 274.455 473.785 279.499 472.705 282.368C472.4 283.184 472.136 283.818 471.963 284.223C471.832 284.536 471.758 284.7 471.758 284.7Z" fill="#FFD53C"/>
<path opacity="0.5" d="M471.656 282.845L471.961 284.222L472.11 284.905L472.415 286.283C472.415 286.283 473.116 286.143 474.278 285.895C479.388 284.815 493.376 281.667 495.56 279.202C495.642 279.112 495.726 279.013 495.799 278.914C495.708 275.592 495.625 271.71 495.469 267.795L491.166 262.792L488.125 264.234L489.518 274.67L472.702 282.369L471.656 282.845Z" fill="url(#paint18_linear_1338_5640)"/>
<path d="M487.599 240.039C487.599 240.039 487.599 246.538 487.599 246.802C487.599 246.802 486.549 249.231 483.726 249.231C480.903 249.231 480.18 246.932 480.18 246.67C480.18 246.408 480.18 242.797 480.18 242.797C480.18 242.797 476.569 244.176 475.059 242.994C473.549 241.813 472.761 240.565 472.63 235.838C472.498 231.111 472.565 227.829 475.65 226.712C478.735 225.596 488.583 223.232 490.554 228.484C492.523 233.736 487.599 240.039 487.599 240.039Z" fill="#F2BC97"/>
<path d="M480.18 242.796L483.902 241.461L480.176 244.947L480.18 242.796Z" fill="#F2BC97"/>
<path d="M465.165 286.355L459.6 272.435L439.307 273.422L439.098 273.432L446.676 291.208L464.7 291.939L467.435 292.053L465.165 286.355ZM451.358 280.591C452.004 280.306 452.868 280.829 453.285 281.75C453.713 282.681 453.523 283.659 452.877 283.963C452.231 284.247 451.367 283.735 450.949 282.804C450.531 281.873 450.721 280.894 451.358 280.591Z" fill="white"/>
<path d="M451.363 280.596C450.721 280.893 450.53 281.876 450.95 282.803C451.372 283.739 452.232 284.246 452.877 283.959C453.52 283.662 453.71 282.679 453.29 281.752C452.869 280.826 452.009 280.309 451.363 280.596Z" fill="#D5D7E2"/>
<path d="M465.164 286.353L467.436 292.048L478.254 286.158L465.164 286.353Z" fill="#DFE1EA"/>
<path d="M467.441 292.042L446.691 291.21L446.827 292.168L467.571 292.962C467.571 292.962 467.426 292.03 467.441 292.042L467.571 292.962L478.386 287.075L478.257 286.155" fill="#D5D7E2"/>
<path d="M489.751 248.42C488.535 248.999 487.881 250.323 487.924 251.681C488.119 257.776 489.105 278.739 493.637 278.52C497.14 278.351 495.565 264.521 494.777 257.517C494.28 253.1 492.692 247.023 489.751 248.42Z" fill="#F2BC97"/>
<path d="M494.821 275.209C493.962 274.494 492.751 274.384 491.696 274.751C486.761 276.468 469.225 282.729 469.06 284.982C468.868 287.603 494.704 279.703 495.089 278.361C495.379 277.355 495.995 276.185 494.821 275.209Z" fill="#F2BC97"/>
<path d="M495.801 272.766C495.801 272.766 496.007 277.213 495.234 278.467C494.462 279.72 487.523 281.403 487.523 281.403C487.523 281.403 493.603 274.414 493.62 274.345C493.636 274.277 495.801 272.766 495.801 272.766Z" fill="#F2BC97"/>
<path d="M472.266 283.85C471.685 282.146 468.855 283.481 467.907 283.972C466.363 284.772 465.163 286.876 465.47 287.494C465.778 288.112 469.184 286.081 469.372 286.163C469.56 286.245 467.998 287.393 468.346 287.943C468.694 288.494 470.957 287.242 471.66 286.394C472.365 285.546 472.63 284.919 472.266 283.85Z" fill="#F2BC97"/>
<path d="M496.092 263.403C496.092 263.403 495.676 246.921 490.681 247.239C484.137 247.654 488.126 264.234 488.126 264.234L496.092 263.403Z" fill="#FFD53C"/>
<path d="M487.544 240.812C487.544 240.812 482.05 239.716 483.107 236.584C483.53 235.326 485.237 232.155 482.856 231.487C480.474 230.818 480.447 237.807 480.447 237.807C480.447 237.807 479.232 232.015 479.054 231.655C478.907 231.355 477.069 228.173 472.88 230.858C472.282 231.241 472.595 222.345 481.618 222.172C488.218 222.045 492.338 225.056 491.921 230.32C491.503 235.58 490.51 238.096 487.544 240.812Z" fill="#214F95"/>
<path d="M490.918 227.936C490.918 227.936 498.479 224.344 501.361 228.688C504.244 233.032 498.479 245.315 506.123 246.609C506.123 246.609 498.269 251.08 494.385 245.649C490.5 240.218 492.755 234.871 490.5 235.038" fill="#214F95"/>
<path d="M491.711 227.622C491.711 227.622 492.074 232.197 491.144 235.269C491.144 235.269 490.924 235.936 491.59 235.916C492.257 235.895 493.31 229.1 492.662 227.345C492.527 226.98 491.711 227.622 491.711 227.622Z" fill="url(#paint19_linear_1338_5640)"/>
<path d="M211.571 264.141L196.727 283.029L180.769 270.489L195.613 251.6C187.429 249.91 178.618 252.813 173.104 259.83C166.578 268.135 166.747 279.56 172.83 287.608C172.864 287.653 172.902 287.695 172.937 287.74L112.429 362.728C109.981 365.715 110.465 370.128 113.501 372.514C116.536 374.9 120.939 374.325 123.262 371.241L181.819 294.721C181.87 294.743 181.921 294.77 181.973 294.793C191.23 298.8 202.371 296.262 208.898 287.958C214.411 280.941 215.147 271.692 211.571 264.141ZM121.101 368.837C119.836 370.447 117.506 370.727 115.896 369.461C114.286 368.195 114.003 365.863 115.269 364.253C116.534 362.643 118.868 362.363 120.48 363.628C122.09 364.895 122.367 367.227 121.101 368.837Z" fill="#214F95"/>
<path d="M125.65 362.166L144.457 361.384L145.281 329.208L143.983 321.128L135.296 317.934L129.701 319.001C126.521 319.608 124.258 322.443 124.371 325.678L126.41 348.45L125.65 362.166Z" fill="#F2BC97"/>
<path d="M131.973 312.91V319.376C131.973 319.376 133.338 320.192 136.536 320.192C138.26 320.192 138.648 319.376 138.648 319.376V316.985L131.973 312.91Z" fill="#F2BC97"/>
<path d="M131.222 308.084C131.238 308.318 131.245 308.536 131.26 308.748C131.26 308.823 131.252 308.899 131.252 308.982C131.094 312.82 133.557 316.931 137.266 317.489C137.266 317.489 137.297 317.497 137.35 317.504C137.38 317.504 137.425 317.512 137.478 317.512C138.271 317.61 141.142 317.844 142.193 316.688C143.424 315.328 144.519 312.835 144.519 311.133C144.519 309.429 144.209 309.026 144.209 308.339C144.209 307.803 144.498 306.124 144.503 305.396C144.528 301.971 142.223 298.572 138.128 298.572C131.984 298.571 131.048 303.958 131.222 308.084Z" fill="#F2BC97"/>
<path d="M113.533 341.141C115.217 342.533 124.207 333.502 127.737 329.385C131.267 325.27 133.314 321.395 131.259 319.696C129.204 317.997 125.783 320.737 122.405 324.978C119.028 329.221 111.85 339.749 113.533 341.141Z" fill="#F2BC97"/>
<path d="M109.434 364.468C111.327 364.881 114.885 351.068 115.743 347.136C116.601 343.204 117.217 338.991 115.094 338.528C112.973 338.065 111.777 342.153 110.919 346.084C110.061 350.017 107.542 364.056 109.434 364.468Z" fill="#F2BC97"/>
<path d="M110.312 360.884C108.118 360.232 107.408 364.23 107.215 365.604C106.901 367.84 108.755 370.456 109.621 370.59C110.487 370.724 110.816 365.608 111.04 365.469C111.264 365.33 110.821 368.054 111.647 368.095C112.474 368.135 112.852 364.799 112.495 363.421C112.137 362.042 111.686 361.293 110.312 360.884Z" fill="#F2BC97"/>
<path d="M125.492 332.713C123.021 335.185 120.917 336.982 120.917 336.982L119.556 335.776L116.328 332.915C116.328 332.915 125.799 315.914 131.84 319.212C135.754 321.352 130.02 328.173 125.492 332.713Z" fill="#FFD53C"/>
<path opacity="0.5" d="M125.49 332.714C123.019 335.185 120.915 336.983 120.915 336.983L119.555 335.777C120.359 335.009 123.243 331.993 123.516 328.127C123.836 323.61 125.419 321.588 125.419 321.588C125.419 321.588 125.477 328.836 125.49 332.714Z" fill="#FFD53C"/>
<path d="M137.284 359.951C135.409 360.788 134.365 364.29 134.998 367.547C135.502 370.138 136.391 373.466 137.95 377.359C141.845 387.076 144.858 400.069 147.62 400.023C150.383 399.977 151.298 391.917 148.592 381.419C146.145 371.931 143.904 359.487 141.87 358.869C140.841 358.555 138.924 359.219 137.284 359.951Z" fill="#F2BC97"/>
<path d="M148.532 397.95C141.028 395.246 144.424 430.733 146.944 438.324C149.464 445.915 150.409 432.913 150.862 419.813C151.315 406.711 151.486 399.015 148.532 397.95Z" fill="#F2BC97"/>
<path d="M144.434 424.308C144.519 424.442 145.615 440.613 145.615 440.613C145.615 440.613 150.398 441.015 150.398 440.613C150.398 440.211 150.638 424.634 150.638 424.634L144.434 424.308Z" fill="#F2BC97"/>
<path d="M128.098 428.818C128.183 428.952 128.724 440.613 128.724 440.613C128.724 440.613 133.507 441.015 133.507 440.613C133.507 440.211 133.877 430.092 133.877 430.092L128.098 428.818Z" fill="#F2BC97"/>
<path d="M128.152 359.797C126.175 360.19 124.575 363.388 124.659 366.727C124.727 369.385 125.05 372.852 125.94 377.027C128.16 387.448 128.978 400.882 131.695 401.467C134.413 402.051 136.638 394.354 135.711 383.437C134.873 373.57 134.724 360.851 132.83 359.781C131.871 359.238 129.882 359.453 128.152 359.797Z" fill="#F2BC97"/>
<path d="M132.735 398.865C125.355 395.719 127.415 431.369 129.607 439.099C131.8 446.829 133.116 433.895 134.128 420.837C135.139 407.78 135.639 400.102 132.735 398.865Z" fill="#F2BC97"/>
<path d="M145.413 359.791C145.413 359.791 151.769 392.804 151.618 398.727C151.466 404.648 150.583 434.049 150.583 434.049C150.583 434.049 144.82 433.913 144.814 433.886C144.709 433.409 142.501 420.879 141.899 411.068C141.518 404.879 142.705 400.076 142.528 399.107C142.072 396.602 136.269 381.963 136.269 381.963C136.269 381.963 136.051 396.018 136.051 399.434C136.051 402.85 133.711 434.049 133.711 434.049L128.378 434.104C128.378 434.104 125.897 415.264 125.897 410.822C125.897 406.38 127.183 399.418 127.125 398.507C127.069 397.596 118.765 368.748 124.459 360.094C131.946 348.713 145.413 359.791 145.413 359.791Z" fill="#083A74"/>
<path d="M146.334 362.614L123.066 362.78C123.066 362.78 123.622 341.522 123.634 336.746C123.681 323.125 124.662 320.843 127.89 319.318C128.978 318.811 130.349 318.515 131.804 318.42C131.804 318.42 131.804 318.42 131.815 318.42C132.288 318.562 133.542 319.779 138.33 318.822C140.955 319.26 143.06 319.969 143.615 320.49C144.75 321.554 145.199 323.516 145.436 326.91C145.472 327.383 145.506 327.879 145.53 328.411C145.554 328.766 145.612 329.239 145.684 329.853C145.85 331.308 146.063 333.589 145.992 337.184C145.837 344.727 145.494 361.799 146.334 362.614Z" fill="#FFD53C"/>
<path opacity="0.5" d="M145.685 329.852C140.141 328.883 138.508 325.181 138.508 325.181L142.351 325.146C142.351 325.146 143.888 325.95 145.437 326.909C145.473 327.382 145.508 327.878 145.532 328.41C145.555 328.764 145.614 329.237 145.685 329.852Z" fill="#FFD53C"/>
<path d="M168.131 324.203C168.122 322.038 155.537 320.922 150.16 320.844C144.784 320.768 140.533 321.667 140.543 324.312C140.553 326.956 144.811 327.823 150.187 327.704C155.563 327.585 168.14 326.368 168.131 324.203Z" fill="#F2BC97"/>
<path d="M178.056 301.777C176.372 300.854 169.115 312.994 167.195 316.492C165.276 319.992 163.509 323.827 165.397 324.862C167.285 325.898 169.569 322.345 171.487 318.847C173.407 315.347 179.741 302.701 178.056 301.777Z" fill="#F2BC97"/>
<path d="M158.637 321.508L164.406 321.291L168.543 314.242L172.381 317.127C172.381 317.127 169.333 323.577 168.163 324.747C166.993 325.917 158.692 327.142 158.692 327.142L158.637 321.508Z" fill="#F2BC97"/>
<path d="M138.501 325.181C138.501 325.181 134.781 318.772 147.533 320.12C154.968 320.906 158.675 321.289 158.675 321.289L158.976 327.273C158.976 327.273 143.563 331.631 138.501 325.181Z" fill="#FFD53C"/>
<path d="M150.437 439.428C150.437 439.428 150.941 441.151 153.988 443.395C157.035 445.639 157.834 445.149 157.904 445.988C157.973 446.827 145.234 446.137 145.234 446.137L145.434 439.235C145.434 439.235 150.435 439.249 150.437 439.428Z" fill="#214F95"/>
<path d="M133.546 439.239C133.546 439.239 134.123 440.687 136.176 443.027C137.989 445.093 139.591 444.651 139.445 445.391C139.304 446.1 128.535 445.641 128.535 445.641V439.239C128.535 439.239 133.549 439.243 133.546 439.239Z" fill="#214F95"/>
<path d="M174.973 304.575C175.447 304.064 175.358 303.27 175.292 302.575C175.22 301.824 175.21 301.066 175.263 300.314C175.286 299.987 175.346 299.614 175.623 299.437C175.929 299.243 176.324 299.386 176.667 299.498C177.342 299.716 178.192 299.739 178.641 299.19C179.015 298.733 179.507 297.629 180.023 297.343C180.117 297.291 180.338 296.992 180.703 297.233C181.65 297.858 181.126 299.175 180.899 300.172C180.543 301.739 180.129 302.817 178.65 303.941C177.828 304.566 176.787 305.301 176.224 306.234" fill="#F2BC97"/>
<path d="M130.473 303.373C130.504 302.971 130.538 302.569 130.574 302.165C130.707 300.645 130.871 298.552 132.473 297.837C133.042 297.583 133.67 297.509 134.287 297.427C137.289 297.026 141.561 295.112 144.159 297.611C145.197 298.61 146.91 304.32 143.181 305.071C141.283 305.454 142.967 307.997 141.742 308.54C140.611 309.043 140.447 307.224 140.027 306.472C139.825 306.109 139.652 305.573 139.128 305.846C138.788 306.024 138.85 306.658 138.817 307.015C138.696 308.326 138.983 309.661 138.721 310.962C138.302 313.035 134.85 313.733 132.979 313.762C131.346 313.786 130.966 311.604 130.747 310.385C130.337 308.104 130.29 305.704 130.473 303.373Z" fill="#214F95"/>
<path d="M131.965 318.4L132.121 318.414H132.004C131.992 318.414 131.992 318.414 131.992 318.414C131.977 318.4 131.965 318.4 131.965 318.4Z" fill="url(#paint20_linear_1338_5640)"/>
<path d="M308.589 130.343C303.113 134.105 297.924 138.283 293.082 142.833C290.076 145.659 287.021 149.02 286.823 153.141C286.383 162.264 299.625 167.365 299.662 176.498C299.675 179.76 297.922 182.734 296.225 185.52C292.253 192.039 288.234 198.619 282.902 204.081" stroke="#004594" stroke-miterlimit="10" stroke-linecap="round" stroke-dasharray="3 5"/>
<path d="M310.223 129.09L327.52 116.397L319.186 112.562L311.932 120.888L310.223 129.09Z" fill="#3A3ABA"/>
<path d="M306.32 110.146L310.221 129.09L317.184 118.475L352.798 94.7002L306.32 110.146Z" fill="#5A5AE2"/>
<path d="M298.273 103.363L306.321 110.146L352.799 94.7002L298.273 103.363Z" fill="url(#paint21_linear_1338_5640)"/>
<path d="M317.184 118.475L328.829 129.782L352.798 94.7002L317.184 118.475Z" fill="url(#paint22_linear_1338_5640)"/>
<path d="M362.873 152.789C364.547 152.869 366.168 153.305 367.615 154.026L366.307 155.752L374.997 156.838L371.593 148.77L370.273 150.514C367.875 149.515 365.272 149.121 362.765 149.354C359.644 149.617 356.689 150.908 354.392 152.854C352.076 154.785 350.449 157.421 349.705 160.22C348.95 163.024 349.127 165.989 350.067 168.605C349.494 165.881 349.748 163.043 350.791 160.585C351.825 158.127 353.586 156.04 355.76 154.691C357.915 153.331 360.432 152.651 362.873 152.789Z" fill="white"/>
<path d="M376.849 169.209C377.613 166.299 377.365 163.218 376.311 160.538C377.001 163.338 376.812 166.295 375.759 168.856C374.723 171.416 372.897 173.592 370.629 174.967C368.382 176.355 365.751 177.002 363.228 176.787C361.614 176.659 360.064 176.2 358.677 175.479L359.934 173.796L351.238 172.763L354.692 180.811L356.09 178.939C358.359 179.92 360.821 180.361 363.22 180.225C366.463 180.061 369.565 178.803 371.976 176.821C374.408 174.855 376.104 172.117 376.849 169.209Z" fill="white"/>
<path d="M52.6533 250.219C53.848 250.277 55.0032 250.587 56.0347 251.101L55.1023 252.332L61.301 253.107L58.8733 247.352L57.932 248.596C56.2204 247.883 54.3648 247.603 52.5767 247.768C50.3506 247.956 48.2427 248.876 46.6044 250.265C44.9526 251.642 43.7917 253.522 43.2613 255.518C42.7231 257.518 42.8492 259.634 43.5192 261.5C43.1104 259.556 43.2917 257.533 44.036 255.779C44.7735 254.025 46.0301 252.538 47.5806 251.575C49.1176 250.606 50.9125 250.12 52.6533 250.219Z" fill="white"/>
<path d="M62.6226 261.931C63.1675 259.855 62.9908 257.657 62.2386 255.746C62.7318 257.744 62.5955 259.853 61.8456 261.679C61.107 263.505 59.8042 265.057 58.1861 266.038C56.5827 267.029 54.7068 267.49 52.9074 267.337C51.7567 267.246 50.6509 266.918 49.6612 266.404L50.5586 265.203L44.3555 264.467L46.8192 270.207L47.8168 268.872C49.4349 269.571 51.1914 269.885 52.9018 269.788C55.2146 269.671 57.4283 268.774 59.1466 267.361C60.8818 265.958 62.0911 264.005 62.6226 261.931Z" fill="white"/>
<path d="M432.372 122.145C433.567 122.203 434.722 122.512 435.753 123.027L434.821 124.258L441.019 125.032L438.591 119.277L437.65 120.522C435.938 119.81 434.082 119.528 432.294 119.694C430.068 119.882 427.96 120.803 426.323 122.19C424.671 123.567 423.512 125.448 422.98 127.444C422.442 129.444 422.568 131.56 423.238 133.426C422.829 131.482 423.01 129.459 423.755 127.704C424.492 125.951 425.749 124.463 427.299 123.501C428.836 122.531 430.631 122.046 432.372 122.145Z" fill="#D1D6E8"/>
<path d="M442.341 133.857C442.886 131.781 442.71 129.584 441.957 127.672C442.451 129.669 442.314 131.778 441.564 133.605C440.826 135.431 439.523 136.983 437.905 137.964C436.301 138.954 434.426 139.416 432.626 139.263C431.475 139.172 430.37 138.844 429.38 138.329L430.277 137.129L424.074 136.393L426.538 142.133L427.536 140.798C429.154 141.497 430.91 141.812 432.621 141.715C434.933 141.598 437.147 140.701 438.865 139.287C440.599 137.885 441.81 135.931 442.341 133.857Z" fill="#D1D6E8"/>
</g>
<defs>
<linearGradient id="paint0_linear_1338_5640" x1="280.601" y1="416.542" x2="280.601" y2="65.8862" gradientUnits="userSpaceOnUse">
<stop stop-color="#DCDCF4"/>
<stop offset="1" stop-color="#F9FBFC"/>
</linearGradient>
<linearGradient id="paint1_linear_1338_5640" x1="284.204" y1="427.537" x2="284.204" y2="520.516" gradientUnits="userSpaceOnUse">
<stop stop-color="#DCDCF4"/>
<stop offset="1" stop-color="#F9FBFC"/>
</linearGradient>
<linearGradient id="paint2_linear_1338_5640" x1="432.922" y1="374.252" x2="501.024" y2="374.252" gradientUnits="userSpaceOnUse">
<stop offset="0.0427" stop-color="#7B8BFF"/>
<stop offset="1" stop-color="#6F80FF"/>
</linearGradient>
<linearGradient id="paint3_linear_1338_5640" x1="429.087" y1="306.243" x2="504.94" y2="306.243" gradientUnits="userSpaceOnUse">
<stop offset="0.0327" stop-color="#214F95"/>
<stop offset="1" stop-color="#0E408C"/>
</linearGradient>
<linearGradient id="paint4_linear_1338_5640" x1="427.891" y1="441.039" x2="503.745" y2="441.039" gradientUnits="userSpaceOnUse">
<stop offset="0.0327" stop-color="#214F95"/>
<stop offset="1" stop-color="#0E408C"/>
</linearGradient>
<linearGradient id="paint5_linear_1338_5640" x1="47.4497" y1="359.599" x2="152.063" y2="359.599" gradientUnits="userSpaceOnUse">
<stop stop-color="#CBCBEF"/>
<stop offset="1" stop-color="#B1B0D8"/>
</linearGradient>
<linearGradient id="paint6_linear_1338_5640" x1="68.0238" y1="364.82" x2="135.259" y2="364.82" gradientUnits="userSpaceOnUse">
<stop stop-color="#DCDCF4"/>
<stop offset="1" stop-color="#B1B0D8"/>
</linearGradient>
<linearGradient id="paint7_linear_1338_5640" x1="37.1754" y1="383.065" x2="127.019" y2="383.065" gradientUnits="userSpaceOnUse">
<stop stop-color="#DCDCF4"/>
<stop offset="1" stop-color="#B1B0D8"/>
</linearGradient>
<linearGradient id="paint8_linear_1338_5640" x1="265.218" y1="505.526" x2="265.218" y2="238.492" gradientUnits="userSpaceOnUse">
<stop stop-color="#DCDCF4"/>
<stop offset="1" stop-color="#F9FBFC"/>
</linearGradient>
<linearGradient id="paint9_linear_1338_5640" x1="239.836" y1="260.869" x2="276.195" y2="297.228" gradientUnits="userSpaceOnUse">
<stop offset="0.0427" stop-color="#7B8BFF"/>
<stop offset="1" stop-color="#6F80FF"/>
</linearGradient>
<linearGradient id="paint10_linear_1338_5640" x1="253.874" y1="296.466" x2="290.576" y2="333.168" gradientUnits="userSpaceOnUse">
<stop offset="0.0427" stop-color="#7B8BFF"/>
<stop offset="1" stop-color="#6F80FF"/>
</linearGradient>
<linearGradient id="paint11_linear_1338_5640" x1="248.793" y1="280.995" x2="281.232" y2="313.434" gradientUnits="userSpaceOnUse">
<stop offset="0.0327" stop-color="#214F95"/>
<stop offset="1" stop-color="#0E408C"/>
</linearGradient>
<linearGradient id="paint12_linear_1338_5640" x1="190.645" y1="367.921" x2="298.18" y2="367.921" gradientUnits="userSpaceOnUse">
<stop offset="0.0427" stop-color="#7B8BFF"/>
<stop offset="1" stop-color="#6F80FF"/>
</linearGradient>
<linearGradient id="paint13_linear_1338_5640" x1="374.176" y1="359.896" x2="374.176" y2="362.405" gradientUnits="userSpaceOnUse">
<stop offset="0.0377" stop-color="#7B8BFF"/>
<stop offset="1" stop-color="#6A7CFF"/>
</linearGradient>
<linearGradient id="paint14_linear_1338_5640" x1="363.391" y1="359.896" x2="363.391" y2="362.405" gradientUnits="userSpaceOnUse">
<stop stop-color="#3197FF"/>
<stop offset="1" stop-color="#55AEFF"/>
</linearGradient>
<linearGradient id="paint15_linear_1338_5640" x1="384.033" y1="359.896" x2="384.033" y2="362.405" gradientUnits="userSpaceOnUse">
<stop stop-color="#3197FF"/>
<stop offset="1" stop-color="#55AEFF"/>
</linearGradient>
<linearGradient id="paint16_linear_1338_5640" x1="447.403" y1="343.702" x2="437.172" y2="343.702" gradientUnits="userSpaceOnUse">
<stop offset="0.0327" stop-color="#214F95"/>
<stop offset="1" stop-color="#0E408C"/>
</linearGradient>
<linearGradient id="paint17_linear_1338_5640" x1="473.08" y1="340.524" x2="464.488" y2="340.524" gradientUnits="userSpaceOnUse">
<stop offset="0.0327" stop-color="#214F95"/>
<stop offset="1" stop-color="#0E408C"/>
</linearGradient>
<linearGradient id="paint18_linear_1338_5640" x1="495.799" y1="274.537" x2="471.656" y2="274.537" gradientUnits="userSpaceOnUse">
<stop offset="0.0427" stop-color="#7B8BFF"/>
<stop offset="1" stop-color="#6F80FF"/>
</linearGradient>
<linearGradient id="paint19_linear_1338_5640" x1="492.865" y1="231.574" x2="491.109" y2="231.574" gradientUnits="userSpaceOnUse">
<stop offset="0.0377" stop-color="#FFCE3C"/>
<stop offset="1" stop-color="#FFBD3C"/>
</linearGradient>
<linearGradient id="paint20_linear_1338_5640" x1="132.043" y1="318.401" x2="132.043" y2="318.413" gradientUnits="userSpaceOnUse">
<stop offset="0.0618" stop-color="#E38204"/>
<stop offset="1" stop-color="#E35802"/>
</linearGradient>
<linearGradient id="paint21_linear_1338_5640" x1="298.274" y1="102.423" x2="352.799" y2="102.423" gradientUnits="userSpaceOnUse">
<stop offset="0.0427" stop-color="#7B8BFF"/>
<stop offset="1" stop-color="#6F80FF"/>
</linearGradient>
<linearGradient id="paint22_linear_1338_5640" x1="317.183" y1="112.241" x2="352.798" y2="112.241" gradientUnits="userSpaceOnUse">
<stop offset="0.0427" stop-color="#7B8BFF"/>
<stop offset="1" stop-color="#6F80FF"/>
</linearGradient>
<clipPath id="clip0_1338_5640">
<rect width="563" height="563" fill="white"/>
</clipPath>
</defs>
</svg>
