<svg width="108" height="108" viewBox="0 0 108 108" fill="none" xmlns="http://www.w3.org/2000/svg">
<path d="M54.125 53.9999C54.125 44.0589 62.1839 36 72.1249 36C82.066 36 90.1249 44.0591 90.1249 53.9999C90.1249 63.9412 82.0658 71.9999 72.1249 71.9999C62.1837 71.9999 54.125 63.941 54.125 53.9999Z" fill="#00BCFF"/>
<path d="M18.125 89.9999C18.125 80.0588 26.1839 71.9999 36.1249 71.9999L45.7173 66.9355L54.1249 71.9999V89.9999C54.1249 99.9411 46.066 108 36.1249 108C26.1839 108 18.125 99.9409 18.125 89.9999Z" fill="#00CF7F"/>
<path d="M54.1267 0L44.332 17.0163L54.1267 35.9999H71.8741C81.8154 35.9999 89.8741 27.941 89.8741 17.9999C89.8741 8.05887 81.8152 0 71.8741 0H54.1267Z" fill="#FF7361"/>
<path d="M17.873 17.9999C17.873 27.941 25.9319 35.9999 35.873 35.9999L45.4215 39.6879L54.1254 35.9999V0H35.8728C25.9319 0 17.873 8.05887 17.873 17.9999Z" fill="#FF4D12"/>
<path d="M18.125 54.0001C18.125 63.9414 26.1839 72.0001 36.1249 72.0001H54.1249V36H36.1249C26.1839 36 18.125 44.0591 18.125 54.0001Z" fill="#B659FF"/>
</svg>
