<svg width="80" height="80" viewBox="0 0 80 80" fill="none" xmlns="http://www.w3.org/2000/svg">
<path d="M58.9062 0H21.0938C9.44399 0 0 9.44399 0 21.0938V58.9062C0 70.556 9.44399 80 21.0938 80H58.9062C70.556 80 80 70.556 80 58.9062V21.0938C80 9.44399 70.556 0 58.9062 0Z" fill="#330000"/>
<path d="M40.1957 52.0015H28.427L26.3723 58.6562H17.1973L30.2629 23.0327H38.3363L51.4988 58.6562H42.2754L40.1957 52.0015ZM30.4832 45.3718H38.141L34.3004 33.0155L30.4832 45.3718ZM53.6535 25.3577C53.6535 24.1827 54.077 23.2218 54.9254 22.4702C55.7738 21.7202 56.8738 21.3452 58.2285 21.3452C59.5832 21.3452 60.6832 21.7202 61.5316 22.4702C62.3801 23.2202 62.8035 24.1827 62.8035 25.3577C62.8035 26.5327 62.3801 27.4952 61.5316 28.2452C60.6832 28.9952 59.5816 29.3702 58.2285 29.3702C56.8754 29.3702 55.7738 28.9952 54.9254 28.2452C54.077 27.4952 53.6535 26.5327 53.6535 25.3577ZM62.4129 58.6562H54.1426V32.1827H62.4129V58.6562Z" fill="#FF9A00"/>
</svg>
