<svg width="92" height="92" viewBox="0 0 92 92" fill="none" xmlns="http://www.w3.org/2000/svg">
<path d="M0 0H75.5132C79.8858 0 84.0792 1.737 87.1711 4.82888C90.263 7.92075 92 12.1142 92 16.4868V92H16.4868C12.1142 92 7.92075 90.263 4.82888 87.1711C1.737 84.0792 0 79.8858 0 75.5132L0 0Z" fill="#002732"/>
<path d="M75.5132 4.18182C78.7754 4.18597 81.9028 5.48372 84.2095 7.79045C86.5163 10.0972 87.814 13.2246 87.8182 16.4868V87.8182H16.4868C13.2246 87.814 10.0972 86.5163 7.79045 84.2095C5.48372 81.9028 4.18597 78.7754 4.18182 75.5132V4.18182H75.5132ZM75.5132 0H0V75.5132C0 79.8858 1.737 84.0792 4.82888 87.1711C7.92075 90.263 12.1142 92 16.4868 92H92V16.4868C92 12.1142 90.263 7.92075 87.1711 4.82888C85.6402 3.29793 83.8227 2.08352 81.8224 1.25498C79.8221 0.426444 77.6783 0 75.5132 0Z" fill="#00D4FF"/>
<path d="M25.2058 61.1593V30.4752C25.1997 30.4305 25.2041 30.385 25.2185 30.3423C25.2329 30.2996 25.257 30.2608 25.2889 30.2289C25.3207 30.1971 25.3595 30.173 25.4022 30.1586C25.445 30.1442 25.4904 30.1398 25.5351 30.1458C27.9187 30.0831 30.9453 30.0518 34.6149 30.0518C38.943 30.0518 42.1195 31.024 44.1442 32.9686C45.1264 33.8884 45.904 35.0047 46.4263 36.2448C46.9487 37.4849 47.2041 38.8212 47.176 40.1665C47.176 43.7071 45.9214 46.3487 43.4124 48.0911C40.9033 49.8335 37.7582 50.689 33.9771 50.6577H31.1805V61.1122C31.1874 61.1633 31.1825 61.2152 31.166 61.264C31.1495 61.3128 31.122 61.3572 31.0856 61.3936C31.0491 61.43 31.0048 61.4576 30.956 61.474C30.9072 61.4905 30.8552 61.4955 30.8042 61.4886H25.5769C25.3295 61.4816 25.2058 61.3718 25.2058 61.1593ZM31.1805 34.5681V46.1413C32.1975 46.2261 33.2182 46.2575 34.2385 46.2354C36.3294 46.2354 38.0317 45.7719 39.3455 44.8449C40.6593 43.918 41.3093 42.4055 41.2953 40.3077C41.2953 38.4572 40.7238 37.0302 39.5808 36.0265C38.4377 35.0229 36.7824 34.5141 34.6149 34.5002C34.0921 34.5002 33.5694 34.5002 33.0467 34.5002C32.5239 34.5002 32.1058 34.5002 31.7764 34.5002L31.1805 34.5681Z" fill="#00D4FF"/>
<path d="M65.0054 43.9771C63.3644 42.9177 61.4544 42.35 59.5011 42.341C58.6475 42.2738 57.7954 42.4886 57.0756 42.9526C56.8402 43.1168 56.6472 43.3348 56.5127 43.5884C56.3782 43.842 56.306 44.124 56.302 44.411C56.3061 44.69 56.3681 44.9652 56.4842 45.2189C56.6003 45.4727 56.7679 45.6996 56.9763 45.8851C57.8142 46.527 58.752 47.0268 59.752 47.3644C62.3552 48.368 64.1813 49.4274 65.2302 50.5426C66.3 51.7136 66.8637 53.2599 66.7984 54.8446C66.8295 55.8342 66.626 56.8171 66.2044 57.7129C65.7829 58.6087 65.1553 59.392 64.3729 59.9987C62.756 61.2986 60.5692 61.9485 57.8127 61.9485C55.0562 61.9485 52.791 61.4467 51.0172 60.443C50.9232 60.4091 50.8437 60.3438 50.7923 60.2581C50.7409 60.1724 50.7206 60.0715 50.735 59.9726V55.5974C50.729 55.5482 50.7366 55.4984 50.7568 55.4533C50.7771 55.4082 50.8093 55.3694 50.85 55.3412C50.8796 55.3151 50.9177 55.3007 50.9571 55.3007C50.9966 55.3007 51.0347 55.3151 51.0643 55.3412C52.9378 56.79 55.2353 57.5833 57.6036 57.5994C58.481 57.6552 59.3554 57.4516 60.1179 57.014C60.3837 56.8562 60.6039 56.6321 60.757 56.3636C60.91 56.0951 60.9906 55.7914 60.9909 55.4824C60.9966 55.1705 60.9367 54.8609 60.8152 54.5736C60.6936 54.2864 60.513 54.0279 60.2852 53.8149C59.4557 53.1588 58.5157 52.656 57.5095 52.3303C55.0004 51.358 53.258 50.3126 52.2822 49.194C51.2757 48.0262 50.7474 46.5214 50.8029 44.9808C50.7882 44.0527 50.9788 43.1328 51.3611 42.287C51.7433 41.4412 52.3078 40.6903 53.0141 40.088C54.4847 38.8021 56.5843 38.1592 59.3129 38.1592C61.8534 38.1592 63.8136 38.5077 65.1936 39.2046C65.3504 39.2987 65.4288 39.5026 65.4288 39.8162V43.721C65.4288 44.0799 65.2877 44.1653 65.0054 43.9771Z" fill="#00D4FF"/>
</svg>
