<svg width="88" height="88" viewBox="0 0 88 88" fill="none" xmlns="http://www.w3.org/2000/svg">
<path d="M15.5833 1.1001H72.4167C81.0231 1.1001 88 8.077 88 16.6834V71.3168C88 79.9233 81.0231 86.9002 72.4167 86.9002H15.5833C6.9769 86.9002 0 79.9233 0 71.3168V16.6834C0 8.077 6.9769 1.1001 15.5833 1.1001Z" fill="#470137"/>
<path d="M46.2619 23.6646L35.2817 41.7878L47.0293 61.0326C47.1046 61.1672 47.1258 61.3256 47.0885 61.4753C47.0488 61.6137 46.9114 61.5266 46.6753 61.5654H38.2927C37.7021 61.5654 37.2889 61.5446 37.0528 61.1507C36.2651 59.6159 35.4779 58.0909 34.6915 56.5757C33.9038 55.061 33.0675 53.5162 32.1827 51.9415C31.2972 50.3681 30.4215 48.7741 29.5556 47.1598H29.4965C28.7088 48.7343 27.8921 50.3086 27.0465 51.8824C26.1999 53.4569 25.3636 55.0213 24.5377 56.5755C23.7112 58.1306 22.8651 59.6753 21.9994 61.2096C21.8416 61.5639 21.5657 61.6003 21.1727 61.6003H13.0851C12.9282 61.6003 12.8397 61.6623 12.8194 61.5047C12.7973 61.3607 12.8287 61.2138 12.9081 61.0916L24.3014 42.378L13.2032 23.6054C13.0851 23.4487 13.0655 23.3208 13.1441 23.2218C13.2324 23.1197 13.3637 23.0651 13.4985 23.0742H21.822C22.0035 23.0642 22.185 23.0945 22.3534 23.1629C22.4945 23.2428 22.6157 23.3538 22.7076 23.4875C23.4161 25.062 24.2033 26.6362 25.069 28.2102C25.9343 29.7847 26.8098 31.3393 27.696 32.8739C28.5815 34.4087 29.3982 35.9633 30.146 37.5376H30.2051C30.9918 35.9242 31.7887 34.3501 32.596 32.8149C33.4023 31.2801 34.2286 29.7354 35.0753 28.1808C35.9212 26.6266 36.7379 25.0818 37.5253 23.5467C37.5705 23.4009 37.6518 23.2691 37.7614 23.163C37.9072 23.0891 38.071 23.0584 38.2337 23.0744H45.967C46.1483 23.0297 46.3317 23.1404 46.3766 23.3217C46.4075 23.4483 46.363 23.5819 46.2619 23.6646Z" fill="#FF61F6"/>
<path d="M63.2029 62.3312C60.4858 62.3725 57.7935 61.8079 55.322 60.6782C53.0196 59.6126 51.0948 57.8731 49.8025 55.6898C48.464 53.4669 47.7951 50.6824 47.7954 47.3366C47.7733 44.6272 48.4656 41.9598 49.8025 39.6031C51.1797 37.2028 53.2052 35.2386 55.6468 33.9359C58.2046 32.5191 61.294 31.8107 64.9151 31.8107C65.1115 31.8107 65.3673 31.8205 65.6825 31.8403C65.997 31.8605 66.371 31.8899 66.8041 31.9288V20.2992C66.8041 20.0243 66.9224 19.886 67.1585 19.886H74.5965C74.7677 19.8616 74.9264 19.9805 74.9508 20.1517C74.9549 20.1811 74.9549 20.2108 74.9508 20.2402V55.129C74.9508 55.7986 74.9803 56.5268 75.0393 57.3133C75.0984 58.101 75.1476 58.8095 75.1869 59.4385C75.2017 59.6894 75.0611 59.9239 74.8325 60.0289C72.9136 60.8291 70.9149 61.4229 68.8703 61.7998C67.0007 62.1449 65.1042 62.3227 63.2029 62.3312ZM66.8039 55.0111V38.895C66.485 38.8086 66.1591 38.7493 65.83 38.7178C65.4278 38.6774 65.0239 38.6577 64.6196 38.6589C63.1871 38.6446 61.7714 38.9682 60.4874 39.6033C59.2367 40.2249 58.1688 41.1606 57.3882 42.3188C56.5811 43.4994 56.1777 45.054 56.1779 46.9825C56.1492 48.2693 56.3594 49.5505 56.7977 50.7606C57.1545 51.7358 57.7184 52.622 58.4507 53.3581C59.1518 54.0354 60.0005 54.5405 60.9299 54.8339C61.9118 55.1519 62.9381 55.3112 63.9701 55.306C64.5208 55.306 65.0325 55.2863 65.505 55.2471C65.9453 55.2141 66.3805 55.1349 66.8039 55.0111Z" fill="#FF61F6"/>
</svg>
