<svg width="27" height="27" viewBox="0 0 27 27" fill="none" xmlns="http://www.w3.org/2000/svg">
<path d="M16.3124 7.3125C17.1418 7.4743 17.9649 7.84003 18.5624 8.4375C19.1599 9.03496 19.5256 9.85819 19.6874 10.6875M16.8749 3.375C18.5979 3.56641 20.1483 4.39995 21.3749 5.625C22.6015 6.85005 23.4313 8.40228 23.6249 10.125M23.6244 18.5363V21.5847C23.6291 22.7501 22.5813 23.7232 21.4047 23.617C11.25 23.625 3.37499 15.6769 3.38295 5.59034C3.27698 4.42007 4.24527 3.37619 5.40912 3.3751H8.46365C8.95777 3.37024 9.43682 3.54488 9.81148 3.86645C10.8766 4.78068 11.5618 7.88374 11.2982 9.11731C11.0924 10.0804 10.1215 10.7542 9.46147 11.4129C10.9109 13.957 13.0215 16.0633 15.5705 17.5099C16.2305 16.8511 16.9057 15.8823 17.8707 15.6769C19.1086 15.4134 22.2316 16.0994 23.1422 17.172C23.4652 17.5524 23.6367 18.0379 23.6244 18.5363Z" stroke="#083A74" stroke-width="1.5" stroke-linecap="round" stroke-linejoin="round"/>
</svg>
