<svg width="39" height="39" viewBox="0 0 39 39" fill="none" xmlns="http://www.w3.org/2000/svg">
<path fill-rule="evenodd" clip-rule="evenodd" d="M34.4512 29.7808C34.2197 29.7808 34.0303 29.5914 34.0303 29.3599V6.18874C34.0303 5.4311 33.441 4.84182 32.7044 4.84182H6.29225C5.55566 4.84182 4.94534 5.4311 4.94534 6.18874V29.3599C4.94534 29.5914 4.75593 29.7808 4.52443 29.7808C4.29293 29.7808 4.10352 29.5914 4.10352 29.3599V6.18874C4.10352 4.9681 5.09266 4 6.29225 4H32.7044C33.904 4 34.8721 4.9681 34.8721 6.18874V29.3599C34.8721 29.5914 34.7038 29.7808 34.4512 29.7808Z" fill="#212121"/>
<path fill-rule="evenodd" clip-rule="evenodd" d="M31.8236 35.0001H7.17927C4.06453 35.0001 1.53906 32.4746 1.53906 29.3599C1.53906 29.1284 1.72847 28.939 1.95997 28.939H15.9342C16.1657 28.939 16.3551 29.1284 16.3551 29.3599C16.3551 30.2438 17.0707 30.9593 17.9546 30.9593H21.0483C21.9112 30.9593 22.6267 30.2438 22.6267 29.3599C22.6267 29.1284 22.8161 28.939 23.0476 28.939H37.0429C37.1481 28.939 37.2534 28.9811 37.3376 29.0652C37.4007 29.1494 37.4638 29.2546 37.4638 29.3599C37.4428 32.4746 34.9173 35.0001 31.8236 35.0001ZM2.40193 29.7808C2.61239 32.2221 4.67485 34.1583 7.17927 34.1583H31.8236C34.328 34.1583 36.3695 32.2221 36.601 29.7808H23.4475C23.237 30.9383 22.2479 31.8012 21.0483 31.8012H17.9546C16.755 31.8012 15.7448 30.9383 15.5554 29.7808H2.40193Z" fill="#212121"/>
<path fill-rule="evenodd" clip-rule="evenodd" d="M18.3095 22.1412C18.2043 22.1412 18.099 22.0992 18.0148 22.015L14.7317 18.7529C14.6476 18.6687 14.6055 18.5635 14.6055 18.4372C14.6055 18.332 14.6476 18.2268 14.7317 18.1426L16.0787 16.7957C16.247 16.6273 16.5206 16.6273 16.6679 16.7957L18.3095 18.4372L23.8866 12.8602C24.0549 12.6918 24.3285 12.6918 24.4758 12.8602L25.8438 14.2071C25.9069 14.2913 25.949 14.3965 25.949 14.5017C25.949 14.6069 25.9069 14.7122 25.8438 14.7964L18.6041 22.015C18.541 22.0992 18.4147 22.1412 18.3095 22.1412ZM15.6157 18.4372L18.3095 21.1311L24.9388 14.5017L24.1812 13.7441L18.6041 19.3211C18.4358 19.4895 18.1832 19.4895 18.0148 19.3211L16.3733 17.6796L15.6157 18.4372Z" fill="#212121"/>
<path fill-rule="evenodd" clip-rule="evenodd" d="M19.9322 26.6022C14.8812 26.6022 10.7773 22.4983 10.7773 17.4473C10.7773 12.3964 14.8812 8.27148 19.9322 8.27148C24.9831 8.27148 29.087 12.3964 29.087 17.4473C29.087 22.4983 24.9831 26.6022 19.9322 26.6022ZM19.9322 9.11331C15.3442 9.11331 11.6192 12.8594 11.6192 17.4473C11.6192 22.0353 15.3442 25.7603 19.9322 25.7603C24.5201 25.7603 28.2452 22.0353 28.2452 17.4473C28.2452 12.8594 24.5201 9.11331 19.9322 9.11331Z" fill="#212121"/>
<path fill-rule="evenodd" clip-rule="evenodd" d="M15.7578 18.3746L18.5376 21.1034L25.3785 14.3881L24.5967 13.6206L18.8416 19.27C18.6679 19.4405 18.4073 19.4405 18.2336 19.27L16.5396 17.6071L15.7578 18.3746Z" fill="#25A753"/>
<path fill-rule="evenodd" clip-rule="evenodd" d="M26.1178 14.8179L18.6702 21.7709C18.6052 21.852 18.4753 21.8926 18.3671 21.8926C18.2588 21.8926 18.1506 21.852 18.064 21.7709L14.6866 18.6289C14.6 18.5478 14.5567 18.4465 14.5567 18.3248C14.5567 18.2235 14.6 18.1221 14.6866 18.041L16.0722 16.7437C16.2454 16.5815 16.5269 16.5815 16.6784 16.7437L18.3671 18.3248L24.1043 12.953C24.2775 12.7908 24.559 12.7908 24.7105 12.953L26.1178 14.2503C26.1827 14.3314 26.226 14.4328 26.226 14.5341C26.226 14.6355 26.1827 14.7369 26.1178 14.8179ZM20.0341 25.3792C24.7538 25.3792 28.5859 21.7912 28.5859 17.3721C28.5859 12.953 24.7538 9.34473 20.0341 9.34473C15.3145 9.34473 11.4824 12.953 11.4824 17.3721C11.4824 21.7912 15.3145 25.3792 20.0341 25.3792Z" fill="#FFE479"/>
<path fill-rule="evenodd" clip-rule="evenodd" d="M29.0226 17.452C29.0226 22.4135 24.9502 26.4447 19.938 26.4447C14.9257 26.4447 10.8533 22.4135 10.8533 17.452C10.8533 12.4904 14.9257 8.43854 19.938 8.43854C24.9502 8.43854 29.0226 12.4904 29.0226 17.452ZM23.0288 28.7394H33.9304V6.39192C33.9304 5.64769 33.3457 5.06885 32.6147 5.06885H6.40495C5.674 5.06885 5.06836 5.64769 5.06836 6.39192V28.7394H15.9699C16.1997 28.7394 16.3876 28.9255 16.3876 29.1529C16.3876 30.0211 17.0977 30.724 17.9748 30.724H21.0448C21.9011 30.724 22.6111 30.0211 22.6111 29.1529C22.6111 28.9255 22.7991 28.7394 23.0288 28.7394Z" fill="#21ABCD"/>
<path fill-rule="evenodd" clip-rule="evenodd" d="M33.9895 29.6553H23.3242C23.1203 30.7859 22.1618 31.6287 20.9995 31.6287H18.0017C16.8394 31.6287 15.8605 30.7859 15.677 29.6553H4.99129H2.93164C3.13557 32.0399 5.13404 33.9311 7.56075 33.9311H31.4404C33.8672 33.9311 35.8452 32.0399 36.0696 29.6553H33.9895Z" fill="#A0A0A0"/>
</svg>
