<svg width="35" height="35" viewBox="0 0 35 35" fill="none" xmlns="http://www.w3.org/2000/svg">
<g clip-path="url(#clip0_372_1466)">
<path d="M2.05078 8.27148H32.9492V32.9492H2.05078V8.27148Z" fill="#4D5E80"/>
<path d="M17.5 8.27148H32.9492V32.9492H17.5V8.27148Z" fill="#3D4566"/>
<path d="M4.10156 10.3223H30.8984V28.8477H4.10156V10.3223Z" fill="#F3F5F9"/>
<path d="M17.5 10.3223H30.8984V28.8477H17.5V10.3223Z" fill="#E1E6F0"/>
<path d="M35 30.8984V31.9238C35 33.6259 33.626 35 31.9238 35H3.07617C1.37396 35 0 33.6259 0 31.9238V30.8984H35Z" fill="#F3F5F9"/>
<path d="M35 30.8984V31.9238C35 33.6259 33.626 35 31.9238 35H17.5V30.8984H35Z" fill="#E1E6F0"/>
<path d="M25.7031 20.5762H20.5762L17.5 11.3477L14.4238 20.5762H9.29688C8.16895 20.5762 7.24609 21.499 7.24609 22.627C7.24609 23.7549 8.16895 24.6777 9.29688 24.6777H17.5H25.7031C26.8311 24.6777 27.7539 23.7549 27.7539 22.627C27.7539 21.499 26.8311 20.5762 25.7031 20.5762Z" fill="#FFDF40"/>
<path d="M27.7539 22.627C27.7539 23.7549 26.8311 24.6777 25.7031 24.6777H17.5V11.3477L20.5762 20.5762H25.7031C26.8311 20.5762 27.7539 21.499 27.7539 22.627Z" fill="#FFBE40"/>
<path d="M14.6742 11.5409C14.2536 11.4138 13.825 11.3486 13.3984 11.3486C11.0929 11.3486 9.29688 13.2261 9.29688 15.4492V18.5253L13.3984 16.4746L15.4492 14.4238L14.6742 11.5409Z" fill="#4D5E80"/>
<path d="M20.3258 11.5409C20.7464 11.4138 21.175 11.3486 21.6016 11.3486C23.9071 11.3486 25.7031 13.2261 25.7031 15.4492V18.5253L21.6016 16.4746L19.5508 14.4238L20.3258 11.5409Z" fill="#3D4566"/>
<path d="M18.0247 0.313428L17.5 0L16.9753 0.313428C14.7362 1.64924 13.3984 4.14189 13.3984 6.70435V16.4746H17.5H21.6016V6.70435C21.6016 4.14189 20.2638 1.64924 18.0247 0.313428Z" fill="#FF79A6"/>
<path d="M21.6016 6.70435C21.6016 4.14189 20.2638 1.64924 18.0247 0.313428L17.5 0V16.4746H21.6016V6.70435Z" fill="#D94C7B"/>
<path d="M17.5 6.2207H16.4746V8.27148H17.5H18.5254V6.2207H17.5Z" fill="#F3F5F9"/>
<path d="M17.5 6.2207H18.5254V8.27148H17.5V6.2207Z" fill="#E1E6F0"/>
</g>
<defs>
<clipPath id="clip0_372_1466">
<rect width="35" height="35" fill="white"/>
</clipPath>
</defs>
</svg>
