<svg width="41" height="41" viewBox="0 0 41 41" fill="none" xmlns="http://www.w3.org/2000/svg">
<g clip-path="url(#clip0_372_1425)">
<path d="M26.6308 28.3325C26.5666 28.3326 26.5036 28.3146 26.4492 28.2805C26.3947 28.2465 26.351 28.1978 26.3229 28.14C26.2949 28.0822 26.2837 28.0177 26.2907 27.9538C26.2976 27.89 26.3224 27.8294 26.3623 27.779L26.6212 27.451L25.899 27.8678C25.8301 27.9071 25.7499 27.9212 25.6718 27.9077C25.5937 27.8943 25.5228 27.8542 25.4711 27.7942C25.4193 27.7342 25.39 27.6581 25.3882 27.579C25.3863 27.4998 25.4121 27.4224 25.4609 27.3601L26.613 25.9073L25.4739 26.5647C25.4168 26.5976 25.3514 26.6132 25.2857 26.6098C25.2199 26.6064 25.1565 26.584 25.1031 26.5454C25.0497 26.5067 25.0087 26.4535 24.9849 26.3921C24.9611 26.3306 24.9555 26.2636 24.9689 26.1991L25.191 25.1407C25.1291 25.1192 25.0746 25.0805 25.034 25.0289C24.9935 24.9774 24.9687 24.9153 24.9625 24.85C24.9563 24.7847 24.969 24.7191 24.9991 24.6608C25.0292 24.6026 25.0754 24.5542 25.1322 24.5216L25.4787 24.322C25.5358 24.2891 25.6013 24.2734 25.6672 24.2768C25.7331 24.2803 25.7965 24.3027 25.8499 24.3415C25.9033 24.3802 25.9444 24.4335 25.9681 24.4951C25.9918 24.5566 25.9972 24.6237 25.9837 24.6883L25.7944 25.591L27.8246 24.4191C27.8935 24.3795 27.974 24.3652 28.0523 24.3785C28.1306 24.3919 28.2018 24.4321 28.2536 24.4923C28.3055 24.5525 28.3347 24.6288 28.3364 24.7083C28.338 24.7877 28.3119 24.8652 28.2626 24.9275L27.1105 26.3768L27.8253 25.9668C27.894 25.9275 27.9743 25.9134 28.0523 25.9267C28.1303 25.94 28.2013 25.9801 28.2531 26.0399C28.3049 26.0998 28.3343 26.1758 28.3363 26.2549C28.3383 26.3341 28.3127 26.4115 28.264 26.4738L27.8758 26.9658C27.9453 26.9773 28.0095 27.01 28.0597 27.0593C28.1099 27.1087 28.1436 27.1723 28.1562 27.2416C28.1689 27.3108 28.1598 27.3823 28.1303 27.4462C28.1008 27.5101 28.0522 27.5633 27.9913 27.5986L26.8016 28.2901C26.7494 28.3189 26.6905 28.3335 26.6308 28.3325Z" fill="#CAD0D7"/>
<path d="M28.3581 22.8808C28.2831 22.8805 28.2102 22.8556 28.1508 22.8098C28.0914 22.7641 28.0487 22.7001 28.0292 22.6276C28.0098 22.5552 28.0148 22.4784 28.0433 22.409C28.0719 22.3397 28.1224 22.2817 28.1872 22.2439L29.7931 21.32C29.8715 21.2754 29.9644 21.2637 30.0514 21.2873C30.1385 21.311 30.2127 21.3681 30.2578 21.4462C30.3029 21.5244 30.3153 21.6172 30.2922 21.7044C30.2692 21.7916 30.2126 21.8662 30.1347 21.9118L28.5296 22.8377C28.4772 22.8671 28.418 22.8819 28.3581 22.8808Z" fill="#CAD0D7"/>
<path d="M26.6818 23.5642C26.6135 23.5642 26.5468 23.5438 26.4902 23.5055C26.4337 23.4672 26.3899 23.4129 26.3645 23.3495C26.3391 23.2861 26.3334 23.2166 26.3479 23.1498C26.3624 23.0831 26.3966 23.0223 26.446 22.9752L27.387 22.0807L25.4655 23.1904C25.3909 23.2345 25.3023 23.2485 25.2178 23.2297C25.1332 23.211 25.0589 23.1608 25.01 23.0893C24.961 23.0179 24.941 22.9305 24.954 22.8449C24.967 22.7592 25.0121 22.6817 25.0801 22.6281L25.3534 22.4101L24.6783 22.7989C24.6061 22.8417 24.5206 22.8564 24.4383 22.8403C24.3559 22.8241 24.2823 22.7782 24.2317 22.7113C24.181 22.6444 24.1567 22.5612 24.1634 22.4775C24.1702 22.3939 24.2075 22.3156 24.2683 22.2577L25.0343 21.5156L23.723 22.2727C23.6595 22.3098 23.5857 22.3254 23.5127 22.3172C23.4396 22.309 23.3712 22.2775 23.3174 22.2273C23.2637 22.1771 23.2276 22.111 23.2145 22.0386C23.2014 21.9663 23.212 21.8917 23.2446 21.8258L23.8002 20.6942L23.6485 20.7817C23.5704 20.8225 23.4795 20.8316 23.3949 20.8071C23.3103 20.7825 23.2384 20.7262 23.1943 20.6499C23.1502 20.5736 23.1373 20.4832 23.1582 20.3977C23.1792 20.3121 23.2324 20.2379 23.3068 20.1906L24.4309 19.5421C24.4943 19.5052 24.5679 19.4897 24.6408 19.4979C24.7138 19.5061 24.7821 19.5376 24.8357 19.5876C24.8894 19.6377 24.9255 19.7037 24.9387 19.7758C24.952 19.848 24.9416 19.9225 24.9092 19.9883L24.3537 21.1193L27.087 19.5414C27.1592 19.4986 27.2446 19.4839 27.327 19.5C27.4094 19.5162 27.4829 19.5621 27.5336 19.629C27.5843 19.6959 27.6086 19.7791 27.6018 19.8628C27.5951 19.9465 27.5578 20.0247 27.497 20.0826L26.7303 20.8254L28.8193 19.6193C28.8937 19.5772 28.9813 19.5646 29.0646 19.5839C29.1479 19.6032 29.221 19.6531 29.2693 19.7237C29.3177 19.7942 29.3378 19.8804 29.3257 19.9651C29.3136 20.0498 29.2702 20.1268 29.204 20.181L28.9341 20.399L29.5361 20.0519C29.6085 20.0106 29.6934 19.9972 29.775 20.0142C29.8566 20.0312 29.9292 20.0774 29.9791 20.1442C30.0289 20.2109 30.0527 20.2936 30.0459 20.3767C30.039 20.4597 30.0021 20.5374 29.942 20.5951L29.0003 21.4896L29.8545 20.9976C29.8934 20.9729 29.9369 20.9563 29.9824 20.9488C30.0278 20.9413 30.0743 20.9431 30.1191 20.9541C30.1638 20.9651 30.2059 20.985 30.2428 21.0126C30.2797 21.0403 30.3105 21.0751 30.3336 21.115C30.3567 21.1549 30.3714 21.199 30.377 21.2448C30.3825 21.2905 30.3788 21.3369 30.3659 21.3812C30.3531 21.4254 30.3314 21.4666 30.3023 21.5023C30.2731 21.5379 30.237 21.5673 30.1962 21.5887L26.8554 23.5184C26.8028 23.5492 26.7427 23.5651 26.6818 23.5642Z" fill="#CAD0D7"/>
<path d="M26.7186 25.6051C26.6517 25.6053 26.5863 25.5858 26.5304 25.5491C26.4745 25.5124 26.4306 25.4602 26.4041 25.3988C26.3776 25.3374 26.3697 25.2695 26.3814 25.2037C26.3931 25.1379 26.4239 25.0769 26.4699 25.0284L27.0398 24.4264L25.1975 25.4883C25.1247 25.5325 25.038 25.548 24.9544 25.5316C24.8707 25.5153 24.7962 25.4682 24.7455 25.3998C24.6948 25.3313 24.6714 25.2464 24.6801 25.1616C24.6887 25.0769 24.7288 24.9984 24.7923 24.9416L25.4401 24.3327L24.3584 24.9566C24.2946 24.9946 24.2202 25.0107 24.1464 25.0026C24.0726 24.9946 24.0035 24.9627 23.9495 24.9118C23.8954 24.8609 23.8594 24.7938 23.8469 24.7207C23.8344 24.6475 23.846 24.5723 23.88 24.5063L24.4185 23.4485L24.3058 23.5168C24.2272 23.5622 24.1338 23.5744 24.0463 23.5509C23.9587 23.5274 23.884 23.47 23.8387 23.3915C23.7934 23.3129 23.7811 23.2195 23.8047 23.132C23.8282 23.0444 23.8855 22.9697 23.9641 22.9244L25.0759 22.2834C25.1397 22.2453 25.2143 22.229 25.2882 22.2371C25.3621 22.2452 25.4314 22.2771 25.4855 22.3281C25.5396 22.3792 25.5756 22.4464 25.588 22.5198C25.6004 22.5931 25.5885 22.6685 25.5542 22.7344L25.0151 23.7909L27.6452 22.2739C27.718 22.2296 27.8047 22.2141 27.8884 22.2305C27.972 22.2469 28.0465 22.2939 28.0972 22.3623C28.148 22.4308 28.1713 22.5157 28.1626 22.6005C28.154 22.6853 28.114 22.7637 28.0504 22.8205L27.4033 23.4287L28.7297 22.6634C28.8007 22.6227 28.8839 22.609 28.9643 22.6245C29.0446 22.6401 29.1167 22.684 29.1674 22.7482C29.2181 22.8124 29.2441 22.8926 29.2406 22.9744C29.2372 23.0561 29.2045 23.1339 29.1485 23.1936L28.5786 23.7956L29.1513 23.4656C29.1902 23.4409 29.2336 23.4243 29.2791 23.4168C29.3246 23.4093 29.3711 23.4111 29.4159 23.4221C29.4606 23.433 29.5027 23.4529 29.5396 23.4806C29.5764 23.5082 29.6073 23.5431 29.6304 23.5829C29.6534 23.6228 29.6682 23.667 29.6737 23.7127C29.6793 23.7585 29.6755 23.8049 29.6627 23.8491C29.6499 23.8934 29.6282 23.9346 29.599 23.9703C29.5699 24.0059 29.5338 24.0353 29.4929 24.0567L26.8888 25.56C26.8371 25.59 26.7783 25.6055 26.7186 25.6051Z" fill="#A9B0BB"/>
<path d="M26.4446 20.146C26.3729 20.146 26.303 20.1235 26.2449 20.0815C26.1867 20.0396 26.1432 19.9804 26.1205 19.9124C26.0978 19.8444 26.0971 19.7709 26.1185 19.7025C26.1399 19.634 26.1823 19.5741 26.2396 19.531L29.8183 16.823L24.7226 19.7668C24.6466 19.8114 24.5563 19.8249 24.4705 19.8045C24.3847 19.784 24.3102 19.7312 24.2625 19.6571C24.2147 19.583 24.1975 19.4933 24.2143 19.4067C24.2312 19.3202 24.2809 19.2435 24.353 19.1928L29.2265 15.7078L24.1958 18.6119C24.1198 18.6553 24.0301 18.6678 23.9451 18.647C23.8601 18.6262 23.7864 18.5735 23.7391 18.4999C23.6918 18.4263 23.6745 18.3374 23.6908 18.2514C23.7071 18.1655 23.7558 18.0891 23.8268 18.0379L29.4739 14.0063L22.933 17.7872C22.8562 17.8289 22.7663 17.8397 22.6818 17.8172C22.5974 17.7948 22.5247 17.7408 22.4788 17.6663C22.433 17.5919 22.4174 17.5028 22.4352 17.4172C22.4531 17.3316 22.5031 17.2562 22.5749 17.2063L25.0274 15.6012L22.0535 17.3177C21.9767 17.3634 21.885 17.3771 21.7981 17.3559C21.7112 17.3347 21.6361 17.2803 21.5889 17.2044C21.5417 17.1285 21.5261 17.0371 21.5455 16.9498C21.5649 16.8625 21.6178 16.7863 21.6927 16.7376L26.5444 13.4924L21.1399 16.6132C21.0628 16.658 20.9712 16.6709 20.8847 16.6492C20.7982 16.6274 20.7236 16.5726 20.677 16.4966C20.6303 16.4206 20.6152 16.3293 20.635 16.2423C20.6547 16.1553 20.7076 16.0795 20.7825 16.031L24.1152 13.8641L20.4395 15.99C20.3626 16.0357 20.2709 16.0494 20.1841 16.0282C20.0972 16.007 20.0221 15.9526 19.9749 15.8767C19.9277 15.8008 19.9121 15.7093 19.9315 15.6221C19.9509 15.5348 20.0038 15.4586 20.0787 15.4098L25.9424 11.4875L19.694 15.0941C19.6168 15.1381 19.5256 15.1502 19.4396 15.128C19.3536 15.1059 19.2797 15.0511 19.2334 14.9753C19.1871 14.8995 19.1721 14.8087 19.1917 14.7221C19.2112 14.6355 19.2637 14.5599 19.338 14.5113L22.9924 12.1435L19.2054 14.3302C19.1283 14.3763 19.0362 14.3903 18.9489 14.369C18.8616 14.3477 18.7862 14.2929 18.7391 14.2164C18.6919 14.14 18.6768 14.048 18.6969 13.9605C18.717 13.8729 18.7708 13.7968 18.8467 13.7487L23.8972 10.4222L18.7038 13.4179C18.6272 13.4634 18.5358 13.477 18.4491 13.456C18.3625 13.435 18.2875 13.381 18.2402 13.3055C18.1929 13.2299 18.1769 13.1389 18.1957 13.0518C18.2146 12.9647 18.2667 12.8884 18.341 12.8391L24.9871 8.32504L18.2993 12.1852C18.2224 12.2275 18.1321 12.2387 18.0473 12.2163C17.9624 12.1938 17.8894 12.1396 17.8434 12.0648C17.7974 11.99 17.782 11.9004 17.8004 11.8145C17.8187 11.7287 17.8694 11.6532 17.9419 11.6037L21.5636 9.23866L18.0916 11.2422C18.0154 11.2838 17.9263 11.2948 17.8422 11.2731C17.7582 11.2514 17.6856 11.1985 17.6392 11.1252C17.5927 11.0518 17.5759 10.9636 17.5922 10.8784C17.6084 10.7931 17.6565 10.7172 17.7267 10.6661L23.8767 6.41922L17.9556 9.83589C17.8786 9.87893 17.7879 9.8905 17.7025 9.86818C17.6171 9.84585 17.5437 9.79136 17.4976 9.71612C17.4515 9.64088 17.4363 9.55072 17.4552 9.46452C17.4741 9.37832 17.5256 9.30277 17.5989 9.25369L19.1528 8.24304L18.0595 8.87444C17.9836 8.91796 17.894 8.93075 17.809 8.91019C17.7241 8.88963 17.6502 8.83727 17.6027 8.7639C17.5551 8.69053 17.5375 8.60173 17.5535 8.51577C17.5694 8.42981 17.6177 8.35324 17.6884 8.30181L22.8913 4.53322L18.4496 7.10051C18.3729 7.14287 18.2828 7.15412 18.198 7.13194C18.1133 7.10976 18.0402 7.05584 17.9941 6.98134C17.9479 6.90683 17.9321 6.81744 17.95 6.73164C17.9679 6.64584 18.0181 6.5702 18.0902 6.52036L18.6553 6.14384C18.5947 6.14827 18.534 6.13587 18.48 6.10802C18.426 6.08016 18.3807 6.03794 18.3492 5.98599C18.3019 5.91145 18.2854 5.82151 18.3029 5.73502C18.3205 5.64853 18.3709 5.57219 18.4435 5.52201L19.3619 4.88719C19.291 4.88524 19.2225 4.86127 19.1658 4.81862C19.1091 4.77596 19.0671 4.71672 19.0457 4.64913C19.0242 4.58153 19.0243 4.50893 19.0459 4.44139C19.0676 4.37384 19.1097 4.31471 19.1665 4.27219L20.6882 3.11052C20.656 3.08388 20.6287 3.05172 20.6076 3.01554C20.5623 2.93707 20.55 2.84381 20.5735 2.75629C20.5969 2.66876 20.6542 2.59413 20.7327 2.54882L23.5917 0.898575C23.6669 0.855162 23.7557 0.841977 23.8402 0.861696C23.9248 0.881415 23.9986 0.93256 24.0468 1.00475C24.095 1.07693 24.1139 1.16475 24.0997 1.25037C24.0855 1.33599 24.0392 1.41299 23.9703 1.46574L23.8111 1.58737L25.7675 0.459191C25.8438 0.416094 25.9338 0.403979 26.0188 0.425353C26.1038 0.446727 26.1773 0.499955 26.2242 0.574027C26.271 0.6481 26.2876 0.737351 26.2706 0.823322C26.2535 0.909293 26.204 0.985408 26.1324 1.03592L25.7442 1.30379L27.2018 0.463291C27.2783 0.422439 27.3676 0.412245 27.4514 0.434779C27.5351 0.457314 27.6072 0.510887 27.653 0.584627C27.6987 0.658367 27.7147 0.746747 27.6976 0.83183C27.6806 0.916914 27.6318 0.992325 27.5612 1.04276L27.4895 1.09196L28.2821 0.634125C28.3579 0.590608 28.4476 0.577814 28.5325 0.598377C28.6175 0.618939 28.6914 0.671293 28.7389 0.744664C28.7865 0.818034 28.8041 0.906837 28.7881 0.992796C28.7722 1.07876 28.7239 1.15533 28.6532 1.20676L23.453 4.97192L30.013 1.18557C30.09 1.14253 30.1807 1.13097 30.2661 1.15329C30.3515 1.17562 30.4249 1.23011 30.471 1.30535C30.5171 1.38059 30.5323 1.47075 30.5134 1.55695C30.4945 1.64314 30.443 1.71869 30.3697 1.76777L28.8144 2.77911L30.8733 1.59079C30.9496 1.54769 31.0396 1.53558 31.1246 1.55695C31.2096 1.57833 31.2832 1.63155 31.33 1.70563C31.3769 1.7797 31.3935 1.86895 31.3764 1.95492C31.3593 2.04089 31.3099 2.11701 31.2382 2.16752L25.0834 6.41649L32.048 2.39644C32.1249 2.35268 32.2159 2.34051 32.3017 2.3625C32.3875 2.38449 32.4613 2.43892 32.5078 2.51432C32.5542 2.58972 32.5695 2.6802 32.5506 2.76669C32.5316 2.85318 32.4798 2.92892 32.406 2.97796L28.7844 5.34297L32.7395 3.06064C32.816 3.01762 32.9061 3.00569 32.9912 3.02732C33.0762 3.04894 33.1497 3.10247 33.1964 3.17681C33.243 3.25115 33.2593 3.34058 33.2418 3.42659C33.2243 3.51259 33.1744 3.58856 33.1024 3.63874L26.4549 8.15489L33.5841 4.03644C33.6612 3.98878 33.7541 3.9737 33.8423 3.99452C33.9306 4.01535 34.0069 4.07037 34.0546 4.14748C34.1022 4.2246 34.1173 4.31749 34.0965 4.40572C34.0757 4.49395 34.0207 4.57029 33.9435 4.61796L28.9046 7.93827L34.1663 4.89881C34.2433 4.85703 34.3333 4.84641 34.4179 4.86912C34.5025 4.89183 34.5751 4.94614 34.6208 5.02085C34.6665 5.09555 34.6817 5.18495 34.6634 5.27058C34.6451 5.35621 34.5946 5.43154 34.5223 5.48101L30.861 7.85423L34.5551 5.72154C34.5932 5.69781 34.6356 5.68181 34.6799 5.67446C34.7242 5.6671 34.7695 5.66855 34.8132 5.6787C34.8569 5.68885 34.8982 5.70752 34.9347 5.73363C34.9712 5.75974 35.0022 5.79278 35.0259 5.83087C35.0497 5.86897 35.0657 5.91136 35.073 5.95564C35.0804 5.99992 35.0789 6.04521 35.0688 6.08893C35.0586 6.13265 35.04 6.17394 35.0139 6.21044C34.9877 6.24695 34.9547 6.27796 34.9166 6.30169L29.0509 10.2254L34.9761 6.80463C35.0532 6.75978 35.1448 6.74687 35.2313 6.76866C35.3178 6.79045 35.3923 6.84521 35.439 6.92124C35.4857 6.99726 35.5007 7.08853 35.481 7.17553C35.4613 7.26252 35.4083 7.33836 35.3334 7.38683L32.0118 9.54616L35.1688 7.72166C35.2454 7.67868 35.3357 7.6669 35.4208 7.68877C35.506 7.71064 35.5794 7.76448 35.6259 7.8391C35.6723 7.91372 35.6882 8.00337 35.6703 8.08941C35.6524 8.17546 35.602 8.25129 35.5296 8.30112L30.6738 11.549L35.289 8.88401C35.3657 8.84323 35.4551 8.83321 35.539 8.856C35.6228 8.87878 35.6948 8.93266 35.7404 9.00666C35.7859 9.08066 35.8015 9.16923 35.7841 9.25435C35.7666 9.33947 35.7174 9.41474 35.6464 9.46484L33.198 11.07L35.2829 9.86596C35.3589 9.82261 35.4486 9.81006 35.5336 9.8309C35.6185 9.85174 35.6923 9.90438 35.7396 9.97798C35.7869 10.0516 35.8042 10.1405 35.7878 10.2265C35.7715 10.3124 35.7229 10.3888 35.6519 10.44L30.0028 14.4716L34.9863 11.5962C35.0623 11.5515 35.1527 11.538 35.2384 11.5585C35.3242 11.5789 35.3987 11.6317 35.4465 11.7058C35.4942 11.7799 35.5115 11.8697 35.4946 11.9562C35.4777 12.0427 35.4281 12.1194 35.356 12.1702L30.4838 15.6483L34.2367 13.4822C34.3119 13.4402 34.4001 13.4282 34.4838 13.4485C34.5675 13.4688 34.6404 13.5199 34.6879 13.5917C34.7355 13.6635 34.7543 13.7505 34.7404 13.8355C34.7265 13.9205 34.6811 13.9971 34.6132 14.05L31.0353 16.7581L31.7958 16.3194C31.8692 16.278 31.9554 16.2652 32.0377 16.2835C32.12 16.3017 32.1926 16.3498 32.2416 16.4184C32.2906 16.487 32.3125 16.5712 32.3031 16.655C32.2937 16.7388 32.2537 16.8161 32.1908 16.8722L29.0837 19.5768C29.0787 19.6314 29.0606 19.684 29.031 19.7302C29.0014 19.7763 28.9611 19.8146 28.9135 19.8419L28.483 20.0907C28.4103 20.1297 28.3259 20.1411 28.2454 20.1227C28.1649 20.1044 28.0938 20.0575 28.0452 19.9907C27.9966 19.924 27.9738 19.8419 27.9811 19.7596C27.9883 19.6774 28.0251 19.6005 28.0846 19.5433L29.07 18.6857L26.6148 20.103C26.5629 20.1322 26.5042 20.147 26.4446 20.146Z" fill="#FDCD56"/>
<path d="M13.3097 40.6384C13.2383 40.6376 13.169 40.6144 13.1115 40.5722C13.054 40.5299 13.0112 40.4707 12.989 40.4029C12.9668 40.335 12.9665 40.262 12.988 40.1939C13.0094 40.1259 13.0517 40.0662 13.1088 40.0234L13.5017 39.7385L12.0168 40.5899C11.9416 40.6322 11.8531 40.6444 11.7692 40.624C11.6853 40.6037 11.6122 40.5524 11.5646 40.4804C11.517 40.4084 11.4984 40.321 11.5126 40.2359C11.5268 40.1507 11.5726 40.0741 11.641 40.0214L13.5455 38.5912L10.083 40.5899C10.008 40.6327 9.91965 40.6455 9.83561 40.6258C9.75157 40.6061 9.67811 40.5553 9.62999 40.4836C9.58187 40.412 9.56266 40.3248 9.57622 40.2395C9.58977 40.1543 9.63509 40.0773 9.70307 40.0241L12.6113 37.7773L7.73848 40.5899C7.66355 40.6319 7.57555 40.6441 7.49202 40.6241C7.40849 40.6041 7.33556 40.5534 7.28774 40.482C7.23992 40.4107 7.22072 40.324 7.23397 40.2391C7.24722 40.1542 7.29194 40.0775 7.35923 40.0241L10.3762 37.6885L5.35023 40.5899C5.27586 40.6318 5.18849 40.6444 5.10532 40.6251C5.02216 40.6058 4.94923 40.5561 4.90089 40.4857C4.85255 40.4153 4.8323 40.3294 4.84414 40.2449C4.85597 40.1603 4.89903 40.0833 4.96483 40.0289L8.27832 37.353L2.6702 40.5899C2.59483 40.6325 2.50611 40.6448 2.42198 40.6245C2.33784 40.6042 2.26455 40.5527 2.21692 40.4804C2.16929 40.4082 2.15086 40.3205 2.16537 40.2352C2.17987 40.1498 2.22622 40.0732 2.29505 40.0207L4.91973 38.0616L1.29123 40.1567C1.21672 40.2004 1.12841 40.2143 1.04408 40.1955C0.959747 40.1768 0.885652 40.1268 0.836714 40.0556C0.787776 39.9844 0.767628 39.8973 0.780326 39.8118C0.793023 39.7264 0.837625 39.6489 0.90515 39.595L3.68085 37.353L0.8744 38.9738C0.800085 39.0163 0.712548 39.0293 0.629102 39.0103C0.545655 38.9913 0.472378 38.9417 0.423762 38.8712C0.375146 38.8008 0.354733 38.7147 0.366561 38.6299C0.378388 38.5452 0.421594 38.4679 0.487633 38.4135L1.8707 37.2846L0.998767 37.7883C0.926819 37.8292 0.842445 37.8427 0.761329 37.8261C0.680213 37.8095 0.607875 37.7641 0.55776 37.6981C0.507645 37.6322 0.483164 37.5504 0.488867 37.4678C0.49457 37.3852 0.53007 37.3075 0.588767 37.2491L1.5304 36.3198C1.46669 36.3005 1.41 36.263 1.3673 36.2119C1.3246 36.1608 1.29776 36.0984 1.29007 36.0323C1.28237 35.9661 1.29416 35.8992 1.32399 35.8397C1.35382 35.7802 1.40039 35.7307 1.45797 35.6973L3.19705 34.6934C3.269 34.6525 3.35337 34.639 3.43449 34.6556C3.5156 34.6722 3.58794 34.7176 3.63806 34.7835C3.68817 34.8494 3.71265 34.9313 3.70695 35.0139C3.70125 35.0965 3.66575 35.1742 3.60705 35.2326L2.96745 35.8626L5.19853 34.5766C5.27287 34.5334 5.36077 34.5197 5.4447 34.5385C5.52863 34.5572 5.60241 34.6069 5.65132 34.6776C5.70022 34.7484 5.72066 34.8349 5.70855 34.9201C5.69644 35.0052 5.65267 35.0826 5.58598 35.1369L4.2036 36.2644L7.12827 34.5766C7.20264 34.5347 7.29001 34.5221 7.37318 34.5414C7.45634 34.5607 7.52927 34.6104 7.57761 34.6808C7.62595 34.7512 7.6462 34.8371 7.63436 34.9216C7.62253 35.0062 7.57947 35.0832 7.51367 35.1376L4.7366 37.3783L9.59578 34.5766C9.67115 34.534 9.75987 34.5217 9.84401 34.542C9.92814 34.5623 10.0014 34.6138 10.0491 34.6861C10.0967 34.7584 10.1151 34.846 10.1006 34.9313C10.0861 35.0167 10.0398 35.0933 9.97093 35.1458L7.3483 37.1049L11.7278 34.5766C11.8022 34.5339 11.8899 34.5208 11.9735 34.5398C12.0572 34.5589 12.1306 34.6086 12.1792 34.6793C12.2278 34.7499 12.2481 34.8363 12.236 34.9212C12.2239 35.0061 12.1803 35.0833 12.1139 35.1376L8.7997 37.8135L14.4078 34.5766C14.4828 34.5338 14.5712 34.521 14.6552 34.5407C14.7392 34.5604 14.8127 34.6112 14.8608 34.6829C14.9089 34.7545 14.9282 34.8417 14.9146 34.927C14.901 35.0122 14.8557 35.0892 14.7878 35.1424L11.7708 37.478L16.6731 34.6449C16.748 34.6021 16.8364 34.5893 16.9205 34.609C17.0045 34.6287 17.078 34.6795 17.1261 34.7512C17.1742 34.8228 17.1934 34.9101 17.1798 34.9953C17.1663 35.0806 17.121 35.1575 17.053 35.2107L14.1447 37.4582L18.1142 35.167C18.1895 35.1247 18.278 35.1126 18.3619 35.1329C18.4458 35.1532 18.5188 35.2045 18.5665 35.2765C18.6141 35.3485 18.6326 35.4359 18.6185 35.521C18.6043 35.6062 18.5584 35.6828 18.4901 35.7355L16.5842 37.1664L18.8597 35.8537C18.9355 35.8107 19.0248 35.7981 19.1094 35.8187C19.1941 35.8393 19.2677 35.8915 19.3151 35.9645C19.3626 36.0376 19.3804 36.126 19.3648 36.2117C19.3493 36.2974 19.3016 36.374 19.2315 36.4257L18.8399 36.7093L19.2369 36.4804C19.3122 36.4372 19.4012 36.4243 19.4856 36.4444C19.5701 36.4644 19.6437 36.5158 19.6916 36.5882C19.7396 36.6605 19.7582 36.7484 19.7436 36.834C19.7291 36.9195 19.6826 36.9964 19.6134 37.0489L19.4187 37.1958L19.4939 37.1521C19.5657 37.1117 19.6498 37.0986 19.7305 37.1153C19.8113 37.132 19.8832 37.1773 19.9332 37.2429C19.9831 37.3085 20.0077 37.3899 20.0023 37.4722C19.9969 37.5545 19.9619 37.632 19.9039 37.6905L18.9089 38.6766L19.6258 38.2625C19.694 38.2232 19.7738 38.2088 19.8515 38.2216C19.9293 38.2344 20.0002 38.2737 20.0523 38.3328C20.1044 38.3919 20.1344 38.4671 20.1374 38.5459C20.1404 38.6246 20.116 38.7019 20.0686 38.7647L19.6524 39.3114C19.701 39.3207 19.747 39.3403 19.7874 39.3688C19.8279 39.3973 19.8617 39.4341 19.8868 39.4768C19.9321 39.5552 19.9444 39.6485 19.9209 39.736C19.8975 39.8235 19.8402 39.8982 19.7617 39.9435L18.6554 40.5824C18.5871 40.622 18.5072 40.6368 18.4292 40.6241C18.3513 40.6115 18.2801 40.5722 18.2279 40.513C18.1756 40.4538 18.1454 40.3783 18.1425 40.2994C18.1396 40.2205 18.1642 40.143 18.2119 40.0802L18.501 39.6989L16.9546 40.5899C16.8827 40.6303 16.7987 40.6434 16.718 40.6267C16.6372 40.61 16.5652 40.5647 16.5153 40.4991C16.4653 40.4335 16.4408 40.3521 16.4462 40.2698C16.4516 40.1875 16.4865 40.11 16.5446 40.0515L17.5389 39.0688L14.9005 40.5899C14.8252 40.6331 14.7363 40.6459 14.6518 40.6259C14.5674 40.6059 14.4937 40.5545 14.4458 40.4821C14.3979 40.4097 14.3793 40.3219 14.3938 40.2363C14.4083 40.1507 14.4549 40.0739 14.524 40.0214L14.7167 39.8758L13.4805 40.5899C13.4289 40.6209 13.3699 40.6376 13.3097 40.6384Z" fill="#CAD0D7"/>
<path d="M9.55921 36.4768C9.4911 36.4768 9.42454 36.4565 9.36808 36.4184C9.31162 36.3803 9.26784 36.3262 9.24235 36.263C9.21687 36.1999 9.21084 36.1305 9.22505 36.0639C9.23926 35.9973 9.27305 35.9364 9.32209 35.8892L11.0509 34.2123L8.10713 35.9117C8.03343 35.9542 7.94656 35.9676 7.86349 35.9494C7.78042 35.9312 7.70712 35.8827 7.65791 35.8133C7.60871 35.744 7.58714 35.6588 7.59743 35.5743C7.60771 35.4899 7.64911 35.4124 7.71353 35.3569L9.84621 33.5187L7.33906 34.966C7.26545 35.0083 7.17873 35.0217 7.0958 35.0035C7.01286 34.9854 6.93966 34.937 6.89044 34.8678C6.84122 34.7986 6.81953 34.7136 6.82957 34.6293C6.83961 34.545 6.88068 34.4675 6.94478 34.4118L8.08663 33.423L7.06163 34.0148C6.98833 34.0566 6.90218 34.0697 6.81976 34.0518C6.73733 34.0339 6.66446 33.986 6.61517 33.9176C6.56588 33.8491 6.54366 33.7648 6.55279 33.681C6.56192 33.5971 6.60175 33.5196 6.66461 33.4633L7.09374 33.0848C7.02053 33.0732 6.95323 33.0376 6.90241 32.9836C6.84931 32.9283 6.81639 32.8566 6.80895 32.7803C6.80151 32.7039 6.81999 32.6273 6.86141 32.5627L7.33974 31.8165C7.32924 31.8033 7.31965 31.7894 7.31104 31.7748C7.26595 31.6964 7.2538 31.6033 7.27724 31.516C7.30068 31.4286 7.35781 31.3541 7.43609 31.3088L7.88094 31.0512C7.94707 31.0136 8.02386 30.9991 8.09915 31.01C8.17443 31.021 8.24391 31.0568 8.29656 31.1117C8.3492 31.1666 8.38201 31.2376 8.38978 31.3132C8.39756 31.3889 8.37985 31.465 8.33946 31.5295L8.19938 31.7482L9.41844 31.0443C9.49173 31.0026 9.57789 30.9894 9.66031 31.0073C9.74274 31.0253 9.81561 31.0731 9.8649 31.1416C9.91419 31.21 9.93641 31.2943 9.92728 31.3782C9.91815 31.462 9.87832 31.5395 9.81546 31.5958L9.67879 31.7154L10.8487 31.0402C10.9222 30.9987 11.0084 30.9859 11.0908 31.0042C11.1733 31.0226 11.246 31.0708 11.2949 31.1395C11.3439 31.2083 11.3657 31.2927 11.3561 31.3766C11.3465 31.4605 11.3062 31.5378 11.2429 31.5937L10.1011 32.5832L12.6479 31.1127C12.7216 31.0702 12.8084 31.0568 12.8915 31.075C12.9746 31.0932 13.0479 31.1417 13.0971 31.2111C13.1463 31.2804 13.1679 31.3656 13.1576 31.4501C13.1473 31.5345 13.1059 31.612 13.0415 31.6675L10.9081 33.5064L13.0989 32.2422C13.1711 32.1994 13.2565 32.1847 13.3389 32.2008C13.4213 32.217 13.4948 32.2629 13.5455 32.3298C13.5962 32.3967 13.6205 32.4799 13.6137 32.5636C13.6069 32.6473 13.5696 32.7255 13.5089 32.7834L11.7794 34.461L13.4255 33.5105C13.4965 33.4699 13.5796 33.4561 13.6599 33.4715C13.7402 33.487 13.8123 33.5308 13.863 33.5949C13.9138 33.6589 13.9399 33.7391 13.9366 33.8208C13.9333 33.9025 13.9008 33.9803 13.8451 34.0401L13.1009 34.8307C13.1681 34.8456 13.2292 34.8804 13.2763 34.9307C13.3233 34.9809 13.3541 35.0442 13.3646 35.1122C13.3751 35.1802 13.3648 35.2498 13.3351 35.3119C13.3053 35.374 13.2575 35.4256 13.198 35.46L11.6427 36.3532C11.5717 36.3938 11.4886 36.4076 11.4083 36.3921C11.328 36.3766 11.2559 36.3329 11.2052 36.2688C11.1544 36.2047 11.1283 36.1246 11.1316 36.0429C11.1349 35.9612 11.1674 35.8834 11.2231 35.8236L11.7527 35.2598L9.73004 36.4276C9.67857 36.4591 9.61955 36.4761 9.55921 36.4768Z" fill="#E3B692"/>
<path d="M8.16401 37.863C8.10096 37.8631 8.03912 37.8457 7.98533 37.8128C7.93154 37.7799 7.88791 37.7328 7.85926 37.6766C7.83061 37.6205 7.81806 37.5575 7.823 37.4946C7.82795 37.4317 7.85018 37.3715 7.88726 37.3205L8.33621 36.7021L7.25996 37.3232C7.19482 37.3608 7.1191 37.3759 7.04454 37.366C6.96997 37.3562 6.90073 37.3221 6.84755 37.2689C6.79437 37.2157 6.76022 37.1465 6.7504 37.0719C6.74058 36.9973 6.75564 36.9216 6.79324 36.8565L7.48273 35.6702L6.25273 36.3788C6.18444 36.4177 6.10483 36.4319 6.02733 36.4189C5.94983 36.4059 5.87916 36.3666 5.82724 36.3077C5.77532 36.2487 5.74532 36.1736 5.74229 36.0951C5.73926 36.0166 5.76339 35.9394 5.81061 35.8766L6.28894 35.2459L5.51951 35.6907C5.44883 35.7313 5.36596 35.7453 5.28586 35.7302C5.20577 35.715 5.13373 35.6717 5.08275 35.6081C5.03177 35.5445 5.00521 35.4648 5.00786 35.3833C5.01051 35.3019 5.0422 35.224 5.09721 35.1639L5.21679 35.0334L4.97148 35.1748C4.89304 35.2194 4.80016 35.2312 4.71309 35.2075C4.62601 35.1839 4.55183 35.1268 4.50672 35.0486C4.4616 34.9705 4.44923 34.8777 4.47229 34.7905C4.49535 34.7032 4.55198 34.6287 4.62981 34.583L6.80759 33.3264C6.8782 33.2862 6.96079 33.2726 7.04057 33.2878C7.12035 33.303 7.19208 33.3462 7.24292 33.4095C7.29376 33.4729 7.32037 33.5523 7.31798 33.6334C7.31559 33.7146 7.28436 33.7923 7.22989 33.8526L7.11031 33.9824L7.42533 33.8013C7.49362 33.7621 7.57339 33.7476 7.65111 33.7604C7.72883 33.7732 7.79974 33.8125 7.85184 33.8716C7.90393 33.9307 7.93401 34.006 7.93698 34.0847C7.93994 34.1634 7.91562 34.2407 7.86813 34.3036L7.38979 34.9336L8.25284 34.4361C8.31749 34.3984 8.39286 34.3832 8.46708 34.393C8.5413 34.4028 8.61016 34.4369 8.66284 34.4901C8.71542 34.5432 8.74916 34.612 8.75891 34.686C8.76866 34.7601 8.75388 34.8353 8.71683 34.9001L8.02734 36.0877L9.38308 35.3053C9.45081 35.2663 9.52989 35.2516 9.60711 35.2639C9.68433 35.2761 9.75502 35.3144 9.8074 35.3725C9.85977 35.4305 9.89065 35.5048 9.89488 35.5828C9.89911 35.6609 9.87645 35.738 9.83066 35.8014L9.38171 36.4205L9.55664 36.3194C9.59551 36.2966 9.63851 36.2817 9.68315 36.2756C9.7278 36.2695 9.77321 36.2723 9.81677 36.2838C9.86033 36.2953 9.90119 36.3154 9.93698 36.3427C9.97277 36.3701 10.0028 36.4043 10.0253 36.4433C10.0479 36.4823 10.0624 36.5254 10.0683 36.5701C10.0741 36.6148 10.071 36.6602 10.0592 36.7037C10.0474 36.7471 10.0271 36.7879 9.99947 36.8235C9.97186 36.8591 9.93748 36.8889 9.89831 36.9112L8.33621 37.8173C8.28401 37.8478 8.22449 37.8636 8.16401 37.863Z" fill="#E4E8EB"/>
<path d="M11.9385 37.849C11.8724 37.849 11.8076 37.8297 11.7522 37.7936C11.6968 37.7575 11.653 37.7061 11.6263 37.6456C11.5995 37.5851 11.5909 37.5182 11.6014 37.4529C11.612 37.3876 11.6412 37.3267 11.6857 37.2777L13.1412 35.6699L10.949 36.9354C10.8773 36.9753 10.7935 36.988 10.7132 36.9712C10.6328 36.9544 10.5611 36.9092 10.5114 36.8439C10.4616 36.7786 10.437 36.6975 10.4421 36.6156C10.4471 36.5336 10.4816 36.4563 10.539 36.3976L12.4373 34.5082C12.4178 34.4877 12.401 34.4647 12.3875 34.4399C12.3423 34.3615 12.3301 34.2685 12.3534 34.1811C12.3767 34.0938 12.4337 34.0192 12.5118 33.9738L13.6557 33.313C13.7275 33.2732 13.8112 33.2604 13.8916 33.2773C13.972 33.2941 14.0436 33.3392 14.0934 33.4045C14.1432 33.4698 14.1678 33.5509 14.1627 33.6328C14.1576 33.7148 14.1232 33.7922 14.0657 33.8508L12.8829 35.0248L14.6841 33.9848C14.7547 33.9442 14.8374 33.9301 14.9174 33.9451C14.9974 33.96 15.0695 34.0031 15.1206 34.0664C15.1716 34.1298 15.1984 34.2093 15.1961 34.2907C15.1938 34.3721 15.1625 34.4499 15.1078 34.5102L13.6509 36.1174L14.2113 35.7949C14.2894 35.7541 14.3802 35.745 14.4648 35.7695C14.5495 35.7941 14.6214 35.8504 14.6655 35.9267C14.7096 36.003 14.7225 36.0933 14.7015 36.1789C14.6805 36.2645 14.6273 36.3387 14.5529 36.386L12.1093 37.8025C12.0576 37.8331 11.9986 37.8491 11.9385 37.849Z" fill="#E4E8EB"/>
<path d="M5.87258 24.8052C5.79995 24.8053 5.7292 24.7822 5.67058 24.7393C5.61197 24.6964 5.56854 24.636 5.5466 24.5668C5.52467 24.4975 5.52536 24.4231 5.54859 24.3543C5.57182 24.2855 5.61637 24.2259 5.67578 24.1841L8.26151 22.363L4.53325 24.5148C4.45784 24.5583 4.36867 24.5714 4.28394 24.5514C4.19921 24.5314 4.12531 24.4798 4.07734 24.4072C4.02937 24.3345 4.01094 24.2463 4.02582 24.1605C4.04071 24.0747 4.08777 23.9979 4.15741 23.9456L8.44465 20.7394L4.32415 23.1181C4.24794 23.1626 4.15746 23.1759 4.07167 23.1552C3.98588 23.1345 3.91142 23.0814 3.8639 23.007C3.81639 22.9327 3.79949 22.8428 3.81675 22.7562C3.83401 22.6697 3.8841 22.5932 3.95651 22.5427L5.63956 21.3599L4.30501 22.1286C4.22881 22.1731 4.13833 22.1864 4.05254 22.1657C3.96674 22.145 3.89229 22.0919 3.84477 22.0176C3.79725 21.9432 3.78035 21.8533 3.79762 21.7668C3.81488 21.6802 3.86496 21.6037 3.93738 21.5533L4.37745 21.2444C4.30859 21.2719 4.23274 21.2766 4.16103 21.2577C4.08932 21.2389 4.02554 21.1976 3.97906 21.1398C3.92817 21.0753 3.90223 20.9946 3.906 20.9126C3.90976 20.8305 3.94298 20.7525 3.99956 20.6929L5.63956 18.9655L5.5439 19.0201C5.46581 19.061 5.37496 19.0701 5.29033 19.0455C5.2057 19.021 5.13382 18.9647 5.08972 18.8884C5.04562 18.8121 5.0327 18.7217 5.05367 18.6361C5.07463 18.5505 5.12786 18.4763 5.20223 18.4291L7.33696 17.1991C7.40799 17.1584 7.49124 17.1446 7.57157 17.1602C7.6519 17.1758 7.72397 17.2196 7.77469 17.2838C7.82541 17.3481 7.85141 17.4283 7.84795 17.5101C7.84449 17.5918 7.81181 17.6696 7.75585 17.7293L6.11585 19.4582L10.6258 16.8533C10.7021 16.8088 10.7925 16.7955 10.8783 16.8162C10.9641 16.8369 11.0386 16.89 11.0861 16.9643C11.1336 17.0387 11.1505 17.1286 11.1332 17.2151C11.116 17.3017 11.0659 17.3782 10.9935 17.4287L10.5835 17.717L11.9064 16.9537C11.9825 16.911 12.072 16.899 12.1566 16.9201C12.2412 16.9413 12.3146 16.994 12.3616 17.0675C12.4086 17.141 12.4257 17.2297 12.4094 17.3154C12.3932 17.4011 12.3447 17.4773 12.274 17.5284L10.5917 18.7092L13.0872 17.2688C13.1626 17.2252 13.2518 17.2121 13.3365 17.2322C13.4213 17.2522 13.4951 17.3038 13.5431 17.3764C13.5911 17.4491 13.6095 17.5373 13.5946 17.6231C13.5798 17.7089 13.5327 17.7857 13.463 17.838L9.17718 21.0469L14.4819 17.9842C14.5581 17.9397 14.6486 17.9264 14.7344 17.9471C14.8202 17.9678 14.8946 18.0209 14.9421 18.0953C14.9897 18.1696 15.0066 18.2595 14.9893 18.3461C14.972 18.4326 14.9219 18.5091 14.8495 18.5596L12.2631 20.3813L15.2137 18.6785C15.2898 18.6357 15.3793 18.6237 15.4639 18.6449C15.5486 18.666 15.6219 18.7187 15.6689 18.7922C15.7159 18.8657 15.733 18.9544 15.7168 19.0401C15.7005 19.1258 15.6521 19.202 15.5814 19.2532L13.9325 20.4148L15.6695 19.4124C15.7458 19.3686 15.836 19.3559 15.9214 19.377C16.0068 19.398 16.0807 19.4512 16.1279 19.5254C16.1751 19.5996 16.1918 19.6891 16.1747 19.7754C16.1575 19.8616 16.1078 19.9379 16.0358 19.9884L15.7789 20.1675L15.9278 20.082C16.0011 20.0409 16.087 20.0282 16.169 20.0463C16.2511 20.0645 16.3236 20.1123 16.3726 20.1805C16.4217 20.2488 16.4438 20.3327 16.4349 20.4163C16.426 20.4998 16.3865 20.5772 16.3242 20.6335L14.2653 22.4471L16.182 21.3401C16.2527 21.299 16.3358 21.2846 16.4162 21.2996C16.4965 21.3146 16.5689 21.3578 16.6201 21.4216C16.6713 21.4853 16.6979 21.5653 16.6951 21.647C16.6924 21.7287 16.6604 21.8068 16.605 21.8669L15.5007 23.1058L16.152 22.7306C16.2167 22.6934 16.292 22.6784 16.3661 22.6879C16.4402 22.6975 16.5092 22.7311 16.5624 22.7836C16.6156 22.8361 16.6501 22.9046 16.6606 22.9786C16.6712 23.0526 16.6571 23.128 16.6207 23.1933L16.2948 23.7755C16.3532 23.8003 16.4035 23.841 16.4401 23.8929C16.4767 23.9447 16.4981 24.0058 16.5019 24.0692C16.5057 24.1325 16.4918 24.1957 16.4618 24.2516C16.4317 24.3075 16.3867 24.3539 16.3317 24.3857L15.6893 24.7567C15.6246 24.7943 15.5492 24.8095 15.4749 24.8001C15.4006 24.7907 15.3315 24.7571 15.2781 24.7045C15.2248 24.6519 15.1902 24.5833 15.1797 24.5091C15.1691 24.435 15.1833 24.3594 15.2199 24.2941L15.4167 23.9436L14.0083 24.754C13.938 24.7946 13.8555 24.8088 13.7756 24.7941C13.6957 24.7794 13.6237 24.7367 13.5724 24.6737C13.5212 24.6107 13.494 24.5314 13.4959 24.4502C13.4978 24.369 13.5285 24.2911 13.5826 24.2306L14.6855 22.9924L11.631 24.756C11.5577 24.7979 11.4714 24.8111 11.3888 24.7931C11.3063 24.7751 11.2333 24.7272 11.1841 24.6586C11.1348 24.5899 11.1127 24.5055 11.1221 24.4215C11.1314 24.3375 11.1715 24.26 11.2347 24.2039L13.2943 22.3903L9.19426 24.7567C9.11815 24.7989 9.02883 24.8104 8.94452 24.7889C8.86021 24.7675 8.78725 24.7147 8.74053 24.6413C8.69381 24.5679 8.67685 24.4795 8.6931 24.394C8.70936 24.3085 8.7576 24.2325 8.828 24.1814L9.08425 24.0023L7.77566 24.754C7.69976 24.7954 7.61099 24.8064 7.52725 24.785C7.4435 24.7635 7.37101 24.7111 7.32439 24.6383C7.27776 24.5655 7.26046 24.4777 7.27599 24.3927C7.29151 24.3076 7.33869 24.2316 7.40803 24.18L9.05623 23.0183L6.04273 24.7574C5.99119 24.788 5.93251 24.8045 5.87258 24.8052Z" fill="#937661"/>
<path d="M10.5407 33.0732C10.4702 33.0733 10.4014 33.0515 10.3438 33.011C10.2861 32.9704 10.2424 32.9129 10.2187 32.8465C10.195 32.7802 10.1924 32.7081 10.2112 32.6401C10.2301 32.5722 10.2695 32.5118 10.3241 32.4671L11.0703 31.8583L9.43097 32.7999C9.35655 32.8434 9.26845 32.8571 9.18433 32.8384C9.1002 32.8196 9.02627 32.7698 8.97735 32.6988C8.92843 32.6278 8.90814 32.541 8.92054 32.4557C8.93293 32.3704 8.97711 32.293 9.04421 32.2389L12.2053 29.6743L8.31372 31.9205C8.23857 31.9639 8.14972 31.977 8.0652 31.9573C7.98068 31.9376 7.90683 31.8865 7.85864 31.8143C7.81046 31.7421 7.79156 31.6543 7.80577 31.5687C7.81998 31.483 7.86624 31.406 7.93516 31.3533L11.9463 28.2899L7.04887 31.1189C6.97261 31.1627 6.8824 31.1753 6.79702 31.1543C6.71165 31.1332 6.63767 31.0801 6.59049 31.0059C6.54331 30.9317 6.52655 30.8421 6.54371 30.7559C6.56087 30.6697 6.61062 30.5933 6.68261 30.5428L9.28953 28.7231L6.35597 30.4171C6.28009 30.46 6.19068 30.4723 6.10605 30.4514C6.02141 30.4305 5.94796 30.3781 5.90072 30.3048C5.85349 30.2316 5.83604 30.143 5.85194 30.0573C5.86785 29.9716 5.91591 29.8952 5.98629 29.8438L9.18019 27.5546L6.03686 29.3702C5.96064 29.4128 5.87101 29.4246 5.78637 29.4032C5.70173 29.3818 5.6285 29.3288 5.58172 29.2551C5.53494 29.1813 5.51815 29.0925 5.5348 29.0068C5.55146 28.9211 5.60029 28.845 5.67128 28.7942L7.86751 27.2649L5.80247 28.4594C5.7262 28.5014 5.63676 28.5127 5.55243 28.491C5.46811 28.4692 5.39525 28.4162 5.34876 28.3425C5.30226 28.2689 5.28563 28.1803 5.30226 28.0948C5.3189 28.0093 5.36754 27.9334 5.43826 27.8826L7.09466 26.7456L4.98931 27.9598C4.91298 28.0029 4.82301 28.0151 4.738 27.9937C4.653 27.9723 4.57945 27.9191 4.53259 27.845C4.48572 27.7709 4.46912 27.6817 4.48621 27.5957C4.5033 27.5097 4.55278 27.4336 4.62441 27.3831L6.91904 25.7971L4.79729 27.023C4.72265 27.0656 4.63472 27.0784 4.55101 27.0591C4.46731 27.0397 4.39397 26.9895 4.34561 26.9185C4.29726 26.8475 4.27744 26.7608 4.2901 26.6758C4.30277 26.5909 4.34698 26.5138 4.41394 26.4599L7.01812 24.3983L4.39276 25.9139C4.32665 25.9509 4.25013 25.9649 4.17521 25.9537C4.1003 25.9424 4.03124 25.9066 3.9789 25.8519C3.92656 25.7971 3.89391 25.7265 3.88607 25.6511C3.87823 25.5758 3.89566 25.5 3.93561 25.4356L4.11464 25.1623C4.04829 25.1462 3.98828 25.1106 3.94235 25.0601C3.89643 25.0095 3.86669 24.9464 3.85699 24.8788C3.84728 24.8112 3.85804 24.7423 3.88789 24.6809C3.91774 24.6195 3.9653 24.5684 4.02444 24.5343L4.89432 24.032C4.96043 23.9951 5.03696 23.9811 5.11187 23.9923C5.18679 24.0036 5.25584 24.0394 5.30818 24.0941C5.36052 24.1489 5.39318 24.2195 5.40101 24.2949C5.40885 24.3702 5.39142 24.446 5.35147 24.5104L5.28314 24.6115L10.7204 21.4682C10.7951 21.4256 10.883 21.4127 10.9667 21.4321C11.0504 21.4515 11.1237 21.5017 11.1721 21.5727C11.2205 21.6437 11.2403 21.7304 11.2276 21.8153C11.215 21.9003 11.1707 21.9774 11.1038 22.0312L8.49823 24.0942L13.8726 20.9939C13.9488 20.9524 14.038 20.9413 14.122 20.963C14.206 20.9848 14.2786 21.0377 14.325 21.111C14.3715 21.1843 14.3883 21.2725 14.372 21.3578C14.3558 21.443 14.3077 21.5189 14.2375 21.57L11.9395 23.1594L14.3312 21.7777C14.4076 21.734 14.498 21.7215 14.5834 21.7428C14.6688 21.7641 14.7427 21.8176 14.7897 21.8921C14.8367 21.9665 14.8531 22.0563 14.8355 22.1426C14.8179 22.2288 14.7677 22.305 14.6954 22.3551L13.041 23.4908L14.6305 22.5731C14.7068 22.5287 14.7975 22.5156 14.8833 22.5365C14.9692 22.5575 15.0436 22.6109 15.0909 22.6855C15.1382 22.7602 15.1547 22.8502 15.1371 22.9368C15.1194 23.0234 15.0688 23.0998 14.996 23.1499L12.7998 24.6751L14.8628 23.4847C14.9387 23.4418 15.0281 23.4296 15.1127 23.4504C15.1974 23.4713 15.2708 23.5237 15.318 23.597C15.3653 23.6703 15.3827 23.7588 15.3668 23.8445C15.3509 23.9302 15.3029 24.0066 15.2325 24.058L12.0379 26.3479L15.829 24.1612C15.9053 24.1174 15.9955 24.1048 16.0809 24.1258C16.1663 24.1469 16.2402 24.2 16.2874 24.2742C16.3346 24.3484 16.3513 24.438 16.3342 24.5242C16.317 24.6104 16.2673 24.6868 16.1953 24.7372L13.5877 26.5583L16.1939 25.055C16.2691 25.0116 16.3579 24.9984 16.4425 25.0181C16.527 25.0378 16.6008 25.089 16.649 25.1612C16.6972 25.2334 16.7161 25.3212 16.7019 25.4068C16.6877 25.4924 16.6414 25.5694 16.5725 25.6222L12.5647 28.6842L15.6001 26.9314C15.6746 26.8868 15.7634 26.8722 15.8483 26.8906C15.9332 26.909 16.0079 26.9591 16.0572 27.0307C16.1065 27.1023 16.1266 27.1899 16.1136 27.2758C16.1005 27.3617 16.0552 27.4394 15.9869 27.4931L12.8271 30.0522L14.3988 29.1447C14.4732 29.1004 14.5618 29.086 14.6464 29.1044C14.7311 29.1228 14.8056 29.1728 14.8549 29.2441C14.9041 29.3154 14.9244 29.4027 14.9117 29.4885C14.899 29.5742 14.8541 29.6519 14.7863 29.7058L12.4322 31.6259L12.4363 31.6341C12.4816 31.7125 12.494 31.8057 12.4707 31.8932C12.4474 31.9808 12.3903 32.0554 12.3119 32.1009L10.7115 33.0247C10.66 33.056 10.601 33.0728 10.5407 33.0732Z" fill="#EFC7A4"/>
<path d="M5.39353 24.5064C5.32332 24.5067 5.25475 24.4852 5.19715 24.4451C5.13954 24.405 5.09569 24.3481 5.07158 24.2821C5.04746 24.2162 5.04424 24.1444 5.06235 24.0766C5.08046 24.0088 5.11903 23.9482 5.17281 23.9031L5.58281 23.5614C5.49346 23.5558 5.40974 23.5159 5.34911 23.45C5.2966 23.392 5.26558 23.3178 5.26123 23.2397C5.25687 23.1616 5.27945 23.0843 5.3252 23.0209L6.32696 21.6262C6.26636 21.6037 6.21337 21.5645 6.17418 21.513C6.13498 21.4616 6.11117 21.4002 6.10551 21.3358C6.09986 21.2714 6.1126 21.2067 6.14224 21.1492C6.17188 21.0918 6.21722 21.0439 6.27298 21.0112L7.18591 20.4843C7.25352 20.4455 7.33236 20.431 7.40937 20.4432C7.48637 20.4553 7.55689 20.4935 7.60924 20.5512C7.66158 20.609 7.6926 20.6829 7.69713 20.7607C7.70167 20.8386 7.67946 20.9156 7.63418 20.9791L6.80461 22.1339L8.3387 21.2456C8.41261 21.2033 8.49964 21.1902 8.58272 21.2088C8.6658 21.2273 8.73896 21.2763 8.78787 21.3459C8.83678 21.4156 8.85791 21.5011 8.84712 21.5855C8.83634 21.67 8.79441 21.7473 8.72956 21.8025L8.5683 21.9392L9.3883 21.4677C9.42718 21.4429 9.47067 21.4263 9.51614 21.4189C9.56161 21.4114 9.60812 21.4132 9.65288 21.4241C9.69764 21.4351 9.73971 21.455 9.77658 21.4826C9.81344 21.5103 9.84434 21.5451 9.8674 21.585C9.89046 21.6249 9.90521 21.669 9.91077 21.7148C9.91632 21.7605 9.91257 21.8069 9.89973 21.8512C9.88689 21.8954 9.86523 21.9366 9.83606 21.9723C9.80688 22.008 9.77079 22.0374 9.72996 22.0587L5.56436 24.4634C5.51223 24.4926 5.45328 24.5075 5.39353 24.5064Z" fill="#EFC7A4"/>
<path d="M34.1662 14.9936C35.5384 13.1129 36.1815 10.7983 35.9764 8.47934C35.7438 6.90558 35.1172 5.41613 34.1549 4.14935C33.1925 2.88257 31.9257 1.87955 30.4719 1.23346C29.0181 0.587367 27.4247 0.319169 25.8395 0.453775C24.2544 0.588382 22.729 1.12143 21.405 2.00339C20.1362 2.84722 19.0951 3.99101 18.3741 5.33341C17.6531 6.6758 17.2744 8.17532 17.2715 9.69909C17.2852 11.6633 17.9322 13.5707 19.1165 15.1377C20.1265 16.4641 23.6511 17.979 24.0631 19.5712C22.4805 20.1616 22.2988 22.3729 24.0577 22.8546C23.977 22.9096 23.9011 22.9713 23.8308 23.0391C23.6875 23.1896 23.5785 23.3693 23.5113 23.5659C23.444 23.7626 23.4201 23.9714 23.4412 24.1781C23.4623 24.3848 23.5279 24.5845 23.6335 24.7635C23.7391 24.9424 23.8822 25.0964 24.0529 25.2149C24.277 25.3561 24.5269 25.4515 24.7882 25.4957C24.7847 25.9474 24.7608 26.4059 24.7929 26.8555C24.838 27.2607 25.0347 27.6338 25.3434 27.8999C25.6522 28.1661 26.0502 28.3056 26.4575 28.2905C26.5319 28.2883 26.606 28.2798 26.6789 28.2653C27.1115 28.2531 27.5273 28.0949 27.8587 27.8165C28.19 27.5381 28.4175 27.1559 28.5041 26.7319C28.5391 26.265 28.543 25.7963 28.5157 25.329C28.9676 25.2264 29.3667 24.9629 29.6385 24.5876C29.8258 24.2957 29.9018 23.9462 29.8523 23.6029C29.8029 23.2596 29.6314 22.9457 29.3692 22.7186C30.8124 22.0196 30.9798 19.9689 29.2408 19.507C29.6651 18.1389 33.2854 16.1559 34.1662 14.9936ZM26.8429 27.7384C25.7332 27.7384 25.7414 26.4708 25.7681 25.5757C25.9218 25.5757 26.0749 25.5688 26.2286 25.5613H27.527C27.5502 26.233 27.6957 27.6926 26.8429 27.7384ZM28.3982 25.0386C28.3374 25.018 28.2738 25.0067 28.2096 25.0051H25.4763C25.4261 25.0058 25.3761 25.0101 25.3266 25.0181C25.0479 24.9528 24.8039 24.7849 24.6433 24.5479C24.4731 24.3098 24.3918 24.0196 24.4134 23.7277C24.435 23.4359 24.5582 23.1608 24.7615 22.9503C25.9157 23.0425 27.1176 22.9612 28.28 22.9414C28.4283 23.026 28.5558 23.1428 28.6531 23.2831C28.9538 23.7163 29.0112 24.8049 28.3982 25.0386ZM28.7399 22.1686H26.4234C25.9391 22.2058 25.4528 22.2058 24.9686 22.1686C24.1356 22.0319 22.7969 20.7807 24.5633 20.2033C24.7189 20.1575 24.8796 20.1316 25.0417 20.1261H25.2986C25.8002 20.1302 26.3503 20.2033 26.7445 20.2033C27.2092 20.2033 27.7012 20.1602 28.1638 20.2033C28.311 20.193 28.4587 20.193 28.6059 20.2033C29.1266 20.3311 30.5979 21.9157 28.7378 22.1658L28.7399 22.1686ZM29.8332 17.552C28.7809 18.29 28.8841 18.6521 28.485 19.4086C27.3661 19.317 26.2417 19.3143 25.1223 19.4004C25.0909 19.358 25.054 19.3136 25.0123 19.2603C24.7301 18.9241 24.739 18.4259 24.3515 18.0036C23.755 17.3497 22.7115 17.1249 21.9824 16.6172C20.1083 15.3078 18.8249 13.3135 18.4096 11.0654C17.9942 8.81725 18.4804 6.49599 19.7629 4.60348C24.37 -2.13419 33.83 1.49841 34.9862 8.74653C35.2028 13.1383 33.12 15.2416 29.8312 17.5492L29.8332 17.552Z" fill="#262626"/>
<path d="M4.51706 34.5822C3.91151 34.5597 3.30767 34.6598 2.74171 34.8763C2.17575 35.0928 1.65933 35.4214 1.22339 35.8423C0.260575 36.8734 -0.514325 39.3601 0.933658 40.3447C1.56848 40.7759 2.77319 40.5948 3.47497 40.5948H16.4118C17.2448 40.5948 18.414 40.7732 19.2033 40.3734C20.3793 39.7789 20.5535 38.4307 20.1893 37.226C19.603 35.2901 17.9391 34.6293 16.1112 34.5815C16.105 34.5767 16.105 34.5726 16.0989 34.5685L14.1206 33.2497C13.8755 32.6333 13.6298 32.0167 13.3833 31.3999C13.4851 31.3193 13.5883 31.2386 13.6929 31.1525C14.8333 30.2266 14.8484 29.0971 15.4422 28.1903C15.5584 28.0133 15.9205 27.9047 16.0729 27.7065C16.4446 27.2213 16.377 26.307 16.6278 25.7631C16.6333 25.746 16.6367 25.7284 16.638 25.7105C16.6435 25.6989 16.6551 25.69 16.6592 25.679C16.8384 25.2125 16.8343 24.6954 16.6476 24.2317C16.6711 24.2125 16.6881 24.1865 16.6961 24.1573C17.5981 19.0965 14.3106 16.4786 9.38444 16.9385C5.14778 17.3342 3.05746 20.2185 3.79887 24.3773C3.80502 24.4142 3.85081 24.4326 3.90957 24.4456C3.81959 25.1481 3.89231 25.8619 4.12209 26.5318C4.24646 26.9603 4.16173 27.5076 4.44189 27.8801C4.63801 28.1404 5.15939 28.1575 5.26531 28.3085C5.56597 28.7397 5.38763 29.6923 5.70264 30.2218C6.08532 30.7523 6.59334 31.1798 7.18138 31.4662L6.44884 33.2941L4.51706 34.5822ZM6.73789 33.9918L9.61267 36.2283C9.40552 36.4857 9.16411 36.7136 8.89517 36.9055C8.18314 37.336 7.66517 36.954 7.18684 36.4955L5.45869 34.8446L6.73789 33.9918ZM13.6218 33.9918L15.0568 34.9485L13.356 36.5734C12.8578 37.0518 12.4799 37.3251 11.6962 36.8884C11.3902 36.674 11.1178 36.4154 10.8878 36.1211L13.6218 33.9918ZM19.2012 37.4911C19.4117 38.279 19.4575 39.522 18.6074 40.0386C18.3491 40.1958 17.7252 39.9798 17.43 40.0386C15.4039 40.4431 12.8462 40.0386 10.786 40.0386H4.08929C3.52611 40.1189 2.95439 40.1189 2.39121 40.0386C-0.533459 38.9261 2.26821 35.3421 4.40909 35.1466C5.21133 35.9222 5.98076 36.7866 6.85474 37.4795C8.13736 38.497 9.24641 37.6456 10.1942 36.7422C11.1707 37.6674 12.264 38.5011 13.5897 37.4132C14.4247 36.7299 15.1798 35.9154 15.9574 35.1582C17.3268 35.3065 18.8349 36.1293 19.2012 37.4911ZM12.9788 33.1287C13.0574 33.2654 13.1154 33.3536 13.1489 33.4144L10.3179 35.6133L7.40209 33.3467C7.41153 33.2343 7.43732 33.1238 7.47862 33.0187C7.59559 32.6557 7.73246 32.2993 7.88863 31.9514C9.77873 33.2982 10.9459 33.1383 12.525 32.0463C12.6442 32.4195 12.7953 32.7816 12.9767 33.1287H12.9788ZM12.1759 17.5323C15.201 18.3079 16.1132 20.8916 15.816 23.642C15.7566 23.6342 15.6968 23.6304 15.6369 23.6304C15.5649 22.5088 15.1581 21.4345 14.4691 20.5465C13.656 19.6787 13.468 19.9254 12.5626 20.2397C11.1187 20.742 9.89763 21.21 8.35808 20.4796C8.16743 20.3894 8.01641 20.0504 7.79432 20.0142C7.51361 19.9095 7.20782 19.8918 6.91693 19.9636C5.63226 20.3347 5.12796 22.3307 4.91407 23.6188C4.85044 23.6206 4.78698 23.6266 4.72411 23.6366C4.16787 19.2017 7.15404 16.2436 12.1759 17.5323ZM6.04704 27.7126C4.93663 27.5076 5.36371 26.9671 5.10951 26.2647C4.95302 25.8355 4.16309 24.0882 5.04937 24.3301C5.29606 24.3985 5.80104 24.2912 5.84204 23.9775C5.94318 23.2402 6.10717 21.6993 6.66614 21.2059C7.64741 20.3402 7.03651 21.0631 7.95423 21.1807C9.04935 21.4287 10.1755 21.5109 11.295 21.4246C11.7734 21.3508 12.8667 20.6367 13.1995 20.6695C14.0448 20.7536 14.657 23.325 14.657 24.0814C14.657 24.3636 15.0254 24.4039 15.2358 24.3301C15.8098 24.0728 15.9522 24.5531 15.6629 25.7713C15.4374 26.3432 15.2871 27.6054 14.6728 27.7195C14.5361 27.7448 14.2628 27.891 14.2539 28.0652C14.1855 30.2266 12.5175 31.458 10.5898 31.8625C9.31338 32.1304 9.11111 31.8694 8.25899 31.1587C7.16566 30.2464 6.29987 29.4934 6.25204 27.9682C6.25553 27.9078 6.2365 27.8482 6.19864 27.801C6.16078 27.7538 6.10677 27.7223 6.04704 27.7126Z" fill="#262626"/>
<path d="M28.8888 6.96581C28.9087 7.34028 29.9015 7.12503 29.8783 6.70068C29.843 5.97435 29.5474 5.28502 29.0454 4.75885C28.5435 4.23269 27.8688 3.90489 27.145 3.83546V3.28401C27.145 3.12411 26.1555 3.26419 26.1555 3.54914V3.84844C25.5239 3.95044 24.9348 4.23147 24.4581 4.65819C22.4081 6.49089 23.6777 9.47911 26.1555 9.84264V14.6335C25.6706 14.4163 25.2529 14.0729 24.9461 13.6391C24.6393 13.2052 24.4547 12.6969 24.4116 12.1673C24.3959 11.8742 23.4024 12.0696 23.4222 12.4325C23.4531 13.1559 23.7486 13.8428 24.2524 14.3629C24.7562 14.883 25.4334 15.2001 26.1555 15.254V15.8491C26.1555 16.009 27.145 15.869 27.145 15.584V15.228C27.7417 15.127 28.3015 14.8714 28.7686 14.4866C30.9381 12.6997 29.635 9.69299 27.1463 9.33698V4.53451C27.6333 4.73884 28.054 5.0743 28.3617 5.50355C28.6693 5.9328 28.8518 6.439 28.8888 6.96581ZM24.8913 5.29848C25.1841 4.85682 25.6377 4.54691 26.1555 4.43474V9.12036C25.7823 8.99987 25.4428 8.79307 25.1645 8.51677C24.8862 8.24046 24.677 7.90243 24.5539 7.53011C24.4307 7.1578 24.3971 6.76169 24.4557 6.37394C24.5144 5.98619 24.6636 5.61774 24.8913 5.29848ZM28.4747 13.7944C28.335 14.0411 28.1441 14.2549 27.9147 14.4215C27.6853 14.588 27.4228 14.7035 27.145 14.7599V9.96838C27.512 10.0977 27.8452 10.308 28.1198 10.5838C28.3943 10.8596 28.6033 11.1936 28.731 11.5612C28.8588 11.9288 28.9021 12.3204 28.8577 12.707C28.8133 13.0936 28.6824 13.4653 28.4747 13.7944Z" fill="#262626"/>
<path d="M40.5212 9.33154H38.4712C38.2881 9.33154 37.9109 9.40466 37.8125 9.58301C37.7141 9.76136 37.9013 9.80168 38.0612 9.80168H40.1112C40.2943 9.80168 40.6715 9.72856 40.7699 9.55021C40.8683 9.37186 40.6811 9.33154 40.5212 9.33154Z" fill="#262626"/>
<path d="M39.8385 5.97427L37.8535 6.48677C37.7496 6.51342 37.3615 6.6289 37.4059 6.79495C37.4503 6.961 37.8603 6.86329 37.9478 6.838L39.9294 6.3255C40.0333 6.29885 40.4214 6.18337 40.377 6.01732C40.3326 5.85127 39.9233 5.95104 39.8385 5.97427Z" fill="#262626"/>
<path d="M38.3031 12.272C38.0649 12.2327 37.8203 12.2756 37.6096 12.3936C37.5214 12.4387 37.2679 12.6123 37.4934 12.6669L39.4751 13.1794C39.7134 13.2187 39.9579 13.1758 40.1686 13.0578C40.2568 13.0127 40.5103 12.8391 40.2848 12.7845L38.3031 12.272Z" fill="#262626"/>
<path d="M12.5209 9.55214C12.4252 9.75168 12.6022 9.85417 12.7943 9.85417H14.8443C15.0493 9.85417 15.3978 9.78584 15.4968 9.58084C15.5959 9.37584 15.4155 9.27881 15.2235 9.27881H13.1735C12.9712 9.27881 12.62 9.34441 12.5209 9.55214Z" fill="#262626"/>
<path d="M15.6898 6.33709L13.7081 5.82459C13.5855 5.78945 13.4556 5.7883 13.3323 5.82128C13.2091 5.85426 13.0971 5.92012 13.0084 6.01182C12.9729 6.04571 12.9472 6.08853 12.934 6.13578C12.9207 6.18303 12.9205 6.23297 12.9332 6.28035C12.9459 6.32774 12.9711 6.37083 13.0063 6.4051C13.0414 6.43937 13.0851 6.46356 13.1327 6.47512L15.1144 6.98762C15.2372 7.02275 15.3672 7.02389 15.4905 6.99091C15.6139 6.95794 15.726 6.89209 15.8148 6.80039C15.8503 6.76646 15.876 6.72359 15.8892 6.6763C15.9024 6.629 15.9026 6.57903 15.8898 6.53163C15.877 6.48423 15.8517 6.44115 15.8165 6.40692C15.7813 6.37268 15.7375 6.34856 15.6898 6.33709Z" fill="#262626"/>
<path d="M15.3444 12.2582L13.3627 12.7707C13.2377 12.8028 12.8741 12.9285 12.9247 13.1124C12.9753 13.2962 13.3641 13.2217 13.4768 13.1923L15.4585 12.6798C15.5836 12.6477 15.9471 12.522 15.8965 12.3381C15.846 12.1543 15.4571 12.2315 15.3444 12.2582Z" fill="#262626"/>
</g>
<defs>
<clipPath id="clip0_372_1425">
<rect width="41" height="41" fill="white"/>
</clipPath>
</defs>
</svg>
