<svg width="402" height="272" viewBox="0 0 402 272" fill="none" xmlns="http://www.w3.org/2000/svg">
<path d="M48.9783 272C48.9783 272 -12.5954 175.753 27.4189 120.768C67.4331 65.783 88.9437 85.4826 86.4991 51.0089C84.0544 16.5349 111.371 4.83826 181.435 17.1505C251.499 29.4627 242.354 46.0837 282.279 27.6159C329.68 1.76044 366.416 81.2982 321.855 104.321C277.294 127.344 335.368 167.683 345.07 169.44C380.775 186.441 368.982 270.905 340.404 271.453C311.828 272 48.9783 272 48.9783 272Z" fill="#E9E7F1"/>
<path d="M54.0956 270.299C54.0956 270.299 41.4572 238.131 61.934 220.698C82.4108 203.266 134.732 234.443 147.35 210.636C159.969 186.829 177.291 176.868 194.278 186.331C211.264 195.795 230.187 242.116 251.913 228.668C273.639 215.22 328.217 205.756 333.962 229.166C339.707 252.576 334.047 270.963 309.793 270.963C285.539 270.963 54.0956 270.299 54.0956 270.299Z" fill="#D4C7E3"/>
<path d="M281.586 195.478H97.5864C93.2261 195.478 89.6914 191.943 89.6914 187.583V71.7075C89.6914 67.3472 93.2261 63.8125 97.5864 63.8125H281.586C285.946 63.8125 289.481 67.3472 289.481 71.7075V187.583C289.481 191.943 285.946 195.478 281.586 195.478Z" fill="#FCD59D"/>
<path d="M277.866 174.066H101.302C100.513 174.066 99.873 173.426 99.873 172.637V71.1655C99.873 70.3766 100.513 69.7368 101.302 69.7368H277.866C278.655 69.7368 279.295 70.3764 279.295 71.1655V172.637C279.295 173.426 278.655 174.066 277.866 174.066Z" fill="white"/>
<path d="M272.609 165.94C272.609 167.299 271.506 168.402 270.147 168.402H107.472C106.112 168.402 105.01 167.299 105.01 165.94V77.9256C105.01 76.5656 106.112 75.4634 107.472 75.4634H270.147C271.506 75.4634 272.609 76.5656 272.609 77.9256V165.94Z" fill="#E1DCEE"/>
<path d="M268.102 162.959C268.102 164.319 266.999 165.421 265.639 165.421H112.464C111.104 165.421 110.002 164.319 110.002 162.959V94.1311C110.002 92.7714 111.104 91.6689 112.464 91.6689H265.64C266.999 91.6689 268.102 92.7714 268.102 94.1311L268.102 162.959Z" fill="white"/>
<path d="M200.384 161.392H176.597C175.039 161.392 173.771 160.125 173.771 158.567V96.5464C173.771 94.9885 175.039 93.7212 176.597 93.7212H200.384C201.942 93.7212 203.209 94.9885 203.209 96.5464V158.568C203.209 160.125 201.942 161.392 200.384 161.392ZM176.597 94.4471C175.439 94.4471 174.497 95.389 174.497 96.5464V158.568C174.497 159.725 175.439 160.667 176.597 160.667H200.384C201.541 160.667 202.483 159.725 202.483 158.568V96.5464C202.483 95.389 201.541 94.4471 200.384 94.4471H176.597Z" fill="#E1DCEE"/>
<path d="M139.576 123.512C139.576 124.872 138.474 125.974 137.114 125.974H117.726C116.366 125.974 115.264 124.872 115.264 123.512V98.3572C115.264 96.9975 116.366 95.895 117.726 95.895H137.114C138.474 95.895 139.576 96.9975 139.576 98.3572V123.512Z" fill="#E1DCEE"/>
<path d="M139.313 160.589H115.526C113.968 160.589 112.701 159.322 112.701 157.764V95.7431C112.701 94.1852 113.968 92.918 115.526 92.918H139.313C140.871 92.918 142.138 94.1852 142.138 95.7431V157.764C142.138 159.322 140.871 160.589 139.313 160.589ZM115.526 93.6439C114.369 93.6439 113.427 94.5857 113.427 95.7431V157.764C113.427 158.921 114.369 159.863 115.526 159.863H139.313C140.471 159.863 141.413 158.921 141.413 157.764V95.7431C141.413 94.5857 140.471 93.6439 139.313 93.6439H115.526Z" fill="#E1DCEE"/>
<path d="M264.071 123.512C264.071 124.872 262.968 125.974 261.608 125.974H242.22C240.86 125.974 239.758 124.872 239.758 123.512V98.3572C239.758 96.9975 240.86 95.895 242.22 95.895H261.608C262.968 95.895 264.071 96.9975 264.071 98.3572V123.512Z" fill="#E1DCEE"/>
<path d="M200.645 123.512C200.645 124.872 199.542 125.974 198.183 125.974H178.794C177.435 125.974 176.332 124.872 176.332 123.512V98.3572C176.332 96.9975 177.435 95.895 178.794 95.895H198.183C199.542 95.895 200.645 96.9975 200.645 98.3572V123.512Z" fill="#9DDBEE"/>
<path d="M263.808 161.392H240.021C238.463 161.392 237.195 160.125 237.195 158.567V96.5464C237.195 94.9885 238.463 93.7212 240.021 93.7212H263.808C265.366 93.7212 266.633 94.9885 266.633 96.5464V158.568C266.633 160.125 265.365 161.392 263.808 161.392ZM240.021 94.4471C238.863 94.4471 237.921 95.389 237.921 96.5464V158.568C237.921 159.725 238.863 160.667 240.021 160.667H263.808C264.965 160.667 265.907 159.725 265.907 158.568V96.5464C265.907 95.389 264.965 94.4471 263.808 94.4471H240.021Z" fill="#E1DCEE"/>
<path d="M231.61 135.085C231.61 135.348 231.396 135.562 231.132 135.562H207.774C207.511 135.562 207.297 135.348 207.297 135.085C207.297 134.821 207.511 134.607 207.774 134.607H231.132C231.396 134.607 231.61 134.821 231.61 135.085Z" fill="#E1DCEE"/>
<path d="M231.61 138.173C231.61 138.437 231.396 138.651 231.132 138.651H207.774C207.511 138.651 207.297 138.437 207.297 138.173C207.297 137.91 207.511 137.696 207.774 137.696H231.132C231.396 137.696 231.61 137.91 231.61 138.173Z" fill="#E1DCEE"/>
<path d="M231.61 141.06C231.61 141.324 231.396 141.538 231.132 141.538H207.774C207.511 141.538 207.297 141.324 207.297 141.06C207.297 140.797 207.511 140.583 207.774 140.583H231.132C231.396 140.583 231.61 140.797 231.61 141.06Z" fill="#E1DCEE"/>
<path d="M231.61 143.425C231.61 143.689 231.396 143.903 231.132 143.903H207.774C207.511 143.903 207.297 143.689 207.297 143.425C207.297 143.161 207.511 142.948 207.774 142.948H231.132C231.396 142.948 231.61 143.161 231.61 143.425Z" fill="#E1DCEE"/>
<path d="M231.61 146.058C231.61 146.321 231.396 146.535 231.132 146.535H207.774C207.511 146.535 207.297 146.321 207.297 146.058C207.297 145.794 207.511 145.58 207.774 145.58H231.132C231.396 145.58 231.61 145.794 231.61 146.058Z" fill="#E1DCEE"/>
<path d="M231.61 149.146C231.61 149.409 231.396 149.623 231.132 149.623H207.774C207.511 149.623 207.297 149.409 207.297 149.146C207.297 148.882 207.511 148.668 207.774 148.668H231.132C231.396 148.668 231.61 148.882 231.61 149.146Z" fill="#E1DCEE"/>
<path d="M231.61 152.033C231.61 152.296 231.396 152.51 231.132 152.51H207.774C207.511 152.51 207.297 152.296 207.297 152.033C207.297 151.769 207.511 151.555 207.774 151.555H231.132C231.396 151.555 231.61 151.769 231.61 152.033Z" fill="#E1DCEE"/>
<path d="M231.61 154.396C231.61 154.66 231.396 154.874 231.132 154.874H207.774C207.511 154.874 207.297 154.66 207.297 154.396C207.297 154.132 207.511 153.918 207.774 153.918H231.132C231.396 153.918 231.61 154.132 231.61 154.396Z" fill="#E1DCEE"/>
<path d="M231.346 161.392H207.56C206.002 161.392 204.734 160.125 204.734 158.567V96.5464C204.734 94.9885 206.002 93.7212 207.56 93.7212H231.346C232.904 93.7212 234.172 94.9885 234.172 96.5464V158.568C234.172 160.125 232.904 161.392 231.346 161.392ZM207.56 94.4471C206.402 94.4471 205.46 95.389 205.46 96.5464V158.568C205.46 159.725 206.402 160.667 207.56 160.667H231.346C232.504 160.667 233.446 159.725 233.446 158.568V96.5464C233.446 95.389 232.504 94.4471 231.346 94.4471H207.56Z" fill="#E1DCEE"/>
<path d="M127.42 130.183C127.42 131.088 126.686 131.822 125.781 131.822H116.903C115.998 131.822 115.264 131.088 115.264 130.183C115.264 129.278 115.998 128.544 116.903 128.544H125.781C126.686 128.544 127.42 129.278 127.42 130.183Z" fill="#FEC35B"/>
<path d="M158.299 130.183C158.299 131.088 157.565 131.822 156.66 131.822H147.782C146.877 131.822 146.143 131.088 146.143 130.183C146.143 129.278 146.876 128.544 147.782 128.544H156.66C157.565 128.544 158.299 129.278 158.299 130.183Z" fill="#FEC35B"/>
<path d="M188.49 130.516C188.49 131.421 187.756 132.155 186.852 132.155H177.973C177.068 132.155 176.334 131.421 176.334 130.516C176.334 129.611 177.068 128.877 177.973 128.877H186.852C187.756 128.877 188.49 129.611 188.49 130.516Z" fill="#FEC35B"/>
<path d="M219.453 131.821C219.453 132.726 218.719 133.46 217.814 133.46H208.935C208.031 133.46 207.297 132.726 207.297 131.821C207.297 130.916 208.031 130.182 208.935 130.182H217.814C218.719 130.182 219.453 130.916 219.453 131.821Z" fill="#FEC35B"/>
<path d="M254.646 131.821C254.646 132.726 253.912 133.46 253.007 133.46H244.129C243.224 133.46 242.49 132.726 242.49 131.821C242.49 130.916 243.224 130.182 244.129 130.182H253.007C253.912 130.182 254.646 130.916 254.646 131.821Z" fill="#FEC35B"/>
<path d="M264.071 135.087C264.071 135.351 263.857 135.564 263.593 135.564H240.235C239.971 135.564 239.758 135.351 239.758 135.087C239.758 134.823 239.971 134.609 240.235 134.609H263.593C263.857 134.61 264.071 134.824 264.071 135.087Z" fill="#E1DCEE"/>
<path d="M264.071 138.173C264.071 138.437 263.857 138.651 263.593 138.651H240.235C239.971 138.651 239.758 138.437 239.758 138.173C239.758 137.91 239.971 137.696 240.235 137.696H263.593C263.857 137.696 264.071 137.91 264.071 138.173Z" fill="#E1DCEE"/>
<path d="M264.071 141.061C264.071 141.324 263.857 141.538 263.593 141.538H240.235C239.971 141.538 239.758 141.324 239.758 141.061C239.758 140.797 239.971 140.583 240.235 140.583H263.593C263.857 140.583 264.071 140.797 264.071 141.061Z" fill="#E1DCEE"/>
<path d="M264.071 143.427C264.071 143.69 263.857 143.904 263.593 143.904H240.235C239.971 143.904 239.758 143.69 239.758 143.427C239.758 143.163 239.971 142.949 240.235 142.949H263.593C263.857 142.949 264.071 143.163 264.071 143.427Z" fill="#E1DCEE"/>
<path d="M264.071 146.058C264.071 146.321 263.857 146.535 263.593 146.535H240.235C239.971 146.535 239.758 146.321 239.758 146.058C239.758 145.794 239.971 145.58 240.235 145.58H263.593C263.857 145.58 264.071 145.794 264.071 146.058Z" fill="#E1DCEE"/>
<path d="M264.071 149.146C264.071 149.41 263.857 149.624 263.593 149.624H240.235C239.971 149.624 239.758 149.41 239.758 149.146C239.758 148.882 239.971 148.668 240.235 148.668H263.593C263.857 148.668 264.071 148.882 264.071 149.146Z" fill="#E1DCEE"/>
<path d="M264.071 152.033C264.071 152.297 263.857 152.511 263.593 152.511H240.235C239.971 152.511 239.758 152.297 239.758 152.033C239.758 151.769 239.971 151.556 240.235 151.556H263.593C263.857 151.556 264.071 151.769 264.071 152.033Z" fill="#E1DCEE"/>
<path d="M264.071 154.397C264.071 154.661 263.857 154.875 263.593 154.875H240.235C239.971 154.875 239.758 154.661 239.758 154.397C239.758 154.134 239.971 153.92 240.235 153.92H263.593C263.857 153.92 264.071 154.134 264.071 154.397Z" fill="#E1DCEE"/>
<path d="M114.98 78.9689C114.98 79.6264 114.447 80.1595 113.79 80.1595H110.148C109.49 80.1595 108.957 79.6264 108.957 78.9689C108.957 78.3114 109.49 77.7783 110.148 77.7783H113.79C114.447 77.7786 114.98 78.3114 114.98 78.9689Z" fill="#F3809F"/>
<path d="M125.681 78.9689C125.681 79.6264 125.148 80.1595 124.49 80.1595H120.669C120.012 80.1595 119.479 79.6264 119.479 78.9689C119.479 78.3114 120.012 77.7783 120.669 77.7783H124.49C125.148 77.7786 125.681 78.3114 125.681 78.9689Z" fill="#12A0C0"/>
<path d="M269.536 86.3536C269.536 87.7135 268.433 88.8158 267.074 88.8158H110.646C109.286 88.8158 108.184 87.7135 108.184 86.3536V85.1228C108.184 83.7631 109.286 82.6606 110.646 82.6606H267.074C268.433 82.6606 269.536 83.7631 269.536 85.1228V86.3536Z" fill="#C2B7DA"/>
<path d="M169.633 123.512C169.633 124.872 168.531 125.974 167.171 125.974H147.783C146.423 125.974 145.32 124.872 145.32 123.512V98.3572C145.32 96.9975 146.423 95.895 147.783 95.895H167.171C168.531 95.895 169.633 96.9975 169.633 98.3572V123.512Z" fill="#E1DCEE"/>
<path d="M231.61 123.512C231.61 124.872 230.507 125.974 229.147 125.974H209.759C208.399 125.974 207.297 124.872 207.297 123.512V98.3572C207.297 96.9975 208.399 95.895 209.759 95.895H229.147C230.507 95.895 231.61 96.9975 231.61 98.3572V123.512Z" fill="#E1DCEE"/>
<path d="M169.372 160.589H145.585C144.027 160.589 142.76 159.322 142.76 157.764V95.7431C142.76 94.1852 144.027 92.918 145.585 92.918H169.372C170.93 92.918 172.197 94.1852 172.197 95.7431V157.764C172.197 159.322 170.93 160.589 169.372 160.589ZM145.585 93.6439C144.428 93.6439 143.486 94.5857 143.486 95.7431V157.764C143.486 158.921 144.428 159.863 145.585 159.863H169.372C170.529 159.863 171.471 158.921 171.471 157.764V95.7431C171.471 94.5857 170.529 93.6439 169.372 93.6439H145.585Z" fill="#E1DCEE"/>
<path d="M135.306 78.9689C135.306 79.6264 134.773 80.1595 134.116 80.1595H130.474C129.816 80.1595 129.283 79.6264 129.283 78.9689C129.283 78.3114 129.816 77.7783 130.474 77.7783H134.116C134.773 77.7786 135.306 78.3114 135.306 78.9689Z" fill="#FEC35B"/>
<path d="M139.576 135.238C139.576 135.501 139.363 135.715 139.099 135.715H115.741C115.477 135.715 115.264 135.501 115.264 135.238C115.264 134.974 115.477 134.76 115.741 134.76H139.099C139.363 134.76 139.576 134.974 139.576 135.238Z" fill="#E1DCEE"/>
<path d="M139.576 138.325C139.576 138.589 139.363 138.802 139.099 138.802H115.741C115.477 138.802 115.264 138.589 115.264 138.325C115.264 138.061 115.477 137.847 115.741 137.847H139.099C139.363 137.847 139.576 138.061 139.576 138.325Z" fill="#E1DCEE"/>
<path d="M139.576 141.212C139.576 141.476 139.363 141.69 139.099 141.69H115.741C115.477 141.69 115.264 141.476 115.264 141.212C115.264 140.949 115.477 140.735 115.741 140.735H139.099C139.363 140.735 139.576 140.949 139.576 141.212Z" fill="#E1DCEE"/>
<path d="M139.576 143.577C139.576 143.841 139.363 144.055 139.099 144.055H115.741C115.477 144.055 115.264 143.841 115.264 143.577C115.264 143.313 115.477 143.1 115.741 143.1H139.099C139.363 143.1 139.576 143.313 139.576 143.577Z" fill="#E1DCEE"/>
<path d="M139.576 146.208C139.576 146.472 139.363 146.686 139.099 146.686H115.741C115.477 146.686 115.264 146.472 115.264 146.208C115.264 145.945 115.477 145.731 115.741 145.731H139.099C139.363 145.731 139.576 145.945 139.576 146.208Z" fill="#E1DCEE"/>
<path d="M139.576 149.297C139.576 149.561 139.363 149.775 139.099 149.775H115.741C115.477 149.775 115.264 149.561 115.264 149.297C115.264 149.034 115.477 148.82 115.741 148.82H139.099C139.363 148.82 139.576 149.034 139.576 149.297Z" fill="#E1DCEE"/>
<path d="M139.576 152.185C139.576 152.448 139.363 152.662 139.099 152.662H115.741C115.477 152.662 115.264 152.448 115.264 152.185C115.264 151.921 115.477 151.707 115.741 151.707H139.099C139.363 151.707 139.576 151.921 139.576 152.185Z" fill="#E1DCEE"/>
<path d="M139.576 154.55C139.576 154.814 139.363 155.028 139.099 155.028H115.741C115.477 155.028 115.264 154.814 115.264 154.55C115.264 154.286 115.477 154.072 115.741 154.072H139.099C139.363 154.072 139.576 154.286 139.576 154.55Z" fill="#E1DCEE"/>
<path d="M169.633 135.087C169.633 135.351 169.419 135.564 169.156 135.564H145.798C145.534 135.564 145.32 135.351 145.32 135.087C145.32 134.823 145.534 134.609 145.798 134.609H169.156C169.419 134.61 169.633 134.824 169.633 135.087Z" fill="#E1DCEE"/>
<path d="M169.633 138.173C169.633 138.437 169.419 138.651 169.156 138.651H145.798C145.534 138.651 145.32 138.437 145.32 138.173C145.32 137.91 145.534 137.696 145.798 137.696H169.156C169.419 137.696 169.633 137.91 169.633 138.173Z" fill="#E1DCEE"/>
<path d="M169.633 141.061C169.633 141.324 169.419 141.538 169.156 141.538H145.798C145.534 141.538 145.32 141.324 145.32 141.061C145.32 140.797 145.534 140.583 145.798 140.583H169.156C169.419 140.583 169.633 140.797 169.633 141.061Z" fill="#E1DCEE"/>
<path d="M169.633 143.426C169.633 143.689 169.419 143.903 169.156 143.903H145.798C145.534 143.903 145.32 143.689 145.32 143.426C145.32 143.162 145.534 142.948 145.798 142.948H169.156C169.419 142.948 169.633 143.162 169.633 143.426Z" fill="#E1DCEE"/>
<path d="M169.633 146.058C169.633 146.322 169.419 146.536 169.156 146.536H145.798C145.534 146.536 145.32 146.322 145.32 146.058C145.32 145.794 145.534 145.581 145.798 145.581H169.156C169.419 145.581 169.633 145.794 169.633 146.058Z" fill="#E1DCEE"/>
<path d="M169.633 149.146C169.633 149.41 169.419 149.624 169.156 149.624H145.798C145.534 149.624 145.32 149.41 145.32 149.146C145.32 148.882 145.534 148.668 145.798 148.668H169.156C169.419 148.668 169.633 148.882 169.633 149.146Z" fill="#E1DCEE"/>
<path d="M169.633 152.033C169.633 152.297 169.419 152.511 169.156 152.511H145.798C145.534 152.511 145.32 152.297 145.32 152.033C145.32 151.769 145.534 151.556 145.798 151.556H169.156C169.419 151.556 169.633 151.769 169.633 152.033Z" fill="#E1DCEE"/>
<path d="M169.633 154.397C169.633 154.661 169.419 154.875 169.156 154.875H145.798C145.534 154.875 145.32 154.661 145.32 154.397C145.32 154.134 145.534 153.92 145.798 153.92H169.156C169.419 153.92 169.633 154.134 169.633 154.397Z" fill="#E1DCEE"/>
<path d="M200.645 135.087C200.645 135.351 200.431 135.564 200.167 135.564H176.809C176.546 135.564 176.332 135.351 176.332 135.087C176.332 134.823 176.546 134.609 176.809 134.609H200.167C200.431 134.61 200.645 134.824 200.645 135.087Z" fill="#E1DCEE"/>
<path d="M200.645 138.173C200.645 138.437 200.431 138.651 200.167 138.651H176.809C176.546 138.651 176.332 138.437 176.332 138.173C176.332 137.91 176.546 137.696 176.809 137.696H200.167C200.431 137.696 200.645 137.91 200.645 138.173Z" fill="#E1DCEE"/>
<path d="M200.645 141.061C200.645 141.324 200.431 141.538 200.167 141.538H176.809C176.546 141.538 176.332 141.324 176.332 141.061C176.332 140.797 176.546 140.583 176.809 140.583H200.167C200.431 140.583 200.645 140.797 200.645 141.061Z" fill="#E1DCEE"/>
<path d="M200.645 143.427C200.645 143.69 200.431 143.904 200.167 143.904H176.809C176.546 143.904 176.332 143.69 176.332 143.427C176.332 143.163 176.546 142.949 176.809 142.949H200.167C200.431 142.949 200.645 143.163 200.645 143.427Z" fill="#E1DCEE"/>
<path d="M200.645 146.058C200.645 146.321 200.431 146.535 200.167 146.535H176.809C176.546 146.535 176.332 146.321 176.332 146.058C176.332 145.794 176.546 145.58 176.809 145.58H200.167C200.431 145.58 200.645 145.794 200.645 146.058Z" fill="#E1DCEE"/>
<path d="M200.645 149.146C200.645 149.41 200.431 149.624 200.167 149.624H176.809C176.546 149.624 176.332 149.41 176.332 149.146C176.332 148.882 176.546 148.668 176.809 148.668H200.167C200.431 148.668 200.645 148.882 200.645 149.146Z" fill="#E1DCEE"/>
<path d="M200.645 152.033C200.645 152.297 200.431 152.511 200.167 152.511H176.809C176.546 152.511 176.332 152.297 176.332 152.033C176.332 151.769 176.546 151.556 176.809 151.556H200.167C200.431 151.556 200.645 151.769 200.645 152.033Z" fill="#E1DCEE"/>
<path d="M200.645 154.397C200.645 154.661 200.431 154.875 200.167 154.875H176.809C176.546 154.875 176.332 154.661 176.332 154.397C176.332 154.134 176.546 153.92 176.809 153.92H200.167C200.431 153.92 200.645 154.134 200.645 154.397Z" fill="#E1DCEE"/>
<path d="M168.177 164.064C168.177 163.314 167.569 162.707 166.82 162.707H127.882C127.133 162.707 126.525 163.314 126.525 164.064C126.525 164.813 127.133 165.42 127.882 165.42H166.82C167.57 165.421 168.177 164.813 168.177 164.064Z" fill="#C2B7DA"/>
<path d="M128.416 105.533V109.961H132.661V111.871H128.416V116.34H126.425V111.871H122.18V109.961H126.425V105.533H128.416Z" fill="white"/>
<path d="M158.474 105.533V109.962H162.72V111.871H158.474V116.34H156.484V111.871H152.238V109.962H156.484V105.533H158.474Z" fill="white"/>
<path d="M188.648 104.968V109.396H192.893V111.305H188.648V115.775H186.658V111.305H182.412V109.396H186.658V104.968H188.648Z" fill="white"/>
<path d="M220.451 105.533V109.962H224.696V111.871H220.451V116.34H218.46V111.871H214.215V109.962H218.46V105.533H220.451Z" fill="white"/>
<path d="M252.908 104.755V109.184H257.153V111.093H252.908V115.562H250.917V111.093H246.672V109.184H250.917V104.755H252.908Z" fill="white"/>
<path d="M194.277 182.787C194.277 186.446 191.311 189.413 187.651 189.413C183.992 189.413 181.025 186.446 181.025 182.787C181.025 179.127 183.992 176.161 187.651 176.161C191.311 176.161 194.277 179.127 194.277 182.787Z" fill="white"/>
<path d="M263.052 87.7114C262.989 87.6422 262.994 87.5335 263.064 87.4704L264.505 86.1612C264.575 86.0981 264.683 86.1036 264.745 86.1728L265.26 86.742C265.323 86.8114 265.318 86.9199 265.248 86.983L263.807 88.2924C263.738 88.3556 263.629 88.35 263.566 88.2805L263.052 87.7114Z" fill="white"/>
<path d="M267.126 83.2151C266.922 83.1445 266.714 83.1108 266.508 83.1108C265.727 83.1108 264.995 83.6006 264.725 84.3813C264.384 85.3659 264.907 86.4408 265.892 86.7815C266.096 86.8522 266.304 86.8858 266.509 86.8858C267.291 86.8858 268.022 86.396 268.292 85.6156C268.633 84.6305 268.111 83.5558 267.126 83.2151ZM267.809 85.4479C267.617 86.0021 267.095 86.3742 266.509 86.3742C266.356 86.3742 266.205 86.3488 266.059 86.2983C265.712 86.1782 265.432 85.93 265.271 85.5994C265.111 85.2691 265.089 84.8957 265.209 84.5485C265.4 83.9943 265.923 83.6221 266.508 83.6221C266.661 83.6221 266.813 83.6478 266.958 83.6981C267.306 83.8184 267.585 84.0667 267.746 84.3972C267.907 84.7278 267.929 85.1009 267.809 85.4479Z" fill="white"/>
<path d="M126.616 258.103L124.287 264.267C124.287 264.267 120.842 265.835 121.297 262.713C121.752 259.59 122.477 255.95 122.477 255.95L126.616 258.103Z" fill="#F9AE99"/>
<path d="M154.072 203.21L126.311 258.963L122.047 258.056C122.047 258.056 124.285 231.188 130.675 218.669C131.403 217.242 131.781 215.664 131.826 214.063C132.181 201.301 131.667 171.484 136.735 166.835C142.215 161.807 157.182 175.608 154.072 203.21Z" fill="#2D2662"/>
<path d="M170.985 257.054L171.763 263.598C171.763 263.598 169.43 266.578 168.394 263.598C167.357 260.617 166.32 257.054 166.32 257.054L170.985 257.054Z" fill="#F9AE99"/>
<path d="M153.295 166.834L170.984 257.854L166.707 258.358C166.707 258.358 146.859 228.856 148.308 216.26C148.492 214.663 148.158 213.051 147.303 211.69C140.551 200.933 131.575 178.902 135.569 169C139.883 158.308 153.295 166.834 153.295 166.834Z" fill="#40327A"/>
<path d="M149.805 138.833L165.252 137.314L174 121.214C174 121.214 176.526 111.17 182.455 110.198C184.399 109.906 180.544 111.85 180.058 113.016C179.572 114.183 182.844 117.293 181.58 119.042C180.511 120.306 177.012 121.214 177.012 121.214C177.012 121.214 174.253 139.645 168.946 142.66C164.867 144.977 151.354 147.908 151.354 147.908L149.805 138.833Z" fill="#F9AE99"/>
<path d="M136.385 142.175L124.333 164.237L121.418 184.161C121.418 184.161 113.74 187.563 114.517 188.632C115.295 189.701 113.837 191.548 112.865 192.617C111.893 193.686 113.545 193.783 116.266 193.394C120.154 192.811 123.459 185.036 123.459 185.036C123.459 185.036 130.942 168.852 129.776 165.816C132.692 163.071 141.633 158.503 140.467 151.311C139.301 144.118 136.385 142.175 136.385 142.175Z" fill="#F9AE99"/>
<path d="M146.03 126.22C136.996 125.399 139.609 135.179 139.609 135.179C139.609 135.179 140.08 135.992 141.384 136.303L141.138 141.891C141.138 141.891 145.205 143.073 145.06 141.13C144.994 140.235 145.029 137.955 145.087 135.758C147.602 133.769 146.03 126.22 146.03 126.22Z" fill="#F9AE99"/>
<path d="M161.929 145.138L161.257 137.774L150.028 138.839C143.559 137.489 139.118 140.17 136.385 142.174C131.72 146.936 129.469 154.835 129.469 154.835L134.008 155.295C133.891 163.031 133.47 176.947 133.47 176.947C133.47 176.947 144.16 183.188 154.96 175.874C155.738 168.036 154.286 158.933 152.908 149.349L161.929 145.138Z" fill="#F89D4A"/>
<path d="M167.016 266.281C167.138 265.931 167.552 265.194 167.552 265.194C167.552 265.194 167.471 263.278 167.966 262.713C169.407 263.658 170.368 263.088 172.123 262.562C172.403 262.478 176.504 268.411 178.762 267.925C179.114 267.859 179.485 269.296 179.518 269.402C179.556 269.522 179.502 269.62 179.402 269.676C179.302 269.731 176.052 270.677 174.699 270.633C174.008 270.637 173.673 270.516 173.339 270.361C173.007 270.207 172.428 269.48 172.236 269.263C172.026 269.022 171.574 268.917 171.354 268.905C170.946 268.885 170.963 269.093 170.963 269.093C170.963 269.093 170.924 269.53 170.828 269.93C169.365 270.5 167.199 269.722 166.621 269.484C166.709 268.076 166.879 266.678 167.016 266.281Z" fill="#2D2662"/>
<path d="M119.92 266.475C120.042 266.124 120.456 265.387 120.456 265.387C120.456 265.387 120.375 263.471 120.87 262.907C122.311 263.852 123.272 263.281 125.027 262.756C125.306 262.672 129.408 268.604 131.666 268.118C132.018 268.053 132.389 269.489 132.422 269.596C132.46 269.716 132.406 269.814 132.306 269.87C132.206 269.924 128.956 270.871 127.603 270.826C126.912 270.831 126.576 270.71 126.243 270.555C125.91 270.401 125.332 269.673 125.14 269.456C124.93 269.216 124.478 269.11 124.258 269.099C123.85 269.078 123.867 269.286 123.867 269.286C123.867 269.286 123.829 269.724 123.732 270.124C122.27 270.693 120.103 269.915 119.525 269.677C119.613 268.27 119.783 266.871 119.92 266.475Z" fill="#2D2662"/>
<path d="M140.402 119.237C138.162 120.506 135.388 123.645 135.089 127.452C134.791 131.26 137.473 136.94 141.444 137.217C142.79 137.311 143.14 135.03 142.432 133.503C142.248 133.618 142.031 133.686 141.798 133.686C141.138 133.686 140.603 133.151 140.603 132.491C140.603 131.831 141.138 131.296 141.798 131.296C141.984 131.296 142.16 131.34 142.317 131.416C142.145 128.43 142.211 125.384 146.03 126.22C146.03 126.22 147.98 124.951 148.125 121.964C148.27 118.978 145.326 117.487 140.402 119.237Z" fill="#2D2662"/>
<path d="M281.4 190.354C279.67 190.354 278.268 188.952 278.268 187.222V162.553C278.268 160.822 279.67 159.42 281.4 159.42H313.406C315.137 159.42 316.539 160.822 316.539 162.553V187.222C316.539 188.952 315.137 190.354 313.406 190.354H281.4Z" fill="#12A0C0"/>
<path d="M401.436 270.451H3.43164V271.477H401.436V270.451Z" fill="#A396C8"/>
<path d="M257.256 258.803L257.769 264.3C257.769 264.3 261.77 265.594 261.77 263.007C261.77 260.42 260.333 257.51 260.333 257.51C260.333 257.51 257.461 257.186 257.256 258.803Z" fill="#F9AE99"/>
<path d="M213.037 256.228L210.867 261.406C210.867 261.406 213.006 265.61 214.989 262.352C216.972 259.094 217.539 252.822 217.539 252.822L213.037 256.228Z" fill="#F9AE99"/>
<path d="M227.916 150.998L227.095 141.46C227.095 141.46 213.656 141.144 206.475 136.498C199.293 131.852 194.677 126.045 194.677 126.045C194.677 126.045 194.173 121.24 192.423 119.558C191.706 117.958 190.437 115.944 190.437 115.944C189.708 114.71 190.302 117.345 190.723 119.035C190.334 119.125 189.909 119.346 189.445 119.728C185.238 123.194 193.241 127.112 193.241 127.112C193.241 127.112 202.557 146.447 215.996 147.85C226.753 150.998 227.916 150.998 227.916 150.998Z" fill="#F9AE99"/>
<path d="M226.513 176.341L218.077 214.398C218.025 214.634 217.983 214.871 217.953 215.11L212.527 257.357L216.528 258.632C216.528 258.632 228.335 238.448 230.794 218.955C230.906 218.066 231.25 217.219 231.792 216.505C235.901 211.101 240.061 209.047 242.62 196.471C245.356 183.024 240.191 173.471 226.513 176.341Z" fill="#12A0C0"/>
<path d="M235.07 169.673L232.613 212.124C232.554 213.133 232.778 214.139 233.258 215.028L257.256 259.475L260.949 258.423C260.949 258.423 258.885 229.306 249.725 214.765C248.956 213.543 248.665 212.082 248.891 210.656C250.479 200.629 253.938 177.635 244.868 167.734C234.994 156.955 235.07 169.673 235.07 169.673Z" fill="#56C7E0"/>
<path d="M248.436 152.547C246.932 144.311 245.174 144.109 242.047 141.65C236.262 138.047 226.174 140.827 226.174 140.827L215.9 140.053L216.086 147.76L225.018 150.658C224.376 160.567 225.437 173.913 226.515 178.093C234.781 181.402 249.213 178.179 249.213 178.179C249.213 178.179 249.585 171.128 248.436 152.547Z" fill="#F3809F"/>
<path d="M230.444 127.4C230.444 127.4 229.775 137.038 231.893 137.497C234.012 137.956 236.688 137.497 236.688 137.497C236.688 137.497 239.029 134.629 238.806 131.531C238.583 128.433 234.904 122.81 230.444 127.4Z" fill="#F9AE99"/>
<path d="M232.533 134.973L232.672 143.12C232.672 143.12 234.122 145.988 236.017 143.12C236.463 140.939 236.491 134.887 236.491 134.887L232.533 134.973Z" fill="#F9AE99"/>
<path d="M263.225 265.729C263.055 265.358 262.531 264.598 262.531 264.598C262.531 264.598 262.384 262.477 261.796 261.919C260.4 263.143 259.323 262.637 257.419 262.281C257.116 262.225 253.534 269.282 251.107 269.034C250.73 269.007 250.515 270.637 250.493 270.758C250.468 270.895 250.537 270.996 250.649 271.045C250.76 271.092 254.283 271.721 255.695 271.501C256.421 271.417 256.758 271.241 257.09 271.028C257.419 270.816 257.938 269.941 258.113 269.677C258.304 269.386 258.765 269.212 258.995 269.171C259.419 269.096 259.427 269.328 259.427 269.328C259.427 269.328 259.52 269.805 259.671 270.234C261.272 270.675 263.45 269.542 264.027 269.206C263.764 267.666 263.416 266.148 263.225 265.729Z" fill="#2D2662"/>
<path d="M215.905 266.099C215.809 265.68 215.439 264.782 215.439 264.782C215.439 264.782 215.696 262.565 215.226 261.86C213.626 262.815 212.667 262.057 210.868 261.271C210.582 261.146 205.735 267.631 203.403 266.842C203.039 266.731 202.52 268.363 202.475 268.484C202.425 268.619 202.473 268.738 202.573 268.813C202.673 268.886 206.006 270.308 207.432 270.391C208.159 270.464 208.523 270.357 208.888 270.211C209.251 270.065 209.925 269.277 210.146 269.044C210.389 268.786 210.874 268.708 211.107 268.716C211.537 268.732 211.5 268.973 211.5 268.973C211.5 268.973 211.502 269.485 211.568 269.96C213.054 270.766 215.402 270.077 216.032 269.858C216.066 268.215 216.013 266.573 215.905 266.099Z" fill="#2D2662"/>
<path d="M240.48 126.604C239.728 123.173 236.801 124.101 234.057 121.003C231.499 118.37 228.079 120.169 227.378 123.267C226.677 126.365 227.268 128.49 231.115 128.49C234.612 128.12 235.797 129.292 236.122 130.858C236.233 130.83 236.347 130.813 236.466 130.813C237.251 130.813 237.888 131.468 237.888 132.276C237.888 133.085 237.251 133.739 236.466 133.739C236.344 133.739 236.226 133.722 236.112 133.692C235.933 135.32 235.718 136.694 236.884 136.694C239.895 136.694 241.233 130.034 240.48 126.604Z" fill="#2D2662"/>
<path d="M247.776 153.813C243.851 153.813 241.096 153.841 241.096 153.841C241.096 153.841 241.282 160.01 241.621 160.359C242.33 160.71 221.821 159.831 221.821 159.831L216.589 156.347C216.589 156.347 213.487 153.603 214.033 154.87C214.452 155.838 215.483 156.567 215.948 157.052C215.536 157.637 214.751 158.793 214.845 160.043C215.05 162.788 220.179 160.993 221.923 161.732C240.595 169.439 246.645 166.754 247.907 163.86C248.629 159.434 247.776 153.813 247.776 153.813Z" fill="#F9AE99"/>
<path d="M299.953 255.696L299.422 262.637C299.422 262.637 299.524 268.426 303.525 263.337C305.547 256.796 307.665 253.22 299.953 255.696Z" fill="#F9AE99"/>
<path d="M322.86 258.696C322.608 258.696 324.138 261.545 324.138 261.545C324.138 261.545 327.997 265.984 329.023 262.627C327.97 260.377 326.917 256.939 326.917 256.939C326.917 256.939 323.112 258.695 322.86 258.696Z" fill="#F9AE99"/>
<path d="M300.178 184.706L299.834 257.268L305.168 257.815C305.168 257.815 314.619 234.748 310.618 221.495C314.995 210.336 317.895 199.431 314.404 185.52C308.111 185.52 306.197 184.685 300.178 184.706Z" fill="#F89D4A"/>
<path d="M312.759 175.818L303.582 212.309C303.2 213.828 303.339 215.432 303.977 216.863L322.813 259.157L326.916 256.94C326.916 256.94 324.999 231.493 318.845 218.467C318.202 217.106 318.266 215.52 319.006 214.21C323.626 206.03 331.947 188.495 322.742 175.964C317.54 165.68 312.759 175.818 312.759 175.818Z" fill="#FEC35B"/>
<path d="M327.187 158.657C323.838 148.643 318.227 146.825 318.105 146.866C318.097 146.82 318.093 146.797 318.093 146.797C318.093 146.797 308.405 142.376 299.981 147.63C294.703 151.242 292.377 155.798 292.401 159.478C294.403 159.678 296.481 159.721 300.039 159.721C299.53 168.502 300.176 184.707 300.176 184.707C300.176 184.707 315.325 188.717 325.173 181.467C325.242 179.056 322.113 165.782 321.093 159.125C322.86 159.045 324.654 158.935 327.187 158.657Z" fill="#40327A"/>
<path d="M313.083 134.824C312.852 134.362 307.082 127.73 305.004 133.124C305.004 133.124 303.779 141.261 307.977 142.672L308.379 147.889C308.379 147.889 309.468 151.271 311.631 148.432C311.895 146.548 311.681 144.197 311.437 142.469C314.973 140.883 313.285 135.226 313.083 134.824Z" fill="#F9AE99"/>
<path d="M329.942 265.206C329.771 264.83 329.248 264.058 329.248 264.058C329.248 264.058 329.1 261.906 328.513 261.339C327.116 262.582 326.04 262.068 324.136 261.707C323.832 261.649 320.25 268.813 317.824 268.562C317.447 268.533 317.232 270.188 317.21 270.311C317.185 270.45 317.254 270.553 317.366 270.602C317.476 270.65 320.999 271.288 322.412 271.065C323.138 270.979 323.475 270.801 323.806 270.585C324.136 270.37 324.654 269.481 324.829 269.214C325.02 268.918 325.481 268.742 325.711 268.7C326.136 268.624 326.144 268.86 326.144 268.86C326.144 268.86 326.237 269.344 326.387 269.779C327.989 270.227 330.166 269.077 330.744 268.735C330.481 267.173 330.133 265.632 329.942 265.206Z" fill="#2D2662"/>
<path d="M305.391 265.426C305.22 265.05 304.697 264.278 304.697 264.278C304.697 264.278 304.55 262.126 303.962 261.559C302.565 262.802 301.489 262.288 299.585 261.927C299.282 261.869 295.7 269.033 293.273 268.782C292.896 268.753 292.681 270.408 292.659 270.531C292.634 270.67 292.703 270.773 292.815 270.822C292.926 270.87 296.449 271.508 297.862 271.284C298.587 271.199 298.924 271.021 299.256 270.805C299.585 270.59 300.104 269.701 300.278 269.434C300.469 269.138 300.931 268.962 301.161 268.92C301.585 268.844 301.593 269.08 301.593 269.08C301.593 269.08 301.686 269.564 301.836 269.999C303.438 270.446 305.616 269.297 306.193 268.955C305.93 267.393 305.583 265.852 305.391 265.426Z" fill="#2D2662"/>
<path d="M316.389 135.991C316.048 132.022 313.956 132.182 313.956 132.182C313.956 132.182 312.988 132.498 312.21 130.276C310.976 127.807 308.561 129.471 308.561 129.471C308.561 129.471 307.596 124.587 304.483 127.915C301.371 131.242 304.913 134.556 304.921 134.565C307.649 136.823 310.597 135.105 311.728 135.428C312.652 135.919 312.598 136.86 312.219 137.915C312.284 137.903 312.351 137.896 312.419 137.896C313.027 137.896 313.519 138.389 313.519 138.996C313.519 139.604 313.027 140.096 312.419 140.096C312.019 140.096 311.67 139.882 311.477 139.563C310.816 140.888 310.877 143.062 311.521 143.488C315.024 144.136 316.389 139.245 316.389 135.991Z" fill="#F89D4A"/>
<path d="M314.609 186.948C313.249 186.948 312.146 185.846 312.146 184.486V165.098C312.146 163.738 313.249 162.636 314.609 162.636H339.764C341.124 162.636 342.226 163.738 342.226 165.098V184.486C342.226 185.846 341.124 186.948 339.764 186.948H314.609Z" fill="#F3809F"/>
<path d="M336.284 174.793C336.284 179.818 332.211 183.891 327.186 183.891C322.161 183.891 318.088 179.818 318.088 174.793C318.088 169.767 322.161 165.694 327.186 165.694C332.211 165.695 336.284 169.768 336.284 174.793Z" fill="#F89D4A"/>
<path d="M327.188 184.334C321.927 184.334 317.646 180.054 317.646 174.793C317.646 169.531 321.927 165.251 327.188 165.251C332.449 165.251 336.729 169.531 336.729 174.793C336.729 180.054 332.449 184.334 327.188 184.334ZM327.188 166.138C322.415 166.138 318.532 170.02 318.532 174.793C318.532 179.565 322.415 183.448 327.188 183.448C331.96 183.448 335.843 179.565 335.843 174.793C335.843 170.02 331.96 166.138 327.188 166.138Z" fill="#FEC35B"/>
<path d="M326.34 180.569V180.454C326.34 180.088 326.069 179.778 325.706 179.73C325.168 179.659 324.661 179.534 324.238 179.379C323.885 179.249 323.687 178.873 323.781 178.508L323.892 178.073C324.001 177.65 324.453 177.425 324.861 177.579C325.416 177.787 326.064 177.936 326.755 177.936C327.664 177.936 328.286 177.585 328.286 176.947C328.286 176.34 327.776 175.958 326.596 175.559C324.889 174.985 323.725 174.187 323.725 172.64C323.725 171.378 324.523 170.361 325.925 169.925C326.224 169.832 326.421 169.546 326.421 169.233V169.017C326.421 168.613 326.748 168.285 327.153 168.285H327.251C327.656 168.285 327.983 168.613 327.983 169.017C327.983 169.387 328.261 169.697 328.628 169.743C329.021 169.793 329.358 169.869 329.649 169.96C330.02 170.076 330.232 170.464 330.136 170.84L330.04 171.213C329.935 171.621 329.508 171.861 329.108 171.728C328.706 171.594 328.188 171.475 327.536 171.475C326.5 171.475 326.165 171.922 326.165 172.368C326.165 172.895 326.723 173.23 328.079 173.74C329.977 174.41 330.742 175.288 330.742 176.723C330.742 178.001 329.929 179.11 328.428 179.552C328.121 179.643 327.903 179.913 327.903 180.233V180.569C327.903 180.973 327.575 181.301 327.171 181.301H327.072C326.668 181.301 326.34 180.973 326.34 180.569Z" fill="#E9E7F1"/>
<path d="M337.073 184.668C333.662 178.606 331.292 166.967 327.188 158.657C324.704 158.657 324.328 158.73 320.41 159.2C321.333 166.092 325.207 167.211 326.848 172.649C328.49 178.086 332.487 185.227 333.616 187.074C333.704 187.219 333.783 187.371 333.853 187.528C334.105 188.085 334.255 188.705 334.402 189.326C334.273 189.77 333.364 190.421 333.051 190.705C332.401 191.296 332.563 192.555 335.43 190.563C336.172 191.441 336.107 191.441 336.986 194.044C337.577 195.795 340.218 196.099 340.757 193.084C341.367 189.668 338.2 186.67 337.073 184.668Z" fill="#F9AE99"/>
<path d="M227.123 18.2143C227.123 18.2143 235.524 30.0329 260.951 28.3201C292.258 22.8537 284.72 18.2143 284.72 18.2143C284.72 18.2143 228.208 5.08247 227.123 18.2143Z" fill="#E9E7F1"/>
<path d="M63.4689 122.447L63.4258 122.446L63.4628 121.421L63.4442 121.934L63.4594 121.421C63.4597 121.421 63.4597 121.421 63.4599 121.421C63.562 121.421 64.3855 121.401 65.5129 120.749L66.0266 121.637C64.694 122.408 63.6622 122.447 63.4689 122.447ZM67.7472 120.313L67.0306 119.579C67.5533 119.069 68.0538 118.459 68.5184 117.765L69.3706 118.336C68.8671 119.088 68.3207 119.754 67.7472 120.313ZM70.4298 116.511L69.5139 116.049C69.8544 115.374 70.176 114.633 70.47 113.847L71.4311 114.206C71.1238 115.027 70.787 115.803 70.4298 116.511ZM72.0898 112.229L71.1062 111.938C71.3259 111.197 71.5306 110.407 71.7148 109.591L72.7154 109.817C72.5264 110.655 72.3159 111.467 72.0898 112.229ZM73.1246 107.786L72.1148 107.606C72.2527 106.836 72.3783 106.026 72.4884 105.198L73.5052 105.334C73.3932 106.176 73.2652 107.002 73.1246 107.786ZM73.7448 103.282L72.7241 103.179C72.8037 102.392 72.8727 101.573 72.9293 100.745L73.9529 100.815C73.8955 101.654 73.8256 102.484 73.7448 103.282ZM74.0688 98.7559L73.044 98.7104C73.0793 97.9167 73.1057 97.0934 73.1219 96.2644L74.1477 96.2845C74.131 97.122 74.1046 97.9534 74.0688 98.7559ZM74.1685 94.2228H73.1427V94.0959C73.1427 93.3366 73.1352 92.5543 73.1205 91.7707L74.1462 91.7511C74.1612 92.5414 74.1687 93.3301 74.1687 94.0959L74.1685 94.2228ZM73.0662 89.7271C73.0391 88.9298 73.0043 88.1051 72.9627 87.2756L73.9875 87.2241C74.0294 88.0591 74.0644 88.8896 74.0915 89.6921L73.0662 89.7271ZM72.8518 85.2269C72.8095 84.3969 72.7739 83.5664 72.7466 82.7582L73.7719 82.7234C73.799 83.5255 73.8343 84.3505 73.8764 85.1744L72.8518 85.2269ZM72.6931 80.6984C72.6796 79.9529 72.6725 79.2042 72.6725 78.4734L72.6728 78.2261L73.6988 78.2285L73.6983 78.4734C73.6983 79.1979 73.7053 79.9405 73.7186 80.68L72.6931 80.6984ZM73.7215 76.1873L72.6958 76.1663C72.7129 75.3329 72.7398 74.5012 72.7759 73.6946L73.8007 73.7401C73.7653 74.5387 73.7385 75.3622 73.7215 76.1873ZM73.9139 71.7041L72.8903 71.6361C72.946 70.8029 73.013 69.9727 73.0902 69.169L74.1114 69.2668C74.0352 70.0605 73.9686 70.8806 73.9139 71.7041ZM74.3318 67.2418L73.3133 67.117C73.4154 66.2855 73.5311 65.4599 73.6577 64.6628L74.6709 64.8234C74.5465 65.6089 74.4323 66.4225 74.3318 67.2418ZM75.0217 62.821L74.0141 62.6274C74.1726 61.803 74.3476 60.9863 74.5344 60.2006L75.5326 60.4377C75.3494 61.2089 75.1776 62.0108 75.0217 62.821ZM76.0405 58.4733L75.0527 58.1962C75.2797 57.3872 75.5268 56.5879 75.7874 55.8206L76.7587 56.1502C76.5044 56.9001 76.2626 57.6817 76.0405 58.4733ZM77.4561 54.2501L76.5022 53.8726C76.8122 53.0893 77.1461 52.3198 77.4941 51.5859L78.4211 52.0256C78.0826 52.7389 77.7576 53.4876 77.4561 54.2501ZM79.3392 50.2283L78.4403 49.734C78.8453 48.9974 79.2787 48.277 79.7284 47.5926L80.586 48.156C80.1509 48.818 79.7315 49.5154 79.3392 50.2283ZM81.7484 46.5124L80.9322 45.8912C81.4382 45.2265 81.9766 44.5789 82.5327 43.9667L83.2921 44.6566C82.7558 45.2468 82.2365 45.8714 81.7484 46.5124ZM84.698 43.2175L83.9909 42.4741C84.5886 41.9055 85.2236 41.3518 85.8777 40.8286L86.5185 41.6296C85.8874 42.1346 85.2749 42.6687 84.698 43.2175ZM88.1349 40.426L87.5498 39.5834C88.2172 39.12 88.9255 38.6672 89.6546 38.2372L90.1758 39.1207C89.4683 39.5379 88.7815 39.9769 88.1349 40.426ZM91.9462 38.1407L91.4734 37.2303C92.1855 36.8601 92.9183 36.5048 93.7127 36.144L94.1369 37.0781C93.3592 37.4316 92.6424 37.7791 91.9462 38.1407Z" fill="#C2B7DA"/>
<path d="M316.819 125.941L315.956 125.386C315.961 125.379 316.45 124.615 317.197 123.284L318.092 123.785C317.328 125.148 316.84 125.909 316.819 125.941ZM319.078 121.966L318.169 121.489C318.545 120.773 318.915 120.038 319.272 119.303L320.195 119.75C319.834 120.494 319.458 121.24 319.078 121.966ZM321.073 117.879L320.139 117.455C320.477 116.708 320.806 115.953 321.116 115.209L322.063 115.604C321.749 116.357 321.416 117.122 321.073 117.879ZM322.833 113.685L321.876 113.316C322.17 112.551 322.453 111.778 322.717 111.018L323.686 111.355C323.419 112.125 323.131 112.909 322.833 113.685ZM324.336 109.39L323.357 109.083C323.604 108.297 323.835 107.508 324.044 106.738L325.034 107.007C324.821 107.79 324.586 108.592 324.336 109.39ZM325.544 105L324.546 104.764C324.734 103.965 324.904 103.162 325.053 102.377L326.061 102.567C325.91 103.368 325.736 104.186 325.544 105ZM326.405 100.523L325.39 100.374C325.51 99.5617 325.607 98.7484 325.681 97.9571L326.703 98.0527C326.627 98.8619 326.527 99.6931 326.405 100.523ZM326.847 95.9823L325.822 95.9361C325.848 95.3478 325.862 94.7566 325.862 94.1783C325.862 93.9547 325.86 93.7306 325.856 93.5068L326.882 93.4889C326.886 93.7187 326.888 93.9486 326.888 94.1785C326.888 94.7724 326.874 95.3788 326.847 95.9823ZM325.762 91.4872C325.701 90.6746 325.61 89.8646 325.491 89.0797L326.505 88.9265C326.628 89.7364 326.722 90.572 326.785 91.4097L325.762 91.4872ZM325.124 87.097C324.95 86.306 324.741 85.5198 324.504 84.7609L325.483 84.4551C325.729 85.242 325.945 86.0565 326.126 86.8761L325.124 87.097ZM323.833 82.864C323.536 82.1158 323.203 81.376 322.841 80.6646L323.756 80.1997C324.132 80.9392 324.479 81.708 324.787 82.4855L323.833 82.864ZM321.861 78.91C321.444 78.2293 320.989 77.5573 320.507 76.9128L321.329 76.2989C321.83 76.9685 322.303 77.6669 322.736 78.3747L321.861 78.91ZM319.243 75.3489C318.722 74.751 318.161 74.1627 317.577 73.5996L318.289 72.8608C318.894 73.4442 319.475 74.0543 320.016 74.6742L319.243 75.3489ZM316.079 72.252C315.473 71.7423 314.83 71.2419 314.168 70.7654L314.767 69.933C315.45 70.4245 316.114 70.9407 316.74 71.467L316.079 72.252ZM312.494 69.6337C311.826 69.2088 311.122 68.793 310.404 68.3983L310.899 67.4994C311.636 67.9047 312.357 68.3316 313.044 68.7679L312.494 69.6337ZM308.606 67.4655C307.894 67.1173 307.149 66.777 306.392 66.455L306.794 65.511C307.567 65.8403 308.328 66.1878 309.057 66.5438L308.606 67.4655ZM304.508 65.6973C303.761 65.4142 302.988 65.1412 302.21 64.8862L302.529 63.9115C303.322 64.1713 304.111 64.4496 304.872 64.7383L304.508 65.6973ZM201.942 64.8574L201.938 63.8316C202.76 63.828 203.583 63.8118 204.383 63.7837L204.419 64.809C203.609 64.8373 202.775 64.8537 201.942 64.8574ZM199.878 64.8416C199.07 64.8259 198.238 64.7991 197.404 64.7611L197.451 63.7363C198.275 63.7738 199.099 63.8006 199.897 63.8161L199.878 64.8416ZM206.482 64.7078L206.416 63.684C207.238 63.632 208.057 63.5657 208.851 63.4865L208.953 64.5075C208.147 64.5876 207.316 64.6551 206.482 64.7078ZM195.345 64.6461C194.536 64.5926 193.707 64.5283 192.879 64.4549L192.97 63.4328C193.79 63.5059 194.612 63.5693 195.413 63.6223L195.345 64.6461ZM300.267 64.288C299.498 64.0658 298.705 63.8539 297.909 63.6576L298.154 62.6616C298.964 62.861 299.77 63.0768 300.551 63.3024L300.267 64.288ZM211.006 64.2681L210.871 63.2513C211.685 63.1427 212.496 63.0166 213.279 62.877L213.459 63.8868C212.661 64.0293 211.835 64.1576 211.006 64.2681ZM190.828 64.2543C190.021 64.1682 189.194 64.0719 188.372 63.9676L188.501 62.9498C189.317 63.0534 190.136 63.1487 190.936 63.2341L190.828 64.2543ZM186.331 63.6929C185.528 63.5785 184.706 63.4541 183.888 63.3229L184.05 62.3097C184.862 62.4399 185.678 62.5636 186.475 62.6773L186.331 63.6929ZM215.49 63.4831L215.27 62.4811C216.072 62.3049 216.867 62.1082 217.632 61.8972L217.904 62.8859C217.123 63.102 216.31 63.3029 215.49 63.4831ZM295.925 63.2005C295.143 63.0328 294.337 62.8738 293.527 62.7281L293.708 61.7186C294.53 61.8662 295.348 62.0271 296.14 62.1975L295.925 63.2005ZM181.827 62.8603C181.025 62.6268 180.228 62.378 179.46 62.1208L179.786 61.1477C180.541 61.4006 181.324 61.6455 182.114 61.8752L181.827 62.8603ZM291.516 62.3935C290.726 62.272 289.91 62.1587 289.092 62.0564L289.219 61.0384C290.047 61.1419 290.872 61.2564 291.671 61.3791L291.516 62.3935ZM219.891 62.2858L219.57 61.3116C220.349 61.0551 221.116 60.7751 221.85 60.4799L222.233 61.4318C221.478 61.735 220.69 62.0225 219.891 62.2858ZM244.581 61.8519L244.05 61.8509L244.052 60.8252L244.581 60.8259C245.218 60.8259 245.861 60.8223 246.508 60.8157L246.519 61.8415C245.868 61.848 245.221 61.8519 244.581 61.8519ZM241.99 61.8304C241.141 61.8156 240.309 61.7931 239.517 61.7629L239.556 60.7378C240.341 60.7678 241.166 60.7903 242.007 60.8048L241.99 61.8304ZM287.064 61.8251C286.271 61.7433 285.45 61.6682 284.625 61.6019L284.707 60.5793C285.54 60.6459 286.369 60.7218 287.17 60.8046L287.064 61.8251ZM248.575 61.8113L248.556 60.7855C249.368 60.7697 250.187 60.7506 251.013 60.7289L251.04 61.7542C250.212 61.7762 249.39 61.7955 248.575 61.8113ZM253.094 61.6941L253.062 60.6688C253.877 60.6434 254.698 60.6158 255.523 60.5875L255.559 61.6128C254.732 61.6411 253.91 61.6687 253.094 61.6941ZM237.456 61.6629C236.607 61.6124 235.775 61.5502 234.985 61.4783L235.077 60.4566C235.857 60.5275 236.678 60.5887 237.517 60.6386L237.456 61.6629ZM257.61 61.5407L257.574 60.5157L260.037 60.429L260.073 61.4543L257.61 61.5407ZM282.587 61.4572C281.789 61.4074 280.965 61.3638 280.138 61.3278L280.183 60.303C281.016 60.3393 281.847 60.3833 282.651 60.4334L282.587 61.4572ZM177.511 61.4284C176.726 61.1335 175.951 60.8213 175.207 60.4999L175.613 59.5579C176.343 59.8727 177.103 60.1788 177.871 60.4682L177.511 61.4284ZM262.122 61.3849L262.089 60.3596C262.908 60.3332 263.73 60.3076 264.554 60.2846L264.583 61.3099C263.761 61.3328 262.94 61.3583 262.122 61.3849ZM232.928 61.2598C232.08 61.1557 231.253 61.0357 230.468 60.9024L230.64 59.8909C231.409 60.0213 232.221 60.1391 233.053 60.2413L232.928 61.2598ZM266.632 61.2571L266.608 60.2313C267.429 60.2125 268.251 60.196 269.074 60.1837L269.09 61.2092C268.269 61.2218 267.45 61.2382 266.632 61.2571ZM278.095 61.2535C277.302 61.23 276.477 61.2119 275.641 61.1993L275.656 60.1738C276.497 60.1861 277.327 60.2045 278.125 60.228L278.095 61.2535ZM271.138 61.1857L271.131 60.16C271.953 60.1539 272.775 60.152 273.598 60.1549L273.594 61.1806C272.775 61.1777 271.957 61.1794 271.138 61.1857ZM224.139 60.5992L223.7 59.6719C224.439 59.3224 225.16 58.9464 225.845 58.5544L226.214 59.1985L226.297 58.9123C227.041 59.1289 227.833 59.329 228.649 59.5068L228.431 60.5091C227.591 60.3262 226.777 60.1203 226.011 59.8976L226.101 59.5886C225.469 59.9419 224.811 60.2812 224.139 60.5992ZM173.323 59.6392C172.568 59.2745 171.825 58.8893 171.114 58.4946L171.611 57.5976C172.306 57.9831 173.032 58.3593 173.769 58.7158L173.323 59.6392ZM224.029 59.2489C223.221 58.9522 222.443 58.6233 221.717 58.2713L222.164 57.3481C222.86 57.6857 223.606 58.001 224.382 58.286L224.029 59.2489ZM228.127 58.3451L227.555 57.493C228.229 57.0405 228.882 56.5582 229.494 56.0593L230.142 56.8542C229.505 57.3735 228.827 57.8749 228.127 58.3451ZM169.325 57.442C168.612 56.997 167.915 56.5297 167.254 56.0535L167.853 55.2213C168.496 55.6844 169.174 56.1389 169.867 56.5715L169.325 57.442ZM219.874 57.2656C219.143 56.8174 218.449 56.3259 217.813 55.8054L218.463 55.0115C219.063 55.5027 219.719 55.9668 220.411 56.391L219.874 57.2656ZM231.707 55.4681L230.996 54.7291C231.575 54.1703 232.129 53.5796 232.639 52.9727L233.424 53.6331C232.891 54.2674 232.313 54.8847 231.707 55.4681ZM165.603 54.7879C164.952 54.2567 164.321 53.7006 163.728 53.1351L164.436 52.3929C165.01 52.9403 165.621 53.4785 166.251 53.9929L165.603 54.7879ZM216.265 54.3731C215.685 53.7645 215.145 53.1054 214.662 52.4133L215.503 51.8255C215.957 52.475 216.463 53.0937 217.008 53.6648L216.265 54.3731ZM234.699 51.9699L233.857 51.3836C234.314 50.7274 234.739 50.0394 235.119 49.3396L236.021 49.8289C235.622 50.5621 235.178 51.2825 234.699 51.9699ZM162.27 51.6452C161.703 51.0248 161.163 50.3782 160.663 49.7231L161.479 49.101C161.96 49.7321 162.481 50.3554 163.027 50.9536L162.27 51.6452ZM213.563 50.6139C213.179 49.8879 212.832 49.1128 212.535 48.3097L213.498 47.9535C213.779 48.714 214.106 49.4472 214.47 50.133L213.563 50.6139ZM159.46 48.0135C159.003 47.3069 158.579 46.5763 158.2 45.8414L159.112 45.371C159.476 46.0759 159.883 46.7777 160.322 47.4562L159.46 48.0135ZM236.934 47.9409L235.99 47.5375C236.304 46.8053 236.58 46.0452 236.812 45.2788L237.794 45.5762C237.551 46.3786 237.262 47.1743 236.934 47.9409ZM211.906 46.3104C211.7 45.5297 211.527 44.7043 211.391 43.8564L212.404 43.694C212.534 44.5086 212.701 45.3008 212.898 46.0486L211.906 46.3104ZM157.319 43.9406C156.995 43.1566 156.715 42.3568 156.485 41.5641L157.47 41.2783C157.69 42.0355 157.958 42.7994 158.267 43.5493L157.319 43.9406ZM238.311 43.5447L237.307 43.3362C237.469 42.5584 237.592 41.7579 237.673 40.9567L238.693 41.06C238.609 41.8966 238.48 42.7324 238.311 43.5447ZM211.135 41.7887C211.063 40.9891 211.018 40.1511 211.001 39.2974L212.027 39.2773C212.043 40.1073 212.087 40.9211 212.157 41.6967L211.135 41.7887ZM156 39.514C155.581 37.2071 155.814 37.0852 156.039 36.9673L156.277 37.4215L156.79 37.4223C156.79 37.4293 156.794 38.1451 157.009 39.3308L156 39.514ZM238.816 38.9688L237.79 38.9526C237.793 38.8173 237.794 38.6818 237.794 38.5465C237.794 37.8845 237.766 37.21 237.712 36.5424L238.735 36.4592C238.791 37.1544 238.82 37.8569 238.82 38.5468C238.819 38.6871 238.818 38.828 238.816 38.9688ZM212.038 37.2514L211.013 37.2209C211.037 36.4202 211.083 35.5846 211.151 34.737L212.174 34.819C212.107 35.6492 212.062 36.4676 212.038 37.2514ZM237.468 34.5468C237.339 33.7555 237.171 32.9617 236.967 32.1869L237.959 31.926C238.171 32.7323 238.347 33.5587 238.481 34.382L237.468 34.5468ZM212.374 32.7955L211.355 32.6769C211.447 31.8798 211.56 31.0527 211.689 30.2184L212.703 30.3749C212.576 31.1969 212.465 32.0112 212.374 32.7955ZM236.377 30.2651C236.109 29.5023 235.802 28.7517 235.465 28.0349L236.393 27.5981C236.745 28.3461 237.065 29.1289 237.346 29.9243L236.377 30.2651ZM213.004 28.5184L212.097 28.0383C212.5 27.2787 212.919 26.5506 213.345 25.8733L214.214 26.4194C213.801 27.075 213.394 27.7813 213.004 28.5184ZM234.531 26.2607C234.118 25.557 233.669 24.8857 233.197 24.2662L234.013 23.6443C234.511 24.2967 234.982 25.0024 235.416 25.7416L234.531 26.2607ZM215.347 24.7577L214.523 24.1465C215.044 23.4442 215.587 22.7925 216.136 22.2098L216.882 22.9133C216.361 23.4667 215.844 24.0872 215.347 24.7577ZM231.902 22.7531C231.334 22.1636 230.736 21.6346 230.123 21.1812L230.734 20.357C231.392 20.8443 232.033 21.4108 232.641 22.0409L231.902 22.7531ZM218.328 21.5531L217.676 20.7613C218.363 20.1953 219.076 19.7128 219.794 19.3268L220.28 20.2304C219.62 20.5847 218.964 21.0297 218.328 21.5531ZM228.457 20.1455C227.739 19.782 227.004 19.5134 226.27 19.3462L226.498 18.3458C227.313 18.5314 228.128 18.8288 228.921 19.23L228.457 20.1455ZM222.072 19.4846L221.78 18.5012C222.624 18.2505 223.487 18.1196 224.347 18.1118L224.356 19.1376C223.593 19.1444 222.825 19.2612 222.072 19.4846Z" fill="#C2B7DA"/>
<path d="M146.7 34.716C146.7 36.0757 145.597 37.1782 144.237 37.1782H102.14C100.78 37.1782 99.6777 36.0757 99.6777 34.716V2.46221C99.6777 1.10225 100.78 0 102.14 0H144.238C145.598 0 146.7 1.10225 146.7 2.46221L146.7 34.716Z" fill="#9DDBEE"/>
<path d="M120.248 5.07743C120.248 6.43739 119.146 7.53964 117.786 7.53964H106.382C105.022 7.53964 103.92 6.43739 103.92 5.07743C103.92 3.71772 105.022 2.61523 106.382 2.61523H117.786C119.146 2.61548 120.248 3.71772 120.248 5.07743Z" fill="#2D2662"/>
<path d="M142.033 10.8225C142.033 11.5023 141.482 12.0535 140.802 12.0535H105.155C104.475 12.0535 103.924 11.5023 103.924 10.8225C103.924 10.1426 104.475 9.59131 105.155 9.59131H140.802C141.482 9.59131 142.033 10.1426 142.033 10.8225Z" fill="white"/>
<path d="M142.033 16.3865C142.033 17.0665 141.482 17.6175 140.802 17.6175H105.155C104.475 17.6175 103.924 17.0665 103.924 16.3865C103.924 15.7065 104.475 15.1553 105.155 15.1553H140.802C141.482 15.1553 142.033 15.7065 142.033 16.3865Z" fill="white"/>
<path d="M142.033 21.897C142.033 22.577 141.482 23.1282 140.802 23.1282H105.155C104.475 23.1282 103.924 22.577 103.924 21.897C103.924 21.217 104.475 20.666 105.155 20.666H140.802C141.482 20.666 142.033 21.2173 142.033 21.897Z" fill="white"/>
<path d="M142.033 27.5601C142.033 28.2401 141.482 28.7913 140.802 28.7913H105.155C104.475 28.7913 103.924 28.2401 103.924 27.5601C103.924 26.8803 104.475 26.3291 105.155 26.3291H140.802C141.482 26.3293 142.033 26.8806 142.033 27.5601Z" fill="white"/>
<path d="M63.8534 127.892C63.8534 128.473 63.3821 128.944 62.8011 128.944H1.05215C0.471148 128.944 0 128.474 0 127.892V106.164C0 105.583 0.470906 105.112 1.05215 105.112H62.8011C63.3821 105.112 63.8534 105.582 63.8534 106.164V127.892Z" fill="#ABA2D0"/>
<path d="M12.5595 125.208C10.4985 125.208 8.56089 124.405 7.10365 122.948C5.64641 121.49 4.84375 119.553 4.84375 117.492C4.84375 115.431 5.64617 113.494 7.10365 112.036C8.56089 110.579 10.4985 109.776 12.5595 109.776C14.6204 109.776 16.5578 110.579 18.0153 112.036C19.4725 113.494 20.2752 115.431 20.2752 117.492C20.2752 119.553 19.4725 121.49 18.0153 122.948C16.5578 124.405 14.6204 125.208 12.5595 125.208ZM12.5595 111.896C9.47366 111.896 6.96306 114.406 6.96306 117.492C6.96306 120.578 9.47366 123.088 12.5595 123.088C15.6455 123.088 18.1561 120.578 18.1561 117.492C18.1559 114.406 15.6453 111.896 12.5595 111.896Z" fill="#56C7E0"/>
<path d="M12.5595 109.776C10.4985 109.776 8.56089 110.579 7.10365 112.036C5.64641 113.494 4.84375 115.431 4.84375 117.492C4.84375 117.966 4.88682 118.433 4.96982 118.89H7.13971C7.02428 118.443 6.96306 117.974 6.96306 117.492C6.96306 114.406 9.47366 111.896 12.5595 111.896C15.6455 111.896 18.1561 114.406 18.1561 117.492C18.1561 117.974 18.0946 118.443 17.9795 118.89H20.1493C20.2326 118.433 20.2754 117.966 20.2754 117.492C20.2754 115.431 19.4727 113.494 18.0155 112.036C16.5578 110.579 14.6204 109.776 12.5595 109.776Z" fill="#FEC35B"/>
<path d="M18.1569 117.492C18.1569 117.974 18.0955 118.443 17.9803 118.89H20.1502C20.2334 118.433 20.2763 117.966 20.2763 117.492C20.2763 115.431 19.4736 113.494 18.0164 112.036C16.5589 110.579 14.6215 109.776 12.5605 109.776V111.896C15.6463 111.896 18.1569 114.406 18.1569 117.492Z" fill="#2D2662"/>
<path d="M60.8299 111.946C60.8299 112.527 60.3587 112.998 59.7777 112.998H28.7729C28.1918 112.998 27.7207 112.527 27.7207 111.946V109.652C27.7207 109.071 28.1918 108.6 28.7729 108.6H59.7777C60.3587 108.6 60.8299 109.071 60.8299 109.652V111.946Z" fill="#F594A9"/>
<path d="M49.2901 117.555C49.2901 117.959 48.8192 118.286 48.238 118.286H28.392C27.811 118.286 27.3398 117.959 27.3398 117.555V116.947C27.3398 116.543 27.811 116.216 28.392 116.216H48.238C48.8192 116.216 49.2901 116.543 49.2901 116.947V117.555Z" fill="#FEC35B"/>
<path d="M49.2901 122.388C49.2901 122.792 48.8192 123.119 48.238 123.119H28.392C27.811 123.119 27.3398 122.791 27.3398 122.388V121.779C27.3398 121.376 27.811 121.048 28.392 121.048H48.238C48.8192 121.048 49.2901 121.376 49.2901 121.779V122.388Z" fill="#FEC35B"/>
<path d="M346.677 48.6129C346.677 49.9728 345.575 51.0751 344.215 51.0751H314.245C312.886 51.0751 311.783 49.9728 311.783 48.6129V35.4871C311.783 34.1274 312.886 33.0249 314.245 33.0249H344.215C345.575 33.0249 346.677 34.1274 346.677 35.4871V48.6129Z" fill="#FFD189"/>
<path d="M318.299 41.5898L328.049 37.0601V39.213L320.675 42.4428V42.4834L328.049 45.7132V47.8662L318.299 43.3364V41.5898Z" fill="white"/>
<path d="M340.157 43.3974L330.406 47.8662V45.7132L337.943 42.4834V42.4428L330.406 39.213V37.0601L340.157 41.5288V43.3974Z" fill="white"/>
<path d="M77.8841 76.9922C77.8841 82.017 73.8105 86.0906 68.7857 86.0906C63.7611 86.0906 59.6875 82.017 59.6875 76.9922C59.6875 71.9669 63.7611 67.8936 68.7857 67.8936C73.8105 67.8936 77.8841 71.9669 77.8841 76.9922Z" fill="#FBB67B"/>
<path d="M68.7851 86.5332C63.5241 86.5332 59.2441 82.2529 59.2441 76.9922C59.2441 71.7307 63.5241 67.4507 68.7851 67.4507C74.0464 67.4507 78.3269 71.7307 78.3269 76.9922C78.3269 82.2532 74.0464 86.5332 68.7851 86.5332ZM68.7851 68.3371C64.013 68.3371 60.1303 72.2197 60.1303 76.9924C60.1303 81.7646 64.013 85.6475 68.7851 85.6475C73.5576 85.6475 77.4405 81.7646 77.4405 76.9924C77.4405 72.2197 73.5576 68.3371 68.7851 68.3371Z" fill="#FEC35B"/>
<path d="M67.9381 82.7683V82.6531C67.9381 82.2865 67.6666 81.9763 67.3032 81.9286C66.766 81.8582 66.2585 81.7331 65.836 81.5775C65.4822 81.4475 65.2845 81.072 65.3782 80.7071L65.49 80.2712C65.5984 79.8485 66.0504 79.6242 66.4591 79.7776C67.0133 79.9857 67.6618 80.1348 68.3531 80.1348C69.262 80.1348 69.8839 79.7836 69.8839 79.1455C69.8839 78.5393 69.3738 78.1568 68.1937 77.758C66.4865 77.1837 65.3223 76.3862 65.3223 74.8389C65.3223 73.5774 66.1213 72.5606 67.5224 72.1246C67.8215 72.0314 68.0185 71.7451 68.0185 71.4317V71.2164C68.0185 70.812 68.3461 70.4844 68.7505 70.4844H68.8495C69.2538 70.4844 69.5815 70.812 69.5815 71.2164C69.5815 71.5861 69.8588 71.8959 70.2256 71.9421C70.6193 71.9919 70.9559 72.0679 71.247 72.1589C71.6178 72.2748 71.83 72.663 71.7334 73.0393L71.6378 73.4117C71.5333 73.8199 71.106 74.0602 70.7062 73.9269C70.304 73.7926 69.7862 73.6745 69.1345 73.6745C68.0978 73.6745 67.7627 74.1209 67.7627 74.5674C67.7627 75.0942 68.321 75.4291 69.6768 75.9394C71.5752 76.6093 72.3406 77.4867 72.3406 78.9222C72.3406 80.1998 71.5268 81.3094 70.0265 81.7512C69.7194 81.8417 69.5011 82.1123 69.5011 82.4324V82.7683C69.5011 83.1726 69.1735 83.5003 68.7691 83.5003H68.6704C68.266 83.5003 67.9381 83.1726 67.9381 82.7683Z" fill="#E9E7F1"/>
<path d="M217.566 39.9685C217.566 44.9934 213.492 49.0669 208.467 49.0669C203.443 49.0669 199.369 44.9934 199.369 39.9685C199.369 34.9435 203.443 30.8701 208.467 30.8701C213.492 30.8701 217.566 34.9435 217.566 39.9685Z" fill="#FBB67B"/>
<path d="M208.469 49.5098C203.208 49.5098 198.928 45.2295 198.928 39.9685C198.928 34.707 203.208 30.4272 208.469 30.4272C213.73 30.4272 218.01 34.707 218.01 39.9685C218.01 45.2295 213.73 49.5098 208.469 49.5098ZM208.469 31.3132C203.697 31.3132 199.814 35.1958 199.814 39.9685C199.814 44.7409 203.697 48.6238 208.469 48.6238C213.241 48.6238 217.124 44.7409 217.124 39.9685C217.124 35.1958 213.241 31.3132 208.469 31.3132Z" fill="#FEC35B"/>
<path d="M207.626 45.7449V45.6294C207.626 45.2628 207.354 44.9528 206.991 44.9049C206.454 44.8343 205.946 44.7092 205.524 44.5538C205.17 44.4239 204.972 44.0483 205.066 43.6834L205.177 43.2476C205.286 42.8248 205.738 42.6005 206.147 42.7539C206.701 42.962 207.349 43.1108 208.041 43.1108C208.95 43.1108 209.571 42.76 209.571 42.1216C209.571 41.5154 209.061 41.1331 207.881 40.734C206.174 40.1598 205.01 39.3625 205.01 37.815C205.01 36.5535 205.809 35.5365 207.21 35.1004C207.509 35.0072 207.706 34.721 207.706 34.4076V34.1925C207.706 33.7881 208.034 33.4604 208.438 33.4604H208.537C208.941 33.4604 209.269 33.7881 209.269 34.1925C209.269 34.562 209.546 34.8719 209.913 34.9182C210.307 34.968 210.643 35.044 210.935 35.135C211.306 35.2509 211.518 35.6388 211.421 36.0153L211.326 36.388C211.221 36.7962 210.794 37.0365 210.394 36.9029C209.992 36.7686 209.474 36.6505 208.822 36.6505C207.786 36.6505 207.45 37.097 207.45 37.5435C207.45 38.07 208.009 38.4052 209.365 38.9155C211.263 39.5854 212.028 40.4625 212.028 41.8982C212.028 43.1759 211.215 44.2854 209.714 44.7273C209.407 44.8178 209.189 45.0883 209.189 45.4085V45.7444C209.189 46.1487 208.861 46.4764 208.457 46.4764H208.358C207.954 46.4771 207.626 46.1492 207.626 45.7449Z" fill="#E9E7F1"/>
<path d="M334.929 102.027C334.929 109.312 329.022 115.218 321.736 115.218C314.452 115.218 308.545 109.312 308.545 102.027C308.545 94.7406 314.452 88.835 321.736 88.835C329.022 88.8352 334.929 94.7409 334.929 102.027Z" fill="#FBB67B"/>
<path d="M321.737 115.861C314.11 115.861 307.904 109.655 307.904 102.027C307.904 94.3979 314.11 88.1929 321.737 88.1929C329.365 88.1929 335.572 94.3979 335.572 102.027C335.572 109.655 329.365 115.861 321.737 115.861ZM321.737 89.4773C314.819 89.4773 309.189 95.1066 309.189 102.027C309.189 108.946 314.819 114.576 321.737 114.576C328.658 114.576 334.287 108.946 334.287 102.027C334.287 95.1066 328.657 89.4773 321.737 89.4773Z" fill="#FEC35B"/>
<path d="M320.51 110.418V110.219C320.51 109.692 320.115 109.252 319.592 109.184C318.804 109.08 318.06 108.896 317.443 108.667C316.941 108.481 316.661 107.947 316.794 107.428L316.962 106.772C317.117 106.169 317.761 105.836 318.344 106.057C319.152 106.363 320.1 106.582 321.111 106.582C322.428 106.582 323.331 106.074 323.331 105.148C323.331 104.27 322.591 103.714 320.879 103.136C318.404 102.304 316.717 101.147 316.717 98.9037C316.717 97.0784 317.87 95.6064 319.894 94.9722C320.329 94.836 320.626 94.4335 320.626 93.9776V93.6338C320.626 93.0571 321.093 92.5898 321.67 92.5898H321.848C322.425 92.5898 322.892 93.0571 322.892 93.6338V93.6655C322.892 94.1974 323.292 94.6366 323.82 94.7029C324.395 94.7752 324.886 94.8863 325.311 95.0194C325.844 95.1863 326.155 95.7369 326.017 96.2777L325.871 96.8454C325.722 97.43 325.108 97.7775 324.536 97.5856C323.951 97.3894 323.196 97.2156 322.244 97.2156C320.741 97.2156 320.256 97.863 320.256 98.5108C320.256 99.2737 321.065 99.7596 323.031 100.5C325.783 101.471 326.893 102.743 326.893 104.824C326.893 106.681 325.707 108.293 323.522 108.931C323.079 109.06 322.776 109.468 322.776 109.929V110.418C322.776 110.995 322.309 111.462 321.732 111.462H321.554C320.977 111.462 320.51 110.995 320.51 110.418Z" fill="#E9E7F1"/>
<path d="M46.9035 255.132C46.9035 255.132 45.6836 168.102 71.7073 166.803C97.7309 165.504 75.7733 199.277 62.965 214.344C50.1565 229.412 46.9035 255.132 46.9035 255.132Z" fill="#56C7E0"/>
<path d="M46.5352 256.034C46.5352 256.034 50.1175 202.452 77.3012 196.198C104.485 189.944 85.3751 220.606 76.228 222.941C67.0809 225.277 65.8098 223.044 67.9485 230.333C70.0871 237.623 68.8356 238 62.3939 239.605C55.9523 241.209 56.1183 241.75 56.8563 245.748C57.5946 249.746 46.5352 256.034 46.5352 256.034Z" fill="#FEC35B"/>
<path d="M49.5117 257.058C49.5117 257.058 58.1702 221.125 78.3576 222.358C98.545 223.592 81.3672 240.695 74.548 240.438C67.7289 240.181 67.0721 238.395 67.7756 243.816C68.479 249.237 67.5396 249.242 62.742 249.033C57.9444 248.825 58.0018 249.228 58.0761 252.113C58.1506 254.998 49.5117 257.058 49.5117 257.058Z" fill="#31C0D0"/>
<path d="M48.0851 252.811C48.0851 252.811 48.8963 194.942 31.5924 194.078C14.2885 193.214 28.8887 215.671 37.4054 225.69C45.9223 235.709 48.0851 252.811 48.0851 252.811Z" fill="#F89D4A"/>
<path d="M48.328 253.412C48.328 253.412 45.9462 217.783 27.8708 213.625C9.79546 209.466 22.5024 229.854 28.5844 231.407C34.6665 232.96 35.5117 231.475 34.0896 236.322C32.6677 241.169 33.4996 241.42 37.783 242.487C42.0662 243.554 41.9558 243.913 41.4651 246.572C40.9743 249.23 48.328 253.412 48.328 253.412Z" fill="#35B4C9"/>
<path d="M46.3489 254.091C46.3489 254.091 40.5916 230.198 27.1684 231.018C13.7452 231.838 25.1672 243.21 29.7015 243.04C34.2358 242.869 34.6724 241.681 34.2046 245.286C33.7369 248.891 34.3617 248.893 37.5518 248.755C40.7419 248.616 40.7036 248.884 40.6543 250.803C40.6049 252.721 46.3489 254.091 46.3489 254.091Z" fill="#FEC35B"/>
<path d="M51.1704 271.885H49.0112C45.1571 271.885 41.9234 268.978 41.5137 265.146L40.0938 251.862H60.3017L58.654 265.265C58.1894 269.045 54.9788 271.885 51.1704 271.885Z" fill="#40327A"/>
<path d="M58.479 251.862L56.8313 265.265C56.3667 269.045 53.156 271.885 49.3477 271.885H51.1722C54.9806 271.885 58.1913 269.045 58.6559 265.265L60.3035 251.862H58.479Z" fill="#352E6D"/>
<path d="M58.4179 255.133H42.1925C41.2901 255.133 40.5586 254.402 40.5586 253.499C40.5586 252.597 41.2901 251.865 42.1925 251.865H58.4179C59.3202 251.865 60.0517 252.597 60.0517 253.499C60.0517 254.402 59.3202 255.133 58.4179 255.133Z" fill="#352E6D"/>
<path d="M43.0982 265.146L41.6783 251.862H40.0938L41.5137 265.146C41.9234 268.978 45.1571 271.885 49.0112 271.885H50.5957C46.7416 271.885 43.5079 268.978 43.0982 265.146Z" fill="#493E88"/>
<path d="M59.1717 254.772H41.2251C40.2272 254.772 39.418 253.963 39.418 252.964C39.418 251.966 40.2272 251.157 41.2251 251.157H59.1717C60.1699 251.157 60.9789 251.966 60.9789 252.964C60.9789 253.963 60.1699 254.772 59.1717 254.772Z" fill="#2D2662"/>
<path d="M57.757 259.586H55.8966C55.4187 259.586 55.0312 259.199 55.0312 258.721C55.0312 258.243 55.4187 257.855 55.8966 257.855H57.757C58.2349 257.855 58.6223 258.243 58.6223 258.721C58.6223 259.199 58.2349 259.586 57.757 259.586Z" fill="#352E6D"/>
<path d="M57.5166 261.49H56.9109C56.6839 261.49 56.5 261.306 56.5 261.079C56.5 260.852 56.6839 260.668 56.9109 260.668H57.5166C57.7436 260.668 57.9277 260.852 57.9277 261.079C57.9275 261.306 57.7436 261.49 57.5166 261.49Z" fill="#352E6D"/>
<path d="M56.8253 267.115H53.9265C53.6995 267.115 53.5156 266.931 53.5156 266.704C53.5156 266.477 53.6995 266.293 53.9265 266.293H56.8253C57.0522 266.293 57.2364 266.477 57.2364 266.704C57.2364 266.931 57.0522 267.115 56.8253 267.115Z" fill="#352E6D"/>
<path d="M55.961 268.629H55.485C55.282 268.629 55.1172 268.465 55.1172 268.261C55.1172 268.058 55.2817 267.894 55.485 267.894H55.961C56.164 267.894 56.3288 268.058 56.3288 268.261C56.3286 268.465 56.164 268.629 55.961 268.629Z" fill="#352E6D"/>
<path d="M44.6301 259.811H42.5359C42.2054 259.811 41.9375 259.543 41.9375 259.213C41.9375 258.882 42.2054 258.614 42.5359 258.614H44.6301C44.9606 258.614 45.2285 258.882 45.2285 259.213C45.2283 259.543 44.9604 259.811 44.6301 259.811Z" fill="#493E88"/>
<path d="M43.4028 261.726H42.5053C42.2575 261.726 42.0566 261.526 42.0566 261.278C42.0566 261.03 42.2575 260.829 42.5053 260.829H43.4028C43.6506 260.829 43.8514 261.03 43.8514 261.278C43.8514 261.525 43.6506 261.726 43.4028 261.726Z" fill="#493E88"/>
<path d="M46.5173 269.146H44.1838C43.9689 269.146 43.7949 268.972 43.7949 268.757C43.7949 268.542 43.9689 268.368 44.1838 268.368H46.5173C46.7321 268.368 46.9061 268.542 46.9061 268.757C46.9064 268.972 46.7321 269.146 46.5173 269.146Z" fill="#493E88"/>
</svg>
