<svg width="77" height="58" viewBox="0 0 77 58" fill="none" xmlns="http://www.w3.org/2000/svg">
<path d="M17.477 22.885C16.6222 22.885 15.8019 23.0153 14.9854 23.1342C15.2499 22.2448 15.522 21.3402 15.959 20.5275C16.396 19.3468 17.0784 18.3233 17.7569 17.2922C18.3242 16.1767 19.3247 15.4215 20.0607 14.467C20.8312 13.5393 21.8815 12.9222 22.7134 12.1517C23.5299 11.3467 24.5994 10.9442 25.4504 10.3768C26.3397 9.867 27.114 9.3035 27.942 9.03517L30.0082 8.18417L31.8252 7.429L29.966 0L27.6775 0.551998C26.9454 0.735998 26.0522 0.950665 25.0364 1.2075C23.9975 1.39917 22.8897 1.92433 21.6554 2.4035C20.4364 2.94783 19.0257 3.31583 17.7147 4.18983C16.396 5.0255 14.8742 5.72317 13.5325 6.8425C12.233 7.99633 10.6652 8.99683 9.50754 10.465C8.24254 11.8373 6.99287 13.2787 6.02304 14.9193C4.89987 16.4833 4.13704 18.2007 3.33204 19.8988C2.6037 21.597 2.0172 23.3335 1.53804 25.0202C0.629538 28.4012 0.223204 31.6135 0.0660378 34.362C-0.0642955 37.1143 0.0123711 39.4028 0.173371 41.0588C0.230871 41.8408 0.338205 42.5998 0.414871 43.125L0.510704 43.769L0.610371 43.746C1.29217 46.9309 2.8617 49.8576 5.1374 52.1877C7.41309 54.5178 10.302 56.156 13.4698 56.9128C16.6377 57.6697 19.9551 57.5142 23.0383 56.4644C26.1214 55.4146 28.8444 53.5133 30.8922 50.9806C32.94 48.4479 34.2289 45.3871 34.6098 42.1525C34.9907 38.9178 34.4481 35.6414 33.0447 32.7022C31.6413 29.7631 29.4345 27.2813 26.6795 25.544C23.9246 23.8067 20.7341 22.8848 17.477 22.885ZM59.6437 22.885C58.7889 22.885 57.9685 23.0153 57.152 23.1342C57.4165 22.2448 57.6887 21.3402 58.1257 20.5275C58.5627 19.3468 59.245 18.3233 59.9235 17.2922C60.4909 16.1767 61.4914 15.4215 62.2274 14.467C62.9979 13.5393 64.0482 12.9222 64.88 12.1517C65.6965 11.3467 66.766 10.9442 67.617 10.3768C68.5064 9.867 69.2807 9.3035 70.1087 9.03517L72.1749 8.18417L73.9919 7.429L72.1327 0L69.8442 0.551998C69.112 0.735998 68.2189 0.950665 67.203 1.2075C66.1642 1.39917 65.0564 1.92433 63.822 2.4035C62.6069 2.95167 61.1924 3.31583 59.8814 4.19367C58.5627 5.02933 57.0409 5.727 55.6992 6.84633C54.3997 8.00017 52.8319 9.00067 51.6742 10.465C50.4092 11.8373 49.1595 13.2787 48.1897 14.9193C47.0665 16.4833 46.3037 18.2007 45.4987 19.8988C44.7704 21.597 44.1839 23.3335 43.7047 25.0202C42.7962 28.4012 42.3899 31.6135 42.2327 34.362C42.1024 37.1143 42.179 39.4028 42.34 41.0588C42.3975 41.8408 42.5049 42.5998 42.5815 43.125L42.6774 43.769L42.777 43.746C43.4588 46.9309 45.0284 49.8576 47.3041 52.1877C49.5798 54.5178 52.4686 56.156 55.6365 56.9128C58.8043 57.6697 62.1217 57.5142 65.2049 56.4644C68.2881 55.4146 71.0111 53.5133 73.0589 50.9806C75.1066 48.4479 76.3956 45.3871 76.7765 42.1525C77.1574 38.9178 76.6148 35.6414 75.2114 32.7022C73.808 29.7631 71.6012 27.2813 68.8462 25.544C66.0912 23.8067 62.9007 22.8848 59.6437 22.885Z" fill="#242424"/>
</svg>
