<svg width="665" height="500" viewBox="0 0 665 500" fill="none" xmlns="http://www.w3.org/2000/svg">
<path d="M53.6543 295.669C58.7373 293.237 63.7963 309.419 63.7963 309.419C72.4353 320.835 84.5083 305.648 83.3283 322.713C81.2623 352.574 117.7 332.103 100.889 363.279C84.0783 394.456 115.732 380.908 105.285 406.046C94.8393 431.185 108.379 461.167 92.6613 448.847C92.6613 448.847 78.8203 418.495 64.5473 409.105C50.2743 399.715 73.0983 388.574 68.6323 375.819C62.1453 357.294 46.5173 358.021 57.7853 338.114C69.0543 318.206 36.3763 303.932 53.6543 295.669Z" fill="url(#paint0_linear_1457_3127)"/>
<path d="M97.6388 437.424C90.8258 432.633 82.8518 399.24 82.3758 379.351C82.1318 369.162 79.1208 364.918 76.4628 361.173C73.9228 357.594 71.7298 354.502 73.0078 347.403C75.4498 333.839 69.0298 327.982 68.9648 327.924L69.7088 327.077C69.9938 327.327 76.6798 333.366 74.1178 347.602C72.9238 354.234 74.8918 357.008 77.3828 360.519C79.9978 364.205 83.2518 368.789 83.5038 379.322C84.0138 400.668 92.1668 432.196 98.2878 436.501L97.6388 437.424Z" fill="white"/>
<path d="M100.188 439.898C99.3088 439.898 98.3538 439.798 97.3068 439.585C94.6808 439.055 92.9588 437.669 92.1888 435.468C90.3518 430.215 94.6078 421.682 98.0618 417.57C98.1188 417.501 103.9 410.435 103.284 400.642C103.18 399 103.01 397.481 102.86 396.14C102.425 392.264 102.111 389.464 103.776 387.594C105.243 385.945 108.075 385.232 113.245 385.207C122.313 385.164 125.898 381.411 128.78 378.393C130.003 377.112 131.159 375.902 132.563 375.135C137.082 372.668 141.868 372.306 143.944 374.274C144.93 375.208 145.763 377.039 144.129 380.453C142.637 383.572 140.701 385.549 139.145 387.135C137.052 389.271 135.67 390.682 136.39 393.493C136.559 394.154 136.754 394.82 136.949 395.489C138.347 400.27 139.931 405.689 131.749 409.367C130.013 410.147 128.43 410.768 127.034 411.316C121.322 413.557 117.874 414.911 113.982 423.126C113.228 424.717 112.563 426.225 111.92 427.682C108.851 434.639 106.529 439.898 100.188 439.898ZM133.103 376.126C131.853 376.809 130.807 377.904 129.595 379.173C126.567 382.344 122.799 386.29 113.252 386.335C108.498 386.357 105.836 386.978 104.619 388.344C103.288 389.839 103.579 392.43 103.981 396.015C104.132 397.369 104.304 398.903 104.409 400.571C105.055 410.828 99.1768 417.994 98.9268 418.294C95.5078 422.365 91.6358 430.469 93.2538 435.098C93.8828 436.898 95.3218 438.037 97.5308 438.483C105.238 440.041 107.365 435.219 110.89 427.23C111.536 425.766 112.204 424.251 112.964 422.647C117.048 414.027 120.857 412.533 126.624 410.27C128.008 409.726 129.576 409.111 131.288 408.341C138.576 405.066 137.261 400.569 135.869 395.808C135.669 395.126 135.471 394.448 135.299 393.776C134.422 390.349 136.152 388.584 138.342 386.349C139.917 384.741 141.702 382.92 143.114 379.969C143.854 378.422 144.464 376.321 143.17 375.094C141.466 373.479 137.138 373.923 133.103 376.126Z" fill="url(#paint1_linear_1457_3127)"/>
<path d="M97.4297 446.404L96.3047 446.344C96.3597 445.287 97.7797 420.367 107.785 413.074C118.763 405.073 122.223 396.474 123.871 390.703C125.813 383.902 135.699 382.084 136.119 382.01L136.315 383.119C136.219 383.137 126.703 384.89 124.955 391.012C123.261 396.944 119.707 405.78 108.449 413.986C98.8727 420.965 97.4427 446.15 97.4297 446.404Z" fill="url(#paint2_linear_1457_3127)"/>
<path d="M120.306 320.817C113.195 318.378 114.672 332.085 111.667 342.227C108.662 352.369 78.2367 346.651 91.0077 372.046C103.779 397.443 74.8567 380.539 83.4957 402.7C92.1347 424.862 84.2457 448.563 93.6367 442.534C103.028 436.506 98.9127 408.598 108.679 405.283C118.445 401.967 120.039 398.098 110.369 389.084C100.7 380.069 135.706 371.12 127.067 352.917C118.428 334.715 128.523 323.634 120.306 320.817Z" fill="url(#paint3_linear_1457_3127)"/>
<path d="M97.9957 441.474C97.1017 437.68 89.4637 404.293 96.5897 400.257C102.872 396.7 102.717 382.865 101.736 369.801C100.869 358.236 115.721 352.831 116.354 352.607L116.731 353.67C116.584 353.722 102.057 359.013 102.86 369.718C103.866 383.134 103.974 397.371 97.1447 401.239C91.7327 404.304 96.7147 431.136 99.0917 441.217L97.9957 441.474Z" fill="white"/>
<path d="M114.162 429.585L104.008 468.106H81.3171L71.1641 429.585H114.162Z" fill="url(#paint4_linear_1457_3127)"/>
<path d="M114.159 429.585C114.159 429.585 91.8062 433.782 91.8062 468.106H81.3142L71.1602 429.585H114.159Z" fill="url(#paint5_linear_1457_3127)"/>
<path d="M550.595 282.293H496.516V281.327H549.629V237.697H550.595V282.293Z" fill="#78C2FF"/>
<path d="M541.312 203.877H515.457V178.022H541.312V203.877ZM516.318 203.015H540.45V178.883H516.318V203.015Z" fill="#6AAFE8"/>
<path d="M605.665 187.503H546.484V181.183H605.665V187.503ZM547.347 186.641H604.804V182.044H547.347V186.641Z" fill="#6AAFE8"/>
<path d="M605.664 216.895H515.457V210.575H605.664V216.895ZM516.318 216.033H604.802V211.436H516.318V216.033Z" fill="#6AAFE8"/>
<path d="M572.914 229.033H515.457V222.713H572.914V229.033ZM516.318 228.172H572.052V223.575H516.318V228.172Z" fill="#6AAFE8"/>
<path d="M586.56 199.558H546.484V193.238H586.56V199.558ZM547.346 198.696H585.698V194.1H547.346V198.696Z" fill="#6AAFE8"/>
<path d="M615.935 242.777H505.188V164.276H615.935V242.777ZM506.048 241.916H615.073V165.139H506.048V241.916Z" fill="#6AAFE8"/>
<path d="M550.109 238.347C548.154 238.347 546.562 236.756 546.562 234.801C546.562 232.845 548.154 231.254 550.109 231.254C552.064 231.254 553.656 232.845 553.656 234.801C553.656 236.756 552.064 238.347 550.109 238.347ZM550.109 232.22C548.685 232.22 547.529 233.378 547.529 234.801C547.529 236.224 548.685 237.382 550.109 237.382C551.532 237.382 552.69 236.224 552.69 234.801C552.69 233.377 551.532 232.22 550.109 232.22Z" fill="#78C2FF"/>
<path d="M179.346 215.792H114.742L114.854 215.217C115.892 209.895 120.587 206.033 126.02 206.033C126.804 206.033 127.586 206.115 128.349 206.275C131.715 199.878 138.254 195.921 145.506 195.921C151.685 195.921 157.51 198.887 161.161 203.873C162.493 203.468 163.875 203.263 165.279 203.263C172.309 203.263 178.189 208.298 179.26 215.236L179.346 215.792ZM115.931 214.826H178.206C176.993 208.746 171.532 204.228 165.277 204.228C163.857 204.228 162.461 204.453 161.124 204.897L160.784 205.01L160.578 204.716C157.122 199.813 151.488 196.886 145.505 196.886C138.494 196.886 132.184 200.779 129.038 207.045L128.865 207.39L128.491 207.297C127.686 207.099 126.855 206.998 126.02 206.998C121.245 206.999 117.093 210.256 115.931 214.826Z" fill="#6AAFE8"/>
<path d="M434.09 424.91H333.834H233.579L219.238 478.508H333.834H448.431L434.09 424.91Z" fill="url(#paint6_linear_1457_3127)"/>
<path d="M235.159 439.146H248.279C248.827 439.146 249.241 439.572 249.138 440.032L247.868 445.739C247.789 446.092 247.429 446.346 247.008 446.346H233.664C233.104 446.346 232.688 445.904 232.81 445.437L234.305 439.73C234.395 439.388 234.75 439.146 235.159 439.146Z" fill="white"/>
<path d="M254.294 439.146H264.212L262.892 446.346H252.785L254.294 439.146Z" fill="white"/>
<path d="M269.169 439.146H279.087L278.049 446.346L267.941 446.356L269.169 439.146Z" fill="white"/>
<path d="M284.048 439.146H293.966L293.212 446.346H283.105L284.048 439.146Z" fill="white"/>
<path d="M298.926 439.146H308.845L308.373 446.346H298.266L298.926 439.146Z" fill="white"/>
<path d="M313.803 439.146H323.722L323.533 446.346L313.426 446.356L313.803 439.146Z" fill="white"/>
<path d="M432.853 439.146H417.977L419.579 446.346H434.739L432.853 439.146Z" fill="white"/>
<path d="M413.017 439.146H403.098L404.418 446.346H414.525L413.017 439.146Z" fill="white"/>
<path d="M398.14 439.146H388.223L389.26 446.346L399.367 446.356L398.14 439.146Z" fill="white"/>
<path d="M383.263 439.146H373.344L374.098 446.346H384.205L383.263 439.146Z" fill="white"/>
<path d="M368.387 439.146H358.469L358.941 446.346H369.046L368.387 439.146Z" fill="white"/>
<path d="M353.508 439.146H343.59L343.778 446.346L353.886 446.356L353.508 439.146Z" fill="white"/>
<path d="M328.68 439.146H338.598L338.763 446.346H328.68V439.146Z" fill="white"/>
<path d="M230.796 451.709H251.521L250.341 459.136H229.223L230.796 451.709Z" fill="white"/>
<path d="M436.091 451.709H410.473L411.932 459.136H438.036L436.091 451.709Z" fill="white"/>
<path d="M405.349 451.709H395.102L396.269 459.136H406.711L405.349 451.709Z" fill="white"/>
<path d="M389.979 451.709H379.73L380.606 459.136H391.048L389.979 451.709Z" fill="white"/>
<path d="M374.607 451.709H364.359L364.943 459.136H375.385L374.607 451.709Z" fill="white"/>
<path d="M359.235 451.709H348.988L349.28 459.136H359.722L359.235 451.709Z" fill="white"/>
<path d="M227.698 464.947H248.886L247.34 472.324H225.766L227.698 464.947Z" fill="white"/>
<path d="M254.183 464.947H264.777L263.522 472.324H252.734L254.183 464.947Z" fill="white"/>
<path d="M270.074 464.947H280.667H349.522L349.818 472.324H268.914L270.074 464.947Z" fill="white"/>
<path d="M354.828 464.947H365.422L366.002 472.324H355.215L354.828 464.947Z" fill="white"/>
<path d="M370.719 464.947H381.312L382.183 472.324H371.395L370.719 464.947Z" fill="white"/>
<path d="M386.609 464.947H397.203L398.362 472.324H387.576L386.609 464.947Z" fill="white"/>
<path d="M402.5 464.947H413.094L414.544 472.324H403.756L402.5 464.947Z" fill="white"/>
<path d="M418.391 464.947H439.578L441.511 472.324H419.935L418.391 464.947Z" fill="white"/>
<path d="M343.887 451.709H333.723V459.136H344.082L343.887 451.709Z" fill="white"/>
<path d="M328.516 451.709H318.269L317.977 459.136H328.419L328.516 451.709Z" fill="white"/>
<path d="M313.143 451.709H302.896L302.312 459.136H312.754L313.143 451.709Z" fill="white"/>
<path d="M297.771 451.709H287.524L286.648 459.136H297.09L297.771 451.709Z" fill="white"/>
<path d="M282.402 451.709H272.155L270.988 459.136H281.43L282.402 451.709Z" fill="white"/>
<path d="M267.031 451.709H256.783L255.324 459.136H265.766L267.031 451.709Z" fill="white"/>
<path d="M235.641 434.62L237.325 428.192H242.141L240.569 434.62H235.641Z" fill="white"/>
<path d="M246.957 428.192H256.587L255.241 434.62H245.441L246.957 428.192Z" fill="white"/>
<path d="M261.404 428.192H271.036L269.941 434.62H260.141L261.404 428.192Z" fill="white"/>
<path d="M275.85 428.192H285.481L284.64 434.62H274.84L275.85 428.192Z" fill="white"/>
<path d="M290.297 428.192H299.929L299.339 434.62H289.539L290.297 428.192Z" fill="white"/>
<path d="M304.747 428.192H314.378L314.041 434.62H304.242L304.747 428.192Z" fill="white"/>
<path d="M319.192 428.192H328.824L328.74 434.62H318.941L319.192 428.192Z" fill="white"/>
<path d="M333.641 428.192H343.272L343.441 434.62H333.641V428.192Z" fill="white"/>
<path d="M348.086 428.192H357.719L358.139 434.62H348.34L348.086 428.192Z" fill="white"/>
<path d="M362.531 428.192H372.163L372.837 434.62H363.037L362.531 428.192Z" fill="white"/>
<path d="M376.98 428.192H386.611L387.537 434.62H377.739L376.98 428.192Z" fill="white"/>
<path d="M391.426 428.192H401.057L402.235 434.62H392.435L391.426 428.192Z" fill="white"/>
<path d="M405.875 428.192H415.507L416.937 434.62H407.139L405.875 428.192Z" fill="white"/>
<path d="M420.32 428.192H429.951L431.636 434.62H421.835L420.32 428.192Z" fill="white"/>
<path d="M448.431 478.508H219.238V481.671H448.431V478.508Z" fill="url(#paint7_linear_1457_3127)"/>
<path d="M318.75 407.198H350.293V311.392H318.75V407.198Z" fill="#518AFA"/>
<path d="M207.923 357.543H461.12C466.414 357.543 470.707 353.251 470.707 347.956V174.987C470.707 169.692 466.414 165.4 461.12 165.4H207.923C202.628 165.4 198.336 169.692 198.336 174.987V347.956C198.336 353.251 202.628 357.543 207.923 357.543Z" fill="url(#paint8_linear_1457_3127)"/>
<path d="M207.965 322.619H460.597V174.812H207.965V322.619Z" fill="url(#paint9_linear_1457_3127)"/>
<path d="M325.734 341.21C325.734 346.063 329.667 349.997 334.52 349.997C339.372 349.997 343.306 346.062 343.306 341.21C343.306 336.358 339.372 332.425 334.52 332.425C329.667 332.425 325.734 336.358 325.734 341.21Z" fill="#696969"/>
<path d="M405.471 403.582H263.566V410.815H405.471V403.582Z" fill="url(#paint10_linear_1457_3127)"/>
<path d="M417.978 101.211L417.758 101.098C394.832 89.3939 397.911 66.7249 397.945 66.4969L398.007 66.0839H398.423C412.999 66.0839 417.58 61.3859 417.625 61.3389L417.98 60.9609L418.333 61.3399C418.376 61.3859 422.958 66.0839 437.533 66.0839H437.95L438.012 66.4969C438.046 66.7249 441.124 89.3929 418.198 101.098L417.978 101.211ZM398.854 67.0489C398.565 70.1199 397.599 89.5789 417.978 100.126C438.357 89.5799 437.391 70.1199 437.102 67.0489C424.445 66.9699 419.295 63.4449 417.978 62.3259C416.661 63.4449 411.511 66.9699 398.854 67.0489Z" fill="#6AAFE8"/>
<path d="M250.778 186.128H222.484V189.026H250.778V186.128Z" fill="#E0E0E0"/>
<path d="M279.128 207.943H258.699V210.84H279.128V207.943Z" fill="#E0E0E0"/>
<path d="M295.865 207.943H282.309V210.84H295.865V207.943Z" fill="#1487E3"/>
<path d="M323.56 295.523H310.004V298.421H323.56V295.523Z" fill="#1487E3"/>
<path d="M236.361 262.802H222.805V265.698H236.361V262.802Z" fill="#1487E3"/>
<path d="M331.273 207.943H298.543V210.84H331.273V207.943Z" fill="#E0E0E0"/>
<path d="M243.837 251.815H222.805V254.71H243.837V251.815Z" fill="#E0E0E0"/>
<path d="M300.348 273.709H279.316V276.606H300.348V273.709Z" fill="#E0E0E0"/>
<path d="M378.911 295.523H357.879V298.421H378.911V295.523Z" fill="#E0E0E0"/>
<path d="M264.964 273.709H252.125V276.606H264.964V273.709Z" fill="#E0E0E0"/>
<path d="M248.243 273.709H222.805V276.606H248.243V273.709Z" fill="#1487E3"/>
<path d="M236.835 284.616H222.805V287.514H236.835V284.616Z" fill="#E0E0E0"/>
<path d="M276.371 186.128H256.285V189.026H276.371V186.128Z" fill="#78C2FF"/>
<path d="M276.371 218.85H256.285V221.748H276.371V218.85Z" fill="#1487E3"/>
<path d="M254.824 229.758H246.242V232.655H254.824V229.758Z" fill="#E0E0E0"/>
<path d="M256.936 240.826H237.66V243.723H256.936V240.826Z" fill="#78C2FF"/>
<path d="M286.46 240.826H259.848V243.723H286.46V240.826Z" fill="#1487E3"/>
<path d="M370.736 284.616H344.125V287.514H370.736V284.616Z" fill="#1487E3"/>
<path d="M242.891 229.838H222.805V232.735H242.891V229.838Z" fill="#1487E3"/>
<path d="M234.723 240.826H222.805V243.723H234.723V240.826Z" fill="#1487E3"/>
<path d="M270.111 229.838H258.867V232.735H270.111V229.838Z" fill="#FF8761"/>
<path d="M234.385 295.523H223.141V298.421H234.385V295.523Z" fill="#FF8761"/>
<path d="M242.813 207.943H222.727V210.84H242.813V207.943Z" fill="#78C2FF"/>
<path d="M260.574 262.802H240.488V265.698H260.574V262.802Z" fill="#78C2FF"/>
<path d="M260.82 284.616H240.734V287.514H260.82V284.616Z" fill="#78C2FF"/>
<path d="M296.504 284.616H276.418V287.514H296.504V284.616Z" fill="#78C2FF"/>
<path d="M251.36 218.85H222.727V221.748H251.36V218.85Z" fill="#78C2FF"/>
<path d="M376.984 186.128H356.898V189.026H376.984V186.128Z" fill="#78C2FF"/>
<path d="M305.43 295.523H285.344V298.421H305.43V295.523Z" fill="#78C2FF"/>
<path d="M396.679 186.128H383.234V189.026H396.679V186.128Z" fill="#78C2FF"/>
<path d="M442.168 197.036H428.723V199.932H442.168V197.036Z" fill="#78C2FF"/>
<path d="M307.367 186.128H281.777V189.026H307.367V186.128Z" fill="#1487E3"/>
<path d="M408.825 295.523H383.234V298.421H408.825V295.523Z" fill="#1487E3"/>
<path d="M264.223 295.523H238.633V298.421H264.223V295.523Z" fill="#1487E3"/>
<path d="M407.074 197.036H381.484V199.932H407.074V197.036Z" fill="#1487E3"/>
<path d="M375.693 207.943H350.102V210.84H375.693V207.943Z" fill="#1487E3"/>
<path d="M353.453 295.523H327.863V298.421H353.453V295.523Z" fill="#1487E3"/>
<path d="M349.517 273.709H323.926V276.606H349.517V273.709Z" fill="#1487E3"/>
<path d="M274.496 273.709H268.98V276.606H274.496V273.709Z" fill="#FF8761"/>
<path d="M409.975 215.98L382.926 213.319L382.642 216.202L409.692 218.863L409.975 215.98Z" fill="#78C2FF"/>
<path d="M351.883 186.128H326.293V189.026H351.883V186.128Z" fill="#FF8761"/>
<path d="M330.076 232.25L290.441 214.577L291.625 211.933L331.259 229.606L330.076 232.25Z" fill="#1487E3"/>
<path d="M300.349 262.963H285.344V265.859H300.349V262.963Z" fill="#FF8761"/>
<path d="M321.465 186.128H312.098V189.026H321.465V186.128Z" fill="#E0E0E0"/>
<path d="M291.144 218.85H281.777V221.748H291.144V218.85Z" fill="#E0E0E0"/>
<path d="M422.613 197.036H413.246V199.932H422.613V197.036Z" fill="#E0E0E0"/>
<path d="M237.138 197.036H222.484V199.932H237.138V197.036Z" fill="#1487E3"/>
<path d="M273.156 251.896H261.586V254.792H273.156V251.896Z" fill="#1487E3"/>
<path d="M245.466 197.036H240.734V199.932H245.466V197.036Z" fill="#1487E3"/>
<path d="M376.985 197.036H337.875V199.932H376.985V197.036Z" fill="#E0E0E0"/>
<path d="M339.461 284.616H300.352V287.514H339.461V284.616Z" fill="#E0E0E0"/>
<path d="M253.77 197.036H248.941V199.932H253.77V197.036Z" fill="#FF8761"/>
<path d="M334.261 197.036H321.465V199.932H334.261V197.036Z" fill="#1487E3"/>
<path d="M347.057 207.943H334.262V210.84H347.057V207.943Z" fill="#FF8761"/>
<path d="M318.498 273.709H305.703V276.606H318.498V273.709Z" fill="#FF8761"/>
<path d="M281.26 295.523H268.465V298.421H281.26V295.523Z" fill="#FF8761"/>
<path d="M318.08 197.036H290.855V199.932H318.08V197.036Z" fill="#1487E3"/>
<path d="M381.424 273.709H354.199V276.606H381.424V273.709Z" fill="#1487E3"/>
<path d="M281.418 262.963H265.512V265.859H281.418V262.963Z" fill="#1487E3"/>
<path d="M272.445 284.616H264.492V287.514H272.445V284.616Z" fill="#1487E3"/>
<path d="M286.992 197.036H277.625V199.932H286.992V197.036Z" fill="#78C2FF"/>
<path d="M383.593 284.616H374.227V287.514H383.593V284.616Z" fill="#FF8761"/>
<path d="M255.461 207.943H246.094V210.84H255.461V207.943Z" fill="#FF8761"/>
<path d="M257.328 251.896H247.961V254.792H257.328V251.896Z" fill="#FF8761"/>
<path d="M274.05 197.036H257.73V199.932H274.05V197.036Z" fill="#1487E3"/>
<path d="M222.483 263.594H151.398V211.363H152.363V262.629H222.483V263.594Z" fill="#78C2FF"/>
<path d="M366.485 209.391H365.52V140.261H417.495V94.9668H418.461V141.227H366.485V209.391Z" fill="#78C2FF"/>
<path d="M218.9 306.826C218.896 306.824 218.893 306.823 218.887 306.824C218.939 306.848 218.946 306.85 218.9 306.826Z" fill="#323657"/>
<path d="M449.934 113.168H441.648V112.203H448.969V104.889H449.934V113.168Z" fill="#6AAFE8"/>
<path d="M394.216 113.168H385.93V104.889H386.895V112.203H394.216V113.168Z" fill="#6AAFE8"/>
<path d="M386.896 57.452H385.93V49.165H394.21V50.131H386.896V57.452Z" fill="#6AAFE8"/>
<path d="M449.934 57.4479H448.969V50.1349H441.648V49.1689H449.934V57.4479Z" fill="#6AAFE8"/>
<path d="M449.934 69.8223H448.969V92.5153H449.934V69.8223Z" fill="#6AAFE8"/>
<path d="M386.895 69.8223H385.93V92.5153H386.895V69.8223Z" fill="#6AAFE8"/>
<path d="M151.882 211.846C149.926 211.846 148.336 210.255 148.336 208.3C148.336 206.345 149.927 204.753 151.882 204.753C153.838 204.753 155.428 206.345 155.428 208.3C155.428 210.255 153.837 211.846 151.882 211.846ZM151.882 205.719C150.459 205.719 149.301 206.877 149.301 208.3C149.301 209.723 150.459 210.881 151.882 210.881C153.305 210.881 154.463 209.724 154.463 208.3C154.462 206.877 153.305 205.719 151.882 205.719Z" fill="#78C2FF"/>
<path d="M417.977 95.4504C416.021 95.4504 414.43 93.8594 414.43 91.9044C414.43 89.9484 416.021 88.3574 417.977 88.3574C419.932 88.3574 421.523 89.9484 421.523 91.9044C421.522 93.8584 419.932 95.4504 417.977 95.4504ZM417.977 89.3234C416.553 89.3234 415.396 90.4804 415.396 91.9044C415.396 93.3274 416.553 94.4854 417.977 94.4854C419.4 94.4854 420.557 93.3274 420.557 91.9044C420.557 90.4804 419.399 89.3234 417.977 89.3234Z" fill="#78C2FF"/>
<path d="M176.776 78.304H152.43V53.959H176.776V78.304ZM153.397 77.338H175.811V54.925H153.397V77.338Z" fill="#A1D4FF"/>
<path d="M165.087 60.5947H164.121V71.9417H165.087V60.5947Z" fill="#A1D4FF"/>
<path d="M170.277 65.7852H158.93V66.7512H170.277V65.7852Z" fill="#A1D4FF"/>
<path d="M547.763 107.671H512.965V82.8301H547.763V107.671ZM513.931 106.705H546.797V83.7951H513.931V106.705Z" fill="#A1D4FF"/>
<path d="M530.364 97.8764L513.141 83.6854L513.755 82.9404L530.364 96.6254L546.974 82.9404L547.587 83.6854L530.364 97.8764Z" fill="#A1D4FF"/>
<path d="M535.127 93.6789L534.426 94.3438L546.916 107.511L547.617 106.846L535.127 93.6789Z" fill="#A1D4FF"/>
<path d="M525.597 93.709L513.113 106.881L513.814 107.545L526.298 94.3735L525.597 93.709Z" fill="#A1D4FF"/>
<path d="M122.152 280.781L121.79 279.835C121.465 279.792 121.147 279.719 120.837 279.616L120.098 280.309L117.954 278.784L118.367 277.858C118.169 277.6 117.995 277.323 117.849 277.03L116.836 276.998L116.398 274.402L117.345 274.041C117.387 273.717 117.46 273.398 117.563 273.089L116.87 272.35L118.396 270.207L119.32 270.62C119.579 270.421 119.856 270.248 120.148 270.102L120.181 269.089L122.776 268.651L123.138 269.597C123.463 269.64 123.782 269.712 124.091 269.815L124.829 269.123L126.973 270.648L126.56 271.573C126.758 271.832 126.932 272.109 127.079 272.402L128.091 272.433L128.529 275.028L127.582 275.391C127.539 275.715 127.466 276.034 127.363 276.343L128.056 277.081L126.531 279.226L125.606 278.813C125.348 279.012 125.07 279.185 124.778 279.332L124.745 280.345L122.152 280.781ZM120.668 278.781L120.88 278.862C121.264 279.01 121.668 279.102 122.081 279.137L122.307 279.157L122.617 279.968L124.042 279.727L124.07 278.86L124.278 278.767C124.656 278.599 125.007 278.378 125.321 278.114L125.494 277.968L126.287 278.322L127.125 277.143L126.531 276.51L126.612 276.298C126.759 275.914 126.852 275.51 126.887 275.099L126.907 274.872L127.718 274.562L127.478 273.137L126.609 273.11L126.517 272.903C126.348 272.525 126.128 272.173 125.864 271.859L125.718 271.685L126.071 270.892L124.893 270.055L124.261 270.649L124.049 270.567C123.664 270.42 123.261 270.328 122.849 270.292L122.623 270.271L122.312 269.461L120.886 269.701L120.858 270.568L120.651 270.662C120.273 270.83 119.922 271.05 119.608 271.314L119.434 271.461L118.641 271.107L117.803 272.285L118.397 272.918L118.316 273.129C118.169 273.514 118.076 273.917 118.041 274.329L118.021 274.554L117.209 274.866L117.449 276.292L118.317 276.318L118.41 276.525C118.578 276.904 118.798 277.255 119.063 277.569L119.209 277.742L118.855 278.535L120.033 279.373L120.668 278.781ZM122.459 277.578C121.87 277.578 121.295 277.394 120.806 277.047C119.52 276.133 119.219 274.342 120.134 273.057C121.048 271.772 122.839 271.47 124.124 272.385C125.41 273.299 125.711 275.09 124.797 276.375C124.354 276.997 123.694 277.41 122.941 277.537C122.779 277.565 122.618 277.578 122.459 277.578ZM122.467 272.579C121.798 272.579 121.139 272.892 120.723 273.477C120.392 273.942 120.262 274.508 120.357 275.071C120.452 275.634 120.76 276.127 121.225 276.458C121.69 276.788 122.258 276.919 122.82 276.824C123.383 276.728 123.876 276.421 124.206 275.956C124.89 274.995 124.664 273.659 123.704 272.976C123.329 272.707 122.896 272.579 122.467 272.579Z" fill="#A1D4FF"/>
<path d="M102.052 283.809L101.243 281.697C100.376 281.599 99.5252 281.405 98.7052 281.115L97.0582 282.662L92.5822 279.478L93.5042 277.413C92.9632 276.734 92.4992 275.994 92.1232 275.207L89.8622 275.136L88.9492 269.718L91.0612 268.91C91.1582 268.043 91.3542 267.192 91.6432 266.373L90.0962 264.725L93.2812 260.249L95.3452 261.171C96.0242 260.629 96.7642 260.166 97.5522 259.79L97.6242 257.529L103.041 256.616L103.849 258.728C104.716 258.826 105.567 259.02 106.386 259.31L108.034 257.763L112.51 260.948L111.589 263.012C112.131 263.691 112.593 264.432 112.97 265.218L115.23 265.29L116.143 270.707L114.031 271.515C113.933 272.383 113.739 273.233 113.45 274.053L114.997 275.701L111.812 280.177L109.748 279.255C109.069 279.797 108.329 280.26 107.542 280.637L107.47 282.897L102.052 283.809ZM98.4832 280L98.7652 280.107C99.6822 280.459 100.645 280.679 101.628 280.763L101.93 280.789L102.67 282.724L106.527 282.074L106.592 280.004L106.869 279.881C107.77 279.479 108.608 278.955 109.359 278.323L109.59 278.128L111.48 278.973L113.748 275.784L112.332 274.275L112.44 273.993C112.791 273.077 113.012 272.113 113.096 271.129L113.121 270.828L115.056 270.088L114.406 266.231L112.336 266.166L112.213 265.889C111.811 264.988 111.287 264.15 110.655 263.399L110.46 263.167L111.304 261.277L108.116 259.008L106.607 260.424L106.325 260.317C105.408 259.965 104.445 259.745 103.461 259.661L103.159 259.635L102.419 257.7L98.5622 258.35L98.4962 260.42L98.2202 260.543C97.3182 260.945 96.4802 261.469 95.7292 262.102L95.4982 262.296L93.6082 261.452L91.3402 264.64L92.7572 266.149L92.6492 266.432C92.2972 267.348 92.0772 268.312 91.9932 269.295L91.9672 269.596L90.0322 270.336L90.6822 274.194L92.7532 274.26L92.8762 274.536C93.2782 275.437 93.8032 276.276 94.4352 277.027L94.6302 277.257L93.7862 279.147L96.9742 281.415L98.4832 280ZM102.538 276.458C101.285 276.458 100.02 276.083 98.9242 275.302C97.5642 274.335 96.6632 272.896 96.3852 271.25C96.1082 269.604 96.4882 267.949 97.4562 266.59C99.4542 263.783 103.362 263.123 106.169 265.122C108.976 267.119 109.635 271.027 107.637 273.835C106.419 275.545 104.493 276.458 102.538 276.458ZM102.557 264.929C102.262 264.929 101.965 264.953 101.668 265.003C100.276 265.237 99.0602 266 98.2422 267.15C97.4242 268.299 97.1032 269.699 97.3372 271.09C97.5712 272.481 98.3342 273.698 99.4832 274.516C101.856 276.204 105.161 275.648 106.849 273.275C107.667 272.126 107.989 270.727 107.754 269.336C107.52 267.944 106.757 266.728 105.608 265.909C104.705 265.265 103.645 264.929 102.557 264.929Z" fill="#A1D4FF"/>
<path d="M308.689 125.205C298.755 125.205 290.672 117.123 290.672 107.188H291.638C291.638 116.59 299.287 124.239 308.689 124.239C318.091 124.239 325.74 116.59 325.74 107.188C325.74 97.7859 318.091 90.1379 308.689 90.1379V89.1719C318.623 89.1719 326.706 97.2549 326.706 107.189C326.706 117.123 318.623 125.205 308.689 125.205ZM308.689 122.7C300.136 122.7 293.177 115.741 293.177 107.188C293.177 98.6349 300.136 91.6759 308.689 91.6759C317.242 91.6759 324.201 98.6349 324.201 107.188H323.235C323.235 99.1679 316.71 92.6419 308.689 92.6419C300.668 92.6419 294.143 99.1669 294.143 107.188C294.143 115.209 300.668 121.734 308.689 121.734V122.7Z" fill="#78C2FF"/>
<path d="M306.482 113.158L299.984 106.66L300.667 105.977L306.482 111.792L316.712 101.562L317.395 102.245L306.482 113.158Z" fill="#78C2FF"/>
<path d="M457.613 357.175C457.613 357.175 458.493 360.631 458.613 361.152C458.733 361.673 464.152 360.24 464.152 360.24L464.147 356.012C464.147 356.012 458.25 356.605 457.613 357.175Z" fill="#5C544D"/>
<path d="M458.507 360.711C458.507 360.711 456.99 363.015 455.402 364.119C453.814 365.223 447.683 366.651 446.788 367.714C446.142 368.481 445.243 371.383 455.081 370.058C462.069 369.117 465.518 369.354 466.146 368.136C466.774 366.918 464.153 359.862 464.153 359.862C464.153 359.862 462.657 360.675 458.507 360.711Z" fill="#3C4145"/>
<path d="M456.467 455.536L436.832 255.468L439.307 255.229L458.942 455.296L456.467 455.536Z" fill="#F0C141"/>
<path d="M479.338 251.324L476.863 251.567L496.504 451.63L498.979 451.387L479.338 251.324Z" fill="#F0C141"/>
<path d="M478.413 254.852L438.383 258.737L438.623 261.212L478.653 257.326L478.413 254.852Z" fill="#F0C141"/>
<path d="M480.249 273.483L440.215 277.348L440.454 279.823L480.488 275.958L480.249 273.483Z" fill="#F0C141"/>
<path d="M482.053 292.032L442.023 295.921L442.264 298.396L482.294 294.507L482.053 292.032Z" fill="#F0C141"/>
<path d="M483.87 310.703L443.836 314.572L444.075 317.047L484.109 313.178L483.87 310.703Z" fill="#F0C141"/>
<path d="M485.674 329.275L445.645 333.176L445.886 335.651L485.915 331.75L485.674 329.275Z" fill="#F0C141"/>
<path d="M487.451 347.904L447.422 351.789L447.662 354.264L487.691 350.379L487.451 347.904Z" fill="#F0C141"/>
<path d="M489.256 366.518L449.227 370.403L449.467 372.878L489.496 368.993L489.256 366.518Z" fill="#F0C141"/>
<path d="M491.076 385.114L451.047 388.999L451.287 391.474L491.316 387.589L491.076 385.114Z" fill="#F0C141"/>
<path d="M492.87 403.746L452.84 407.631L453.08 410.105L493.11 406.22L492.87 403.746Z" fill="#F0C141"/>
<path d="M494.693 422.365L454.664 426.267L454.905 428.741L494.934 424.84L494.693 422.365Z" fill="#F0C141"/>
<path d="M496.495 440.954L456.465 444.839L456.705 447.314L496.735 443.429L496.495 440.954Z" fill="#F0C141"/>
<path d="M450.93 284.41C450.93 284.41 446.987 299.052 445.947 304.287C445.042 308.848 443.219 320.993 442.961 323.881C442.702 326.769 454.601 354.721 455.839 359.77L466.68 358.03C466.68 358.03 455.243 328.937 458.226 322.473C462.663 312.858 463.242 313.148 466.737 305.228C470.232 297.307 478.236 297.12 480.384 282.424C480.384 282.424 453.839 279.75 450.93 284.41Z" fill="#3C4145"/>
<path d="M470.207 213.268C470.207 213.268 463.009 210.58 459.689 216.059C456.371 221.539 456.69 232.509 460.319 233.857C463.947 235.206 469.398 234.501 471.256 231.072C473.114 227.644 474.79 222.687 474.71 219.374C474.629 216.062 472.098 214.225 470.207 213.268Z" fill="#EEA886"/>
<path d="M461.527 233.521C461.527 233.521 461.818 235.409 461.338 236.338C460.857 237.267 470.392 237.292 470.392 237.292C470.392 237.292 471.166 232.236 472.634 227.964C474.101 223.692 461.527 233.521 461.527 233.521Z" fill="#EEA886"/>
<path d="M472.634 227.964C472.634 227.964 471.976 229.049 469.289 228.629C466.602 228.207 463.325 224.634 462.204 224.241C461.083 223.848 461.072 223.19 461.072 223.19L460.369 224.216L459.179 224.291C459.179 224.291 460.265 221.094 458.626 219.791C456.986 218.487 460.327 209.443 468.942 212.454C468.942 212.454 475.558 214.278 475.318 218.041C475.077 221.803 474.114 226.089 472.634 227.964Z" fill="#3A3F47"/>
<path d="M461.25 221.821C461.4 221.19 463.006 219.386 463.62 221.317C464.235 223.248 462.691 225.846 461.831 225.624C460.971 225.401 460.868 223.421 461.25 221.821Z" fill="#EEA886"/>
<path d="M488.705 261.044C488.626 261.988 487.548 263.01 486.813 263.515C486.341 263.838 485.777 264.034 485.171 264.054L484.743 264.069L477.262 264.324C477.262 264.324 471.701 246.35 482.133 239.496C482.456 239.527 489.43 252.381 488.705 261.044Z" fill="#518AFA"/>
<path d="M466.147 368.136C465.518 369.355 462.07 369.118 455.081 370.057C453.171 370.315 451.666 370.414 450.485 370.397L450.078 366.193C452.122 365.482 454.499 364.749 455.403 364.12C456.992 363.016 458.508 360.712 458.508 360.712C462.658 360.677 464.154 359.862 464.154 359.862C464.154 359.862 466.775 366.918 466.147 368.136Z" fill="#3C4145"/>
<path d="M461.523 235.79C461.523 235.79 467.392 234.424 470.701 235.541L471.201 236.003C471.201 236.003 472.206 237.931 468.422 238.097C464.636 238.262 458.685 238.538 461.523 235.79Z" fill="#FFD255"/>
<path d="M484.461 373.338C484.461 373.338 485.341 376.793 485.461 377.315C485.581 377.835 490.999 376.402 490.999 376.402L490.994 372.174C490.994 372.174 485.098 372.769 484.461 373.338Z" fill="#5C544D"/>
<path d="M480.384 282.424C480.384 282.424 482.36 290.574 482.945 298.733C483.486 306.274 484.47 314.544 485.252 322.431C486.124 331.222 488.612 345.435 488.742 350.137C488.872 354.84 492.83 375.394 492.83 375.394L482.705 376.557C482.705 376.557 476.126 340.236 474.572 336.523C473.018 332.811 465.313 306.342 465.054 303.372C464.794 300.401 480.384 282.424 480.384 282.424Z" fill="#3C4145"/>
<path d="M485.356 376.873C485.356 376.873 483.838 379.176 482.251 380.28C480.662 381.384 474.531 382.813 473.636 383.875C472.99 384.642 472.091 387.544 481.929 386.219C488.917 385.278 492.367 385.516 492.994 384.297C493.622 383.079 491.001 376.022 491.001 376.022C491.001 376.022 489.506 376.836 485.356 376.873Z" fill="#3C4145"/>
<path d="M448.881 302.699C448.019 302.576 451.022 276.868 450.792 275.256C450.639 274.181 450.663 265.826 450.726 260.618L449.787 255.347C449.264 254.966 448.562 254.526 447.724 254.042C446.418 253.288 444.781 252.427 442.961 251.518C443.172 250.273 443.319 249.293 443.376 248.72C443.83 244.09 446.939 241.636 448.702 240.604C449.422 240.183 449.917 239.998 449.917 239.998C450.587 239.713 451.245 239.439 451.883 239.176C456.13 237.428 461.523 235.789 461.523 235.789H470.187C470.187 235.789 476.783 237.107 480.714 238.715C481.218 238.922 481.69 239.185 482.134 239.494L480.956 264.195C480.955 264.201 480.955 264.206 480.954 264.212C480.953 264.22 480.951 264.23 480.949 264.243C480.419 267.72 479.861 271.819 479.675 274.692C479.599 275.866 480.941 282.167 481.642 287.952L484.092 301.794C484.092 301.794 482.675 307.531 448.881 302.699Z" fill="#518AFA"/>
<path d="M404.647 222.586C404.647 222.586 405.159 223.22 405.517 223.388C405.517 223.388 406.194 223.643 406.663 223.854C406.811 223.921 406.939 223.983 407.018 224.032C407.347 224.235 408.007 224.78 408.934 225.046C409.859 225.313 414.045 226.266 414.045 226.266L415.018 223.783L415.716 221.777C415.716 221.777 411.842 216.757 411.008 216.41C410.926 216.376 410.844 216.346 410.765 216.324C410.031 216.098 409.389 216.238 408.99 216.163C408.843 216.136 407.368 215.971 407.049 216.278C406.605 216.705 406.471 217.181 406.547 217.596C406.547 217.596 405.715 218.471 405.655 219.282C405.655 219.282 404.86 220.064 405.073 221.094C405.073 221.094 404.358 221.977 404.647 222.586Z" fill="#EEA886"/>
<path d="M449.508 255.15C448.541 254.527 447.289 253.684 442.96 251.518C434.899 247.485 424.947 240.174 423.055 239.118C420.146 237.494 410.953 226.264 410.953 226.264C411.428 224.573 415.785 221.178 415.785 221.178C415.785 221.178 429.72 234.376 432.765 236.001C435.383 237.397 448.318 238.809 451.881 239.175C452.46 239.234 452.791 239.267 452.791 239.267C456.514 244.344 451.585 256.488 449.508 255.15Z" fill="#518AFA"/>
<path d="M186.111 159.36C186.111 159.36 183.639 154.822 182.233 153.189C180.826 151.556 176.154 150.331 176.789 148.245C177.424 146.158 183.684 147.065 185.408 149.107C187.132 151.149 192.394 151.874 192.576 152.735C192.758 153.597 190.749 158.315 189.621 159.086C188.493 159.858 186.111 159.36 186.111 159.36Z" fill="#6A75BA"/>
<path d="M175.604 163.204C175.604 163.204 171.577 160.011 169.638 159.07C167.699 158.13 162.924 158.861 162.679 156.694C162.433 154.527 168.539 152.873 170.931 154.062C173.324 155.252 178.441 153.828 178.951 154.547C179.46 155.266 179.49 160.393 178.761 161.549C178.031 162.704 175.604 163.204 175.604 163.204Z" fill="#545D94"/>
<path d="M184.546 171.516C184.546 171.516 186.304 159.494 186.224 157.408C186.202 156.812 189.842 157.034 189.672 158.179C189.301 160.673 190.982 170.336 190.69 172.105C190.398 173.875 184.396 172.63 184.546 171.516Z" fill="#EEA886"/>
<path d="M179.04 174.971C179.04 174.971 175.746 163.298 174.978 161.357C174.636 160.493 177.993 159.155 178.448 160.696C179.162 163.114 184.478 171.334 184.912 173.073C185.347 174.813 179.344 176.053 179.04 174.971Z" fill="#EEA886"/>
<path d="M181.325 183.084C181.325 183.084 177.787 171.154 177.242 169.883L182.822 166.435C182.822 166.435 185.407 174.056 185.771 175.961C186.134 177.866 181.325 183.084 181.325 183.084Z" fill="#207CD6"/>
<path d="M280.093 151.562C280.093 151.562 274.705 152.924 272.141 156.999C269.577 161.074 267.362 165.767 262.545 167.896C257.728 170.025 257.697 175.511 258.072 176.357C258.447 177.204 273.245 193.838 276.474 194.481C279.703 195.123 285.748 194.676 285.101 190.402C284.454 186.127 278.119 176.933 281.675 172.295C285.231 167.656 286.128 163.383 286.128 163.383L280.093 151.562Z" fill="#2E334D"/>
<path d="M279.153 171.456C279.153 171.456 278.995 171.404 278.732 171.379C278.426 171.351 277.979 171.359 277.471 171.53C277.345 171.572 277.176 171.658 276.978 171.775C275.698 172.53 272.668 174.578 272.258 174.627C271.785 174.683 272.185 167.616 272.185 167.616C272.185 167.616 273.798 164.761 274.001 162.883C274.204 161.004 279.153 171.456 279.153 171.456Z" fill="#EEA886"/>
<path d="M241.25 178.842C241.25 178.842 235.33 174.692 228.39 175.985C221.45 177.277 220.701 180.522 218.319 180.669C215.938 180.816 207.977 180.136 201.445 182.041C194.913 183.946 189.401 184.15 188.653 183.606C187.905 183.062 192.735 172.174 192.735 170.678L184.638 168.569C184.638 168.569 182.324 178.231 181.417 180.409C180.447 182.738 178.582 187.122 181.236 190.933C183.89 194.744 191.306 193.026 195.797 193.794C200.288 194.562 220.389 194.069 223.9 193.881C227.71 193.677 239.21 193.132 239.21 193.132L241.25 178.842Z" fill="#207CD6"/>
<path d="M289.871 157.329C289.871 157.329 290.249 163.177 288.95 164.931C288.43 165.633 288.078 166.015 287.842 166.22C287.509 166.51 287.251 166.876 287.102 167.292C286.701 168.417 286.454 169.999 286.134 170.338C285.786 170.706 284.776 169.769 284.41 169.767C284.045 169.765 280.482 172.84 279.631 172.21C278.779 171.581 273.582 166.307 274.018 162.691C274.455 159.076 276.05 153.677 281.901 153.711C287.753 153.744 289.424 155.874 289.871 157.329Z" fill="#EEA886"/>
<path d="M272.189 185.238C272.076 185.478 269.925 188.913 267.567 190.907C266.589 191.735 265.576 192.314 264.658 192.314C264.378 192.314 264.104 192.318 263.839 192.325C261.134 192.398 259.056 192.812 255.405 192.994C251.611 193.183 242.409 192.654 242.136 192.654C241.863 192.654 239.21 193.131 239.21 193.131C238.257 191.974 240.774 178.909 241.251 178.841C241.727 178.773 244.789 179.93 247.715 179.453C250.641 178.977 251.797 178.705 256.152 173.601C260.507 168.498 264.862 167.205 266.699 167.613C268.536 168.022 272.189 167.613 272.189 167.613C272.189 167.613 272.347 184.898 272.189 185.238Z" fill="#FFC955"/>
<path d="M287.415 161.516C287.415 161.516 288.505 164.342 289.083 164.731C289.083 164.731 291.187 162.505 289.836 157.013C288.484 151.521 283.386 151.004 280.095 151.562C275.998 152.256 271.873 166.119 272.086 167.469C272.298 168.819 276.889 160.304 280.911 160.99C284.932 161.675 284.964 161.899 287.415 161.516Z" fill="#2E334D"/>
<path d="M278.732 171.379C278.426 171.351 277.979 171.359 277.471 171.53C277.345 171.572 277.176 171.658 276.978 171.775C276.037 170.308 275.165 166.829 275.137 166.711C275.765 168.616 278.732 171.379 278.732 171.379Z" fill="#A77860"/>
<path d="M267.568 190.908C266.59 191.736 265.577 192.315 264.659 192.315C264.379 192.315 264.105 192.319 263.84 192.326L264.954 181.496L267.568 190.908Z" fill="#C29941"/>
<path d="M288.739 209.557L286.127 211.933C283.874 210.726 278.227 206.662 277.141 205.736C276.001 204.765 268.404 198.411 267.361 196.963C266.308 195.515 264.976 180.546 265.111 179.861C265.246 179.184 271.715 178.837 272.449 180.421C272.449 180.421 272.787 188.958 272.961 190.387C273.125 191.816 273.673 193.107 274.653 194.309C276.009 195.973 278.898 199.837 281.694 202.96C282.362 203.705 287.877 208.815 288.739 209.557Z" fill="#EEA886"/>
<path d="M272.983 180.611C272.983 180.611 273.391 169.243 269.694 169.384C265.019 169.562 264.319 175.281 264.953 181.496C264.953 181.496 271.939 181.564 272.983 180.611Z" fill="#FFC955"/>
<path d="M287.483 208.444C287.483 208.444 287.831 208.991 288.335 209.162C289.206 209.456 290.493 208.89 291.127 210.03C291.762 211.17 288.697 214.017 287.875 214.19C287.051 214.363 285.732 213.082 284.701 210.554C283.669 208.026 287.483 208.444 287.483 208.444Z" fill="#EEA886"/>
<path d="M290.857 209.675C290.857 209.675 292.421 210.865 294.001 212.393C295.388 213.733 296.798 215.493 296.442 215.825C295.956 216.279 295.01 214.768 293.547 213.527C292.199 212.384 292.276 212.825 292.276 212.825C292.276 212.825 292.261 212.698 293.49 214.217C294.811 215.85 296.177 217.788 295.769 218.068C295.514 218.243 295.501 218.29 294.925 217.772C295.193 218.138 295.13 218.259 294.988 218.378C294.251 218.996 291.936 216.882 291.016 216.043C291.718 216.692 292.164 217.24 291.451 217.324C290.636 217.42 287.495 214.291 286.264 213.273C284.922 212.162 290.857 209.675 290.857 209.675Z" fill="#EEA886"/>
<path d="M243.909 179.362C243.909 179.362 242.661 188.308 243.276 192.709C243.276 192.709 243.927 193.192 245.222 192.801C245.222 192.801 245.545 183.036 246.27 179.569C246.27 179.569 245.872 179.268 243.909 179.362Z" fill="#E0E0E0"/>
<path d="M245.173 18.3301H244.207V186.128H245.173V18.3301Z" fill="#E0E0E0"/>
<path d="M162.141 431.159C162.141 431.159 161.651 434.592 161.59 435.108C161.529 435.624 156.14 434.804 156.14 434.804L155.703 430.716C155.703 430.716 161.467 430.675 162.141 431.159Z" fill="#5C544D"/>
<path d="M161.646 434.671C161.646 434.671 163.354 436.74 165.005 437.642C166.656 438.543 169.251 438.902 170.228 439.834C170.933 440.508 172.796 443.409 165.937 443.351C159.078 443.292 155.771 443.76 155.036 442.648C154.301 441.537 156.1 434.439 156.1 434.439C156.1 434.439 157.724 435.029 161.646 434.671Z" fill="#3C4145"/>
<path d="M200.755 431.159C200.755 431.159 200.265 434.592 200.204 435.108C200.142 435.624 194.753 434.804 194.753 434.804L194.316 430.716C194.316 430.716 200.081 430.675 200.755 431.159Z" fill="#5C544D"/>
<path d="M200.259 434.671C200.259 434.671 201.967 436.74 203.618 437.642C205.269 438.543 211.347 439.285 212.323 440.218C213.028 440.892 214.2 443.605 204.55 443.351C197.693 443.17 194.384 443.76 193.649 442.648C192.914 441.537 194.713 434.439 194.713 434.439C194.713 434.439 196.243 435.069 200.259 434.671Z" fill="#3C4145"/>
<path d="M164.053 342.521C164.053 342.521 161.185 351.041 161.563 358.383C161.941 365.725 160.08 373.758 159.319 381.428C158.471 389.978 155.001 410.222 154.875 414.795C154.749 419.369 155.414 433.975 155.414 433.975L162.361 434.135C162.361 434.135 168.196 398.745 169.707 395.135C171.218 391.524 178.712 365.782 178.963 362.894C179.214 360.005 164.053 342.521 164.053 342.521Z" fill="#33373B"/>
<path d="M193.26 344.037C193.26 344.037 197.076 364.16 197.58 368.654C198.083 373.147 198.419 390.4 198.671 393.21C198.922 396.019 200.35 429.962 201.693 434.135H192.811C192.811 434.135 185.993 409.459 185.993 397.783C185.993 386.107 180.726 372.401 177.327 364.698C173.927 356.995 166.145 356.812 164.055 342.52C164.055 342.52 190.43 339.504 193.26 344.037Z" fill="#3C4145"/>
<path d="M175.21 275.264C175.21 275.264 182.211 272.648 185.439 277.978C188.667 283.307 188.356 293.976 184.827 295.288C181.298 296.601 175.997 295.915 174.19 292.58C172.384 289.245 170.752 284.425 170.831 281.203C170.91 277.98 173.373 276.193 175.21 275.264Z" fill="#EEA886"/>
<path d="M183.652 294.959C183.652 294.959 183.369 296.794 183.836 297.698C184.304 298.601 175.03 298.626 175.03 298.626C175.03 298.626 174.277 293.709 172.85 289.555C171.423 285.4 183.652 294.959 183.652 294.959Z" fill="#EEA886"/>
<path d="M172.852 289.556C172.852 289.556 173.492 290.612 176.104 290.202C178.716 289.792 181.904 286.316 182.995 285.934C184.086 285.552 184.096 284.912 184.096 284.912L184.779 285.91L185.938 285.982C185.938 285.982 184.881 282.873 186.475 281.605C188.069 280.337 184.82 271.541 176.442 274.47C176.442 274.47 170.007 276.243 170.241 279.904C170.475 283.564 171.411 287.732 172.852 289.556Z" fill="#FCCCA2"/>
<path d="M184.388 297.59C184.388 297.59 184.358 295.862 183.575 295.697C182.792 295.53 174.933 294.775 173.973 295.153V297.165C173.973 297.165 175.824 298.305 184.388 297.59Z" fill="#E2D2CA"/>
<path d="M183.923 283.581C183.777 282.967 182.216 281.213 181.618 283.092C181.02 284.969 182.521 287.496 183.358 287.28C184.195 287.064 184.295 285.137 183.923 283.581Z" fill="#EEA886"/>
<path d="M184.388 297.591C184.388 297.591 188.696 299.14 193.686 301.26C193.686 301.26 199.426 303.402 200.048 309.742C200.378 313.107 203.961 330.967 204.632 332.477C205.303 333.988 213.249 358.263 213.528 358.766C213.808 359.27 207.044 362.078 206.596 361.854C206.149 361.63 198.904 339.713 198.176 338.089C198.176 338.089 194.006 324.948 193.894 322.989C193.894 322.989 193.774 328.572 193.551 330.139C193.327 331.706 197.259 362.136 197.147 362.976C197.035 363.816 179.275 364.881 172.167 364.098C165.059 363.315 159.323 361.679 159.323 361.679C159.323 361.679 164.916 337.664 164.744 335.002C164.37 329.2 162.431 318.274 162.431 318.274L156.635 329.2L164.054 348.287L162.355 354.088C162.355 354.088 148.569 333.256 148.122 331.353C147.674 329.45 148.798 327.026 149.525 325.458C150.253 323.892 155.032 311.964 156.151 310.285C157.271 308.605 159.162 301.882 163.734 300.01C167.557 298.446 173.972 297.164 173.972 297.164L184.388 297.591Z" fill="#495054"/>
<path d="M193.858 369.753L226.336 361.425L220.526 338.767L188.048 347.095L193.858 369.753Z" fill="#D6D6D6"/>
<path d="M216.357 363.722C216.357 363.722 217.285 365.222 217.624 365.649C217.963 366.078 216.791 366.346 216.289 365.913C215.787 365.48 216.357 363.722 216.357 363.722Z" fill="#C98462"/>
<path d="M209.593 368.844C209.593 368.844 209.045 368.272 208.926 367.906C208.926 367.906 208.763 367.221 208.618 366.743C208.571 366.591 208.527 366.46 208.49 366.378C208.334 366.036 207.89 365.331 207.747 364.404C207.603 363.479 207.199 359.324 207.199 359.324L209.715 358.69L211.736 358.263C211.736 358.263 216.102 362.618 216.335 363.465C216.357 363.548 216.376 363.631 216.388 363.71C216.516 364.446 216.301 365.048 216.325 365.442C216.332 365.585 216.311 367.031 215.974 367.301C215.508 367.676 215.032 367.747 214.641 367.622C214.641 367.622 213.694 368.317 212.905 368.275C212.905 368.275 212.052 368.945 211.085 368.613C211.085 368.613 210.145 369.197 209.593 368.844Z" fill="#DE9D7D"/>
<path d="M199.773 342.566C199.773 342.566 205.537 360.022 206.596 361.854C206.596 361.854 210.823 360.965 213.528 358.766L207.2 339.927L199.773 342.566Z" fill="#495054"/>
<defs>
<linearGradient id="paint0_linear_1457_3127" x1="48.5036" y1="373.562" x2="107.451" y2="373.562" gradientUnits="userSpaceOnUse">
<stop stop-color="#3076A1"/>
<stop offset="1" stop-color="#639C38"/>
</linearGradient>
<linearGradient id="paint1_linear_1457_3127" x1="91.7462" y1="406.455" x2="145.054" y2="406.455" gradientUnits="userSpaceOnUse">
<stop stop-color="#3076A1"/>
<stop offset="1" stop-color="#639C38"/>
</linearGradient>
<linearGradient id="paint2_linear_1457_3127" x1="96.3049" y1="414.207" x2="136.316" y2="414.207" gradientUnits="userSpaceOnUse">
<stop stop-color="#3076A1"/>
<stop offset="1" stop-color="#639C38"/>
</linearGradient>
<linearGradient id="paint3_linear_1457_3127" x1="81.8555" y1="382.01" x2="128.452" y2="382.01" gradientUnits="userSpaceOnUse">
<stop stop-color="#3076A1"/>
<stop offset="1" stop-color="#639C38"/>
</linearGradient>
<linearGradient id="paint4_linear_1457_3127" x1="71.1637" y1="448.846" x2="114.162" y2="448.846" gradientUnits="userSpaceOnUse">
<stop stop-color="#FF9340"/>
<stop offset="1" stop-color="#FFCE45"/>
</linearGradient>
<linearGradient id="paint5_linear_1457_3127" x1="71.1608" y1="448.846" x2="114.159" y2="448.846" gradientUnits="userSpaceOnUse">
<stop stop-color="#C97332"/>
<stop offset="1" stop-color="#FFCE45"/>
</linearGradient>
<linearGradient id="paint6_linear_1457_3127" x1="219.238" y1="451.709" x2="448.431" y2="451.709" gradientUnits="userSpaceOnUse">
<stop stop-color="#FF9F55"/>
<stop offset="1" stop-color="#FFD255"/>
</linearGradient>
<linearGradient id="paint7_linear_1457_3127" x1="113.011" y1="480.089" x2="342.203" y2="480.089" gradientUnits="userSpaceOnUse">
<stop stop-color="#E37E30"/>
<stop offset="1" stop-color="#E8A12E"/>
</linearGradient>
<linearGradient id="paint8_linear_1457_3127" x1="190.12" y1="261.472" x2="492.707" y2="261.472" gradientUnits="userSpaceOnUse">
<stop stop-color="#FF9F55"/>
<stop offset="1" stop-color="#FFD255"/>
</linearGradient>
<linearGradient id="paint9_linear_1457_3127" x1="207.965" y1="248.715" x2="460.597" y2="248.715" gradientUnits="userSpaceOnUse">
<stop stop-color="#404B61"/>
<stop offset="0.486" stop-color="#3C4860"/>
<stop offset="1" stop-color="#2F3E5C"/>
</linearGradient>
<linearGradient id="paint10_linear_1457_3127" x1="263.567" y1="407.198" x2="405.472" y2="407.198" gradientUnits="userSpaceOnUse">
<stop stop-color="#FF9F55"/>
<stop offset="1" stop-color="#FFD255"/>
</linearGradient>
</defs>
</svg>
