<svg width="434" height="316" viewBox="0 0 434 316" fill="none" xmlns="http://www.w3.org/2000/svg">
<path d="M403.664 197.321C396.477 229.381 379.161 250.693 356.081 264.551C352.435 266.749 348.642 268.757 344.719 270.584C287.483 297.369 203.209 287.235 145.599 280.814C131.694 279.314 116.773 275.902 102.39 270.584C97.5382 268.792 92.7382 266.784 88.0683 264.551C52.1418 247.444 23.3503 217.591 28.8273 175.371C33.2281 149.628 51.2738 131.539 70.0834 114.233C70.7257 113.639 71.368 113.053 72.0103 112.458C72.3141 112.182 72.6093 111.915 72.9131 111.639C73.2689 111.303 73.6335 110.976 73.9981 110.648C74.3279 110.346 74.6491 110.045 74.9789 109.752C79.5533 105.572 84.1016 101.409 88.4503 97.1433C88.6412 96.9623 88.8322 96.7814 89.0231 96.5831C89.6481 95.9798 90.2644 95.3679 90.872 94.7474C91.1584 94.463 91.4449 94.1786 91.7226 93.8942C92.3302 93.2825 92.9205 92.6705 93.5194 92.0499C95.4029 90.085 97.2344 88.0855 98.9878 86.0603C104.257 79.7948 108.015 72.7366 112.381 65.8507C131.251 35.4112 170.129 20.0795 204.485 31.7743C223.858 38.1172 240.237 51.6996 259.125 59.4387C289.453 71.7455 324.572 68.7206 353.025 86.1636C353.043 86.1636 353.043 86.1636 353.043 86.1636C390.436 108.131 413.212 154.368 403.664 197.321Z" fill="#E1F2FF"/>
<path d="M325.982 115.478C324.858 114.73 323.707 114.007 322.555 113.326H322.547L322.324 113.198C321.129 112.465 319.882 111.758 318.617 111.097L319.426 109.572C320.678 110.227 321.914 110.925 323.102 111.649L323.235 111.722C324.482 112.455 325.731 113.237 326.948 114.046L325.982 115.478Z" fill="white"/>
<path d="M239.023 268.898C236.198 268.893 233.276 268.853 230.338 268.78L230.382 267.057C233.306 267.13 236.214 267.169 239.027 267.175L239.023 268.898ZM243.367 268.88L243.348 267.156C246.276 267.125 249.182 267.054 251.985 266.946L252.052 268.667C249.234 268.777 246.311 268.848 243.367 268.88ZM225.997 268.649C223.191 268.55 220.272 268.419 217.322 268.26L217.416 266.539C220.355 266.698 223.263 266.828 226.059 266.927L225.997 268.649ZM256.393 268.466L256.298 266.745C259.22 266.587 262.117 266.382 264.909 266.135L265.062 267.852C262.251 268.1 259.334 268.307 256.393 268.466ZM212.987 268.007C210.191 267.833 207.277 267.628 204.326 267.399L204.461 265.68C207.404 265.909 210.309 266.113 213.096 266.287L212.987 268.007ZM269.389 267.429L269.202 265.716C272.109 265.404 274.987 265.036 277.756 264.623L278.015 266.327C275.222 266.744 272.32 267.115 269.389 267.429ZM200.002 267.05C197.088 266.805 194.206 266.544 191.362 266.273L191.528 264.557C194.365 264.828 197.241 265.088 200.148 265.332L200.002 267.05ZM187.046 265.851C184.123 265.558 181.245 265.258 178.422 264.955L178.608 263.241C181.427 263.543 184.301 263.844 187.22 264.136L187.046 265.851ZM282.308 265.636L282.011 263.938C284.891 263.44 287.733 262.875 290.458 262.259L290.844 263.939C288.09 264.562 285.218 265.133 282.308 265.636ZM174.113 264.487C171.489 264.199 168.919 263.912 166.407 263.632L165.499 263.53L165.693 261.817L166.601 261.919C169.112 262.199 171.681 262.486 174.303 262.773L174.113 264.487ZM161.186 263.043C158.347 262.698 155.449 262.249 152.572 261.708L152.894 260.015C155.734 260.548 158.595 260.992 161.397 261.332L161.186 263.043ZM295.075 262.92L294.642 261.251C297.474 260.526 300.255 259.722 302.907 258.861L303.446 260.5C300.759 261.371 297.943 262.186 295.075 262.92ZM148.302 260.839C145.483 260.219 142.641 259.503 139.853 258.711L140.331 257.054C143.085 257.837 145.893 258.544 148.677 259.155L148.302 260.839ZM307.568 259.083L306.971 257.465C309.712 256.469 312.387 255.38 314.921 254.23L315.643 255.798C313.067 256.967 310.351 258.072 307.568 259.083ZM135.681 257.458C133.58 256.791 131.479 256.07 129.436 255.314C128.778 255.071 128.121 254.822 127.465 254.569L128.094 252.963C128.742 253.213 129.391 253.458 130.042 253.699C132.059 254.445 134.134 255.157 136.21 255.816L135.681 257.458ZM319.574 253.917L318.787 252.381C320.811 251.359 322.795 250.263 324.684 249.124C325.209 248.809 325.728 248.491 326.242 248.166L327.172 249.622C326.646 249.953 326.117 250.279 325.583 250.598C323.659 251.758 321.637 252.875 319.574 253.917ZM123.427 252.933C121.701 252.2 119.987 251.428 118.332 250.637C117.391 250.189 116.455 249.729 115.527 249.258L116.317 247.723C117.232 248.188 118.155 248.641 119.084 249.083C120.716 249.864 122.407 250.625 124.11 251.348L123.427 252.933ZM111.675 247.215C109.097 245.787 106.589 244.266 104.219 242.695L105.182 241.262C107.514 242.807 109.984 244.304 112.521 245.711L111.675 247.215ZM330.807 247.206L329.804 245.799C332.157 244.145 334.417 242.371 336.521 240.524L337.671 241.815C335.52 243.703 333.211 245.516 330.807 247.206ZM100.635 240.207C98.2391 238.464 95.9499 236.629 93.8312 234.753L94.9868 233.467C97.0641 235.306 99.3097 237.106 101.661 238.816L100.635 240.207ZM340.869 238.843L339.647 237.618C341.674 235.625 343.598 233.499 345.367 231.299L346.724 232.374C344.913 234.626 342.943 236.803 340.869 238.843ZM90.64 231.773C88.5269 229.691 86.5577 227.512 84.7868 225.296L86.1464 224.225C87.875 226.387 89.7983 228.515 91.8629 230.55L90.64 231.773ZM349.357 228.896L347.939 227.901C349.569 225.612 351.093 223.186 352.469 220.692L353.992 221.52C352.585 224.071 351.025 226.553 349.357 228.896ZM82.171 221.798C80.4812 219.374 78.9736 216.854 77.6899 214.305L79.2425 213.534C80.4896 216.01 81.9551 218.46 83.5981 220.816L82.171 221.798ZM355.989 217.651L354.423 216.907C355.632 214.397 356.739 211.754 357.712 209.051L359.346 209.631C358.354 212.389 357.224 215.088 355.989 217.651ZM75.874 210.332C74.763 207.633 73.8615 204.838 73.1946 202.024L74.8843 201.629C75.5306 204.355 76.4041 207.064 77.4809 209.68L75.874 210.332ZM360.718 205.509L359.057 205.008C359.761 202.711 360.394 200.316 360.937 197.891C361.021 197.515 361.102 197.136 361.179 196.756L362.881 197.1C362.801 197.488 362.718 197.877 362.632 198.265C362.078 200.734 361.435 203.17 360.718 205.509ZM72.3572 197.739C71.9185 194.902 71.6958 191.976 71.6953 189.043H73.4313C73.4318 191.888 73.6477 194.726 74.0732 197.477L72.3572 197.739ZM363.621 192.809L361.902 192.57C362.294 189.79 362.522 186.941 362.578 184.102L364.314 184.136C364.256 187.044 364.023 189.962 363.621 192.809ZM73.5849 184.806L71.8533 184.683C71.9393 183.489 72.0624 182.27 72.2193 181.062C72.5093 179.361 72.8769 177.689 73.3169 176.057L74.9937 176.504C74.5676 178.083 74.2117 179.702 73.9359 181.316C73.7885 182.459 73.6685 183.644 73.5849 184.806ZM362.538 179.852C362.429 177.05 362.155 174.203 361.724 171.391L363.44 171.131C363.881 174.007 364.161 176.919 364.272 179.786L362.538 179.852ZM76.2593 172.465L74.6233 171.888C75.5795 169.214 76.775 166.531 78.1767 163.914L79.7093 164.724C78.3477 167.266 77.1869 169.87 76.2593 172.465ZM360.964 167.204C360.386 164.455 359.647 161.688 358.768 158.981L360.421 158.453C361.318 161.217 362.073 164.043 362.663 166.852L360.964 167.204ZM81.8397 161.045L80.3632 160.139C81.8244 157.792 83.5126 155.398 85.3805 153.02L86.7493 154.08C84.92 156.409 83.2681 158.752 81.8397 161.045ZM357.348 154.965C356.339 152.332 355.177 149.711 353.895 147.174L355.447 146.401C356.755 148.989 357.941 151.665 358.971 154.352L357.348 154.965ZM89.4642 150.779L88.143 149.661C89.9156 147.595 91.8399 145.506 94.0258 143.273L95.2707 144.475C93.1114 146.68 91.2122 148.742 89.4642 150.779ZM351.876 143.419C350.472 140.958 348.927 138.54 347.282 136.231L348.7 135.236C350.377 137.592 351.954 140.059 353.386 142.57L351.876 143.419ZM98.3125 141.441L97.0955 140.211C98.9041 138.446 100.903 136.555 103.387 134.261L104.569 135.523C102.098 137.806 100.109 139.687 98.3125 141.441ZM344.719 132.817C342.954 130.586 341.06 128.427 339.09 126.398L340.339 125.202C342.351 127.272 344.284 129.476 346.084 131.752L344.719 132.817ZM107.752 132.599L106.563 131.343C106.802 131.12 107.046 130.901 107.289 130.683L107.536 130.455C107.707 130.298 107.876 130.142 108.048 129.989C109.678 128.5 111.312 127.006 112.929 125.505L114.115 126.764C112.494 128.268 110.857 129.765 109.214 131.266C109.041 131.42 108.88 131.568 108.718 131.718L108.459 131.956C108.218 132.173 107.983 132.384 107.752 132.599ZM117.269 123.799L116.067 122.556C116.849 121.81 117.625 121.061 118.392 120.308C118.549 120.159 118.683 120.032 118.816 119.893C119.314 119.412 119.783 118.947 120.245 118.474C120.472 118.249 120.689 118.034 120.9 117.818C121.335 117.38 121.754 116.947 122.176 116.508L123.431 117.7C123.002 118.145 122.577 118.584 122.141 119.023C121.929 119.24 121.705 119.463 121.481 119.685C121.016 120.159 120.536 120.637 120.048 121.107C119.919 121.242 119.768 121.386 119.616 121.531C118.839 122.293 118.057 123.047 117.269 123.799ZM336.035 123.413C333.943 121.472 331.735 119.631 329.475 117.942L330.519 116.565C332.829 118.29 335.083 120.171 337.221 122.154L336.035 123.413ZM126.39 114.518L125.095 113.371C125.556 112.857 126.012 112.34 126.461 111.822C127.715 110.331 128.971 108.638 130.294 106.656L131.741 107.608C130.383 109.643 129.089 111.386 127.785 112.937C127.321 113.472 126.859 113.996 126.39 114.518ZM314.641 109.184C312.125 108.071 309.506 107.084 306.635 106.164L307.167 104.523C310.099 105.462 312.774 106.472 315.347 107.609L314.641 109.184ZM302.519 104.943C299.971 104.243 297.234 103.585 294.15 102.934L294.512 101.248C297.63 101.907 300.401 102.573 302.983 103.282L302.519 104.943ZM134.075 103.948L132.595 103.049C133.1 102.228 133.6 101.404 134.102 100.578C134.955 99.1717 135.811 97.7612 136.7 96.3598C136.834 96.1417 136.975 95.9183 137.118 95.6949L138.585 96.6156C138.447 96.8331 138.309 97.0515 138.173 97.2708C137.286 98.67 136.436 100.071 135.588 101.468C135.085 102.297 134.583 103.125 134.075 103.948ZM289.92 102.084C287.168 101.554 284.352 101.054 281.629 100.571L281.41 100.532L281.716 98.8348L281.935 98.874C284.664 99.3583 287.486 99.8595 290.25 100.391L289.92 102.084ZM277.143 99.7683C273.704 99.1434 271.074 98.6304 268.615 98.1057L268.98 96.4208C271.42 96.9417 274.034 97.4509 277.456 98.0725L277.143 99.7683ZM264.369 97.1428C261.325 96.4086 258.577 95.641 255.967 94.796L256.505 93.1574C259.073 93.9885 261.779 94.7442 264.779 95.468L264.369 97.1428ZM251.843 93.35C251.27 93.1329 250.699 92.9091 250.13 92.6781C248.115 91.8523 246.063 90.9135 243.854 89.8064L244.636 88.268C246.806 89.3548 248.818 90.2761 250.789 91.0835C251.343 91.3082 251.902 91.527 252.463 91.74L251.843 93.35ZM140.998 93.1208L139.603 92.0957C141.333 89.7724 143.254 87.5442 145.311 85.4725L146.547 86.6827C144.547 88.6963 142.68 90.8623 140.998 93.1208ZM239.995 87.7891C237.357 86.3574 234.717 84.8286 232.45 83.5077L233.328 82.0214C235.584 83.3357 238.211 84.8564 240.828 86.2767L239.995 87.7891ZM149.649 83.7683L148.501 82.4755C150.684 80.5629 153.028 78.7791 155.466 77.1737L156.426 78.6104C154.053 80.172 151.773 81.9075 149.649 83.7683ZM228.714 81.3325C226.493 80.0448 223.863 78.5383 221.195 77.1261L222.012 75.6054C224.705 77.031 227.354 78.5481 229.59 79.8437L228.714 81.3325ZM160.065 76.3886L159.207 74.8904C161.747 73.4563 164.407 72.1847 167.115 71.1107L167.759 72.7114C165.125 73.756 162.536 74.9931 160.065 76.3886ZM217.367 75.1846C214.583 73.8397 212.005 72.7527 209.485 71.8619L210.068 70.2384C212.648 71.1507 215.284 72.2616 218.126 73.6343L217.367 75.1846ZM171.777 71.2749L171.246 69.6338C174.038 68.7433 176.906 68.044 179.772 67.5557L180.065 69.2541C177.28 69.7292 174.492 70.4089 171.777 71.2749ZM205.417 70.5524C202.699 69.778 199.89 69.2057 197.069 68.8523L197.286 67.1421C200.196 67.5069 203.092 68.0969 205.896 68.8951L205.417 70.5524ZM184.295 68.6877L184.125 66.9724C187.047 66.6875 190.02 66.6155 192.907 66.7599L192.82 68.481C190.019 68.3423 187.131 68.4112 184.295 68.6877Z" fill="white"/>
<path d="M225.385 243.567C228.427 242.111 230.874 238.857 232.38 235.785C232.962 234.597 233.795 231.996 232.166 231.195C231.085 230.663 229.705 231.676 228.616 231.159C227.319 230.544 227.68 228.864 228.256 227.923C228.821 227.001 229.633 226.259 230.335 225.436C231.037 224.612 231.654 223.639 231.694 222.561C231.791 219.954 229.601 220.102 227.953 220.897C226.455 221.62 225.219 221.951 225.05 219.832C224.907 218.017 224.635 216.127 223.58 214.636C222.741 213.45 221.254 212.871 220.308 214.26C219.195 215.897 219.533 218.062 219.29 220.023C219.217 220.616 219.062 221.245 218.613 221.643C217.09 222.989 214.783 220.713 213.109 221.581C212.156 222.075 212.106 223.478 212.632 224.409C213.158 225.34 214.067 225.986 214.757 226.804C215.269 227.41 215.654 228.328 215.172 228.956C214.517 229.809 213.087 229.518 212.218 229.292C211.493 229.103 210.584 229.105 210.197 229.856C209.721 230.781 210.414 231.403 211.033 231.973C212.322 233.161 213.932 233.853 215.173 235.058C215.455 235.333 215.713 235.661 215.774 236.048C215.998 237.488 214.107 236.619 213.501 237.323C212.659 238.3 215.118 240.585 215.733 241.214C216.47 241.967 217.22 242.73 218.14 243.248C220.772 244.729 223.228 244.6 225.385 243.567Z" fill="#99D3F7"/>
<path d="M221.697 221.898C221.53 229.832 221.626 237.777 221.984 245.704C221.994 245.938 222.361 245.939 222.351 245.704C221.993 237.776 221.897 229.831 222.064 221.898C222.069 221.663 221.702 221.663 221.697 221.898Z" fill="#7FC8F4"/>
<path d="M222.057 239.685C224.233 237.958 226.546 236.426 228.984 235.089C229.191 234.975 229.005 234.661 228.798 234.774C226.333 236.127 223.998 237.681 221.797 239.427C221.613 239.573 221.874 239.83 222.057 239.685Z" fill="#7FC8F4"/>
<path d="M218.132 239.735C219.403 240.213 220.656 240.734 221.891 241.298C222.104 241.396 222.29 241.081 222.076 240.983C220.812 240.406 219.53 239.873 218.229 239.384C218.008 239.301 217.913 239.653 218.132 239.735Z" fill="#7FC8F4"/>
<path d="M216.331 231.26C218.223 231.986 220.026 232.887 221.742 233.959C221.943 234.084 222.127 233.769 221.927 233.644C220.183 232.555 218.349 231.645 216.428 230.909C216.207 230.824 216.112 231.176 216.331 231.26Z" fill="#7FC8F4"/>
<path d="M221.995 227.887C222.947 226.805 223.978 225.802 225.089 224.881C225.27 224.73 225.009 224.474 224.829 224.623C223.718 225.545 222.687 226.547 221.735 227.63C221.58 227.806 221.839 228.064 221.995 227.887Z" fill="#7FC8F4"/>
<path d="M233.355 241.643L231.992 265.565L212.95 265.584L211.543 241.664L233.355 241.643Z" fill="#99D3F7"/>
<path d="M226.019 265.571L212.95 265.584L211.543 241.664L220.212 241.655C218.91 242.99 217.889 244.474 217.191 246.034C215.984 248.734 216.245 251.537 216.777 254.32C217.633 258.78 221.108 262.899 226.019 265.571Z" fill="#7FC8F4"/>
<path d="M211.768 245.495C217.987 245.489 224.207 245.483 230.427 245.477C231.331 245.476 232.236 245.475 233.141 245.474C233.7 245.474 233.7 244.611 233.14 244.611C226.92 244.617 220.7 244.623 214.481 244.629C213.576 244.63 212.672 244.631 211.767 244.632C211.208 244.633 211.208 245.495 211.768 245.495Z" fill="#E1F2FF"/>
<path d="M212.776 262.613C218.437 262.608 224.099 262.602 229.76 262.597C230.562 262.596 231.364 262.595 232.166 262.594C232.725 262.594 232.725 261.731 232.166 261.731C226.504 261.737 220.842 261.743 215.181 261.748C214.379 261.749 213.577 261.75 212.775 261.75C212.216 261.751 212.216 262.614 212.776 262.613Z" fill="#E1F2FF"/>
<path d="M145.42 264.55H122.624L121.176 254.449L117.23 226.783L116.578 222.409L116.566 222.337L116.047 218.862H131.24L144.636 227.477L145.022 234.99V235.134L145.42 264.55Z" fill="#193972"/>
<path d="M126.391 218.862L126.186 220.564L125.968 222.409L125.425 226.914L124.001 236.152L121.467 252.604L121.177 254.449L119.621 264.55H96.957L97.9224 235.134V235.014L98.4413 227.453L98.5257 226.207L104.065 223.452L104.451 223.26L106.672 222.157L107.36 221.81L108.965 221.019L113.297 218.862H126.391Z" fill="#193972"/>
<path d="M121.545 252.61C121.802 252.61 122.032 252.429 122.081 252.17L125.422 234.509C125.477 234.216 125.282 233.933 124.986 233.878C124.682 233.821 124.406 234.017 124.35 234.309L121.009 251.969C120.954 252.263 121.15 252.546 121.445 252.601C121.479 252.607 121.513 252.61 121.545 252.61Z" fill="#193368"/>
<path d="M110.093 123.951C108.993 125.553 108.137 127.321 107.562 129.175C105.707 135.161 106.708 140.633 105.699 146.815C105.206 149.832 103.29 153.16 102.786 155.876C102.41 157.903 103.747 160.644 105.64 161.846C107.457 163.001 109.767 163.302 111.884 163.256C113.733 163.216 115.573 162.95 117.423 162.935C119.834 162.915 122.229 163.323 124.639 163.369C129.083 163.455 133.467 162.11 136.25 159.337C138.765 156.831 139.586 153.907 139.464 149.84C139.381 147.07 138.116 142.554 137.845 139.939C137.546 137.047 137.731 133.976 137.295 131.263C136.858 128.55 135.902 125.795 133.888 123.911C132.52 122.631 130.947 122.034 129.308 122.051C126.887 119.922 122.913 118.854 119.463 119.186C116.013 119.517 112.045 121.107 110.093 123.951Z" fill="#193368"/>
<path d="M103.088 173.207C107.244 173.207 110.613 169.862 110.613 165.735C110.613 161.609 107.244 158.264 103.088 158.264C98.9317 158.264 95.5625 161.609 95.5625 165.735C95.5625 169.862 98.9317 173.207 103.088 173.207Z" fill="#FFC5BD"/>
<path d="M76.2862 197.735C79.225 197.735 81.6075 195.369 81.6075 192.451C81.6075 189.533 79.225 187.168 76.2862 187.168C73.3473 187.168 70.9648 189.533 70.9648 192.451C70.9648 195.369 73.3473 197.735 76.2862 197.735Z" fill="#FFC5BD"/>
<path d="M108.419 171.009L108.213 171.171C98.3519 178.964 88.9505 187.314 80.056 196.18L72.5156 188.723L72.5949 188.623C80.4001 178.798 88.7685 169.428 97.6587 160.559L97.7552 160.463L108.419 171.009Z" fill="#FFC5BD"/>
<path d="M76.2862 197.689C79.225 197.689 81.6075 195.323 81.6075 192.405C81.6075 189.488 79.225 187.122 76.2862 187.122C73.3473 187.122 70.9648 189.488 70.9648 192.405C70.9648 195.323 73.3473 197.689 76.2862 197.689Z" fill="#FFC5BD"/>
<path d="M94.6631 223.426C96.7984 223.426 98.5293 221.707 98.5293 219.587C98.5293 217.467 96.7984 215.748 94.6631 215.748C92.5279 215.748 90.7969 217.467 90.7969 219.587C90.7969 221.707 92.5279 223.426 94.6631 223.426Z" fill="#FFC5BD"/>
<path d="M80.6872 189.438C82.284 191.767 84.8201 196.335 87.7765 201.312C91.2446 207.15 95.2285 213.592 97.8597 217.431L91.46 221.746C85.8489 214.401 78.3851 204.286 71.8828 195.374L80.6872 189.438Z" fill="#FFC5BD"/>
<path d="M77.0609 180.76C81.28 175.504 92.7888 163.569 96.91 160.176C98.3795 158.713 100.291 157.806 102.294 157.625C102.552 157.602 102.809 157.59 103.064 157.59C105.189 157.59 107.198 158.423 108.723 159.935C112.028 163.207 112.034 168.54 108.725 171.833C105.263 174.814 87.2066 190.848 87.2066 190.848L76.9375 180.913L77.0609 180.76Z" fill="#FFC255"/>
<path d="M136.17 173.093C140.326 173.093 143.695 169.748 143.695 165.621C143.695 161.495 140.326 158.149 136.17 158.149C132.014 158.149 128.645 161.495 128.645 165.621C128.645 169.748 132.014 173.093 136.17 173.093Z" fill="#FFC5BD"/>
<path d="M150.521 205.816C153.459 205.816 155.842 203.45 155.842 200.532C155.842 197.614 153.459 195.249 150.521 195.249C147.582 195.249 145.199 197.614 145.199 200.532C145.199 203.45 147.582 205.816 150.521 205.816Z" fill="#FFC5BD"/>
<path d="M143.138 162.798L143.209 163.049C146.599 175.102 150.686 186.95 155.448 198.536L145.595 202.529L145.533 202.418C139.457 191.455 134.022 180.154 129.255 168.57L129.203 168.445L143.138 162.798Z" fill="#FFC5BD"/>
<path d="M132.984 158.208C134.802 157.473 136.834 157.391 138.709 157.976C141.129 158.732 143.063 160.499 144.023 162.839C145.42 167.1 150.832 182.932 153.217 189.729L153.286 189.921L140.072 195.446L139.978 195.273C136.742 189.367 130.151 174.193 128.608 169.107C127.823 167.193 127.729 165.093 128.338 163.19C129.076 160.89 130.724 159.12 132.984 158.208Z" fill="#FFC255"/>
<path d="M96.7998 234.91C97.0188 230.177 98.3415 222.356 99.5069 215.456C100.047 212.27 100.545 209.326 100.868 207.063C101.451 202.979 101.57 190.871 101.08 185.471C100.428 178.012 98.8008 158.88 98.8008 158.88L98.7902 158.755L98.8944 158.684C101.721 156.773 110.412 153.491 113.782 152.869L127.596 153.245C129.946 153.873 137.495 157.118 139.343 158.212C139.343 158.212 142.284 165.065 143.373 167.574C145.193 171.814 145.71 176.125 144.913 180.391C144.366 183.182 142.812 190.699 142.42 192.581C141.296 197.951 141.24 201.667 142.182 208.486C142.472 210.585 142.952 213.32 143.475 216.307C144.592 222.678 145.855 229.9 146.016 234.913L146.025 235.137H139.167C135.539 235.137 132.479 232.453 132.031 228.878L130.989 220.565H116.864L115.4 229.184C114.816 232.621 111.819 235.137 108.309 235.137H96.7891L96.7998 234.91Z" fill="#FFC255"/>
<path d="M94.6639 223.396C96.7801 223.396 98.4957 221.693 98.4957 219.592C98.4957 217.49 96.7801 215.787 94.6639 215.787C92.5476 215.787 90.832 217.49 90.832 219.592C90.832 221.693 92.5476 223.396 94.6639 223.396Z" fill="#FFC5BD"/>
<path d="M92.2617 222.557C93.8653 223.678 95.031 225.238 96.5875 226.404C97.6635 227.207 98.9316 227.755 100.256 227.995C101.603 228.24 102.539 228.968 103.603 229.813C103.793 229.963 103.99 230.118 104.226 230.178C104.461 230.239 104.746 230.178 104.875 229.974C105.032 229.726 104.901 229.403 104.762 229.144C103.97 227.67 102.961 226.311 101.776 225.126C102.005 225.355 102.624 225.483 102.924 225.667C103.296 225.895 103.641 226.16 103.982 226.431C104.73 227.029 105.478 227.624 106.266 228.17C106.758 228.511 107.559 228.459 107.501 227.677C107.477 227.35 107.294 227.058 107.108 226.787C106.026 225.209 104.66 223.822 103.095 222.712C104.501 223.023 105.598 224.073 106.727 224.963C107.301 225.416 107.887 225.847 108.452 226.313C108.772 226.576 109.345 226.659 109.679 226.372C110.079 226.028 109.857 225.487 109.596 225.129C108.802 224.039 107.77 223.108 106.757 222.222C105.752 221.344 104.651 220.713 103.521 220.012C104.559 220.146 105.517 220.603 106.392 221.153C106.829 221.427 107.249 221.727 107.664 222.032C108.029 222.299 108.36 222.672 108.811 222.79C109.177 222.885 109.643 222.73 109.741 222.368C109.829 222.043 109.601 221.725 109.38 221.47C108.336 220.265 107.151 219.182 105.857 218.248C105.326 217.865 104.71 217.544 104.084 217.342C103.64 217.199 103.186 217.09 102.734 216.976C102.29 216.864 101.197 216.77 100.98 216.275C100.927 216.154 100.641 214.626 100.641 214.626C100.641 214.626 100 214.664 99.72 214.77C98.4965 215.235 97.3788 216.067 96.0179 215.328C95.6849 215.898 92.7656 221.854 92.2617 222.557Z" fill="#FFC5BD"/>
<path d="M165.761 173.93C167.896 173.93 169.627 172.212 169.627 170.092C169.627 167.972 167.896 166.253 165.761 166.253C163.626 166.253 161.895 167.972 161.895 170.092C161.895 172.212 163.626 173.93 165.761 173.93Z" fill="#FFC5BD"/>
<path d="M166.291 172.794C167.627 172.36 168.86 172.188 170.433 172.414C172.569 172.72 174.141 173.299 176.245 172.53C177.411 172.104 178.469 171.435 179.588 170.898C180.929 170.256 182.353 169.805 183.74 169.266C184.521 168.963 185.239 168.025 184.032 167.68C183.071 167.406 181.907 167.705 180.984 168.064C182.125 167.373 183.326 166.595 184.407 165.701C184.796 165.38 184.997 164.895 184.477 164.577C184.284 164.458 184.055 164.443 183.835 164.444C181.904 164.459 180.046 165.614 178.371 166.711C178.767 166.245 179.163 165.779 179.559 165.313C179.737 165.104 179.916 164.815 179.797 164.532C179.433 163.659 178.228 164.748 177.852 165.022C177.15 165.533 176.635 165.938 175.935 166.381C175.161 166.871 174.5 167.317 173.546 167.153C171.803 166.853 170.89 166.168 169.131 165.96C167.692 165.79 166.005 165.952 164.629 166.423L166.291 172.794Z" fill="#FFC5BD"/>
<path d="M164.938 166.325C165.516 166.133 166.677 165.159 168.091 164.971C168.92 164.862 169.806 165.032 170.483 165.025C171.46 165.014 173.488 164.777 173.488 164.777C173.876 164.732 174.306 164.788 174.488 165.132C174.77 165.663 174.185 166.236 173.602 166.396L170.516 167.193L169.963 167.616L164.938 166.325Z" fill="#FFC5BD"/>
<path d="M115.383 164.118H130.562C130.689 172.554 130.112 187.358 128.529 199.311L130.987 220.564H116.862L119.78 199.558C117.673 187.87 115.836 173.362 115.383 164.118Z" fill="white"/>
<path d="M71.8799 186.819L76.9372 180.914L85.6965 181.041L87.2063 190.848L84.2589 193.594L87.006 198.507L75.5492 202.906L71.2228 196.127C69.3653 193.216 69.6315 189.444 71.8799 186.819Z" fill="#FFC255"/>
<path d="M100.623 179.003C100.881 179.003 101.108 178.823 101.159 178.563L101.742 175.503C101.797 175.209 101.602 174.926 101.308 174.871C100.981 174.814 100.727 175.009 100.67 175.302L100.087 178.362C100.032 178.656 100.228 178.939 100.521 178.994C100.557 179 100.591 179.003 100.623 179.003Z" fill="#F4B042"/>
<path d="M114.164 157.653L126.998 157.872L127.06 153.218L127.38 133.611L114.569 133.391L114.429 141.87L114.164 157.653Z" fill="#FFC5BD"/>
<path d="M113.781 152.869L120.485 151.717L127.595 153.245C129.457 163.135 123.53 168.663 123.53 168.663C123.53 168.663 112.841 162.606 113.781 152.869Z" fill="#FFC5BD"/>
<path d="M127.065 152.919C131.793 154.675 133.842 163.806 133.823 167.853L129.204 165.156L123.531 168.663C127.958 164.431 127.895 157.895 127.065 152.919Z" fill="white"/>
<path d="M114.252 152.502C114.03 155.714 116.243 164.78 123.53 168.662L116.046 166.66L111.313 170.255C110.098 165.513 110.459 153.948 114.252 152.502Z" fill="white"/>
<path d="M114.43 141.87C116.302 147.241 121.595 151.88 127.061 153.218L127.38 133.611L114.57 133.391L114.43 141.87Z" fill="#EF9B8F"/>
<path d="M150.505 205.826C153.444 205.826 155.826 203.46 155.826 200.542C155.826 197.624 153.444 195.259 150.505 195.259C147.566 195.259 145.184 197.624 145.184 200.542C145.184 203.46 147.566 205.826 150.505 205.826Z" fill="#FFC5BD"/>
<path d="M165.78 173.943C167.916 173.943 169.647 172.224 169.647 170.104C169.647 167.984 167.916 166.266 165.78 166.266C163.645 166.266 161.914 167.984 161.914 170.104C161.914 172.224 163.645 173.943 165.78 173.943Z" fill="#FFC5BD"/>
<path d="M145.742 198.186C147.005 195.662 149.774 191.229 152.695 186.232C156.122 180.37 160.237 172.551 162.318 168.393L169.242 171.818C165.543 180.273 159.907 192.904 155.268 202.898L145.742 198.186Z" fill="#FFC5BD"/>
<path d="M160.723 193.678L152.829 185.39L148.906 191.751L146.035 190.519L140.07 195.446L144.61 203.698C147.26 208.515 154.329 208.206 156.542 203.176L160.723 193.678Z" fill="#FFC255"/>
<path d="M161.809 168.28L188.731 166.554C190.213 166.459 191.415 165.327 191.589 163.863L194.127 142.563C194.258 141.469 193.357 140.526 192.25 140.597L167.488 142.184C165.987 142.28 164.77 143.426 164.593 144.909L161.809 168.28Z" fill="#69B0E8"/>
<path d="M147.651 167.172L190.572 164.42C190.79 164.406 190.978 164.57 190.992 164.786L191.072 166.011C191.086 166.227 190.92 166.413 190.703 166.427L147.782 169.18C147.564 169.193 147.376 169.029 147.362 168.813L147.282 167.589C147.268 167.372 147.433 167.186 147.651 167.172Z" fill="#69B0E8"/>
<path d="M163.285 168.185L190.208 166.459C191.689 166.364 192.892 165.232 193.066 163.769L195.604 142.468C195.734 141.374 194.833 140.431 193.726 140.502L168.964 142.09C167.464 142.186 166.246 143.332 166.07 144.814L163.285 168.185Z" fill="#539FDA"/>
<path d="M178.454 154.347C178.531 155.536 179.565 156.438 180.762 156.361C181.96 156.284 182.868 155.258 182.79 154.069C182.713 152.88 181.68 151.979 180.482 152.055C179.284 152.132 178.376 153.158 178.454 154.347Z" fill="white"/>
<path d="M148.114 193.948C148.021 193.948 147.927 193.925 147.842 193.875C147.583 193.726 147.493 193.396 147.642 193.137L151.345 186.765C151.496 186.505 151.834 186.417 152.089 186.568C152.348 186.717 152.438 187.047 152.289 187.306L148.587 193.678C148.485 193.851 148.302 193.948 148.114 193.948Z" fill="#F4B042"/>
<path d="M141.248 198.125C141.238 198.125 141.225 198.124 141.214 198.123C140.915 198.104 140.687 197.848 140.704 197.55L141.784 180.401C141.801 180.105 142.097 179.885 142.361 179.896C142.66 179.915 142.888 180.171 142.869 180.469L141.793 197.618C141.774 197.904 141.533 198.125 141.248 198.125Z" fill="#F4B042"/>
<path d="M134.589 139.136C135.02 137.492 134.176 135.845 132.703 135.457C131.23 135.07 129.686 136.089 129.254 137.733C128.823 139.377 129.667 141.024 131.14 141.412C132.613 141.799 134.157 140.781 134.589 139.136Z" fill="#EF9B8F"/>
<path d="M119.131 121.738C125.932 120.474 131.061 123.077 132.635 128.542C134.007 133.305 133.775 140.331 132.186 145.027C130.838 149.009 127.554 151.193 124.182 150.947C120.78 150.699 117.358 148.601 115.174 145.916C112.995 143.237 111.205 139.664 110.349 135.612C109.18 129.28 111.488 123.159 119.131 121.738Z" fill="#FFC5BD"/>
<path d="M126.844 128.355C124.009 133.059 119.034 135.952 113.13 137.189L111.13 139.697C110.603 138.404 110.203 137.054 109.913 135.693C108.816 129.761 110.644 122.881 119.058 121.311C119.624 121.19 120.193 121.112 120.721 121.061C126.944 120.454 131.567 123.199 133.062 128.432C133.505 129.998 133.806 131.917 133.926 133.801C133.335 132.871 131.955 131.829 130.645 131.227C129.381 130.646 127.633 129.368 126.844 128.355Z" fill="#193368"/>
<path d="M112.363 135.33C113.412 136.498 114.101 137.991 114.447 139.517C115.834 138.548 116.569 136.739 116.249 135.086C115.266 134.759 114.375 134.623 113.351 134.783C113.226 134.803 113.097 134.828 112.993 134.899C112.888 134.97 112.813 135.099 112.843 135.221C112.799 135.268 112.408 135.283 112.363 135.33Z" fill="#193368"/>
<path d="M114.658 142.193C116.053 141.584 116.633 139.826 115.954 138.267C115.275 136.707 113.593 135.936 112.198 136.545C110.803 137.154 110.222 138.912 110.902 140.472C111.581 142.031 113.262 142.802 114.658 142.193Z" fill="#FFC5BD"/>
<path d="M114.953 139.728C114.964 139.727 114.976 139.726 114.989 139.725C115.137 139.7 115.238 139.562 115.214 139.415C115.171 139.15 115.08 138.895 114.942 138.657C114.478 137.858 113.544 137.402 112.726 137.585C112.582 137.617 112.443 137.667 112.313 137.735C112.054 137.869 111.834 138.076 111.68 138.332C111.602 138.46 111.643 138.625 111.773 138.703C111.897 138.78 112.066 138.739 112.147 138.61C112.251 138.437 112.391 138.303 112.565 138.214C112.653 138.168 112.748 138.134 112.843 138.112C113.448 137.981 114.122 138.326 114.469 138.927C114.574 139.109 114.645 139.301 114.676 139.5C114.699 139.636 114.819 139.731 114.953 139.728Z" fill="#EF9B8F"/>
<path d="M130.351 137.09C130.804 136.965 131.274 137.228 131.399 137.678C131.525 138.128 131.26 138.595 130.806 138.72C130.353 138.845 129.883 138.581 129.758 138.131C129.632 137.681 129.897 137.215 130.351 137.09Z" fill="#193368"/>
<path d="M123.464 137.416C123.918 137.291 124.387 137.554 124.513 138.005C124.639 138.455 124.373 138.921 123.92 139.046C123.466 139.171 122.997 138.907 122.871 138.457C122.745 138.007 123.011 137.541 123.464 137.416Z" fill="#193368"/>
<path d="M120.814 134.949C120.849 134.771 121.073 134.662 121.284 134.624C122.264 134.445 123.251 134.526 124.221 134.705C124.562 134.768 125.487 134.86 125.358 135.317C125.274 135.613 124.743 135.845 124.405 135.824C123.649 135.777 122.896 135.712 122.146 135.628C121.721 135.581 120.698 135.536 120.814 134.949Z" fill="#193368"/>
<path d="M133.201 134.362C133.149 134.188 132.916 134.1 132.702 134.082C131.709 133.997 130.734 134.171 129.786 134.441C129.452 134.536 128.54 134.715 128.713 135.158C128.825 135.445 129.376 135.625 129.711 135.572C130.458 135.454 131.202 135.318 131.94 135.164C132.358 135.076 133.373 134.935 133.201 134.362Z" fill="#193368"/>
<path d="M128.108 143.087C128.149 143.086 128.189 143.077 128.226 143.057C128.728 142.799 129.046 142.462 129.172 142.059C129.285 141.693 129.234 141.301 129.016 140.894C128.894 140.667 128.714 140.387 128.511 140.073C128.264 139.691 127.984 139.257 127.748 138.815C127.674 138.685 127.507 138.637 127.379 138.704C127.247 138.774 127.196 138.937 127.266 139.069C127.515 139.531 127.8 139.973 128.051 140.364C128.245 140.664 128.419 140.93 128.533 141.148C128.682 141.424 128.721 141.676 128.653 141.899C128.571 142.155 128.337 142.39 127.974 142.578C127.842 142.646 127.789 142.809 127.859 142.942C127.909 143.037 128.008 143.09 128.108 143.087Z" fill="#EF9B8F"/>
<path d="M126.931 145.049C127.4 145.035 127.834 144.935 128.147 144.738C128.272 144.657 128.31 144.49 128.23 144.363C128.15 144.236 127.981 144.203 127.853 144.281C127.099 144.76 125.308 144.468 124.613 143.75C124.506 143.645 124.331 143.641 124.228 143.744C124.12 143.848 124.116 144.019 124.219 144.127C124.809 144.731 125.953 145.076 126.931 145.049Z" fill="#EF9B8F"/>
<path d="M131.221 222.413L130.99 220.564L123.976 217.604L116.865 220.564L116.551 222.413H131.221Z" fill="white"/>
<path d="M187.961 56.8906H136.264C134.436 56.8906 132.953 58.3626 132.953 60.1783V83.9228V96.0027L145.12 83.9228H187.962C189.79 83.9228 191.273 82.4509 191.273 80.6352V60.1783C191.273 58.3626 189.79 56.8906 187.961 56.8906Z" fill="#B9E0FB"/>
<path d="M179.361 65.1406H144.867V67.1545H179.361V65.1406Z" fill="#60B3E5"/>
<path d="M172.491 70.5625H144.867V71.4144H172.491V70.5625Z" fill="#60B3E5"/>
<path d="M176.99 74.8213H144.867V75.6732H176.99V74.8213Z" fill="#60B3E5"/>
<path d="M237.399 86.5127H277.218C280.019 86.5127 282.289 88.7669 282.289 91.5477V111.324L285.062 120.752L272.794 111.324H237.399C234.598 111.324 232.328 109.07 232.328 106.289V91.5477C232.328 88.7669 234.598 86.5127 237.399 86.5127Z" fill="#7FC8F4"/>
<path d="M240.292 94.2646H274.328V93.5998H240.292V94.2646Z" fill="white"/>
<path d="M246.218 97.5889H274.328V96.924H246.218V97.5889Z" fill="white"/>
<path d="M242.337 100.914H274.328V100.249H242.337V100.914Z" fill="white"/>
<path d="M240.292 104.238H274.328V103.573H240.292V104.238Z" fill="white"/>
<path d="M203.504 100.678H184.78C182.401 100.678 180.473 102.592 180.473 104.954V123.545C180.473 125.906 182.401 127.821 184.78 127.821H203.504C205.882 127.821 207.811 125.907 207.811 123.545V104.954C207.811 102.592 205.882 100.678 203.504 100.678Z" fill="#68B8E9"/>
<path d="M199.538 114.25C199.538 113.44 200.016 112.759 200.693 112.449C200.554 111.914 200.328 111.397 200.068 110.915C199.356 111.182 198.523 111.027 197.959 110.458C197.386 109.898 197.229 109.07 197.499 108.372C197.012 108.097 196.492 107.881 195.953 107.743C195.641 108.424 194.947 108.889 194.139 108.889C193.332 108.889 192.646 108.424 192.334 107.743C191.787 107.881 191.266 108.097 190.789 108.372C191.049 109.07 190.893 109.898 190.329 110.458C189.765 111.027 188.931 111.182 188.22 110.915C187.95 111.397 187.733 111.914 187.586 112.449C188.28 112.759 188.749 113.44 188.749 114.25C188.749 115.051 188.28 115.732 187.586 116.06C187.733 116.594 187.95 117.103 188.22 117.577C188.931 117.327 189.765 117.473 190.329 118.033C190.893 118.594 191.049 119.421 190.789 120.128C191.266 120.395 191.787 120.61 192.334 120.757C192.646 120.085 193.332 119.602 194.139 119.602C194.947 119.602 195.641 120.085 195.953 120.757C196.492 120.61 197.012 120.395 197.499 120.128C197.229 119.421 197.386 118.594 197.959 118.033C198.523 117.473 199.356 117.327 200.068 117.577C200.328 117.103 200.554 116.594 200.693 116.06C200.016 115.732 199.538 115.051 199.538 114.25ZM194.139 116.611C192.829 116.611 191.761 115.551 191.761 114.25C191.761 112.94 192.829 111.889 194.139 111.889C195.459 111.889 196.518 112.94 196.518 114.25C196.518 115.551 195.459 116.611 194.139 116.611Z" fill="white"/>
<path d="M80.9483 145.603C90.1187 145.603 97.5528 138.222 97.5528 129.117C97.5528 120.012 90.1187 112.631 80.9483 112.631C71.7779 112.631 64.3438 120.012 64.3438 129.117C64.3438 138.222 71.7779 145.603 80.9483 145.603Z" fill="#70BEED"/>
<path d="M95.5707 127.973C95.0455 121.383 90.0451 116.048 83.7126 114.824C82.822 114.65 81.8936 114.56 80.9574 114.56C80.5692 114.56 80.1887 114.567 79.7929 114.597C75.9036 114.907 72.3568 116.698 69.8071 119.66C67.2649 122.615 66.0243 126.379 66.3363 130.24C66.3592 130.528 66.3897 130.815 66.4277 131.102C67.2192 136.792 71.3902 141.561 77.0224 143.132C78.2706 143.495 79.5798 143.684 80.927 143.684C81.3152 143.684 81.6957 143.662 82.0915 143.631C83.0201 143.556 83.941 143.389 84.8847 143.132C87.7008 142.362 90.1973 140.782 92.1002 138.568C94.627 135.636 95.8676 131.865 95.5707 127.973ZM91.438 138.016C89.7026 140.011 87.4573 141.462 84.9685 142.203C84.017 142.497 83.0201 142.686 82.0154 142.77C81.7948 142.777 81.574 142.792 81.3532 142.8H81.3456C81.2087 142.807 81.0641 142.807 80.9271 142.807C80.7977 142.807 80.6836 142.807 80.5542 142.8C79.3287 142.77 78.111 142.565 76.9236 142.203C71.5958 140.585 67.7217 135.84 67.2193 130.384C67.2118 130.315 67.2118 130.248 67.2042 130.179C67.1813 129.953 67.1737 129.718 67.1737 129.499C67.1586 129.227 67.1586 128.97 67.1737 128.714V128.706C67.3716 121.814 72.7908 116.018 79.8691 115.474C80.105 115.451 80.3485 115.444 80.5693 115.428C80.7063 115.421 80.8282 115.421 80.9576 115.421C81.0945 115.421 81.224 115.421 81.361 115.428C81.9013 115.444 82.4417 115.497 82.9669 115.572C89.2004 116.494 94.1859 121.648 94.6958 128.041C94.7187 128.268 94.7263 128.502 94.7263 128.729C94.7338 128.993 94.7338 129.258 94.7263 129.522C94.6421 132.636 93.5005 135.613 91.438 138.016Z" fill="white"/>
<path d="M74.2865 131.095L75.9304 129.591C76.5242 129.047 76.821 128.488 76.821 127.913C76.821 127.415 76.646 127.022 76.3111 126.712C75.9838 126.417 75.5348 126.273 74.9791 126.273C74.3703 126.273 73.8984 126.44 73.5406 126.787C73.1906 127.127 73.0078 127.588 73.0078 128.163H73.906C73.906 127.815 74.0049 127.558 74.1799 127.354C74.3703 127.165 74.6289 127.074 74.9562 127.074C75.2378 127.074 75.4737 127.142 75.6565 127.301C75.8239 127.46 75.9153 127.671 75.9153 127.936C75.9153 128.268 75.725 128.624 75.3596 128.986L73.0078 131.201V131.881H76.92V131.095L74.2865 131.095Z" fill="white"/>
<path d="M80.8928 129.938V126.349H79.9567L77.1328 129.938V130.717H80.0023V131.88H80.8928V130.717H81.6311V129.938H80.8928ZM80.0023 129.938H78.0994L80.0023 127.505V129.938Z" fill="white"/>
<path d="M83.708 125.556L81.8203 132.674H82.6575L84.5375 125.556H83.708Z" fill="white"/>
<path d="M85.0117 126.349V127.135H87.9268L85.651 131.88H86.6177L88.8934 127.036V126.349L85.0117 126.349Z" fill="white"/>
<path d="M81.344 117.683L80.5508 117.677L80.5678 115.101L81.361 115.107L81.344 117.683Z" fill="white"/>
<path d="M81.344 143.136L80.5508 143.13L80.5678 140.554L81.361 140.56L81.344 143.136Z" fill="white"/>
<path d="M92.4743 128.711L92.4688 129.498L95.0636 129.516L95.0692 128.729L92.4743 128.711Z" fill="white"/>
<path d="M66.8376 128.712L66.832 129.499L69.4269 129.517L69.4325 128.73L66.8376 128.712Z" fill="white"/>
<path d="M237.156 157.016C245.635 157.016 252.508 150.192 252.508 141.774C252.508 133.356 245.635 126.531 237.156 126.531C228.678 126.531 221.805 133.356 221.805 141.774C221.805 150.192 228.678 157.016 237.156 157.016Z" fill="#70BEED"/>
<path d="M250.672 140.717C250.125 133.753 244.188 128.315 237.166 128.315C236.801 128.315 236.454 128.324 236.09 128.35C232.496 128.634 229.215 130.289 226.854 133.038C224.502 135.77 223.356 139.243 223.651 142.811C224.085 148.422 228.052 153.213 233.52 154.739C234.675 155.066 235.899 155.238 237.14 155.238C237.504 155.238 237.852 155.23 238.216 155.187C239.067 155.118 239.917 154.971 240.794 154.739C243.389 154.015 245.698 152.567 247.469 150.507C249.813 147.801 250.941 144.311 250.672 140.717ZM246.853 149.999C245.247 151.843 243.172 153.187 240.872 153.868C239.987 154.144 239.067 154.316 238.138 154.385C237.799 154.42 237.47 154.437 237.131 154.437C235.881 154.437 234.64 154.247 233.433 153.868C228.451 152.351 224.84 147.879 224.458 142.751C223.903 135.804 229.154 129.703 236.15 129.151C236.497 129.125 236.836 129.117 237.166 129.117C243.763 129.117 249.344 134.236 249.856 140.777C250.134 144.156 249.066 147.422 246.853 149.999Z" fill="white"/>
<path d="M240.723 135.657C239.889 134.942 238.752 134.58 237.329 134.58C235.81 134.58 234.594 135.011 233.683 135.89C232.78 136.752 232.32 137.915 232.32 139.372H234.629C234.629 138.501 234.855 137.829 235.324 137.338C235.801 136.847 236.461 136.605 237.329 136.605C238.058 136.605 238.631 136.786 239.065 137.157C239.49 137.527 239.707 137.993 239.707 138.57C239.707 138.941 239.612 139.277 239.429 139.587C239.247 139.897 239.03 140.156 238.752 140.371C238.492 140.57 238.197 140.811 237.884 141.087C237.563 141.371 237.268 141.664 237.008 141.94C236.738 142.233 236.513 142.621 236.33 143.103C236.148 143.595 236.053 144.138 236.053 144.749H238.179C238.179 144.319 238.257 143.913 238.457 143.551C238.622 143.198 238.865 142.896 239.143 142.664C239.429 142.431 239.733 142.173 240.054 141.888C240.393 141.613 240.697 141.337 240.983 141.078C241.278 140.811 241.521 140.44 241.703 139.984C241.894 139.518 241.99 139.001 241.99 138.424C241.99 137.303 241.565 136.364 240.723 135.657ZM238.032 146.732C237.78 146.464 237.468 146.335 237.103 146.335C236.738 146.335 236.435 146.464 236.174 146.732C235.923 146.99 235.801 147.292 235.801 147.636C235.801 147.998 235.923 148.309 236.174 148.576C236.435 148.826 236.738 148.955 237.103 148.955C237.468 148.955 237.78 148.826 238.032 148.576C238.283 148.309 238.414 147.998 238.414 147.636C238.414 147.292 238.283 146.99 238.032 146.732Z" fill="white"/>
<path d="M398.052 179.465C399.819 179.465 401.257 178.037 401.257 176.282V152.114C401.257 150.359 399.819 148.932 398.052 148.932H342.795C341.028 148.932 339.59 150.359 339.59 152.114V176.282C339.59 178.037 341.028 179.465 342.795 179.465H398.052Z" fill="#E1F2FF"/>
<path d="M395.055 158.636V157.299H369.099V158.636H395.055Z" fill="#70BEED"/>
<path d="M395.059 161.846V160.509H382.903V161.846H395.059Z" fill="#70BEED"/>
<path d="M395.056 165.653V165.771V165.888H345.789V165.771V165.653H395.056Z" fill="#70BEED"/>
<path d="M395.056 169.021V169.138H345.789V169.021V168.903H395.056V169.021Z" fill="#70BEED"/>
<path d="M395.056 172.271V172.388H345.789V172.271V172.153H395.056V172.271Z" fill="#70BEED"/>
<path d="M395.056 175.403H366.195V175.52H395.056V175.403Z" fill="#70BEED"/>
<path d="M395.056 175.521H366.195V175.637H395.056V175.521Z" fill="#70BEED"/>
<path d="M350.371 161.846V157.299H345.792V161.846H350.371Z" fill="#70BEED"/>
<path d="M398.051 148.646H342.794C340.876 148.646 339.305 150.205 339.305 152.11V176.275C339.305 178.197 340.876 179.74 342.794 179.74H398.051C399.978 179.74 401.54 178.197 401.54 176.275V152.11C401.54 150.205 399.978 148.646 398.051 148.646ZM400.664 176.275C400.664 177.706 399.492 178.869 398.051 178.869H342.794C341.362 178.869 340.19 177.706 340.19 176.275V157.169C340.19 156.902 340.225 156.652 340.312 156.41V156.385C340.624 155.385 341.553 154.626 342.664 154.575H398.051C399.492 154.575 400.664 155.738 400.664 157.169V176.275ZM353.93 151.619C353.93 152.222 353.453 152.713 352.845 152.713C352.247 152.713 351.752 152.222 351.752 151.619C351.752 151.024 352.247 150.533 352.845 150.533C353.453 150.533 353.93 151.024 353.93 151.619ZM350.181 151.619C350.181 152.222 349.686 152.713 349.087 152.713C348.479 152.713 347.985 152.222 347.985 151.619C347.985 151.024 348.479 150.533 349.087 150.533C349.686 150.533 350.181 151.024 350.181 151.619ZM345.329 150.533C345.936 150.533 346.414 151.024 346.414 151.619C346.414 152.222 345.936 152.713 345.329 152.713C344.712 152.713 344.235 152.222 344.235 151.619C344.235 151.024 344.712 150.533 345.329 150.533Z" fill="#70BEED"/>
<path d="M337.345 165.749C341.146 165.749 344.228 162.689 344.228 158.915C344.228 155.14 341.146 152.08 337.345 152.08C333.543 152.08 330.461 155.14 330.461 158.915C330.461 162.689 333.543 165.749 337.345 165.749Z" fill="#70BEED"/>
<path d="M336.311 162.323L333.503 159.535C333.228 159.262 333.228 158.82 333.503 158.548C333.777 158.275 334.222 158.275 334.497 158.548L336.311 160.349L340.194 156.493C340.468 156.221 340.913 156.221 341.188 156.493C341.462 156.766 341.462 157.208 341.188 157.48L336.311 162.323Z" fill="white"/>
<path d="M323.05 230.449L322.832 231.755L321.855 237.686L317.45 264.55H291.951L290.442 237.686L289.887 227.813L306.806 221.654L307.965 222.289L314.168 225.644L323.05 230.449Z" fill="#193368"/>
<path d="M326.682 234.475L326.393 237.686L323.931 264.549H296.838L293.302 237.686L292.312 230.197L307.965 222.289L308.809 221.857L314.168 225.644L322.832 231.755L326.682 234.475Z" fill="#193972"/>
<path d="M300.803 176.425C304.959 176.425 308.328 173.08 308.328 168.953C308.328 164.827 304.959 161.481 300.803 161.481C296.647 161.481 293.277 164.827 293.277 168.953C293.277 173.08 296.647 176.425 300.803 176.425Z" fill="#FFC5BD"/>
<path d="M276.564 203.264C279.502 203.264 281.885 200.899 281.885 197.981C281.885 195.063 279.502 192.697 276.564 192.697C273.625 192.697 271.242 195.063 271.242 197.981C271.242 200.899 273.625 203.264 276.564 203.264Z" fill="#FFC5BD"/>
<path d="M295.013 164.184L294.87 164.402C287.993 174.889 280.514 184.974 272.469 194.607L280.661 201.352L280.754 201.264C289.863 192.617 298.463 183.456 306.512 173.826L306.599 173.722L295.013 164.184Z" fill="#FFC5BD"/>
<path d="M276.563 203.264C279.502 203.264 281.885 200.899 281.885 197.981C281.885 195.063 279.502 192.697 276.563 192.697C273.625 192.697 271.242 195.063 271.242 197.981C271.242 200.899 273.625 203.264 276.563 203.264Z" fill="#FFC5BD"/>
<path d="M251.355 178.798C253.49 178.798 255.221 177.079 255.221 174.959C255.221 172.839 253.49 171.12 251.355 171.12C249.219 171.12 247.488 172.839 247.488 174.959C247.488 177.079 249.219 178.798 251.355 178.798Z" fill="#FFC5BD"/>
<path d="M280.164 194.092C278.077 192.183 273.897 189.022 269.372 185.389C264.064 181.127 257.41 175.281 253.971 172.134L248.734 177.787C255.229 184.374 265.033 194.177 272.959 201.869L280.164 194.092Z" fill="#FFC5BD"/>
<path d="M306.795 174.395C308.09 172.841 308.8 170.914 308.792 168.97C308.784 166.621 307.772 164.5 305.945 162.999C302.441 160.12 297.232 160.608 294.331 164.087C291.702 167.748 281.836 181.125 277.43 187.001L288.058 195.95C292.803 191.402 303.772 178.808 306.795 174.395Z" fill="#FFD683"/>
<path d="M251.355 178.798C253.49 178.798 255.221 177.079 255.221 174.959C255.221 172.839 253.49 171.12 251.355 171.12C249.219 171.12 247.488 172.839 247.488 174.959C247.488 177.079 249.219 178.798 251.355 178.798Z" fill="#FFC5BD"/>
<path d="M250.823 177.661C249.487 177.227 248.254 177.056 246.681 177.281C244.545 177.587 242.973 178.166 240.869 177.398C239.703 176.972 238.645 176.302 237.526 175.766C236.185 175.123 234.761 174.673 233.374 174.134C232.593 173.83 231.875 172.893 233.082 172.547C234.043 172.273 235.207 172.573 236.131 172.931C234.99 172.241 233.788 171.462 232.707 170.568C232.319 170.247 232.117 169.763 232.637 169.444C232.831 169.326 233.059 169.31 233.279 169.312C235.21 169.327 237.068 170.481 238.744 171.579C238.347 171.113 237.951 170.647 237.555 170.18C237.377 169.971 237.199 169.682 237.317 169.399C237.682 168.527 238.886 169.615 239.263 169.889C239.964 170.4 240.479 170.806 241.18 171.249C241.954 171.738 242.614 172.184 243.568 172.02C245.311 171.721 246.224 171.035 247.983 170.827C249.423 170.657 251.109 170.819 252.485 171.29L250.823 177.661Z" fill="#FFC5BD"/>
<path d="M252.179 171.192C251.6 171.001 250.439 170.026 249.025 169.839C248.196 169.729 247.31 169.899 246.633 169.892C245.656 169.881 243.628 169.644 243.628 169.644C243.24 169.6 242.81 169.656 242.628 169.999C242.346 170.53 242.931 171.103 243.514 171.263L246.6 172.06L247.153 172.483L252.179 171.192Z" fill="#FFC5BD"/>
<path d="M290.898 191.202C291.655 196.715 291.9 202.789 291.276 209.52C290.637 216.412 289.333 230.353 289.413 237.686H327.771C327.893 229.752 327.548 211.158 327.707 204.391C327.878 197.148 328.448 185.058 327.954 175.901C327.495 167.388 326.373 160.298 314.03 155.803L302.759 156.737C297.203 160.675 294.576 163.453 291.359 169.632C289.314 173.561 288.168 177.733 288.693 182.035C289.017 184.824 290.64 189.343 290.898 191.202Z" fill="#FFD683"/>
<path d="M310.188 148.246C314.349 147.854 318.104 144.696 319.177 140.685C318.329 145.049 320.057 149.624 323.153 152.834C324.765 154.506 326.324 157.527 325.055 160.675C330.851 155.294 334.155 147.364 333.881 139.49C333.749 135.695 332.748 131.787 330.239 128.921C327.731 126.055 323.331 124.319 319.758 125.673C317.049 122.364 313.263 120.169 308.435 119.838C305.929 119.665 303.135 120.801 301.811 122.524C299.482 121.963 297.182 122.543 295.195 124.315C292.91 126.352 291.849 130.73 292.354 133.737C292.858 136.744 295.052 139.852 296.845 141.822C298.087 143.188 300.403 144.089 302.13 144.756C305.254 145.961 307.064 147.041 310.188 148.246Z" fill="#193368"/>
<path d="M321.023 132.974C321.298 133.003 321.554 132.82 321.61 132.544C322.168 129.772 321.305 126.941 320.202 125.366C320.03 125.122 319.692 125.063 319.447 125.231C319.202 125.401 319.141 125.737 319.311 125.981C320.252 127.324 321.04 129.885 320.547 132.334C320.489 132.625 320.679 132.909 320.973 132.967C320.989 132.97 321.006 132.973 321.023 132.974Z" fill="#193972"/>
<path d="M315.127 156.626C312.569 159.233 306.033 162.664 302.485 163.163C301.668 163.277 300.171 163.089 300.01 162.063C299.805 160.768 301.103 158.416 302.781 156.737L302.717 156.006L302.719 155.962L301.216 140.213L312.354 137.698L313.202 143.424L315.127 156.626Z" fill="#FFC5BD"/>
<path d="M313.201 143.424C311.459 148.84 307.275 154.085 302.717 156.006L302.718 155.962L301.215 140.213L312.354 137.698L313.201 143.424Z" fill="#EF9B8F"/>
<path d="M309.836 125.556C303.476 123.923 298.448 126.06 296.602 131.136C294.993 135.56 294.755 142.231 295.956 146.782C296.973 150.64 298.854 152.924 302.06 152.748C305.326 152.569 308.774 150.715 310.901 148.557C313.227 146.199 316.18 143.045 317.254 139.262C318.773 133.338 316.984 127.392 309.836 125.556Z" fill="#FFC5BD"/>
<path d="M309.477 124.796C308.782 124.645 308.102 124.534 307.441 124.465C301.661 123.862 297.271 126.408 295.693 131.278C295.408 132.163 295.193 133.144 295.016 134.16C295.239 134.043 295.462 133.923 295.685 133.829C296.903 133.316 298.601 132.156 299.38 131.219C301.927 135.769 306.559 138.665 312.124 140.017C312.434 141.334 312.629 145.27 312.236 147.266L313.954 147.098C315.763 144.896 317.1 142.179 317.881 138.997C319.126 133.295 317.572 126.571 309.477 124.796Z" fill="#193368"/>
<path d="M312.106 138.998C310.848 139.801 309.834 140.993 309.127 142.302C308.107 141.064 307.898 139.224 308.615 137.792C309.597 137.742 310.448 137.843 311.343 138.248C311.453 138.298 311.564 138.353 311.641 138.444C311.719 138.536 311.754 138.673 311.695 138.777C311.724 138.831 312.078 138.944 312.106 138.998Z" fill="#193368"/>
<path d="M313.623 143.072C312.964 144.548 311.359 145.272 310.035 144.69C308.712 144.108 308.173 142.441 308.831 140.965C309.489 139.49 311.095 138.766 312.419 139.347C313.742 139.929 314.281 141.597 313.623 143.072Z" fill="#FFC5BD"/>
<path d="M309.772 142.322C309.759 142.321 309.747 142.32 309.735 142.317C309.591 142.289 309.496 142.15 309.525 142.007C309.575 141.757 309.671 141.518 309.809 141.296C310.275 140.549 311.183 140.146 311.952 140.342C312.089 140.377 312.219 140.429 312.34 140.497C312.584 140.636 312.787 140.839 312.926 141.085C312.999 141.213 312.953 141.373 312.825 141.444C312.702 141.516 312.536 141.473 312.464 141.344C312.371 141.18 312.239 141.047 312.077 140.956C311.999 140.911 311.911 140.876 311.821 140.853C311.268 140.713 310.608 141.014 310.259 141.574C310.155 141.741 310.083 141.921 310.047 142.11C310.019 142.24 309.902 142.329 309.772 142.322Z" fill="#EF9B8F"/>
<path d="M297.532 138.367L293.839 142.467C293.332 143.03 293.587 143.926 294.317 144.141L297.841 145.18L297.532 138.367Z" fill="#FFC5BD"/>
<path d="M298.893 138.964C298.419 138.808 297.908 139.061 297.75 139.531C297.592 140.001 297.848 140.509 298.321 140.666C298.794 140.822 299.305 140.569 299.464 140.099C299.621 139.629 299.366 139.121 298.893 138.964Z" fill="#193368"/>
<path d="M302.333 136.42C302.292 136.232 302.052 136.12 301.828 136.084C300.785 135.913 299.741 136.017 298.716 136.225C298.355 136.299 297.377 136.414 297.523 136.895C297.617 137.208 298.184 137.444 298.543 137.415C299.342 137.351 300.14 137.268 300.933 137.165C301.383 137.106 302.467 137.04 302.333 136.42Z" fill="#193368"/>
<path d="M296.57 145.904L300.705 145.906C299.86 147.578 297.104 147.599 296.57 145.904Z" fill="white"/>
<path d="M301.85 139.958C301.85 139.855 301.833 139.76 301.815 139.648C301.763 139.303 301.642 138.967 301.477 138.657C301.121 138.028 300.609 137.571 299.949 137.278H299.914C299.914 137.278 299.914 137.278 299.906 137.278C299.81 137.244 299.715 137.2 299.619 137.183C299.003 137.002 298.387 137.028 297.823 137.218H297.805C296.85 137.519 296.052 138.269 295.765 139.303C295.661 139.674 295.618 140.036 295.661 140.406V140.415C295.661 140.424 295.661 140.424 295.661 140.441C295.696 140.863 295.826 141.268 296.034 141.648C296.382 142.277 296.911 142.742 297.553 143.001C297.614 143.027 297.675 143.052 297.744 143.061C297.797 143.087 297.857 143.113 297.901 143.121C298.178 143.208 298.474 143.242 298.734 143.242C299.263 143.242 299.802 143.121 300.27 142.863C300.722 142.613 301.095 142.26 301.373 141.846C301.373 141.837 301.381 141.837 301.381 141.829C301.538 141.579 301.668 141.303 301.755 141.001C301.833 140.691 301.876 140.381 301.859 140.071C301.859 140.036 301.859 139.993 301.85 139.958ZM301.459 140.915C301.425 141.053 301.381 141.173 301.329 141.294V141.311C301.329 141.311 301.329 141.32 301.321 141.32C301.043 141.872 300.652 142.294 300.123 142.596C299.506 142.932 298.803 143.044 298.144 142.889C298.083 142.871 298.04 142.863 297.987 142.845C297.901 142.828 297.814 142.785 297.736 142.751C297.119 142.509 296.607 142.096 296.295 141.518C296.173 141.311 296.095 141.122 296.034 140.889V140.872C295.956 140.631 295.939 140.389 295.939 140.139V140.131C295.939 139.889 295.974 139.622 296.043 139.39C296.356 138.304 297.25 137.58 298.291 137.399C298.3 137.399 298.3 137.399 298.3 137.399H298.317C298.552 137.364 298.76 137.347 298.986 137.373H299.012C299.194 137.382 299.35 137.425 299.533 137.468C299.637 137.502 299.741 137.537 299.845 137.58C300.427 137.812 300.904 138.243 301.225 138.795C301.451 139.217 301.572 139.665 301.572 140.131V140.139C301.572 140.406 301.538 140.665 301.459 140.915Z" fill="white"/>
<path d="M301.786 139.958C303.008 139.894 305.746 139.759 306.967 139.695C307.168 139.684 307.164 139.373 306.962 139.384C305.866 139.441 301.907 139.64 301.781 139.647C301.581 139.657 301.584 139.968 301.786 139.958Z" fill="white"/>
<path d="M319.451 176.312C323.607 176.312 326.977 172.967 326.977 168.84C326.977 164.713 323.607 161.368 319.451 161.368C315.295 161.368 311.926 164.713 311.926 168.84C311.926 172.967 315.295 176.312 319.451 176.312Z" fill="#FFC5BD"/>
<path d="M324.778 211.458C327.717 211.458 330.1 209.093 330.1 206.175C330.1 203.257 327.717 200.892 324.778 200.892C321.839 200.892 319.457 203.257 319.457 206.175C319.457 209.093 321.839 211.458 324.778 211.458Z" fill="#FFC5BD"/>
<path d="M312 169.888L312.067 170.14C315.256 182.246 317.741 194.525 319.508 206.915L330.045 205.434L330.042 205.307C329.725 192.797 328.683 180.316 326.921 167.926L326.902 167.792L312 169.888Z" fill="#FFC5BD"/>
<path d="M324.778 211.458C327.717 211.458 330.1 209.093 330.1 206.175C330.1 203.257 327.717 200.892 324.778 200.892C321.839 200.892 319.457 203.257 319.457 206.175C319.457 209.093 321.839 211.458 324.778 211.458Z" fill="#FFC5BD"/>
<path d="M295.382 224.839C297.517 224.839 299.248 223.12 299.248 221C299.248 218.88 297.517 217.161 295.382 217.161C293.247 217.161 291.516 218.88 291.516 221C291.516 223.12 293.247 224.839 295.382 224.839Z" fill="#FFC5BD"/>
<path d="M322.394 201.451C319.856 202.711 315.397 205.47 310.371 208.382C304.474 211.798 297.831 215.491 293.648 217.567L297.114 224.434C305.621 220.741 317.107 215.528 327.163 210.898L322.394 201.451Z" fill="#FFC5BD"/>
<path d="M327.536 168.098C327.249 166.101 326.29 164.284 324.837 162.981C323.081 161.408 320.82 160.724 318.471 161.057C313.969 161.694 310.829 165.85 311.47 170.321C312.429 174.715 315.762 190.962 317.177 198.152L330.996 196.363C330.798 189.818 328.791 173.287 327.536 168.098Z" fill="#FFD683"/>
<path d="M295.351 224.835C297.468 224.835 299.183 223.131 299.183 221.03C299.183 218.929 297.468 217.226 295.351 217.226C293.235 217.226 291.52 218.929 291.52 221.03C291.52 223.131 293.235 224.835 295.351 224.835Z" fill="#FFC5BD"/>
<path d="M296.216 224.737C294.281 225.055 292.548 225.956 290.636 226.335C289.316 226.594 287.934 226.54 286.636 226.185C285.315 225.824 284.153 226.076 282.826 226.378C282.589 226.431 282.343 226.485 282.105 226.438C281.866 226.391 281.636 226.214 281.609 225.974C281.577 225.683 281.836 225.448 282.075 225.275C283.433 224.289 284.937 223.501 286.523 222.945C286.216 223.053 285.602 222.901 285.252 222.937C284.817 222.981 284.39 223.071 283.965 223.169C283.029 223.384 282.095 223.597 281.146 223.749C280.554 223.844 279.855 223.451 280.249 222.772C280.414 222.488 280.707 222.304 280.993 222.14C282.659 221.186 284.496 220.527 286.391 220.202C284.988 219.875 283.541 220.348 282.135 220.662C281.419 220.822 280.703 220.958 279.99 221.133C279.587 221.232 279.034 221.059 278.859 220.657C278.649 220.174 279.087 219.783 279.479 219.573C280.671 218.934 282.008 218.541 283.307 218.181C284.598 217.823 285.864 217.73 287.189 217.586C286.196 217.258 285.133 217.257 284.104 217.375C283.59 217.433 283.081 217.522 282.574 217.617C282.129 217.701 281.667 217.894 281.209 217.805C280.837 217.733 280.486 217.393 280.556 217.023C280.619 216.693 280.964 216.505 281.275 216.371C282.742 215.736 284.283 215.272 285.858 214.989C286.503 214.873 287.199 214.85 287.851 214.938C288.313 215.001 288.776 215.072 289.227 215.191C290.735 215.588 294.448 216.683 295.997 216.604C296.048 217.263 296.07 223.886 296.216 224.737Z" fill="#FFC5BD"/>
<path d="M291.729 190.31C291.793 190.307 291.856 190.294 291.916 190.268C292.194 190.151 292.322 189.833 292.205 189.558C290.624 185.871 289.708 179.237 290.982 174.948C291.066 174.662 290.901 174.362 290.614 174.277C290.327 174.194 290.024 174.355 289.937 174.643C288.595 179.161 289.548 186.123 291.202 189.982C291.293 190.196 291.508 190.32 291.729 190.31Z" fill="#FFC255"/>
<path d="M315.953 198.984L317.77 198.908C318.071 198.895 318.304 198.644 318.292 198.345C318.279 198.046 318.028 197.811 317.725 197.828L316.877 197.863L313.606 177.181C313.56 176.886 313.279 176.687 312.984 176.732C312.686 176.778 312.484 177.055 312.53 177.35L315.953 198.984Z" fill="#FFC255"/>
<path d="M301.52 166.13C301.673 166.13 301.828 166.125 301.987 166.115C305.73 165.88 311.563 163.813 316.159 159.724C316.382 159.525 316.401 159.183 316.201 158.961C315.997 158.738 315.653 158.721 315.431 158.919C311.032 162.835 305.475 164.812 301.919 165.036C300.156 165.144 298.844 164.517 298.64 163.427C298.559 162.992 298.776 161.959 299.136 161.419C299.302 161.17 299.231 160.835 298.98 160.671C298.736 160.505 298.396 160.574 298.226 160.824C297.737 161.56 297.43 162.868 297.568 163.623C297.86 165.175 299.389 166.13 301.52 166.13Z" fill="#FFC255"/>
<path d="M356.083 264.552C352.437 266.749 348.644 268.757 344.721 270.585H102.392C97.5402 268.792 92.7402 266.784 88.0703 264.552H356.083Z" fill="#51A9DE"/>
</svg>
