<svg width="500" height="500" viewBox="0 0 500 500" fill="none" xmlns="http://www.w3.org/2000/svg">
<path d="M449.899 398.494H416.777V398.744H449.899V398.494Z" fill="#EBEBEB"/>
<path d="M331.22 401.208H322.527V401.458H331.22V401.208Z" fill="#EBEBEB"/>
<path d="M415.778 389.208H396.586V389.458H415.778V389.208Z" fill="#EBEBEB"/>
<path d="M95.6539 390.888H52.4609V391.138H95.6539V390.888Z" fill="#EBEBEB"/>
<path d="M110.888 390.888H104.555V391.138H110.888V390.888Z" fill="#EBEBEB"/>
<path d="M225.149 395.111H131.473V395.361H225.149V395.111Z" fill="#EBEBEB"/>
<path d="M237.014 337.8H43.915C40.768 337.8 38.207 335.239 38.207 332.092V60.6601C38.207 57.5131 40.768 54.9521 43.915 54.9521H237.014C240.16 54.9521 242.721 57.5131 242.721 60.6601V332.092C242.721 335.239 240.16 337.8 237.014 337.8ZM43.915 55.2031C40.905 55.2031 38.457 57.6511 38.457 60.6611V332.093C38.457 335.103 40.905 337.551 43.915 337.551H237.014C240.023 337.551 242.471 335.103 242.471 332.093V60.6601C242.471 57.6511 240.023 55.2021 237.014 55.2021L43.915 55.2031Z" fill="#EBEBEB"/>
<path d="M453.309 337.8H260.211C257.064 337.8 254.504 335.239 254.504 332.092V60.6601C254.504 57.5131 257.065 54.9521 260.211 54.9521H453.309C456.457 54.9521 459.017 57.5131 459.017 60.6601V332.092C459.018 335.239 456.457 337.8 453.309 337.8ZM260.211 55.2031C257.202 55.2031 254.754 57.6511 254.754 60.6611V332.093C254.754 335.103 257.202 337.551 260.211 337.551H453.309C456.319 337.551 458.767 335.103 458.767 332.093V60.6601C458.767 57.6511 456.319 55.2021 453.309 55.2021L260.211 55.2031Z" fill="#EBEBEB"/>
<path d="M500 382.398H0V382.648H500V382.398Z" fill="#EBEBEB"/>
<path d="M314.72 171.899H169.02L177.707 72.6016H323.408L314.72 171.899Z" fill="#F5F5F5"/>
<path d="M265.066 154.224H185.973V155.005H265.066V154.224Z" fill="#E0E0E0"/>
<path d="M266.756 139.816H186.977L187.014 139.392L191.818 84.4717H271.597L271.56 84.8967L266.756 139.816ZM187.828 139.035H266.038L270.744 85.2537H192.534L187.828 139.035Z" fill="#E0E0E0"/>
<path d="M190.231 166.015H188.079C187.177 166.015 186.358 165.662 185.77 165.022C185.18 164.378 184.899 163.525 184.978 162.619L185.166 160.469C185.326 158.633 186.951 157.14 188.787 157.14H190.939C191.841 157.14 192.662 157.492 193.248 158.133C193.838 158.775 194.119 159.63 194.04 160.536L193.852 162.686C193.692 164.521 192.067 166.015 190.231 166.015ZM188.788 157.92C187.346 157.92 186.072 159.093 185.945 160.535L185.757 162.685C185.698 163.371 185.907 164.014 186.346 164.493C186.784 164.971 187.399 165.233 188.079 165.233H190.231C191.673 165.233 192.947 164.059 193.074 162.618L193.262 160.468C193.322 159.781 193.112 159.139 192.673 158.658C192.235 158.182 191.62 157.92 190.94 157.92H188.788Z" fill="#E0E0E0"/>
<path d="M226.395 149.648H186.113L186.485 145.378H226.767L226.395 149.648ZM186.965 148.867H225.678L225.916 146.16H187.203L186.965 148.867Z" fill="#E0E0E0"/>
<path d="M264.611 163.71H248.566L248.938 159.442H264.983L264.611 163.71ZM249.417 162.929H263.894L264.132 160.224H249.655L249.417 162.929Z" fill="#E0E0E0"/>
<path d="M265.894 149.648H261.621L261.993 145.378H266.266L265.894 149.648ZM262.473 148.867H265.177L265.415 146.16H262.711L262.473 148.867Z" fill="#E0E0E0"/>
<path d="M259.984 149.648H255.711L256.083 145.378H260.356L259.984 149.648ZM256.563 148.867H259.267L259.505 146.16H256.801L256.563 148.867Z" fill="#E0E0E0"/>
<path d="M254.072 149.648H249.801L250.173 145.378H254.444L254.072 149.648ZM250.652 148.867H253.354L253.592 146.16H250.889L250.652 148.867Z" fill="#E0E0E0"/>
<path d="M271.956 80.3358H211.926L212.255 76.5488H272.285L271.956 80.3358ZM212.777 79.5538H271.239L271.434 77.3288H212.972L212.777 79.5538Z" fill="#E0E0E0"/>
<path d="M208.033 80.5766H191.988L192.36 76.3066H208.405L208.033 80.5766ZM192.839 79.7946H207.315L207.553 77.0876H193.076L192.839 79.7946Z" fill="#E0E0E0"/>
<path d="M309.647 102.432H281.457L282.872 86.2354H311.064L309.647 102.432ZM282.309 101.651H308.93L310.212 87.0173H283.589L282.309 101.651Z" fill="#E0E0E0"/>
<path d="M306.987 132.841H278.797L280.213 116.643H308.403L306.987 132.841ZM279.648 132.06H306.269L307.551 117.425H280.93L279.648 132.06Z" fill="#E0E0E0"/>
<path d="M304.327 163.248H276.137L277.553 147.05H305.743L304.327 163.248ZM276.989 162.467H303.61L304.892 147.832H278.271L276.989 162.467Z" fill="#E0E0E0"/>
<path d="M310.462 86.2749L281.715 101.707L282.084 102.395L310.831 86.9631L310.462 86.2749Z" fill="#E0E0E0"/>
<path d="M309.093 102.379L283.035 86.963L283.432 86.29L309.49 101.706L309.093 102.379Z" fill="#E0E0E0"/>
<path d="M307.798 116.712L279.031 132.105L279.4 132.795L308.167 117.402L307.798 116.712Z" fill="#E0E0E0"/>
<path d="M280.78 116.688L280.383 117.36L306.441 132.777L306.839 132.105L280.78 116.688Z" fill="#E0E0E0"/>
<path d="M276.113 163.543L277.578 146.79L290.951 154.702L305.135 147.097L305.504 147.787L291.737 155.167L304.169 162.524L303.772 163.195L290.933 155.599L276.113 163.543ZM278.249 148.093L277.016 162.173L290.147 155.134L278.249 148.093Z" fill="#E0E0E0"/>
<path d="M270.951 84.5535L187.176 139.098L187.602 139.753L271.378 85.2088L270.951 84.5535Z" fill="#E0E0E0"/>
<path d="M192.405 84.5516L191.941 85.1816L266.162 139.744L266.625 139.114L192.405 84.5516Z" fill="#E0E0E0"/>
<path d="M372.475 382.948H292.305L303.61 253.731H383.78L372.475 382.948Z" fill="#F5F5F5"/>
<path d="M318.522 377.182H298.992L300.192 363.45H319.723L318.522 377.182ZM299.858 376.387H317.792L318.856 364.244H300.92L299.858 376.387Z" fill="#E0E0E0"/>
<path d="M342.289 377.182H322.758L323.959 363.45H343.489L342.289 377.182ZM323.624 376.387H341.56L342.623 364.244H324.689L323.624 376.387Z" fill="#E0E0E0"/>
<path d="M366.053 377.182H346.523L347.722 363.45H367.253L366.053 377.182ZM347.389 376.387H365.323L366.387 364.244H348.451L347.389 376.387Z" fill="#E0E0E0"/>
<path d="M368.528 343.937H302.262V344.731H368.528V343.937Z" fill="#E0E0E0"/>
<path d="M347.438 325.431H303.598L304.039 320.376H347.879L347.438 325.431ZM304.464 324.637H346.709L347.013 321.171H304.768L304.464 324.637Z" fill="#E0E0E0"/>
<path d="M367.758 357.717H349.578L350.014 352.724H368.194L367.758 357.717ZM350.445 356.923H367.029L367.329 353.519H350.744L350.445 356.923Z" fill="#E0E0E0"/>
<path d="M369.469 338.191H362.559L363.163 331.286H370.071L369.469 338.191ZM363.425 337.396H368.739L369.204 332.08H363.891L363.425 337.396Z" fill="#E0E0E0"/>
<path d="M339.418 338.191H332.508L333.112 331.286H340.022L339.418 338.191ZM333.374 337.396H338.688L339.155 332.08H333.84L333.374 337.396Z" fill="#E0E0E0"/>
<path d="M309.367 338.191H302.457L303.059 331.286H309.969L309.367 338.191ZM303.323 337.396H308.637L309.103 332.08H303.788L303.323 337.396Z" fill="#E0E0E0"/>
<path d="M329.465 265.752H308.82L309.285 260.421H329.93L329.465 265.752ZM309.686 264.957H328.736L329.065 261.215H310.015L309.686 264.957Z" fill="#E0E0E0"/>
<path d="M307.22 359.103H305.484C304.199 359.103 303.034 358.602 302.201 357.693C301.363 356.779 300.964 355.566 301.078 354.276L301.23 352.54C301.46 349.916 303.782 347.781 306.406 347.781H308.141C309.426 347.781 310.591 348.282 311.426 349.193C312.264 350.107 312.663 351.32 312.55 352.608L312.398 354.344C312.166 356.968 309.844 359.103 307.22 359.103ZM306.405 348.575C304.181 348.575 302.215 350.384 302.02 352.608L301.868 354.344C301.775 355.41 302.101 356.408 302.787 357.156C303.467 357.899 304.426 358.309 305.484 358.309H307.22C309.444 358.309 311.411 356.5 311.605 354.276L311.757 352.54C311.85 351.476 311.524 350.476 310.838 349.728C310.157 348.985 309.198 348.575 308.14 348.575H306.405Z" fill="#E0E0E0"/>
<path d="M371.306 316.147H304.379L304.416 315.716L308.444 269.677H375.37L375.333 270.109L371.306 316.147ZM305.244 315.353H370.576L374.503 270.472H309.172L305.244 315.353Z" fill="#E0E0E0"/>
<path d="M309.037 269.763L308.566 270.403L370.698 316.079L371.169 315.438L309.037 269.763Z" fill="#E0E0E0"/>
<path d="M305.025 316.084L304.59 315.417L374.283 270.139L374.717 270.805L305.025 316.084Z" fill="#E0E0E0"/>
<path d="M317.921 377.103L300.32 364.165L300.792 363.526L318.393 376.464L317.921 377.103Z" fill="#E0E0E0"/>
<path d="M319.054 363.51L299.188 376.444L299.622 377.111L319.488 364.177L319.054 363.51Z" fill="#E0E0E0"/>
<path d="M341.686 377.103L324.086 364.165L324.558 363.526L342.158 376.464L341.686 377.103Z" fill="#E0E0E0"/>
<path d="M342.833 363.506L322.969 376.445L323.403 377.112L343.267 364.173L342.833 363.506Z" fill="#E0E0E0"/>
<path d="M365.453 377.103L347.852 364.165L348.324 363.526L365.925 376.464L365.453 377.103Z" fill="#E0E0E0"/>
<path d="M366.598 363.506L346.734 376.445L347.169 377.112L367.033 364.173L366.598 363.506Z" fill="#E0E0E0"/>
<path d="M396.763 102.431C396.763 100.151 396.427 97.9459 395.794 95.8739L401.547 90.8139L397.924 84.5399L390.664 86.9949C387.66 83.7889 383.735 81.4609 379.309 80.4329L377.801 72.9229H370.557L369.056 80.4329C364.63 81.4609 360.698 83.7889 357.694 86.9949L350.435 84.5399L346.812 90.8139L352.564 95.8739C351.935 97.9459 351.595 100.151 351.595 102.431C351.595 104.716 351.936 106.916 352.564 108.993L346.812 114.048L350.435 120.322L357.694 117.867C360.698 121.073 364.63 123.401 369.056 124.434L370.557 131.944H377.801L379.309 124.434C383.735 123.401 387.66 121.073 390.664 117.867L397.924 120.322L401.547 114.048L395.794 108.993C396.427 106.915 396.763 104.716 396.763 102.431ZM374.18 114.622C367.698 114.622 362.445 109.365 362.445 102.883C362.445 96.4009 367.698 91.1439 374.18 91.1439C380.662 91.1439 385.918 96.4009 385.918 102.883C385.919 109.366 380.662 114.622 374.18 114.622Z" fill="#EBEBEB"/>
<path d="M148.725 292.482C150.664 288.807 151.998 284.967 152.738 281.088L166.314 277.823L165.811 264.628L152.02 262.412C149.904 254.688 145.555 247.598 139.295 242.177L143.252 228.788L131.575 222.628L122.767 233.457C114.758 231.35 106.441 231.76 98.8722 234.374L89.2572 224.242L78.0832 231.277L83.0532 244.326C80.2782 247.132 77.8532 250.396 75.9142 254.071C73.9712 257.755 72.6502 261.591 71.8962 265.474L58.3242 268.73L58.8272 281.925L72.6182 284.141C74.7342 291.865 79.0912 298.96 85.3482 304.389L81.3832 317.773L93.0602 323.933L101.877 313.108C109.891 315.206 118.198 314.792 125.768 312.178L135.383 322.31L146.557 315.275L141.582 302.235C144.37 299.426 146.782 296.165 148.725 292.482ZM101.951 292.931C91.5022 287.419 87.5062 274.478 93.0192 264.028C98.5312 253.578 111.468 249.57 121.918 255.082C132.367 260.594 136.371 273.54 130.859 283.989C125.346 294.439 112.401 298.443 101.951 292.931Z" fill="#EBEBEB"/>
<path d="M395.979 257.348L403.823 261.694C404.216 261.915 404.478 262.112 404.608 262.285C404.738 262.458 404.802 262.679 404.802 262.946C404.802 263.285 404.68 263.578 404.436 263.826C404.192 264.074 403.909 264.198 403.586 264.198C403.374 264.198 403.055 264.08 402.63 263.844L392.512 258.217C391.83 257.838 391.83 256.857 392.512 256.478L402.63 250.851C403.055 250.622 403.369 250.508 403.574 250.508C403.905 250.508 404.192 250.63 404.436 250.874C404.68 251.118 404.802 251.41 404.802 251.748C404.802 252.016 404.738 252.236 404.608 252.409C404.478 252.582 404.216 252.779 403.823 252.999L395.979 257.348Z" fill="#EBEBEB"/>
<path d="M416.159 249.245L408.399 265.97C408.202 266.387 408.025 266.659 407.867 266.785C407.662 266.95 407.414 267.033 407.123 267.033C406.792 267.033 406.507 266.915 406.266 266.678C406.026 266.442 405.906 266.174 405.906 265.875C405.906 265.663 406 265.351 406.189 264.942L413.973 248.229C414.17 247.812 414.343 247.54 414.493 247.414C414.706 247.249 414.954 247.166 415.237 247.166C415.568 247.166 415.851 247.282 416.087 247.514C416.324 247.746 416.442 248.012 416.442 248.311C416.443 248.524 416.348 248.836 416.159 249.245Z" fill="#EBEBEB"/>
<path d="M425.917 257.348L418.074 253.001C417.68 252.781 417.419 252.584 417.289 252.411C417.159 252.238 417.094 252.017 417.094 251.75C417.094 251.411 417.216 251.12 417.46 250.876C417.704 250.632 417.991 250.51 418.322 250.51C418.527 250.51 418.842 250.624 419.267 250.853L429.385 256.48C430.067 256.859 430.067 257.84 429.385 258.219L419.267 263.846C418.842 264.082 418.527 264.2 418.322 264.2C417.987 264.2 417.697 264.075 417.451 263.825C417.219 263.589 417.094 263.278 417.094 262.947C417.094 262.68 417.159 262.459 417.289 262.287C417.419 262.114 417.68 261.917 418.074 261.696L425.917 257.348Z" fill="#EBEBEB"/>
<path d="M245.178 423.714C352.26 423.714 439.067 418.645 439.067 412.391C439.067 406.138 352.26 401.068 245.178 401.068C138.096 401.068 51.2891 406.138 51.2891 412.391C51.2891 418.645 138.096 423.714 245.178 423.714Z" fill="#F5F5F5"/>
<path d="M113.549 186.338H76.5348C74.8458 186.338 73.3108 185.679 72.2148 184.483C71.1118 183.28 70.5868 181.683 70.7358 179.985L78.4758 91.516C78.7778 88.061 81.8358 85.25 85.2918 85.25H94.9128C95.8148 85.25 96.5228 85.926 96.5588 86.823L96.5708 87.124C96.6208 88.373 97.6098 89.314 98.8708 89.314H108.017C109.321 89.314 110.516 88.335 110.795 87.038L110.86 86.737C111.045 85.875 111.813 85.249 112.686 85.249H122.307C123.996 85.249 125.531 85.908 126.628 87.105C127.731 88.308 128.255 89.905 128.107 91.602L120.367 180.071C120.063 183.527 117.005 186.338 113.549 186.338ZM85.2908 86.25C82.3398 86.25 79.7288 88.651 79.4708 91.603L71.7308 180.072C71.6068 181.487 72.0408 182.813 72.9508 183.807C73.8558 184.794 75.1288 185.338 76.5338 185.338H113.548C116.499 185.338 119.109 182.937 119.368 179.985L127.108 91.516C127.231 90.102 126.798 88.775 125.888 87.782C124.983 86.794 123.71 86.25 122.304 86.25H112.683C112.291 86.25 111.918 86.557 111.834 86.948L111.769 87.25C111.393 88.997 109.778 90.315 108.014 90.315H98.8698C97.0618 90.315 95.6438 88.961 95.5708 87.165L95.5588 86.864C95.5448 86.509 95.2728 86.251 94.9128 86.251L85.2908 86.25Z" fill="#407BFF"/>
<path d="M126.9 99.1426H78.2656V100.143H126.9V99.1426Z" fill="#407BFF"/>
<path d="M122.305 85.25H112.684V86.25H122.305V85.25Z" fill="#407BFF"/>
<path d="M113.262 140.466H84.8828L87.3658 112.091H115.745L113.262 140.466ZM85.9738 139.466H112.346L114.654 113.091H88.2818L85.9738 139.466Z" fill="#407BFF"/>
<path d="M113.6 172.519H78.8164L79.7364 161.995H114.521L113.6 172.519ZM79.9074 171.519H112.684L113.43 162.995H80.6534L79.9074 171.519Z" fill="#407BFF"/>
<path d="M90.7219 155.064C89.9169 155.064 89.1859 154.749 88.6609 154.177C88.1339 153.602 87.8829 152.841 87.9529 152.033C88.0949 150.41 89.5319 149.089 91.1559 149.089C91.9609 149.089 92.6929 149.404 93.2169 149.976C93.7429 150.551 93.9949 151.312 93.9239 152.12C93.7829 153.744 92.3469 155.064 90.7219 155.064ZM91.1579 150.089C90.0389 150.089 89.0489 151 88.9509 152.12C88.9049 152.645 89.0639 153.136 89.3999 153.501C89.7319 153.864 90.2019 154.064 90.7229 154.064C91.8419 154.064 92.8319 153.153 92.9299 152.033C92.9759 151.508 92.8169 151.018 92.4819 150.652C92.1479 150.289 91.6779 150.089 91.1579 150.089Z" fill="#407BFF"/>
<path d="M97.9165 155.064C97.1115 155.064 96.3805 154.749 95.8555 154.177C95.3285 153.602 95.0775 152.841 95.1485 152.033C95.2905 150.41 96.7275 149.089 98.3515 149.089C99.1565 149.089 99.8885 149.404 100.413 149.976C100.939 150.551 101.191 151.312 101.12 152.12C100.978 153.744 99.5415 155.064 97.9165 155.064ZM98.3515 150.089C97.2325 150.089 96.2425 151 96.1445 152.12C96.0985 152.645 96.2575 153.136 96.5935 153.501C96.9265 153.864 97.3955 154.064 97.9165 154.064C99.0355 154.064 100.026 153.153 100.124 152.033C100.17 151.508 100.011 151.018 99.6755 150.652C99.3425 150.289 98.8725 150.089 98.3515 150.089Z" fill="#407BFF"/>
<path d="M105.108 155.064C104.303 155.064 103.571 154.748 103.047 154.176C102.521 153.601 102.27 152.839 102.34 152.032C102.482 150.41 103.919 149.089 105.543 149.089C106.348 149.089 107.08 149.404 107.604 149.977C108.13 150.552 108.381 151.313 108.311 152.12C108.169 153.744 106.732 155.064 105.108 155.064ZM105.543 150.089C104.424 150.089 103.434 151 103.336 152.12C103.29 152.645 103.449 153.136 103.784 153.501C104.116 153.864 104.586 154.064 105.107 154.064C106.226 154.064 107.216 153.153 107.314 152.033V152.032C107.36 151.508 107.201 151.017 106.866 150.652C106.534 150.29 106.064 150.089 105.543 150.089Z" fill="#407BFF"/>
<path d="M402.884 286.545H354.25V287.545H402.884V286.545Z" fill="#407BFF"/>
<path d="M389.505 373.74H352.491C350.802 373.74 349.268 373.081 348.172 371.885C347.07 370.682 346.545 369.084 346.693 367.386L354.432 278.918C354.734 275.463 357.793 272.652 361.249 272.652H370.87C371.772 272.652 372.48 273.328 372.516 274.225L372.528 274.526C372.577 275.775 373.566 276.716 374.827 276.716H383.974C385.279 276.716 386.473 275.738 386.751 274.441L386.817 274.139C386.999 273.291 387.783 272.652 388.642 272.652H398.263C399.953 272.652 401.488 273.311 402.585 274.507C403.687 275.71 404.212 277.307 404.064 279.005L396.323 367.473C396.019 370.929 392.962 373.74 389.505 373.74ZM361.249 273.652C358.298 273.652 355.687 276.053 355.429 279.006L347.689 367.474C347.565 368.889 347.999 370.215 348.909 371.209C349.814 372.196 351.085 372.74 352.491 372.74H389.505C392.456 372.74 395.068 370.339 395.326 367.386L403.065 278.918C403.189 277.504 402.755 276.178 401.845 275.184C400.94 274.197 399.667 273.653 398.262 273.653H388.642C388.25 273.653 387.876 273.96 387.792 274.351L387.728 274.653C387.353 276.4 385.738 277.717 383.973 277.717H374.826C373.018 277.717 371.598 276.363 371.526 274.568L371.514 274.266C371.5 273.911 371.229 273.653 370.869 273.653H361.249V273.652Z" fill="#407BFF"/>
<path d="M395.71 300.437H359.167C358.391 300.437 357.685 300.133 357.179 299.581C356.671 299.026 356.428 298.292 356.496 297.513C356.633 295.949 358.018 294.676 359.583 294.676H396.126C396.902 294.676 397.608 294.98 398.114 295.533C398.622 296.087 398.864 296.822 398.797 297.6C398.66 299.165 397.275 300.437 395.71 300.437ZM359.583 295.676C358.523 295.676 357.584 296.539 357.492 297.601C357.448 298.097 357.599 298.56 357.916 298.906C358.23 299.25 358.675 299.438 359.167 299.438H395.71C396.77 299.438 397.708 298.575 397.801 297.513C397.844 297.017 397.694 296.553 397.377 296.208C397.063 295.864 396.618 295.676 396.126 295.676H359.583Z" fill="#407BFF"/>
<path d="M394.877 309.96H358.334C357.558 309.96 356.852 309.656 356.346 309.103C355.838 308.548 355.595 307.814 355.664 307.035C355.801 305.471 357.185 304.198 358.751 304.198H395.294C396.07 304.198 396.776 304.502 397.282 305.054C397.79 305.609 398.032 306.343 397.964 307.122C397.828 308.688 396.443 309.96 394.877 309.96ZM358.751 305.198C357.69 305.198 356.752 306.061 356.66 307.123C356.616 307.619 356.767 308.083 357.083 308.428C357.397 308.772 357.841 308.96 358.334 308.96H394.877C395.938 308.96 396.876 308.097 396.968 307.036C397.011 306.539 396.861 306.076 396.545 305.73C396.231 305.386 395.786 305.198 395.294 305.198H358.751Z" fill="#407BFF"/>
<path d="M394.045 319.485H357.502C356.726 319.485 356.02 319.181 355.514 318.628C355.006 318.073 354.764 317.339 354.831 316.56C354.968 314.995 356.353 313.723 357.918 313.723H394.461C395.237 313.723 395.943 314.027 396.449 314.579C396.957 315.133 397.199 315.868 397.132 316.646C396.995 318.213 395.611 319.485 394.045 319.485ZM357.919 314.724C356.859 314.724 355.921 315.587 355.828 316.649C355.784 317.145 355.935 317.608 356.252 317.954C356.566 318.298 357.011 318.486 357.503 318.486H394.046C395.106 318.486 396.044 317.623 396.137 316.561C396.18 316.065 396.03 315.601 395.713 315.256C395.399 314.912 394.954 314.724 394.462 314.724H357.919Z" fill="#407BFF"/>
<path d="M391.76 345.577H355.217C354.441 345.577 353.734 345.273 353.228 344.721C352.72 344.166 352.478 343.432 352.546 342.653C352.683 341.089 354.068 339.816 355.633 339.816H392.176C392.952 339.816 393.658 340.12 394.164 340.673C394.672 341.228 394.915 341.962 394.847 342.741C394.711 344.305 393.326 345.577 391.76 345.577ZM355.634 340.815C354.573 340.815 353.635 341.678 353.543 342.74C353.5 343.236 353.65 343.7 353.966 344.045C354.28 344.389 354.725 344.577 355.217 344.577H391.76C392.82 344.577 393.759 343.714 393.851 342.652C393.894 342.156 393.743 341.693 393.427 341.347C393.113 341.003 392.668 340.815 392.176 340.815H355.634Z" fill="#407BFF"/>
<path d="M390.928 355.102H354.385C353.609 355.102 352.903 354.798 352.397 354.245C351.889 353.69 351.647 352.956 351.714 352.177C351.851 350.613 353.236 349.34 354.801 349.34H391.344C392.12 349.34 392.826 349.644 393.332 350.196C393.84 350.751 394.082 351.485 394.014 352.264C393.879 353.829 392.494 355.102 390.928 355.102ZM354.802 350.34C353.742 350.34 352.803 351.203 352.711 352.265C352.668 352.761 352.818 353.224 353.135 353.57C353.45 353.914 353.894 354.102 354.386 354.102H390.929C391.99 354.102 392.928 353.239 393.02 352.177C393.063 351.681 392.913 351.217 392.597 350.872C392.283 350.528 391.839 350.34 391.346 350.34H354.802Z" fill="#407BFF"/>
<path d="M390.096 364.625H353.553C352.777 364.625 352.07 364.321 351.564 363.769C351.056 363.214 350.814 362.48 350.882 361.701C351.019 360.137 352.404 358.864 353.969 358.864H390.512C391.288 358.864 391.994 359.168 392.5 359.72C393.008 360.275 393.251 361.009 393.183 361.788C393.046 363.353 391.661 364.625 390.096 364.625ZM353.969 359.863C352.908 359.863 351.97 360.726 351.878 361.788C351.835 362.284 351.985 362.748 352.301 363.093C352.616 363.437 353.06 363.625 353.552 363.625H390.095C391.155 363.625 392.094 362.762 392.186 361.7C392.229 361.204 392.079 360.741 391.762 360.395C391.448 360.051 391.003 359.863 390.511 359.863H353.969Z" fill="#407BFF"/>
<path d="M413.557 193.904H376.543C374.854 193.904 373.319 193.245 372.223 192.049C371.12 190.846 370.595 189.249 370.744 187.552L378.484 99.0834C378.786 95.6284 381.844 92.8174 385.3 92.8174H394.921C395.823 92.8174 396.531 93.4934 396.566 94.3904L396.578 94.6924C396.628 95.9414 397.617 96.8824 398.878 96.8824H408.024C409.328 96.8824 410.523 95.9044 410.802 94.6074L410.867 94.3064C411.052 93.4444 411.82 92.8184 412.693 92.8184H422.314C424.004 92.8184 425.539 93.4774 426.635 94.6744C427.737 95.8774 428.262 97.4744 428.114 99.1714L420.374 187.64C420.071 191.093 417.013 193.904 413.557 193.904ZM385.299 93.8164C382.348 93.8164 379.738 96.2174 379.479 99.1694L371.739 187.638C371.615 189.053 372.049 190.379 372.959 191.373C373.864 192.36 375.137 192.904 376.542 192.904H413.556C416.507 192.904 419.117 190.503 419.376 187.551L427.116 99.0824C427.24 97.6684 426.806 96.3414 425.896 95.3484C424.991 94.3604 423.718 93.8164 422.312 93.8164H412.691C412.299 93.8164 411.926 94.1234 411.842 94.5144L411.777 94.8164C411.401 96.5644 409.786 97.8814 408.022 97.8814H398.876C397.068 97.8814 395.649 96.5274 395.577 94.7314L395.565 94.4294C395.551 94.0744 395.279 93.8164 394.919 93.8164H385.299Z" fill="#407BFF"/>
<path d="M426.907 106.71H378.273V107.71H426.907V106.71Z" fill="#407BFF"/>
<path d="M415.921 183.568H376.562L379.044 155.193H418.404L415.921 183.568ZM377.652 182.568H415.004L417.311 156.193H379.96L377.652 182.568Z" fill="#407BFF"/>
<path d="M379.801 155.289L379.195 156.085L415.157 183.46L415.763 182.664L379.801 155.289Z" fill="#407BFF"/>
<path d="M417.575 155.281L376.824 182.654L377.382 183.484L418.133 156.111L417.575 155.281Z" fill="#407BFF"/>
<path d="M421.067 124.741H381.707L382.628 114.217H421.987L421.067 124.741ZM382.798 123.741H420.15L420.896 115.217H383.544L382.798 123.741Z" fill="#407BFF"/>
<path d="M421.341 114.227L382.152 123.761L382.389 124.732L421.577 115.198L421.341 114.227Z" fill="#407BFF"/>
<path d="M383.207 114.217L382.961 115.187L420.484 124.71L420.73 123.74L383.207 114.217Z" fill="#407BFF"/>
<path d="M419.871 138.429H380.512L381.432 127.905H420.792L419.871 138.429ZM381.603 137.429H418.955L419.701 128.905H382.349L381.603 137.429Z" fill="#407BFF"/>
<path d="M420.138 127.917L380.949 137.447L381.186 138.419L420.374 128.889L420.138 127.917Z" fill="#407BFF"/>
<path d="M382.012 127.906L381.766 128.875L419.289 138.398L419.535 137.429L382.012 127.906Z" fill="#407BFF"/>
<path d="M418.673 152.116H379.312L380.234 141.592H419.592L418.673 152.116ZM380.405 151.116H417.757L418.503 142.592H381.15L380.405 151.116Z" fill="#407BFF"/>
<path d="M418.946 141.603L379.758 151.137L379.994 152.108L419.183 142.574L418.946 141.603Z" fill="#407BFF"/>
<path d="M380.812 141.592L380.566 142.562L418.09 152.085L418.336 151.115L380.812 141.592Z" fill="#407BFF"/>
<path d="M407.874 239.387C399.057 239.387 391.883 232.213 391.883 223.396C391.883 214.579 399.056 207.406 407.874 207.406C416.692 207.406 423.865 214.579 423.865 223.396C423.864 232.213 416.691 239.387 407.874 239.387ZM407.874 208.406C399.608 208.406 392.883 215.131 392.883 223.396C392.883 231.662 399.608 238.387 407.874 238.387C416.14 238.387 422.865 231.662 422.865 223.396C422.864 215.13 416.14 208.406 407.874 208.406Z" fill="#407BFF"/>
<path d="M405.115 232.651L397.66 222.786L398.458 222.183L404.718 230.466C407.62 221.22 413.536 213.09 421.459 207.493L423.685 205.92L424.262 206.736L422.036 208.309C414.028 213.967 408.117 222.271 405.392 231.691L405.115 232.651Z" fill="#407BFF"/>
<path d="M297.169 107.791H271.202L245.016 407.101H270.983C283.019 407.101 293.63 397.344 294.683 385.307L317.056 129.584C318.109 117.548 309.205 107.791 297.169 107.791Z" fill="#263238"/>
<path d="M265.666 407.101H158.675C146.639 407.101 137.735 397.344 138.788 385.308L161.161 129.585C162.214 117.549 172.825 107.791 184.861 107.791H291.852C303.888 107.791 312.792 117.548 311.739 129.585L289.366 385.308C288.313 397.344 277.702 407.101 265.666 407.101Z" fill="#407BFF"/>
<path d="M291.414 112.791H263.605C261.784 112.791 260.128 114.145 259.739 115.951L259.552 116.822C258.603 121.234 254.559 124.54 250.11 124.54H223.672C219.224 124.54 215.758 121.234 215.581 116.822L215.546 115.951C215.473 114.144 214.054 112.791 212.233 112.791H184.424C175.149 112.791 166.973 120.31 166.161 129.585L143.788 385.308C142.976 394.583 149.837 402.101 159.112 402.101H266.103C275.378 402.101 283.554 394.582 284.366 385.308L306.739 129.585C307.549 120.31 300.689 112.791 291.414 112.791Z" fill="white"/>
<g opacity="0.2">
<path d="M231.2 115.624C231.097 116.798 230.063 117.749 228.889 117.749C227.715 117.749 226.847 116.798 226.95 115.624C227.053 114.45 228.087 113.499 229.261 113.499C230.435 113.499 231.303 114.451 231.2 115.624Z" fill="black"/>
<path d="M246.453 113.499C245.613 113.499 240.007 113.499 239.167 113.499C237.993 113.499 236.959 114.45 236.856 115.624C236.753 116.798 237.622 117.749 238.795 117.749C239.524 117.749 245.352 117.749 246.081 117.749C247.255 117.749 248.289 116.798 248.392 115.624C248.495 114.451 247.627 113.499 246.453 113.499Z" fill="black"/>
</g>
<path d="M178.25 124.499H180.5L180.697 122.249H178.447L178.25 124.499Z" fill="#263238"/>
<path d="M182.947 122.249L182.75 124.499H185L185.197 122.249L185.394 119.999H183.144L182.947 122.249Z" fill="#263238"/>
<path d="M187.841 117.749L187.644 119.999L187.447 122.249L187.25 124.499H189.5L189.697 122.249L189.894 119.999L190.091 117.749H187.841Z" fill="#263238"/>
<path d="M284.584 117.899L284.44 119.549H283.34L283.051 122.849H284.151L284.007 124.499H293.907L294.484 117.899H284.584ZM288.551 122.849H285.251L285.54 119.549H288.84L288.551 122.849Z" fill="#263238"/>
<path opacity="0.8" d="M280.1 296.248H135.387L147.562 157.088H292.275L280.1 296.248Z" fill="#263238"/>
<path d="M276.275 292.056H131.562L143.738 152.896H288.451L276.275 292.056Z" fill="#407BFF"/>
<g opacity="0.8">
<path d="M276.275 292.056H131.562L143.738 152.896H288.451L276.275 292.056Z" fill="white"/>
<path d="M276.732 292.556H131.016L131.063 292.012L143.278 152.396H288.994L276.732 292.556ZM132.107 291.556H275.817L287.904 153.396H144.194L132.107 291.556Z" fill="#407BFF"/>
</g>
<path opacity="0.8" d="M268.221 253.732H146.32L154.112 164.669H276.013L268.221 253.732Z" fill="white"/>
<path d="M268.677 254.231H145.773L153.652 164.168H276.557L268.677 254.231ZM146.864 253.231H267.761L275.465 165.168H154.568L146.864 253.231Z" fill="#407BFF"/>
<path d="M154.424 164.279L153.809 165.067L267.916 254.133L268.531 253.344L154.424 164.279Z" fill="#407BFF"/>
<path d="M275.733 164.236L146.062 253.347L146.629 254.171L276.299 165.06L275.733 164.236Z" fill="#407BFF"/>
<path d="M193.579 266.772C193.357 269.311 191.119 271.369 188.58 271.369C186.041 271.369 184.163 269.311 184.385 266.772C184.607 264.233 186.845 262.175 189.384 262.175C191.923 262.176 193.801 264.234 193.579 266.772Z" fill="#407BFF"/>
<path d="M210.723 266.772C210.501 269.311 208.263 271.369 205.724 271.369C203.185 271.369 201.307 269.311 201.53 266.772C201.752 264.233 203.99 262.175 206.529 262.175C209.068 262.176 210.946 264.234 210.723 266.772Z" fill="#407BFF"/>
<path d="M227.868 266.772C227.646 269.311 225.408 271.369 222.869 271.369C220.33 271.369 218.452 269.311 218.674 266.772C218.896 264.233 221.134 262.175 223.673 262.175C226.213 262.176 228.091 264.234 227.868 266.772Z" fill="#407BFF"/>
<path d="M192.463 370.446H124.703L130.404 305.287H198.164L192.463 370.446Z" fill="#407BFF"/>
<g opacity="0.8">
<path d="M192.463 370.446H124.703L130.404 305.287H198.164L192.463 370.446Z" fill="white"/>
<path d="M192.919 370.946H124.156L129.944 304.786H198.707L192.919 370.946ZM125.247 369.946H192.003L197.616 305.786H130.86L125.247 369.946Z" fill="#407BFF"/>
</g>
<path d="M188.691 352.501H131.613L135.261 310.799H192.339L188.691 352.501Z" fill="white"/>
<path d="M189.148 353.001H131.066L134.802 310.299H192.885L189.148 353.001ZM132.157 352.001H188.232L191.793 311.299H135.718L132.157 352.001Z" fill="#407BFF"/>
<path d="M135.569 310.413L134.953 311.202L188.383 352.906L188.998 352.117L135.569 310.413Z" fill="#407BFF"/>
<path d="M192.068 310.386L131.352 352.111L131.918 352.936L192.634 311.211L192.068 310.386Z" fill="#407BFF"/>
<path d="M153.743 358.607C153.639 359.796 152.591 360.759 151.402 360.759C150.213 360.759 149.334 359.795 149.438 358.607C149.542 357.418 150.59 356.455 151.779 356.455C152.967 356.455 153.847 357.418 153.743 358.607Z" fill="#407BFF"/>
<path d="M161.77 358.607C161.666 359.796 160.618 360.759 159.429 360.759C158.24 360.759 157.361 359.795 157.465 358.607C157.569 357.418 158.617 356.455 159.806 356.455C160.995 356.455 161.874 357.418 161.77 358.607Z" fill="#407BFF"/>
<path d="M169.798 358.607C169.694 359.796 168.646 360.759 167.457 360.759C166.268 360.759 165.389 359.795 165.493 358.607C165.597 357.418 166.645 356.455 167.834 356.455C169.023 356.455 169.902 357.418 169.798 358.607Z" fill="#407BFF"/>
<path d="M269.416 370.446H201.656L207.357 305.287H275.117L269.416 370.446Z" fill="#407BFF"/>
<g opacity="0.8">
<path d="M269.416 370.446H201.656L207.357 305.287H275.117L269.416 370.446Z" fill="white"/>
<path d="M269.872 370.946H201.109L206.897 304.786H275.66L269.872 370.946ZM202.2 369.946H268.956L274.569 305.786H207.813L202.2 369.946Z" fill="#407BFF"/>
</g>
<path d="M265.644 352.501H208.566L212.214 310.799H269.293L265.644 352.501Z" fill="white"/>
<path d="M266.102 353.001H208.02L211.756 310.299H269.839L266.102 353.001ZM209.112 352.001H265.187L268.748 311.299H212.672L209.112 352.001Z" fill="#407BFF"/>
<path d="M212.522 310.414L211.906 311.203L265.336 352.907L265.952 352.118L212.522 310.414Z" fill="#407BFF"/>
<path d="M269.025 310.383L208.309 352.108L208.875 352.933L269.591 311.208L269.025 310.383Z" fill="#407BFF"/>
<path d="M230.696 358.607C230.592 359.796 229.544 360.759 228.355 360.759C227.166 360.759 226.287 359.795 226.391 358.607C226.495 357.418 227.543 356.455 228.732 356.455C229.921 356.455 230.8 357.418 230.696 358.607Z" fill="#407BFF"/>
<path d="M238.724 358.607C238.62 359.796 237.572 360.759 236.383 360.759C235.194 360.759 234.315 359.795 234.419 358.607C234.523 357.418 235.571 356.455 236.76 356.455C237.949 356.455 238.828 357.418 238.724 358.607Z" fill="#407BFF"/>
<path d="M246.751 358.607C246.647 359.796 245.599 360.759 244.41 360.759C243.221 360.759 242.342 359.795 242.446 358.607C242.55 357.418 243.598 356.455 244.787 356.455C245.976 356.455 246.855 357.418 246.751 358.607Z" fill="#407BFF"/>
<path d="M268.199 147.125H196.582L197.422 137.533H269.039L268.199 147.125Z" fill="#407BFF"/>
<path d="M188.67 144.975H177.598V145.975H188.67V144.975Z" fill="#263238"/>
<path d="M188.998 141.239H177.926V142.239H188.998V141.239Z" fill="#263238"/>
<path d="M189.322 137.502H178.25V138.502H189.322V137.502Z" fill="#263238"/>
<g opacity="0.2">
<path d="M223.751 124.541L149.895 399.169C152.431 401.017 155.597 402.101 159.114 402.101H164.888L239.533 124.541H223.751Z" fill="white"/>
<path d="M291.417 112.791H263.608C261.787 112.791 260.131 114.145 259.742 115.952L259.555 116.823C258.63 121.122 254.766 124.361 250.455 124.526L175.805 402.1H232.742L306.743 126.93C306.17 118.92 299.786 112.791 291.417 112.791Z" fill="white"/>
</g>
<path d="M306.427 131.847H165.898V133.347H306.427V131.847Z" fill="#407BFF"/>
<path d="M318.681 167.915C318.829 167.607 318.99 167.285 319.273 167.093C319.493 166.943 319.763 166.891 320.024 166.841C322.048 166.457 324.16 166.076 326.142 166.638C326.289 166.68 326.443 166.732 326.536 166.853C326.616 166.957 326.636 167.093 326.654 167.223C326.808 168.35 326.961 169.477 327.115 170.604C327.149 170.854 327.182 171.115 327.094 171.351C327.006 171.587 326.809 171.764 326.62 171.93C325.653 172.781 321.566 175.363 320.925 175.497C319.941 175.702 316.842 174.703 315.918 174.307C314.864 173.857 317.776 169.791 318.681 167.915Z" fill="#CB7A63"/>
<path d="M296.189 202.212C297.088 195.082 313.022 175.852 315.116 173.068C316.282 171.519 321.123 172.668 322.091 175.61C317.745 181.646 315.344 186.742 312.367 193.558C311.676 195.138 308.482 201.351 307.479 202.754C299.432 214.005 295.798 205.313 296.189 202.212Z" fill="#407BFF"/>
<g opacity="0.1">
<path d="M296.189 202.212C297.088 195.082 313.022 175.852 315.116 173.068C316.282 171.519 321.123 172.668 322.091 175.61C317.745 181.646 315.344 186.742 312.367 193.558C311.676 195.138 308.482 201.351 307.479 202.754C299.432 214.005 295.798 205.313 296.189 202.212Z" fill="black"/>
</g>
<path d="M353.654 219.208C353.654 219.208 348.588 219.278 347.017 220.668L344.825 222.607C344.397 222.986 344.363 223.645 344.752 224.081C345.934 225.405 348.516 227.996 351.407 229.021C352.065 229.254 352.791 229.127 353.315 228.686C353.315 228.686 356.809 224.311 356.255 223.413L353.654 219.208Z" fill="#CB7A63"/>
<path d="M367.012 219.69C366.559 219.936 366.096 220.182 365.622 220.426L358.469 223.075C353.602 225.458 353.231 219.453 353.231 219.453L355.183 217.762L368.459 206.735C368.459 206.735 356.101 197.574 348.097 189.846C342.068 182.905 342.862 178.368 349.948 179.13C355.037 179.666 378.397 201.487 380.43 203.825C382.529 206.247 377.844 213.752 367.012 219.69Z" fill="#407BFF"/>
<path opacity="0.1" d="M367.012 219.69C366.559 219.936 366.096 220.182 365.622 220.426L358.469 223.075C353.602 225.458 353.231 219.453 353.231 219.453L355.183 217.762L368.459 206.735C368.459 206.735 356.101 197.574 348.097 189.846C342.068 182.905 342.862 178.368 349.948 179.13C355.037 179.666 378.397 201.487 380.43 203.825C382.529 206.247 377.844 213.752 367.012 219.69Z" fill="black"/>
<path d="M370.837 195.632C370.798 195.595 370.758 195.558 370.719 195.51C370.719 195.51 370.759 195.547 370.837 195.632Z" fill="#263238"/>
<path d="M324.615 150.956C324.204 150.886 323.777 151.322 323.657 151.944C323.537 152.566 323.764 153.142 324.175 153.212C324.586 153.282 325.013 152.846 325.133 152.224C325.284 151.581 325.026 151.026 324.615 150.956Z" fill="#263238"/>
<path d="M323.509 159.193C322.432 159.26 321.38 158.847 320.637 158.065C322.181 156.666 323.527 155.064 324.639 153.302L323.509 159.193Z" fill="#B74D3C"/>
<path d="M327.814 149.136C327.194 148.409 326.262 148.027 325.311 148.109C325.272 148.123 325.23 148.131 325.189 148.131C324.98 148.134 324.808 147.967 324.805 147.758C324.802 147.549 324.969 147.377 325.178 147.374C326.366 147.237 327.546 147.684 328.346 148.573C328.407 148.64 328.442 148.726 328.445 148.816C328.452 149.025 328.288 149.2 328.079 149.207C327.984 149.218 327.889 149.193 327.814 149.136Z" fill="#263238"/>
<path d="M332.711 186.897C343.4 186.79 344.915 180.94 344.915 180.94C341.677 177.899 341.398 172.2 341.97 167.101C341.18 168.267 340.181 169.287 338.853 170.206C336.331 171.939 333.574 172.338 331.059 171.769C331.014 171.769 330.97 171.755 330.925 171.726C330.955 171.83 330.972 171.933 330.987 172.037C331.711 176.098 331.235 180.468 326.987 181.832C326.987 181.832 320.937 187.014 332.711 186.897Z" fill="#CB7A63"/>
<path d="M330.598 170.229C330.722 170.718 330.845 171.207 330.925 171.725C330.97 171.754 331.014 171.769 331.059 171.768C333.574 172.337 336.332 171.938 338.853 170.205C340.18 169.286 341.18 168.267 341.97 167.1C342.106 165.807 342.316 164.543 342.527 163.383L331.027 169.987L330.598 170.229Z" fill="#CB7A63"/>
<path d="M346.021 180.476C346.021 180.476 344.407 175.828 342.089 174.398C339.771 172.967 329.762 174.71 328.201 175.358C326.641 176.006 325.129 179.666 325.129 179.666L346.021 180.476Z" fill="#407BFF"/>
<path opacity="0.8" d="M346.021 180.476C346.021 180.476 344.407 175.828 342.089 174.398C339.771 172.967 329.762 174.71 328.201 175.358C326.641 176.006 325.129 179.666 325.129 179.666L346.021 180.476Z" fill="white"/>
<path d="M332.9 410.367C331.896 410.368 331.003 410.24 330.695 409.799C330.531 409.569 330.534 409.259 330.702 409.028C330.827 408.815 331.036 408.665 331.278 408.617C332.526 408.275 335.145 409.763 335.286 409.823C335.348 409.86 335.38 409.932 335.365 410.003C335.357 410.079 335.299 410.141 335.223 410.154C334.455 410.291 333.678 410.362 332.9 410.367ZM331.716 408.917C331.603 408.901 331.488 408.901 331.375 408.918C331.225 408.943 331.095 409.036 331.021 409.169C330.899 409.39 330.938 409.49 331.018 409.56C331.366 410.04 333.264 410.047 334.661 409.855C333.753 409.347 332.752 409.022 331.716 408.898V408.917Z" fill="#407BFF"/>
<path d="M335.175 410.134H335.105C334.194 409.725 332.408 408.135 332.556 407.265C332.558 407.065 332.73 406.815 333.222 406.764C333.584 406.721 333.947 406.829 334.223 407.062C335.221 407.851 335.368 409.863 335.377 409.953C335.375 410.016 335.345 410.074 335.295 410.113C335.259 410.135 335.216 410.142 335.175 410.134ZM333.359 407.133H333.259C332.938 407.134 332.917 407.294 332.906 407.334C332.822 407.844 334.027 409.114 334.957 409.673C334.872 408.818 334.527 408.012 333.97 407.362C333.802 407.198 333.576 407.105 333.34 407.103L333.359 407.133Z" fill="#407BFF"/>
<path d="M342.763 392.681L335.293 392.692L335.927 409.953L343.44 409.942L342.763 392.681Z" fill="#CB7A63"/>
<path d="M334.163 409.674C329.053 412.81 327.483 412.953 321.576 414.248C320.285 414.531 321.104 417.659 324.195 417.654C329.311 417.647 329.847 417.404 334.207 417.398C337.943 417.392 342.232 417.557 345.202 417.603C345.293 417.604 345.384 417.594 345.474 417.573C346.059 417.433 346.422 416.846 346.284 416.262L344.829 409.588C344.76 409.29 344.495 409.079 344.188 409.078L335.974 409.09C335.33 409.114 334.702 409.316 334.163 409.674Z" fill="#263238"/>
<path opacity="0.2" d="M342.773 392.69L343.114 402.318L335.612 402.329L335.293 392.701L342.773 392.69Z" fill="black"/>
<path d="M398.557 407.26C398.463 406.222 398.505 405.289 398.923 404.923C399.15 404.731 399.477 404.706 399.736 404.859C399.961 404.973 400.133 405.169 400.216 405.407C400.698 406.665 399.413 409.517 399.353 409.658C399.327 409.732 399.252 409.777 399.174 409.766C399.098 409.759 399.034 409.706 399.015 409.632C398.792 408.854 398.64 408.061 398.557 407.26ZM399.956 405.897C399.963 405.779 399.952 405.66 399.924 405.544C399.884 405.391 399.776 405.265 399.631 405.201C399.39 405.094 399.28 405.145 399.225 405.232C398.758 405.634 398.936 407.596 399.286 409.023C399.707 408.036 399.935 406.974 399.956 405.897Z" fill="#407BFF"/>
<path d="M398.999 409.581C398.994 409.557 398.991 409.533 398.993 409.508C399.325 408.54 400.824 406.541 401.722 406.606C401.93 406.59 402.207 406.746 402.305 407.24C402.388 407.611 402.309 407.997 402.087 408.303C401.379 409.405 399.287 409.746 399.204 409.763C399.14 409.779 399.072 409.756 399.03 409.703C399.004 409.669 398.992 409.624 398.999 409.581ZM401.954 407.424C401.954 407.424 401.947 407.351 401.944 407.31C401.913 406.978 401.745 406.97 401.703 406.973C401.164 406.931 399.965 408.301 399.479 409.312C400.358 409.147 401.162 408.719 401.784 408.086C401.926 407.895 401.998 407.661 401.986 407.422L401.954 407.424Z" fill="#407BFF"/>
<path d="M393.675 392.574L386.391 393.1L390.689 410.502L398.026 409.97L393.675 392.574Z" fill="#CB7A63"/>
<path d="M399.801 408.565C402.079 410.828 403.28 411.993 409.431 413.403C410.786 413.707 409.902 416.952 406.674 416.919C401.337 416.861 404.257 416.644 399.712 416.599C395.822 416.555 392.422 416.611 389.328 416.632C389.224 416.636 389.12 416.627 389.018 416.603C388.402 416.459 388.014 415.845 388.153 415.231L389.713 408.297C389.779 407.985 390.06 407.765 390.381 407.774L397.863 407.942C398.564 407.885 399.261 408.109 399.801 408.565Z" fill="#263238"/>
<path opacity="0.2" d="M393.685 392.584L395.913 401.52L388.607 402.049L386.391 393.1L393.685 392.584Z" fill="black"/>
<path d="M354.151 241.008C354.151 241.008 358.24 247.26 361.067 254.916C365.065 265.745 363.647 271.407 364.985 278.735C367.341 291.64 370.865 301.538 373.335 311.327C381.052 341.959 397.351 396.347 397.351 396.347L384.18 399.248C384.18 399.248 359.755 334.392 352.825 312.483C346.577 292.765 330.551 240.958 330.551 240.958L354.151 241.008Z" fill="#407BFF"/>
<path opacity="0.4" d="M354.151 241.008C354.151 241.008 358.24 247.26 361.067 254.916C365.065 265.745 363.647 271.407 364.985 278.735C367.341 291.64 370.865 301.538 373.335 311.327C381.052 341.959 397.351 396.347 397.351 396.347L384.18 399.248C384.18 399.248 359.755 334.392 352.825 312.483C346.577 292.765 330.551 240.958 330.551 240.958L354.151 241.008Z" fill="black"/>
<path d="M398.899 393.914L399.037 398.6L383.172 400.315C383.172 400.315 381.766 395.199 381.826 395.199L398.899 393.914Z" fill="#407BFF"/>
<path opacity="0.8" d="M398.899 393.914L399.037 398.6L383.172 400.315C383.172 400.315 381.766 395.199 381.826 395.199L398.899 393.914Z" fill="white"/>
<path opacity="0.3" d="M337.957 264.834C343.008 281.096 349.405 301.677 352.816 312.475C352.98 312.996 353.163 313.536 353.336 314.113C351.994 296.076 348.455 265.845 339.386 264.732C338.908 264.66 338.419 264.695 337.957 264.834Z" fill="black"/>
<path d="M342.004 240.942C342.004 240.942 345.858 290.639 346.294 314.133C346.697 336.029 345.085 399.835 345.085 399.835L332.392 399.854C332.392 399.854 326.331 334.717 324.082 312.481C321.943 291.427 316.391 241.387 316.391 241.387L342.004 240.942Z" fill="#407BFF"/>
<path opacity="0.4" d="M342.004 240.942C342.004 240.942 345.858 290.639 346.294 314.133C346.697 336.029 345.085 399.835 345.085 399.835L332.392 399.854C332.392 399.854 326.331 334.717 324.082 312.481C321.943 291.427 316.391 241.387 316.391 241.387L342.004 240.942Z" fill="black"/>
<path d="M346.971 395.381L346.536 400.042L331.099 400.065C331.099 400.065 330.373 394.84 330.433 394.84L346.971 395.381Z" fill="#407BFF"/>
<path opacity="0.8" d="M346.971 395.381L346.536 400.042L331.099 400.065C331.099 400.065 330.373 394.84 330.433 394.84L346.971 395.381Z" fill="white"/>
<path d="M366.614 256.808L363.067 255.784C357.378 254.134 351.365 253.954 345.591 255.262L341.438 245.78L342.708 255.755L340.887 255.717C335.643 255.594 330.437 256.656 325.658 258.808C323.117 259.955 320.879 260.932 320.87 260.799C320.87 260.496 316.394 241.388 316.394 241.388C311.843 210.39 312.592 194.696 313.957 187.053C314.697 182.957 317.883 179.742 321.979 178.974C323.525 178.689 325.26 178.415 327.033 178.234C332.372 177.874 337.729 177.817 343.077 178.073C343.125 178.082 346.567 178.339 346.614 178.339C352.209 178.633 357.936 183.365 356.931 188.884C353.574 207.204 353.015 220.603 353.242 229.431L366.614 256.808Z" fill="#407BFF"/>
<path opacity="0.2" d="M313.109 212.13C313.109 212.13 313 196.863 313.149 194.026L324.521 186.207C322.428 189.949 317.227 198.087 313.109 212.13Z" fill="black"/>
<path d="M322.762 161.666C322.92 165.614 325.15 168.903 328.212 170.654H328.227C328.242 170.669 328.257 170.668 328.272 170.668C329.094 171.165 329.988 171.512 330.926 171.725C330.971 171.754 331.015 171.769 331.06 171.768C333.575 172.337 336.333 171.938 338.854 170.205C340.181 169.286 341.181 168.267 341.971 167.1C344.006 164.184 344.798 160.331 346.185 154.912C346.614 153.319 346.672 151.641 346.344 150.026C345.173 144.247 339.538 140.517 333.774 141.688C325.682 143.299 322.452 154.453 322.762 161.666Z" fill="#CB7A63"/>
<path opacity="0.2" d="M328.27 170.668C329.092 171.165 329.986 171.512 330.924 171.725C330.969 171.754 330.535 166.978 330.535 166.978C330.564 166.898 328.835 170.662 328.27 170.668Z" fill="black"/>
<path d="M355.59 156.133C354.727 157.252 353.599 158.428 352.186 158.551C351.361 158.627 350.527 158.485 349.768 158.172C347.265 162.505 341.964 167.104 341.964 167.104C340.627 167.607 339.224 167.863 337.811 167.863C336.341 167.863 334.862 167.579 333.468 167.029C333.022 166.849 332.7 166.725 332.652 166.716C332.263 166.631 330.253 158.172 327.446 156.883C326.82 156.58 326.82 156.58 326.82 156.58C327.01 155.689 326.725 153.223 327.597 152.379C328.071 151.924 326.782 150.748 326.877 149.857C326.886 149.781 326.896 149.715 326.915 149.639C326.023 149.079 325.961 147.875 326.298 146.595C327.148 143.374 328.849 144.253 328.849 144.253C328.849 144.253 327.948 143.191 328.28 141.342C328.631 139.502 332.073 138.582 332.073 138.582C332.073 138.582 332.528 138.658 333.296 138.819C334.073 138.203 335.079 137.871 336.074 137.937C337.401 138.013 339.089 138.923 339.763 140.071C340.844 139.208 342.38 138.933 343.689 139.379C345.007 139.815 346.069 140.953 346.41 142.3C347.681 141.817 349.018 142.329 350.013 143.258C351.009 144.178 351.416 145.685 351.037 146.985C352.023 147.326 352.668 148.028 352.782 149.062C352.896 150.096 352.659 151.139 352.526 152.172C352.393 153.206 352.393 154.315 352.924 155.216C353.457 156.104 354.689 156.654 355.59 156.133Z" fill="#263238"/>
<path d="M330.449 151.736C328.215 152.442 327.113 155.777 327.06 157.881C326.999 160.206 328.581 161.642 330.574 160.044C332.074 158.814 333.129 157.126 333.576 155.239C334.08 152.951 332.682 151.03 330.449 151.736Z" fill="#CB7A63"/>
<path d="M311.335 186.807C311.335 186.807 311.335 186.807 297.228 202.826C295.276 207.364 302.036 212.362 306.819 207.928L323.741 188.435C324.964 185.774 325.131 183.575 323.334 181.807C320.971 179.479 316.824 177.995 311.335 186.807Z" fill="#407BFF"/>
<path d="M118.613 217.332C125.092 224.28 128.981 227.724 131.404 229.631C134.034 231.702 156.536 218.009 159.327 216.451C159.327 216.451 156.813 213.97 155.771 214.236C151.842 215.237 134.316 221.283 134.316 221.283C133.498 221.029 125.41 211.745 125.41 211.745L118.613 217.332Z" fill="#B97964"/>
<path d="M162.243 213.001L162.174 212.952L162.257 213.026C162.257 213.026 160.258 216.303 157.533 217.119L155.473 215.103L156.406 209.116L156.459 208.754L156.677 208.54L159.494 205.801C160.069 205.242 160.983 205.241 161.559 205.798L163.672 207.84C164.139 208.291 164.258 208.992 163.967 209.572L162.243 213.001Z" fill="#B97964"/>
<path d="M130.656 214.665C124.92 206.485 114.836 201.142 111.964 201.101C107.826 201.031 106.545 201.991 108.11 205.139C110.765 210.478 115.161 215.922 121.22 222.424L130.656 214.665Z" fill="#263238"/>
<path d="M114.336 201.506C111.984 200.661 111.002 200.349 107.282 199.386C102.914 198.337 98.4804 197.606 94.0124 197.198C91.1854 196.879 88.3984 196.782 86.1774 196.765C85.9124 196.764 85.6464 196.793 85.3864 196.851C83.3804 197.301 82.0824 199.366 82.4884 201.465C86.8814 224.673 87.0914 234.968 86.4584 246.922L113.174 247.876C113.858 247.9 114.455 247.39 114.594 246.678C115.775 240.653 119.476 227.269 119.476 227.269C123.244 224.605 123.082 221.54 122.101 217.612C121.794 216.382 121.079 215.203 118.045 208.566C118.045 208.568 115.709 202.009 114.336 201.506Z" fill="#263238"/>
<path d="M97.4492 247.311L107.191 247.666C108.645 236.104 107.907 227.475 107.863 214.349C107.904 226.604 100.877 241.353 97.4492 247.311Z" fill="white"/>
<path d="M107.552 251.974C107.552 251.974 119.559 311.381 118.947 336.005C118.298 361.946 113.215 406.601 113.215 406.601L106.879 406.535C106.879 406.535 101.191 373.473 104.448 337.208C87.8539 300.85 83.5469 254.311 83.5469 254.311L107.552 251.974Z" fill="#B97964"/>
<path d="M107.552 251.974C107.552 251.974 119.559 311.381 118.947 336.005C118.298 361.946 113.215 406.601 113.215 406.601L106.879 406.535C106.879 406.535 101.191 373.473 104.448 337.208C87.8539 300.85 83.5469 254.311 83.5469 254.311L107.552 251.974Z" fill="#A86955"/>
<path d="M102.156 266.623C102.156 266.623 105.287 313.118 102.026 337.533C98.5872 363.253 88.7252 407.101 88.7252 407.101L82.4332 406.353C82.4332 406.353 80.3382 372.871 87.4822 337.168C74.9002 299.235 78.0392 266.362 78.0392 266.362L102.156 266.623Z" fill="#B97964"/>
<path d="M102.156 266.623C102.156 266.623 105.287 313.118 102.026 337.533C98.5872 363.253 88.7252 407.101 88.7252 407.101L82.4332 406.353C82.4332 406.353 80.3382 372.871 87.4822 337.168C74.9002 299.235 78.0392 266.362 78.0392 266.362L102.156 266.623Z" fill="#B97964"/>
<path d="M78.2599 320.078C82.0639 320.876 87.9719 322.551 97.9579 323.523C98.1549 323.536 98.3519 323.558 98.5569 323.571C98.9759 323.616 99.4129 323.645 99.8669 323.666C102.552 323.808 120.514 326.138 121.755 318.744C121.755 318.744 117.889 300.423 114.166 280.085C111.91 267.76 113.748 250.425 113.748 250.425C105.958 249.509 98.0969 249.277 90.2639 249.731L85.7069 249.995C85.7069 249.995 70.3049 265.238 74.1299 280.327C79.8559 302.907 78.2599 320.078 78.2599 320.078Z" fill="#407BFF"/>
<g opacity="0.4">
<path d="M78.2599 320.078C82.0639 320.876 87.9719 322.551 97.9579 323.523C98.1549 323.536 98.3519 323.558 98.5569 323.571C98.9759 323.616 99.4129 323.645 99.8669 323.666C102.552 323.808 120.514 326.138 121.755 318.744C121.755 318.744 117.889 300.423 114.166 280.085C111.91 267.76 113.748 250.425 113.748 250.425C105.958 249.509 98.0969 249.277 90.2639 249.731L85.7069 249.995C85.7069 249.995 70.3049 265.238 74.1299 280.327C79.8559 302.907 78.2599 320.078 78.2599 320.078Z" fill="black"/>
</g>
<path opacity="0.1" d="M90.1758 196.828C90.8128 199.175 91.8508 201.396 93.2808 203.363C97.1548 208.692 102.864 214.476 105.381 215.114C106.103 213.438 107.223 210.167 107.223 210.167C108.875 210.982 109.33 213.312 109.881 215.091C112.531 210.791 114.553 203.393 113.884 200.703C113.884 200.703 110.67 199.752 109.086 199.36C104.715 198.342 100.281 197.63 95.8138 197.229C93.8608 196.966 91.9218 196.842 90.1758 196.828Z" fill="black"/>
<path d="M90.0977 196.343L90.9817 197.939C94.3927 204.13 102.291 212.093 105.38 212.877C106.102 211.201 106.843 208.309 106.843 208.309C108.495 209.124 109.709 211.454 110.26 213.233C112.91 208.933 114.476 202.908 113.806 200.218C112.251 199.746 110.592 199.267 109.008 198.875C104.638 197.857 100.203 197.145 95.7357 196.743C93.7827 196.481 91.8437 196.356 90.0977 196.343Z" fill="white"/>
<path d="M86.4804 249.995L100.012 250.358L101.144 250.385L104.068 250.459L105.192 250.494L113.133 250.701C113.379 250.676 113.598 250.583 113.608 250.425L113.92 247.877C113.948 247.704 113.729 247.547 113.453 247.537L105.599 247.227L104.656 247.188L100.777 247.04L99.8584 247.002L86.8304 246.489C86.6524 246.468 86.4764 246.54 86.3594 246.69L86.0374 249.58C85.9324 249.774 86.1624 249.982 86.4804 249.995Z" fill="#407BFF"/>
<path opacity="0.2" d="M86.4804 249.995L100.012 250.358L101.144 250.385L104.068 250.459L105.192 250.494L113.133 250.701C113.379 250.676 113.598 250.583 113.608 250.425L113.92 247.877C113.948 247.704 113.729 247.547 113.453 247.537L105.599 247.227L104.656 247.188L100.777 247.04L99.8584 247.002L86.8304 246.489C86.6524 246.468 86.4764 246.54 86.3594 246.69L86.0374 249.58C85.9324 249.774 86.1624 249.982 86.4804 249.995Z" fill="white"/>
<path d="M109.394 250.939L108.526 250.926C108.349 250.945 108.224 250.824 108.231 250.707L108.717 247.098C108.706 246.993 108.885 246.897 109.064 246.897L109.932 246.92C110.109 246.901 110.234 247.022 110.226 247.129L109.743 250.747C109.687 250.86 109.574 250.949 109.394 250.939Z" fill="#263238"/>
<path d="M94.3172 250.722L93.4932 250.701C93.3252 250.719 93.2072 250.604 93.2152 250.503L93.7002 246.876C93.6902 246.777 93.8692 246.685 94.0302 246.695L94.8532 246.716C95.0212 246.698 95.1382 246.804 95.1312 246.914L94.6452 250.523C94.6312 250.642 94.4862 250.722 94.3172 250.722Z" fill="#263238"/>
<path d="M123.023 240.156H102.617L105.004 212.875H125.409L123.023 240.156Z" fill="#407BFF"/>
<path d="M86.5943 235.072C87.3603 234.176 87.8743 233.222 87.6913 232.083C87.6913 232.083 87.7203 230.423 87.7493 227.898C87.8353 220.506 87.8963 205.776 87.1233 203.827C85.4413 199.603 82.5602 197.314 81.0492 199.782C79.2852 202.665 79.1562 224.546 79.1562 224.546C79.5692 239.016 84.8673 237.091 86.5943 235.072Z" fill="#B97964"/>
<path d="M114.781 232.872L114.743 232.796L114.781 232.9C114.781 232.9 111.471 234.844 108.683 234.275L107.82 231.525L111.471 226.689L111.689 226.395L111.983 226.31L115.759 225.227C116.529 225.006 117.336 225.437 117.58 226.2L118.477 228.998C118.675 229.616 118.449 230.291 117.918 230.664L114.781 232.872Z" fill="#B97964"/>
<path d="M82.222 235.869C84.617 238.811 109.032 234.461 109.227 234.371C110.02 234.013 110.143 231.921 109.232 231.162C108.732 230.744 83.757 228.476 82.03 228.342C79.075 232.882 81.002 234.371 82.222 235.869Z" fill="#B97964"/>
<path d="M116.825 167.971C120.141 171.996 121.879 174.997 119.87 188.437C119.491 190.974 120.589 196.931 121.068 196.987C108.025 195.473 104.305 193.332 98.1137 189.551C93.9727 187.022 90.5927 177.862 91.6717 173.134C92.8357 168.032 98.3947 162.075 103.766 161.571C109.795 161.004 113.06 163.4 116.825 167.971Z" fill="#263238"/>
<path d="M107.913 193.296C106.522 196.045 105.682 199.171 109.047 201.954C109.758 202.543 110.301 203.341 110.474 204.253C110.75 205.714 110.145 207.28 104.954 205.241C97.4465 202.297 97.2695 197.612 97.2695 197.612C100.681 195.922 101.579 187.98 101.695 183.515L107.913 193.296Z" fill="#B97964"/>
<path opacity="0.2" d="M103.147 189.95C102.925 191.885 105.356 194.514 107.024 195.443C107.251 194.7 107.546 193.979 107.905 193.292L104.223 187.501C103.702 188.234 103.336 189.068 103.147 189.95Z" fill="black"/>
<path d="M98.2828 172.515C100.197 167.534 105.774 165.056 110.75 166.973C117.771 169.629 119.054 180.137 117.721 186.577C116.273 193.762 107.661 196.066 102.111 190.667C98.4018 187.078 98.2968 184.048 97.6828 176.946C97.5358 175.44 97.7418 173.923 98.2828 172.515Z" fill="#B97964"/>
<path d="M99.1372 184.459C99.1372 184.459 102.14 181.563 101.587 176.271C101.587 176.271 104.827 172.955 104.669 169.399C104.669 169.399 105.628 172.231 104.675 174.252C104.675 174.252 113.085 173.64 112.888 169.399C112.888 169.399 113.612 173.076 112.347 174.182C112.347 174.182 118.151 173.73 117.69 169.756C116.979 163.632 111.772 163.315 111.772 163.315C111.772 163.315 106.191 158.574 98.4762 166.95C98.4762 166.95 89.3902 172.623 95.8312 182.081L99.1372 184.459Z" fill="#263238"/>
<path d="M113.511 184.073C114.226 184.235 114.975 184.074 115.56 183.634C114.674 182.52 113.945 181.289 113.395 179.978L113.511 184.073Z" fill="#B74D3C"/>
<path d="M108.113 184.714C108.059 184.636 108.078 184.529 108.156 184.475C108.233 184.421 108.34 184.44 108.394 184.518C109.309 185.665 110.716 186.301 112.173 186.227C112.264 186.23 112.337 186.302 112.343 186.393C112.343 186.396 112.343 186.399 112.343 186.402C112.345 186.491 112.274 186.564 112.186 186.566C111.911 186.579 111.634 186.57 111.36 186.537C110.079 186.391 108.91 185.734 108.113 184.714Z" fill="#263238"/>
<path d="M95.013 181.238C94.968 179.782 96.105 178.566 97.553 178.521C99.558 178.496 100.883 180.997 101.17 182.731C101.46 184.655 100.297 186.303 98.399 185.51C96.975 184.893 95.85 183.737 95.268 182.293C95.111 181.962 95.024 181.603 95.013 181.238Z" fill="#B97964"/>
<path d="M108.665 178.007C108.644 178.718 109.006 179.309 109.478 179.328C109.95 179.347 110.335 178.78 110.349 178.057C110.363 177.335 110.008 176.756 109.546 176.739C109.083 176.722 108.688 177.287 108.665 178.007Z" fill="#263238"/>
<path d="M115.29 178.759C115.27 179.471 115.634 180.062 116.096 180.079C116.559 180.096 116.953 179.53 116.975 178.809C116.997 178.088 116.631 177.507 116.169 177.49C115.706 177.474 115.303 178.037 115.29 178.759Z" fill="#263238"/>
<path d="M115.961 177.523L117.685 177.085C117.685 177.085 116.768 178.394 115.961 177.523Z" fill="#263238"/>
<path d="M106.665 175.655C106.606 175.639 106.552 175.609 106.506 175.569C106.367 175.436 106.362 175.215 106.495 175.076C106.497 175.074 106.498 175.073 106.5 175.071C107.392 174.093 108.705 173.614 110.018 173.787C110.203 173.829 110.324 174.01 110.292 174.197C110.256 174.382 110.079 174.504 109.893 174.472C108.807 174.347 107.728 174.752 106.993 175.561C106.908 175.648 106.783 175.683 106.665 175.655Z" fill="#263238"/>
<path d="M117.828 176.518C117.774 176.489 117.727 176.449 117.691 176.399C117.083 175.49 116.079 174.925 114.991 174.88C114.799 174.889 114.636 174.741 114.625 174.549C114.625 174.547 114.625 174.546 114.625 174.544C114.622 174.35 114.774 174.19 114.967 174.183C116.291 174.221 117.519 174.897 118.265 175.999C118.382 176.152 118.354 176.371 118.201 176.488C118.094 176.571 117.948 176.583 117.828 176.518Z" fill="#263238"/>
<path d="M109.34 176.771L111.064 176.333C111.064 176.333 110.145 177.642 109.34 176.771Z" fill="#263238"/>
<path d="M83.9535 197.131C85.6605 196.723 87.4975 197.187 88.7075 198.458C90.0405 199.86 90.8765 201.818 91.1275 203.779C91.5155 206.814 88.2495 217.709 88.3325 220.794C85.1085 219.028 80.3625 216.613 75.8555 216.17C76.4775 208.995 77.3075 204.221 78.6995 201.846C79.4985 200.483 80.3245 199.088 81.5505 198.1C82.0945 197.661 83.0555 197.346 83.9535 197.131Z" fill="#263238"/>
<path d="M114.864 407.391C117.142 409.654 118.343 410.819 124.494 412.229C125.849 412.533 124.965 415.778 121.737 415.745C116.4 415.687 119.32 415.47 114.775 415.424C110.885 415.38 107.485 415.436 104.391 415.457C104.287 415.461 104.183 415.452 104.081 415.428C103.464 415.284 103.077 414.67 103.216 414.056L104.776 407.122C104.842 406.81 105.123 406.59 105.444 406.599L112.926 406.767C113.627 406.712 114.324 406.936 114.864 407.391Z" fill="#263238"/>
<path d="M90.9998 407.883C92.4578 410.744 93.2348 412.226 98.6378 415.486C99.8308 416.198 97.9778 419.005 94.9208 417.966C89.8688 416.245 92.7108 416.95 88.4068 415.488C84.7248 414.232 81.4778 413.224 78.5318 412.277C78.4318 412.249 78.3358 412.207 78.2468 412.152C77.7058 411.823 77.5298 411.119 77.8538 410.579L81.5008 404.478C81.6608 404.202 81.9958 404.081 82.2988 404.19L89.3538 406.686C90.0378 406.852 90.6298 407.282 90.9998 407.883Z" fill="#263238"/>
</svg>
