<svg width="25" height="25" viewBox="0 0 25 25" fill="none" xmlns="http://www.w3.org/2000/svg">
<g clip-path="url(#clip0_869_959)">
<path d="M25 12.5C25 19.4035 19.4035 25 12.5 25C5.59644 25 0 19.4035 0 12.5C0 5.59644 5.59644 0 12.5 0C19.4035 0 25 5.59644 25 12.5Z" fill="#E2382F" fill-opacity="0.1"/>
<path fill-rule="evenodd" clip-rule="evenodd" d="M12.5 23.125C18.368 23.125 23.125 18.368 23.125 12.5C23.125 6.63198 18.368 1.875 12.5 1.875C6.63198 1.875 1.875 6.63198 1.875 12.5C1.875 18.368 6.63198 23.125 12.5 23.125ZM12.5 25C19.4035 25 25 19.4035 25 12.5C25 5.59644 19.4035 0 12.5 0C5.59644 0 0 5.59644 0 12.5C0 19.4035 5.59644 25 12.5 25Z" fill="#E2382F"/>
<path d="M9.36213 8.12468C8.99602 7.75857 8.40243 7.75857 8.0363 8.12468C7.67019 8.49079 7.67019 9.08439 8.0363 9.45051L11.1741 12.5883L8.12472 15.6378C7.7586 16.0039 7.7586 16.5974 8.12472 16.9635C8.49084 17.3297 9.08443 17.3297 9.45054 16.9635L12.4999 13.9142L15.5493 16.9635C15.9154 17.3297 16.509 17.3297 16.8752 16.9635C17.2413 16.5974 17.2413 16.0038 16.8752 15.6377L13.8258 12.5883L16.9635 9.45056C17.3297 9.08444 17.3297 8.49084 16.9635 8.12473C16.5974 7.75862 16.0038 7.75862 15.6378 8.12473L12.4999 11.2625L9.36213 8.12468Z" fill="#E2382F"/>
</g>
<defs>
<clipPath id="clip0_869_959">
<rect width="25" height="25" fill="white"/>
</clipPath>
</defs>
</svg>
