<svg width="25" height="25" viewBox="0 0 25 25" fill="none" xmlns="http://www.w3.org/2000/svg">
<g clip-path="url(#clip0_869_662)">
<path d="M25 12.5C25 19.4035 19.4035 25 12.5 25C5.59644 25 0 19.4035 0 12.5C0 5.59644 5.59644 0 12.5 0C19.4035 0 25 5.59644 25 12.5Z" fill="#25BC13" fill-opacity="0.1"/>
<path fill-rule="evenodd" clip-rule="evenodd" d="M12.5 23.125C18.368 23.125 23.125 18.368 23.125 12.5C23.125 6.63198 18.368 1.875 12.5 1.875C6.63198 1.875 1.875 6.63198 1.875 12.5C1.875 18.368 6.63198 23.125 12.5 23.125ZM12.5 25C19.4035 25 25 19.4035 25 12.5C25 5.59644 19.4035 0 12.5 0C5.59644 0 0 5.59644 0 12.5C0 19.4035 5.59644 25 12.5 25Z" fill="#25BC13"/>
<path d="M8.78791 13.0874L10.3161 14.6155C11.5111 12.1021 12.8965 10.4779 14.0701 9.45096C14.7496 8.85646 15.3527 8.4668 15.7982 8.22177C16.0209 8.09931 16.2039 8.01309 16.3374 7.95549C16.404 7.92669 16.4582 7.90503 16.4989 7.88958C16.5192 7.88186 16.5361 7.87569 16.5495 7.87094L16.5667 7.86487L16.5734 7.86261L16.5761 7.86167L16.5785 7.86086C17.0697 7.69714 17.6006 7.9626 17.7644 8.45379C17.9274 8.94262 17.6645 9.47105 17.1779 9.6375L17.1656 9.64205C17.1501 9.64796 17.1214 9.65927 17.0806 9.67685C16.9992 9.71202 16.8697 9.77228 16.7017 9.86467C16.366 10.0493 15.8754 10.3628 15.3049 10.862C14.1677 11.857 12.6912 13.609 11.4954 16.5984C11.3784 16.891 11.1222 17.1052 10.8135 17.1686C10.5048 17.232 10.1849 17.136 9.96208 16.9131L7.46208 14.4131C7.09597 14.047 7.09597 13.4535 7.46208 13.0874C7.8282 12.7212 8.4218 12.7212 8.78791 13.0874Z" fill="#25BC13"/>
</g>
<defs>
<clipPath id="clip0_869_662">
<rect width="25" height="25" fill="white"/>
</clipPath>
</defs>
</svg>
