<svg width="64" height="64" viewBox="0 0 64 64" fill="none" xmlns="http://www.w3.org/2000/svg">
<path d="M42 40V60L60 50L42 40Z" fill="white"/>
<path d="M28 32C30.2091 32 32 30.2091 32 28C32 25.7909 30.2091 24 28 24C25.7909 24 24 25.7909 24 28C24 30.2091 25.7909 32 28 32Z" fill="white"/>
<path d="M28 40C25.6266 40 23.3066 39.2962 21.3332 37.9776C19.3598 36.6591 17.8217 34.7849 16.9135 32.5922C16.0052 30.3995 15.7676 27.9867 16.2306 25.6589C16.6936 23.3312 17.8365 21.193 19.5147 19.5147C21.193 17.8365 23.3312 16.6936 25.6589 16.2306C27.9867 15.7676 30.3995 16.0052 32.5922 16.9135C34.7849 17.8217 36.6591 19.3598 37.9776 21.3332C39.2962 23.3066 40 25.6266 40 28C39.9963 31.1815 38.7308 34.2316 36.4812 36.4812C34.2316 38.7308 31.1815 39.9963 28 40ZM28 20C26.4178 20 24.871 20.4692 23.5554 21.3482C22.2399 22.2273 21.2145 23.4767 20.609 24.9385C20.0035 26.4003 19.845 28.0089 20.1537 29.5607C20.4624 31.1126 21.2243 32.538 22.3432 33.6569C23.462 34.7757 24.8874 35.5376 26.4393 35.8463C27.9911 36.155 29.5997 35.9965 31.0615 35.391C32.5233 34.7855 33.7727 33.7602 34.6518 32.4446C35.5308 31.129 36 29.5823 36 28C35.9974 25.8791 35.1537 23.8458 33.6539 22.3461C32.1542 20.8464 30.1209 20.0027 28 20Z" fill="white"/>
<path d="M51.9014 25.8198H51.8894C51.4629 20.8967 49.5334 16.2238 46.3622 12.434C43.1911 8.64426 38.9317 5.92089 34.161 4.63288C29.3904 3.34487 24.3391 3.55448 19.6915 5.23331C15.0439 6.91214 11.0248 9.97904 8.17855 14.0185C5.33232 18.058 3.79659 22.8747 3.77944 27.8162C3.76229 32.7576 5.26454 37.5849 8.08267 41.644C10.9008 45.7031 14.8986 48.7979 19.5344 50.5089C24.1702 52.22 29.2199 52.4646 33.9994 51.2098V47.0778C29.7606 48.4046 25.2004 48.2798 21.0405 46.7233C16.8807 45.1667 13.3587 42.2673 11.0321 38.4839C8.7055 34.7004 7.70714 30.2491 8.19504 25.8345C8.68293 21.4198 10.6292 17.2939 13.7259 14.1098C16.8225 10.9258 20.8926 8.86538 25.292 8.25479C29.6914 7.64419 34.1687 8.51825 38.0155 10.7386C41.8622 12.959 44.8586 16.3989 46.5303 20.5138C48.202 24.6288 48.4537 29.1837 47.2454 33.4578L51.0954 34.5458C51.6962 32.4157 52.0004 30.213 51.9994 27.9998C51.9994 27.2664 51.9667 26.5398 51.9014 25.8198Z" fill="white"/>
</svg>
