<svg width="1600" height="635" viewBox="0 0 1600 635" fill="none" xmlns="http://www.w3.org/2000/svg">
<path d="M1600 635H0V0H662L677.661 2.05566C689.151 3.56387 699.829 8.22068 708.211 15.3789C716.593 22.5371 722.264 31.8414 724.435 42V40.4072C733.061 74.0961 763.622 99 800 99C837.543 99 868.889 72.4751 876.325 37.1436C879.077 28.8878 884.196 21.3784 891.223 15.3779C899.605 8.21966 910.283 3.56369 921.773 2.05566L937.435 0H1600V635ZM724.86 0C724.713 0.528363 724.571 1.05897 724.435 1.5918V0H724.86Z" fill="black"/>
</svg>
