<svg width="215" height="52" viewBox="0 0 215 52" fill="none" xmlns="http://www.w3.org/2000/svg">
<path d="M26 42.2349C17.2478 42.2349 10.153 34.9657 10.153 26C10.153 17.0343 17.2478 9.7651 26 9.7651C34.7522 9.7651 41.847 17.0343 41.847 26C41.847 30.7204 39.8788 34.969 36.7384 37.9366L46.6399 41.8029C49.999 37.4219 52 31.9468 52 26C52 11.6403 40.3589 0 26 0C11.6411 0 0 11.6403 0 26C0 40.3597 11.6411 52 26 52C30.2799 52 34.3132 50.9589 37.8729 49.1284L34.4546 39.7291C32.008 41.3147 29.1092 42.2349 26 42.2349Z" fill="#1A85F8"/>
<path d="M42.148 42.9936L47.2728 41.8355L34.771 37.0303C34.4834 37.2707 34.1855 37.4964 33.8789 37.7134L38.5358 50.4242L39.7785 45.3243L42.327 47.9117C42.3974 47.982 42.5104 47.9835 42.5823 47.9131L44.6935 45.8374C44.7654 45.767 44.7654 45.6542 44.695 45.5823L42.148 42.9936Z" fill="#1A85F8"/>
<path d="M39.9732 20.4253L34.5457 35.6294H28.2604L25.8887 28.5987L23.4325 35.6294H17.1472L11.7197 20.4253H17.8328L20.5176 28.458L23.3166 20.4253H28.802L31.5165 28.5424L34.3155 20.4253H39.9732Z" fill="white"/>
<path d="M68.5675 51V38.74H63.7675V37H75.3475V38.74H70.5475V51H68.5675ZM77.5258 51V37H87.4058V38.74H79.5258V49.26H87.6858V51H77.5258ZM79.3458 44.74V43.04H86.5458V44.74H79.3458ZM97.1647 51.16C96.098 51.16 95.1114 50.9867 94.2047 50.64C93.3114 50.28 92.5314 49.78 91.8647 49.14C91.2114 48.4867 90.698 47.7267 90.3247 46.86C89.9514 45.9933 89.7647 45.04 89.7647 44C89.7647 42.96 89.9514 42.0067 90.3247 41.14C90.698 40.2733 91.218 39.52 91.8847 38.88C92.5514 38.2267 93.3314 37.7267 94.2247 37.38C95.1314 37.02 96.118 36.84 97.1847 36.84C98.2647 36.84 99.258 37.0267 100.165 37.4C101.085 37.76 101.865 38.3 102.505 39.02L101.205 40.28C100.671 39.72 100.071 39.3067 99.4047 39.04C98.738 38.76 98.0247 38.62 97.2647 38.62C96.478 38.62 95.7447 38.7533 95.0647 39.02C94.398 39.2867 93.818 39.66 93.3247 40.14C92.8314 40.62 92.4447 41.1933 92.1647 41.86C91.898 42.5133 91.7647 43.2267 91.7647 44C91.7647 44.7733 91.898 45.4933 92.1647 46.16C92.4447 46.8133 92.8314 47.38 93.3247 47.86C93.818 48.34 94.398 48.7133 95.0647 48.98C95.7447 49.2467 96.478 49.38 97.2647 49.38C98.0247 49.38 98.738 49.2467 99.4047 48.98C100.071 48.7 100.671 48.2733 101.205 47.7L102.505 48.96C101.865 49.68 101.085 50.2267 100.165 50.6C99.258 50.9733 98.258 51.16 97.1647 51.16ZM115.203 51V37H117.203V51H115.203ZM105.163 51V37H107.163V51H105.163ZM106.963 44.76V43.02H115.383V44.76H106.963ZM121.393 51V37H123.033L132.293 48.5H131.433V37H133.433V51H131.793L122.533 39.5H123.393V51H121.393ZM143.943 51.16C142.877 51.16 141.883 50.98 140.963 50.62C140.057 50.26 139.27 49.76 138.603 49.12C137.937 48.4667 137.417 47.7067 137.043 46.84C136.67 45.9733 136.483 45.0267 136.483 44C136.483 42.9733 136.67 42.0267 137.043 41.16C137.417 40.2933 137.937 39.54 138.603 38.9C139.27 38.2467 140.057 37.74 140.963 37.38C141.87 37.02 142.863 36.84 143.943 36.84C145.01 36.84 145.99 37.02 146.883 37.38C147.79 37.7267 148.577 38.2267 149.243 38.88C149.923 39.52 150.443 40.2733 150.803 41.14C151.177 42.0067 151.363 42.96 151.363 44C151.363 45.04 151.177 45.9933 150.803 46.86C150.443 47.7267 149.923 48.4867 149.243 49.14C148.577 49.78 147.79 50.28 146.883 50.64C145.99 50.9867 145.01 51.16 143.943 51.16ZM143.943 49.38C144.717 49.38 145.43 49.2467 146.083 48.98C146.75 48.7133 147.323 48.34 147.803 47.86C148.297 47.3667 148.677 46.7933 148.943 46.14C149.223 45.4867 149.363 44.7733 149.363 44C149.363 43.2267 149.223 42.5133 148.943 41.86C148.677 41.2067 148.297 40.64 147.803 40.16C147.323 39.6667 146.75 39.2867 146.083 39.02C145.43 38.7533 144.717 38.62 143.943 38.62C143.157 38.62 142.43 38.7533 141.763 39.02C141.11 39.2867 140.537 39.6667 140.043 40.16C139.55 40.64 139.163 41.2067 138.883 41.86C138.617 42.5133 138.483 43.2267 138.483 44C138.483 44.7733 138.617 45.4867 138.883 46.14C139.163 46.7933 139.55 47.3667 140.043 47.86C140.537 48.34 141.11 48.7133 141.763 48.98C142.43 49.2467 143.157 49.38 143.943 49.38ZM154.42 51V37H156.42V49.26H164V51H154.42ZM172.361 51.16C171.295 51.16 170.301 50.98 169.381 50.62C168.475 50.26 167.688 49.76 167.021 49.12C166.355 48.4667 165.835 47.7067 165.461 46.84C165.088 45.9733 164.901 45.0267 164.901 44C164.901 42.9733 165.088 42.0267 165.461 41.16C165.835 40.2933 166.355 39.54 167.021 38.9C167.688 38.2467 168.475 37.74 169.381 37.38C170.288 37.02 171.281 36.84 172.361 36.84C173.428 36.84 174.408 37.02 175.301 37.38C176.208 37.7267 176.995 38.2267 177.661 38.88C178.341 39.52 178.861 40.2733 179.221 41.14C179.595 42.0067 179.781 42.96 179.781 44C179.781 45.04 179.595 45.9933 179.221 46.86C178.861 47.7267 178.341 48.4867 177.661 49.14C176.995 49.78 176.208 50.28 175.301 50.64C174.408 50.9867 173.428 51.16 172.361 51.16ZM172.361 49.38C173.135 49.38 173.848 49.2467 174.501 48.98C175.168 48.7133 175.741 48.34 176.221 47.86C176.715 47.3667 177.095 46.7933 177.361 46.14C177.641 45.4867 177.781 44.7733 177.781 44C177.781 43.2267 177.641 42.5133 177.361 41.86C177.095 41.2067 176.715 40.64 176.221 40.16C175.741 39.6667 175.168 39.2867 174.501 39.02C173.848 38.7533 173.135 38.62 172.361 38.62C171.575 38.62 170.848 38.7533 170.181 39.02C169.528 39.2867 168.955 39.6667 168.461 40.16C167.968 40.64 167.581 41.2067 167.301 41.86C167.035 42.5133 166.901 43.2267 166.901 44C166.901 44.7733 167.035 45.4867 167.301 46.14C167.581 46.7933 167.968 47.3667 168.461 47.86C168.955 48.34 169.528 48.7133 170.181 48.98C170.848 49.2467 171.575 49.38 172.361 49.38ZM189.158 51.16C188.078 51.16 187.085 50.9867 186.178 50.64C185.272 50.28 184.485 49.78 183.818 49.14C183.152 48.4867 182.632 47.7267 182.258 46.86C181.885 45.9933 181.698 45.04 181.698 44C181.698 42.96 181.885 42.0067 182.258 41.14C182.632 40.2733 183.152 39.52 183.818 38.88C184.498 38.2267 185.292 37.7267 186.198 37.38C187.105 37.02 188.105 36.84 189.198 36.84C190.305 36.84 191.318 37.02 192.238 37.38C193.158 37.74 193.938 38.28 194.578 39L193.338 40.24C192.765 39.68 192.138 39.2733 191.458 39.02C190.792 38.7533 190.065 38.62 189.278 38.62C188.478 38.62 187.732 38.7533 187.038 39.02C186.358 39.2867 185.765 39.66 185.258 40.14C184.765 40.62 184.378 41.1933 184.098 41.86C183.832 42.5133 183.698 43.2267 183.698 44C183.698 44.76 183.832 45.4733 184.098 46.14C184.378 46.7933 184.765 47.3667 185.258 47.86C185.765 48.34 186.358 48.7133 187.038 48.98C187.718 49.2467 188.458 49.38 189.258 49.38C190.005 49.38 190.718 49.2667 191.398 49.04C192.092 48.8 192.732 48.4067 193.318 47.86L194.458 49.38C193.765 49.9667 192.952 50.4133 192.018 50.72C191.098 51.0133 190.145 51.16 189.158 51.16ZM194.458 49.38L192.538 49.12V43.92H194.458V49.38ZM201.668 51V45.64L202.128 46.88L196.107 37H198.248L203.308 45.34H202.148L207.228 37H209.208L203.208 46.88L203.648 45.64V51H201.668Z" fill="white"/>
<path d="M91.6655 6.53857L87.808 23.0855H82.1044L79.8131 12.8709L77.5218 23.0855H71.8205L67.9629 6.53857H72.9169L74.7405 17.8048L77.2891 6.53857H82.3147L84.8857 17.8048L86.7093 6.53857H91.6655Z" fill="white"/>
<path d="M98.2553 10.2082V12.9425H103.608V16.4242H98.2553V19.4158H104.308V23.0855H93.6504V6.53857H104.308V10.2082H98.2553Z" fill="white"/>
<path d="M119.255 16.0281C119.823 16.7598 120.107 17.6101 120.107 18.5745C120.107 20.0088 119.633 21.1186 118.682 21.9062C117.731 22.6939 116.368 23.0855 114.592 23.0855H106.411V6.53857H114.404C116.071 6.53857 117.377 6.90553 118.32 7.63722C119.262 8.36891 119.734 9.42952 119.734 10.8168C119.734 11.7991 119.476 12.6203 118.962 13.2826C118.447 13.945 117.769 14.3768 116.928 14.5804C117.912 14.8109 118.686 15.2942 119.255 16.0281ZM111.016 13.1528H113.33C114.482 13.1528 115.059 12.6695 115.059 11.7029C115.059 10.7049 114.475 10.2082 113.307 10.2082H111.016V13.1528ZM115.411 17.8965C115.411 16.8695 114.811 16.3548 113.612 16.3548H111.018V19.3935H113.612C114.811 19.3935 115.411 18.8945 115.411 17.8965Z" fill="white"/>
<path d="M126.652 6.53857V23.0855H122.047V6.53857H126.652Z" fill="white"/>
<path d="M152.127 6.53837V15.9809C152.127 16.9163 152.333 17.6367 152.747 18.1424C153.158 18.6481 153.787 18.901 154.629 18.901C155.47 18.901 156.105 18.6437 156.533 18.129C156.962 17.6144 157.177 16.8983 157.177 15.9787V6.53613H161.757V15.9787C161.757 17.5361 161.442 18.8607 160.811 19.9526C160.18 21.0423 159.318 21.8658 158.229 22.4184C157.137 22.9711 155.906 23.2486 154.537 23.2486C153.165 23.2486 151.955 22.9756 150.903 22.4296C149.851 21.8837 149.03 21.0669 148.437 19.975C147.844 18.8853 147.549 17.5517 147.549 15.9787V6.53613H152.127V6.53837Z" fill="#1A85F8"/>
<path d="M168.79 10.2082V12.9425H174.143V16.4242H168.79V19.4158H174.843V23.0855H164.186V6.53857H174.843V10.2082H168.79Z" fill="#1A85F8"/>
<path d="M138.713 23.1076L139.04 23.5976H144.224L142.499 21.4249C143.466 20.6463 144.22 19.6841 144.766 18.5385C145.312 17.3928 145.585 16.1353 145.585 14.7637C145.585 13.1437 145.213 11.687 144.475 10.3937C143.736 9.10038 142.723 8.09124 141.436 7.36627C140.152 6.64129 138.729 6.27881 137.171 6.27881C135.63 6.27881 134.211 6.64129 132.918 7.36627C131.624 8.09124 130.604 9.10038 129.857 10.3937C129.109 11.687 128.733 13.1437 128.733 14.7637C128.733 16.3837 129.107 17.8404 129.857 19.1337C130.606 20.427 131.624 21.4361 132.918 22.1611C134.211 22.8861 135.627 23.2486 137.171 23.2486C137.715 23.2486 138.23 23.2016 138.713 23.1076ZM133.408 14.7637C133.408 13.4547 133.743 12.4232 134.412 11.6669C135.081 10.9128 136.001 10.5324 137.169 10.5324C138.337 10.5324 139.254 10.9106 139.915 11.6669C140.577 12.4232 140.908 13.4547 140.908 14.7637C140.908 16.0413 140.572 17.0617 139.903 17.8247C139.234 18.5877 138.321 18.9703 137.169 18.9703C136.001 18.9703 135.081 18.5877 134.412 17.8247C133.743 17.0639 133.408 16.0436 133.408 14.7637Z" fill="#1A85F8"/>
</svg>
