<svg width="64" height="64" viewBox="0 0 64 64" fill="none" xmlns="http://www.w3.org/2000/svg">
<path fill-rule="evenodd" clip-rule="evenodd" d="M40 40V50.6667C40 52.0812 39.4381 53.4377 38.4379 54.4379C37.4377 55.4381 36.0812 56 34.6667 56H13.3333C11.9188 56 10.5623 55.4381 9.5621 54.4379C8.5619 53.4377 8 52.0812 8 50.6667V29.3333C8 27.9188 8.5619 26.5623 9.5621 25.5621C10.5623 24.5619 11.9188 24 13.3333 24H24V13.3333C24 11.9188 24.5619 10.5623 25.5621 9.5621C26.5623 8.5619 27.9188 8 29.3333 8H50.6667C52.0812 8 53.4377 8.5619 54.4379 9.5621C55.4381 10.5623 56 11.9188 56 13.3333V34.6667C56 36.0812 55.4381 37.4377 54.4379 38.4379C53.4377 39.4381 52.0812 40 50.6667 40H40ZM29.3333 24H40V34.6667H50.6667V13.3333H29.3333V24ZM13.3333 29.3333V50.6667H34.6667V40H24V29.3333H13.3333Z" fill="white"/>
</svg>
