<svg width="64" height="64" viewBox="0 0 64 64" fill="none" xmlns="http://www.w3.org/2000/svg">
<g clip-path="url(#clip0_821_1339)">
<path d="M49.4375 51.8244C45.3582 55.8205 40.9354 58.8488 36.1693 60.9093C31.4031 62.9698 26.6889 64 22.0268 64C18.6551 64 15.8037 63.6462 13.4727 62.9385C11.1416 62.2309 9.28925 61.1694 7.91559 59.7541C6.54193 58.3389 5.55332 56.6842 4.94974 54.7902C4.34616 52.8963 4.04437 50.6381 4.04437 48.0156C4.04437 44.2276 4.80405 40.4917 6.3234 36.8078C7.84275 33.1239 9.95527 29.6793 12.661 26.4741L1.17218 15.0478C0.214779 14.132 -0.139042 12.6231 0.110714 10.521C0.36047 8.41886 1.17218 6.68097 2.54584 5.30731L5.29315 2.56C6.66681 1.18634 8.4047 0.37463 10.5068 0.124874C12.6089 -0.124882 14.1179 0.228939 15.0336 1.18634L22.5888 8.8039C24.5036 6.8891 26.3143 5.34894 28.021 4.18341C29.7276 3.01788 31.9442 2.03967 34.6707 1.24878C37.3972 0.457882 40.5088 0.0624348 44.0054 0.0624348C46.7943 0.0624348 49.3439 0.499508 51.6541 1.37365C53.9644 2.2478 55.8688 3.38211 57.3673 4.77658C58.8658 6.17105 60.125 7.76325 61.1449 9.55317C62.1647 11.3431 62.8932 13.1122 63.3302 14.8605C63.7673 16.6088 63.9858 18.3363 63.9858 20.0429C63.9858 25.2046 62.6954 30.6784 60.1146 36.4644C57.5338 42.2504 53.9748 47.3704 49.4375 51.8244ZM44.0054 4.05853C37.2619 4.05853 30.5185 6.03577 23.7751 9.99024L28.3956 14.6107C32.4749 12.9041 36.3462 12.0507 40.0093 12.0507C43.8805 12.0507 46.8463 13.3307 48.9068 15.8907C50.9673 18.4507 51.9975 21.8328 51.9975 26.0371C51.9975 27.4524 51.9663 28.6179 51.9039 29.5337C51.8414 30.4494 51.6749 31.6046 51.4044 32.999C51.1338 34.3935 50.728 35.6215 50.1868 36.6829C49.6457 37.7444 48.8548 38.9307 47.8141 40.242C46.7735 41.5532 45.5039 42.8124 44.0054 44.0195C45.0876 42.1463 46.0242 39.4615 46.8151 35.9649C47.606 32.4683 48.0014 29.159 48.0014 26.0371C48.0014 23.4563 47.273 21.146 45.8161 19.1063C44.3592 17.0667 42.4236 16.0468 40.0093 16.0468C37.3452 16.0468 34.5354 16.6504 31.58 17.8576L39.8844 26.1619L44.0054 44.0195L26.1478 39.8985L15.9702 29.721C13.5143 32.6764 11.5787 35.7463 10.1634 38.9307C8.74811 42.1151 8.04047 45.1434 8.04047 48.0156C8.04047 49.5974 8.26941 51.0647 8.7273 52.4176C9.18519 53.7704 9.92405 55.04 10.9439 56.2263C11.9637 57.4127 13.4206 58.3389 15.3146 59.0049C17.2086 59.6709 19.446 60.0039 22.0268 60.0039C26.1062 60.0039 30.3624 59.0673 34.7956 57.1941C39.2288 55.321 43.1936 52.6569 46.6902 49.202C50.6031 45.3724 53.7979 40.679 56.2746 35.1219C58.7514 29.5649 59.9897 24.5385 59.9897 20.0429C59.9897 18.8358 59.7816 17.535 59.3654 16.1405C58.9491 14.746 58.2935 13.3307 57.3985 11.8946C56.5036 10.4585 55.4421 9.15772 54.2141 7.99219C52.9862 6.82666 51.4772 5.87967 49.6873 5.15122C47.8974 4.42276 46.0034 4.05853 44.0054 4.05853Z" fill="white"/>
</g>
<defs>
<clipPath id="clip0_821_1339">
<rect width="64" height="64" fill="white"/>
</clipPath>
</defs>
</svg>
