<svg width="54" height="54" viewBox="0 0 54 54" fill="none" xmlns="http://www.w3.org/2000/svg">
<path d="M39.9719 10.1356H14.0266C13.7418 10.1356 13.5098 9.90361 13.5098 9.61885C13.5098 9.33408 13.7418 9.10205 14.0266 9.10205H39.9719C40.2566 9.10205 40.4887 9.33408 40.4887 9.61885C40.4887 9.90361 40.2566 10.1356 39.9719 10.1356Z" fill="black"/>
<path d="M37.6621 49.6758H16.3469C14.7859 49.6758 13.5203 48.3996 13.5203 46.8387L13.5098 7.16133C13.5098 5.60039 14.7754 4.32422 16.3363 4.32422H37.6516C39.2125 4.32422 40.4887 5.60039 40.4887 7.16133L40.4992 46.8387C40.4887 48.3996 39.223 49.6758 37.6621 49.6758ZM16.3363 5.35781C15.3449 5.35781 14.5434 6.16992 14.5434 7.16133L14.5539 46.8387C14.5539 47.8301 15.3555 48.6422 16.3469 48.6422H37.6621C38.6535 48.6422 39.4656 47.8301 39.4656 46.8387L39.4551 7.16133C39.4551 6.14883 38.6641 5.35781 37.6516 5.35781H16.3363Z" fill="black"/>
<path d="M28.4855 47.1341H25.5219C24.6043 47.1341 23.8555 46.3853 23.8555 45.4677C23.8555 44.5501 24.6043 43.8013 25.5219 43.8013H28.4855C29.4031 43.8013 30.152 44.5501 30.152 45.4677C30.152 46.3853 29.4031 47.1341 28.4855 47.1341ZM25.5113 44.8243C25.1633 44.8243 24.868 45.1091 24.868 45.4677C24.868 45.8157 25.1527 46.111 25.5113 46.111H28.475C28.823 46.111 29.1184 45.8157 29.1184 45.4677C29.1184 45.1196 28.8336 44.8243 28.475 44.8243H25.5113Z" fill="black"/>
<path d="M30.6062 34.678C30.3215 34.678 30.0895 34.446 30.0895 34.1612L30.0789 31.9569C30.0789 31.7144 30.1105 31.4929 30.1738 31.2819C30.2371 31.0605 30.332 30.8601 30.448 30.6702C30.448 30.6702 30.448 30.6597 30.4586 30.6597C30.6168 30.4065 30.8277 30.1851 31.0492 30.0058C32.6312 28.7612 33.5383 26.8733 33.5277 24.8378C33.5066 21.2835 30.5957 18.3726 27.0414 18.3409C27.0203 18.3409 27.0098 18.3409 26.9887 18.3409C25.2484 18.3409 23.6137 19.0159 22.3797 20.2394C21.1352 21.4733 20.4496 23.1187 20.4496 24.88C20.4496 26.905 21.3566 28.7718 22.9387 30.0163C23.1496 30.1851 23.3395 30.396 23.5082 30.6597L23.5187 30.6702C23.7402 31.0499 23.8668 31.514 23.8668 31.9464V34.1296C23.8668 34.4144 23.6348 34.6464 23.35 34.6464C23.0652 34.6464 22.8332 34.4144 22.8332 34.1296V31.9569C22.8332 31.6933 22.7594 31.4296 22.6328 31.2081C22.5273 31.0499 22.4219 30.9233 22.3059 30.8284C20.4707 29.3835 19.416 27.2108 19.416 24.88C19.416 22.8444 20.207 20.9354 21.652 19.5116C23.0758 18.0983 24.9742 17.3179 26.9887 17.3179H27.052C31.1758 17.3495 34.5402 20.7245 34.5613 24.8378C34.5719 27.1897 33.5277 29.373 31.682 30.8179C31.5449 30.9233 31.4184 31.0604 31.3234 31.2081C31.2602 31.3241 31.1969 31.4507 31.1652 31.5772C31.1336 31.6933 31.1125 31.8198 31.1125 31.9569L31.123 34.1612C31.123 34.446 30.891 34.678 30.6062 34.678Z" fill="black"/>
<path d="M30.1945 37.1778H23.7293C22.7379 37.1778 21.9258 36.3657 21.9258 35.3743C21.9258 34.3829 22.7379 33.5708 23.7293 33.5708H30.1945C31.1859 33.5708 31.998 34.3829 31.998 35.3743C32.0086 35.8489 31.8188 36.3024 31.4812 36.6399C31.1438 36.9774 30.6902 37.1778 30.1945 37.1778ZM23.7293 34.5938C23.3074 34.5938 22.9594 34.9419 22.9594 35.3638C22.9594 35.7856 23.3074 36.1337 23.7293 36.1337H30.1945C30.4055 36.1337 30.6059 36.0493 30.7535 35.9017C30.8906 35.754 30.975 35.5642 30.9645 35.3638C30.9645 34.9313 30.6164 34.5833 30.1945 34.5833H23.7293V34.5938Z" fill="black"/>
<path d="M26.9667 39.5507C25.353 39.5507 24.003 38.2956 23.8765 36.6925C23.8554 36.4077 24.0663 36.1651 24.3511 36.144C24.6358 36.1229 24.8784 36.3339 24.8995 36.6186C24.9839 37.6839 25.8909 38.5276 26.9667 38.5276C28.0425 38.5276 28.9495 37.6944 29.0339 36.6186C29.055 36.3339 29.3081 36.1229 29.5823 36.144C29.8671 36.1651 30.078 36.4182 30.0569 36.6925C29.9304 38.2956 28.5804 39.5507 26.9667 39.5507Z" fill="black"/>
<path d="M26.968 34.5935C26.6832 34.5935 26.4512 34.3614 26.4512 34.0767V27.2106C26.4512 26.9259 26.6832 26.6938 26.968 26.6938C27.2527 26.6938 27.4848 26.9259 27.4848 27.2106V34.0872C27.4848 34.3614 27.2527 34.5935 26.968 34.5935Z" fill="black"/>
<path d="M28.6234 27.7172H25.3117C25.027 27.7172 24.7949 27.4852 24.7949 27.2004C24.7949 26.9156 25.027 26.6836 25.3117 26.6836H28.634C28.9187 26.6836 29.1508 26.9156 29.1508 27.2004C29.1402 27.4957 28.9082 27.7172 28.6234 27.7172Z" fill="black"/>
<path d="M26.966 16.432C26.6812 16.432 26.4492 16.2 26.4492 15.9152V14.8605C26.4492 14.5758 26.6812 14.3438 26.966 14.3438C27.2508 14.3438 27.4828 14.5758 27.4828 14.8605V15.9152C27.4828 16.2 27.2508 16.432 26.966 16.432Z" fill="black"/>
<path d="M20.5858 19.1111C20.4487 19.1111 20.3222 19.0584 20.2167 18.9635L19.4784 18.2252C19.278 18.0248 19.278 17.6979 19.4784 17.4975C19.6788 17.2971 20.0058 17.2971 20.2062 17.4975L20.9444 18.2357C21.1448 18.4361 21.1448 18.7631 20.9444 18.9635C20.8495 19.0689 20.7229 19.1111 20.5858 19.1111Z" fill="black"/>
<path d="M33.3788 19.0477C33.2417 19.0477 33.1151 18.9949 33.0097 18.9C32.8093 18.6996 32.8093 18.3727 33.0097 18.1723L33.7479 17.434C33.9483 17.2336 34.2753 17.2336 34.4757 17.434C34.6761 17.6344 34.6761 17.9613 34.4757 18.1617L33.7374 18.9C33.6425 18.9949 33.5054 19.0477 33.3788 19.0477Z" fill="black"/>
<path d="M29.7418 7.7416H24.2258C23.941 7.7416 23.709 7.50957 23.709 7.2248C23.709 6.94004 23.941 6.70801 24.2258 6.70801H29.7418C30.0266 6.70801 30.2586 6.94004 30.2586 7.2248C30.2586 7.52012 30.0266 7.7416 29.7418 7.7416Z" fill="black"/>
</svg>
