<svg width="54" height="54" viewBox="0 0 54 54" fill="none" xmlns="http://www.w3.org/2000/svg">
<path d="M40.9911 52.7695H13.0062C10.9984 52.7695 9.36523 51.1363 9.36523 49.1285V4.87196C9.36523 2.86417 10.9984 1.23096 13.0062 1.23096H40.9911C42.9989 1.23096 44.6321 2.86417 44.6321 4.87196V49.1285C44.6321 51.1363 42.9989 52.7695 40.9911 52.7695ZM13.0062 1.82655C11.3269 1.82655 9.96082 3.19299 9.96082 4.87196V49.1285C9.96082 50.8075 11.3269 52.1739 13.0062 52.1739H40.9911C42.6705 52.1739 44.0365 50.8075 44.0365 49.1285V4.87196C44.0365 3.19299 42.6705 1.82655 40.9911 1.82655H13.0062Z" fill="black"/>
<path d="M33.157 8.34237H20.3953C18.9784 8.34237 17.7818 7.3063 17.5573 5.93598H9.66693C9.50253 5.93598 9.36914 5.80259 9.36914 5.63818V4.86811C9.36914 2.86498 11.0024 1.23486 13.0101 1.23486H40.995C43.0028 1.23486 44.636 2.86498 44.636 4.86811V5.63818C44.636 5.80259 44.5026 5.93598 44.3382 5.93598H35.995C35.7705 7.3063 34.5738 8.34237 33.157 8.34237ZM9.96473 5.34039H17.8225C17.9796 5.34039 18.1095 5.46214 18.1196 5.6188C18.1971 6.8123 19.1967 7.74678 20.3953 7.74678H33.157C34.3555 7.74678 35.3552 6.8123 35.4327 5.6188C35.4428 5.46214 35.5727 5.34039 35.7297 5.34039H44.0404V4.86811C44.0404 3.19301 42.6744 1.83045 40.995 1.83045H13.0101C11.3308 1.83045 9.96473 3.19301 9.96473 4.86811V5.34039Z" fill="black"/>
<path d="M40.9907 52.7694H13.0062C10.9984 52.7694 9.36523 51.1362 9.36523 49.1284V44.3901C9.36523 44.2257 9.49862 44.0923 9.66303 44.0923H44.3339C44.4984 44.0923 44.6317 44.2257 44.6317 44.3901V49.1284C44.6317 51.1362 42.9985 52.7694 40.9907 52.7694ZM9.96082 44.6879V49.1284C9.96082 50.8074 11.3269 52.1738 13.0062 52.1738H40.9907C42.6701 52.1738 44.0361 50.8074 44.0361 49.1284V44.6879H9.96082Z" fill="black"/>
<path d="M29.0691 5.86756H24.9287C24.7642 5.86756 24.6309 5.73417 24.6309 5.56977C24.6309 5.40536 24.7642 5.27197 24.9287 5.27197H29.0691C29.2335 5.27197 29.3669 5.40536 29.3669 5.56977C29.3669 5.73417 29.2335 5.86756 29.0691 5.86756Z" fill="black"/>
<path d="M28.007 50.7578H25.9899C25.2652 50.7578 24.6758 50.1646 24.6758 49.4356V47.4262C24.6758 46.6973 25.2652 46.104 25.9899 46.104H28.007C28.7317 46.104 29.3214 46.6973 29.3214 47.4262V49.4356C29.3214 50.1646 28.7317 50.7578 28.007 50.7578ZM25.9899 46.6996C25.587 46.6996 25.2714 47.0191 25.2714 47.4262V49.4356C25.2714 49.8365 25.5936 50.1622 25.9899 50.1622H28.007C28.4032 50.1622 28.7259 49.8365 28.7259 49.4356V47.4262C28.7259 47.0191 28.4102 46.6996 28.007 46.6996H25.9899Z" fill="black"/>
<path d="M39.741 19.4955H14.2498C13.5336 19.4955 12.9512 18.9131 12.9512 18.1973V12.7897C12.9512 12.0731 13.5336 11.4907 14.2498 11.4907H39.741C40.4615 11.4907 41.0473 12.0731 41.0473 12.7897V18.1973C41.0473 18.9131 40.4615 19.4955 39.741 19.4955ZM14.2498 12.0863C13.8554 12.0863 13.5468 12.395 13.5468 12.7897V18.1973C13.5468 18.585 13.862 18.8999 14.2498 18.8999H39.741C40.133 18.8999 40.4518 18.585 40.4518 18.1973V12.7897C40.4518 12.4019 40.133 12.0863 39.741 12.0863H14.2498Z" fill="black"/>
<path d="M27.8529 30.0311H14.2505C13.534 30.0311 12.9512 29.4487 12.9512 28.7329V23.3246C12.9512 22.6088 13.534 22.0264 14.2505 22.0264H27.8529C28.5733 22.0264 29.1592 22.6088 29.1592 23.3246V28.7329C29.1592 29.4487 28.5733 30.0311 27.8529 30.0311ZM14.2505 22.622C13.8558 22.622 13.5468 22.9306 13.5468 23.3246V28.7329C13.5468 29.1207 13.8624 29.4355 14.2505 29.4355H27.8529C28.2449 29.4355 28.5636 29.1207 28.5636 28.7329V23.3246C28.5636 22.9368 28.2449 22.622 27.8529 22.622H14.2505Z" fill="black"/>
<path d="M39.7427 41.0624H26.14C25.4242 41.0624 24.8418 40.48 24.8418 39.7642V34.3566C24.8418 33.64 25.4242 33.0576 26.14 33.0576H39.7427C40.4632 33.0576 41.0491 33.64 41.0491 34.3566V39.7642C41.0491 40.48 40.4632 41.0624 39.7427 41.0624ZM26.14 33.6532C25.746 33.6532 25.4374 33.9619 25.4374 34.3566V39.7642C25.4374 40.1519 25.7526 40.4668 26.14 40.4668H39.7427C40.1348 40.4668 40.4535 40.1519 40.4535 39.7642V34.3566C40.4535 33.9688 40.1348 33.6532 39.7427 33.6532H26.14Z" fill="black"/>
<path d="M39.7422 30.0311H33.2865C32.5707 30.0311 31.9883 29.4487 31.9883 28.7329V23.3246C31.9883 22.6088 32.5707 22.0264 33.2865 22.0264H39.7422C40.4626 22.0264 41.0485 22.6088 41.0485 23.3246V28.7329C41.0485 29.4487 40.4626 30.0311 39.7422 30.0311ZM33.2865 22.622C32.8925 22.622 32.5839 22.9306 32.5839 23.3246V28.7329C32.5839 29.1207 32.8991 29.4355 33.2865 29.4355H39.7422C40.1342 29.4355 40.4529 29.1207 40.4529 28.7329V23.3246C40.4529 22.9368 40.1342 22.622 39.7422 22.622H33.2865Z" fill="black"/>
<path d="M22.519 34.4481H13.2509C13.0865 34.4481 12.9531 34.3147 12.9531 34.1503C12.9531 33.9859 13.0865 33.8525 13.2509 33.8525H22.519C22.6834 33.8525 22.8168 33.9859 22.8168 34.1503C22.8168 34.3147 22.6834 34.4481 22.519 34.4481Z" fill="black"/>
<path d="M22.519 37.4013H13.2509C13.0865 37.4013 12.9531 37.2679 12.9531 37.1035C12.9531 36.9391 13.0865 36.8057 13.2509 36.8057H22.519C22.6834 36.8057 22.8168 36.9391 22.8168 37.1035C22.8168 37.2679 22.6834 37.4013 22.519 37.4013Z" fill="black"/>
<path d="M22.519 40.3554H13.2509C13.0865 40.3554 12.9531 40.222 12.9531 40.0576C12.9531 39.8932 13.0865 39.7598 13.2509 39.7598H22.519C22.6834 39.7598 22.8168 39.8932 22.8168 40.0576C22.8168 40.222 22.6834 40.3554 22.519 40.3554Z" fill="black"/>
</svg>
