<svg width="51" height="51" viewBox="0 0 51 51" fill="none" xmlns="http://www.w3.org/2000/svg">
<path fill-rule="evenodd" clip-rule="evenodd" d="M0 4.44593V46.3228C0 48.7762 1.99242 50.7687 4.44593 50.7687H46.3228C48.7762 50.7687 50.7687 48.7764 50.7687 46.3228V4.44593C50.7687 1.99242 48.7764 0 46.3228 0H4.44593C1.99242 0 0 1.99242 0 4.44593ZM49.7325 12.4094V46.3228C49.7325 48.2044 48.2043 49.7326 46.3227 49.7326H4.44583C2.56427 49.7326 1.03602 48.2044 1.03602 46.3228V12.4094H49.7325ZM6.12225 25.9024C6.30766 26.6049 6.86095 27.1581 7.56348 27.3436V46.0026C7.56348 46.2885 7.79551 46.5207 8.08154 46.5207H29.8913C30.1772 46.5207 30.4094 46.2886 30.4094 46.0026V41.3008H45.5881C45.8741 41.3008 46.1062 41.0687 46.1062 40.7828V31.7688C46.1062 31.4829 45.8742 31.2507 45.5881 31.2507H39.0514C38.866 30.5482 38.3127 29.995 37.6101 29.8095V25.9024H45.5881C45.8741 25.9024 46.1062 25.6703 46.1062 25.3843V16.3703C46.1062 16.0844 45.8742 15.8523 45.5881 15.8523H28.5962C28.3102 15.8523 28.0781 16.0844 28.0781 16.3703V25.3843C28.0781 25.6703 28.3102 25.9024 28.5962 25.9024H36.574V29.8095C35.8716 29.9949 35.3183 30.5482 35.1328 31.2507H14.1944C13.9085 31.2507 13.6763 31.4829 13.6763 31.7688V40.7828C13.6763 41.0687 13.9085 41.3008 14.1944 41.3008H29.3731V45.4846H8.5995V27.3436C9.30203 27.1582 9.85522 26.6049 10.0407 25.9024H25.9023C26.1882 25.9024 26.4203 25.6703 26.4203 25.3843V16.3703C26.4203 16.0844 26.1882 15.8523 25.9023 15.8523H5.18042C4.89449 15.8523 4.66236 16.0844 4.66236 16.3703V25.3843C4.66236 25.6703 4.89439 25.9024 5.18042 25.9024H6.12225ZM39.0514 32.2868C38.5313 34.2788 35.6523 34.2776 35.1329 32.2868H14.7126V40.2648H45.0702V32.2868H39.0514ZM37.0922 30.7782C38.3986 30.8121 38.3982 32.7262 37.0922 32.7592C35.786 32.7261 35.7861 30.8118 37.0922 30.7782ZM8.08154 24.3939C9.38798 24.4277 9.38756 26.3419 8.08154 26.3749C6.77542 26.341 6.77563 24.4281 8.08154 24.3939ZM10.0408 24.8663H25.3843V16.8883H5.69848V24.8663H6.12225C6.64242 22.8744 9.5213 22.8755 10.0408 24.8663ZM45.0701 24.8663H29.1142V16.8883H45.0701V24.8663ZM49.7325 11.3732H1.03612V4.44593C1.03612 2.56437 2.56437 1.03612 4.44593 1.03612H46.3228C48.2044 1.03612 49.7326 2.56437 49.7326 4.44593L49.7325 11.3732ZM5.24053 4.08228C2.56742 4.15147 2.56902 8.06594 5.24065 8.1345C7.9128 8.06615 7.91332 4.15031 5.24053 4.08228ZM10.2522 4.08228C7.58036 4.15104 7.58194 8.06636 10.2523 8.1345C12.9245 8.06615 12.925 4.15031 10.2522 4.08228ZM15.2648 4.08228C12.5915 4.15083 12.5931 8.06657 15.2649 8.1345C17.9356 8.06584 17.9361 4.15062 15.2648 4.08228ZM5.24053 5.1183C6.54739 5.15173 6.54613 7.06525 5.24053 7.09826C3.93493 7.06451 3.93409 5.15215 5.24053 5.1183ZM10.2522 5.1183C11.5591 5.15173 11.5578 7.06525 10.2522 7.09826C8.94776 7.06482 8.94702 5.15184 10.2522 5.1183ZM15.2648 5.1183C16.5703 5.15194 16.5689 7.06503 15.2648 7.09826C13.959 7.06514 13.9582 5.15152 15.2648 5.1183Z" fill="black"/>
</svg>
