<svg width="54" height="54" viewBox="0 0 54 54" fill="none" xmlns="http://www.w3.org/2000/svg">
<path d="M47.6601 4.94775H6.33994C3.77409 4.94775 1.6875 7.03519 1.6875 9.60103V36.6086C1.6875 39.1745 3.77494 41.2619 6.33994 41.2619H22.9559L19.1894 47.7866C19.0392 48.0482 19.0392 48.3688 19.1894 48.6304C19.3404 48.8919 19.6189 49.0523 19.9201 49.0523H34.0765C34.3778 49.0523 34.657 48.8919 34.8072 48.6304C34.9574 48.3688 34.9574 48.0482 34.8072 47.7866L31.0399 41.2619H47.6592C50.2251 41.2619 52.3117 39.1745 52.3117 36.6086V9.60103C52.3117 7.03519 50.2251 4.94775 47.6601 4.94775ZM6.33994 6.63525H47.6601C49.2952 6.63525 50.625 7.96585 50.625 9.60103V33.5559H3.375V9.60103C3.375 7.96585 4.70559 6.63525 6.33994 6.63525ZM32.616 47.3639H21.3823L24.9058 41.2611H29.0925L32.616 47.3639ZM47.6601 39.5736H6.33994C4.70475 39.5736 3.375 38.243 3.375 36.6078V35.2426H50.625V36.6078C50.625 38.243 49.2944 39.5736 47.6601 39.5736Z" fill="black"/>
<path d="M9.68945 25.6659H19.2702C20.6658 25.6659 21.8015 24.5302 21.8015 23.1346V13.5547C21.8015 12.1591 20.6658 11.0234 19.2702 11.0234H9.68945C8.29389 11.0234 7.1582 12.1591 7.1582 13.5547V23.1346C7.1582 24.5302 8.29389 25.6659 9.68945 25.6659ZM8.8457 13.5547C8.8457 13.0889 9.22455 12.7109 9.68945 12.7109H19.2702C19.7351 12.7109 20.114 13.0889 20.114 13.5547V23.1346C20.114 23.6004 19.7351 23.9784 19.2702 23.9784H9.68945C9.22455 23.9784 8.8457 23.6004 8.8457 23.1346V13.5547Z" fill="black"/>
<path d="M34.7305 25.6659H44.3112C45.7068 25.6659 46.8425 24.5302 46.8425 23.1346V13.5547C46.8425 12.1591 45.7068 11.0234 44.3112 11.0234H34.7305C33.3349 11.0234 32.1992 12.1591 32.1992 13.5547V23.1346C32.1992 24.5302 33.3349 25.6659 34.7305 25.6659ZM33.8867 13.5547C33.8867 13.0889 34.2656 12.7109 34.7305 12.7109H44.3112C44.7762 12.7109 45.155 13.0889 45.155 13.5547V23.1346C45.155 23.6004 44.7762 23.9784 44.3112 23.9784H34.7305C34.2656 23.9784 33.8867 23.6004 33.8867 23.1346V13.5547Z" fill="black"/>
<path d="M12.3027 28.0068C11.837 28.0068 11.459 28.384 11.459 28.8506V31.3818C11.459 31.8484 11.837 32.2256 12.3027 32.2256C12.7685 32.2256 13.1465 31.8484 13.1465 31.3818V28.8506C13.1465 28.384 12.7685 28.0068 12.3027 28.0068Z" fill="black"/>
<path d="M17.2012 28.0068C16.7354 28.0068 16.3574 28.384 16.3574 28.8506V31.3818C16.3574 31.8484 16.7354 32.2256 17.2012 32.2256C17.6669 32.2256 18.0449 31.8484 18.0449 31.3818V28.8506C18.0449 28.384 17.6669 28.0068 17.2012 28.0068Z" fill="black"/>
<path d="M21.2559 28.8506V31.3818C21.2559 31.8484 21.6339 32.2256 22.0996 32.2256C22.5654 32.2256 22.9434 31.8484 22.9434 31.3818V28.8506C22.9434 28.384 22.5654 28.0068 22.0996 28.0068C21.6339 28.0068 21.2559 28.384 21.2559 28.8506Z" fill="black"/>
<path d="M27 32.2256C27.4657 32.2256 27.8438 31.8484 27.8438 31.3818V28.8506C27.8438 28.384 27.4657 28.0068 27 28.0068C26.5343 28.0068 26.1562 28.384 26.1562 28.8506V31.3818C26.1562 31.8484 26.5343 32.2256 27 32.2256Z" fill="black"/>
<path d="M31.9004 32.2256C32.3661 32.2256 32.7441 31.8484 32.7441 31.3818V28.8506C32.7441 28.384 32.3661 28.0068 31.9004 28.0068C31.4346 28.0068 31.0566 28.384 31.0566 28.8506V31.3818C31.0566 31.8484 31.4346 32.2256 31.9004 32.2256Z" fill="black"/>
<path d="M36.7988 28.0068C36.3331 28.0068 35.9551 28.384 35.9551 28.8506V31.3818C35.9551 31.8484 36.3331 32.2256 36.7988 32.2256C37.2646 32.2256 37.6426 31.8484 37.6426 31.3818V28.8506C37.6426 28.384 37.2646 28.0068 36.7988 28.0068Z" fill="black"/>
<path d="M41.6973 28.0068C41.2315 28.0068 40.8535 28.384 40.8535 28.8506V31.3818C40.8535 31.8484 41.2315 32.2256 41.6973 32.2256C42.163 32.2256 42.541 31.8484 42.541 31.3818V28.8506C42.541 28.384 42.163 28.0068 41.6973 28.0068Z" fill="black"/>
</svg>
