<svg width="54" height="54" viewBox="0 0 54 54" fill="none" xmlns="http://www.w3.org/2000/svg">
<path d="M21.6345 47.6254H5.18421C3.80897 47.6254 2.68945 46.5058 2.68945 45.1306V16.3624C2.68945 14.9872 3.80897 13.8677 5.18421 13.8677H21.6334C23.0086 13.8677 24.1281 14.9872 24.1281 16.3624V45.1306C24.1292 46.5058 23.0097 47.6254 21.6345 47.6254ZM5.18421 15.1321C4.50592 15.1321 3.95384 15.6841 3.95384 16.3624V45.1306C3.95384 45.8089 4.50592 46.361 5.18421 46.361H21.6334C22.3116 46.361 22.8637 45.8089 22.8637 45.1306V16.3624C22.8637 15.6841 22.3116 15.1321 21.6334 15.1321H5.18421Z" fill="black"/>
<path d="M23.497 42.3537H3.32165C2.97262 42.3537 2.68945 42.0705 2.68945 41.7215V19.7714C2.68945 19.4223 2.97262 19.1392 3.32165 19.1392H23.497C23.846 19.1392 24.1292 19.4223 24.1292 19.7714V41.7215C24.1292 42.0705 23.846 42.3537 23.497 42.3537ZM3.95384 41.0893H22.8648V20.4035H3.95384V41.0893Z" fill="black"/>
<path d="M15.6085 17.7673H11.2084C10.8593 17.7673 10.5762 17.4841 10.5762 17.1351C10.5762 16.7861 10.8593 16.5029 11.2084 16.5029H15.6085C15.9575 16.5029 16.2407 16.7861 16.2407 17.1351C16.2407 17.4841 15.9586 17.7673 15.6085 17.7673Z" fill="black"/>
<path d="M6.99171 17.7673H5.5111C5.16208 17.7673 4.87891 17.4841 4.87891 17.1351C4.87891 16.7861 5.16208 16.5029 5.5111 16.5029H6.99171C7.34074 16.5029 7.62391 16.7861 7.62391 17.1351C7.62391 17.4841 7.34074 17.7673 6.99171 17.7673Z" fill="black"/>
<path d="M15.6085 44.989H11.2084C10.8593 44.989 10.5762 44.7058 10.5762 44.3568C10.5762 44.0078 10.8593 43.7246 11.2084 43.7246H15.6085C15.9575 43.7246 16.2407 44.0078 16.2407 44.3568C16.2407 44.7058 15.9586 44.989 15.6085 44.989Z" fill="black"/>
<path d="M7.88008 44.989H6.21618C5.86715 44.989 5.58398 44.7058 5.58398 44.3568C5.58398 44.0078 5.86715 43.7246 6.21618 43.7246H7.88008C8.22911 43.7246 8.51228 44.0078 8.51228 44.3568C8.51228 44.7058 8.22911 44.989 7.88008 44.989Z" fill="black"/>
<path d="M20.6008 44.989H18.9369C18.5879 44.989 18.3047 44.7058 18.3047 44.3568C18.3047 44.0078 18.5879 43.7246 18.9369 43.7246H20.6008C20.9498 43.7246 21.233 44.0078 21.233 44.3568C21.233 44.7058 20.9498 44.989 20.6008 44.989Z" fill="black"/>
<path d="M48.8747 40.2948H32.4244C31.0481 40.2948 29.9297 39.1753 29.9297 37.8V9.03187C29.9297 7.65662 31.0492 6.53711 32.4244 6.53711H48.8736C50.2488 6.53711 51.3683 7.65662 51.3683 9.03187V37.8C51.3694 39.1764 50.2499 40.2948 48.8747 40.2948ZM32.4244 7.8015C31.7462 7.8015 31.1941 8.35357 31.1941 9.03187V37.8C31.1941 38.4783 31.7462 39.0304 32.4244 39.0304H48.8736C49.5519 39.0304 50.104 38.4783 50.104 37.8V9.03187C50.104 8.35357 49.5519 7.8015 48.8736 7.8015H32.4244Z" fill="black"/>
<path d="M50.7372 35.0231H30.5619C30.2129 35.0231 29.9297 34.7399 29.9297 34.3909V12.4408C29.9297 12.0918 30.2129 11.8086 30.5619 11.8086H50.7372C51.0863 11.8086 51.3694 12.0918 51.3694 12.4408V34.3909C51.3694 34.7399 51.0863 35.0231 50.7372 35.0231ZM31.1941 33.7587H50.1051V13.073H31.1941V33.7587Z" fill="black"/>
<path d="M42.8487 10.4377H38.4486C38.0996 10.4377 37.8164 10.1546 37.8164 9.80553C37.8164 9.45651 38.0996 9.17334 38.4486 9.17334H42.8487C43.1977 9.17334 43.4809 9.45651 43.4809 9.80553C43.4809 10.1546 43.1977 10.4377 42.8487 10.4377Z" fill="black"/>
<path d="M34.2319 10.4377H32.7513C32.4023 10.4377 32.1191 10.1546 32.1191 9.80553C32.1191 9.45651 32.4023 9.17334 32.7513 9.17334H34.2319C34.581 9.17334 34.8641 9.45651 34.8641 9.80553C34.8641 10.1546 34.581 10.4377 34.2319 10.4377Z" fill="black"/>
<path d="M42.8487 37.6594H38.4486C38.0996 37.6594 37.8164 37.3762 37.8164 37.0272C37.8164 36.6782 38.0996 36.395 38.4486 36.395H42.8487C43.1977 36.395 43.4809 36.6782 43.4809 37.0272C43.4809 37.3762 43.1977 37.6594 42.8487 37.6594Z" fill="black"/>
<path d="M35.1192 37.6594H33.4564C33.1074 37.6594 32.8242 37.3762 32.8242 37.0272C32.8242 36.6782 33.1074 36.395 33.4564 36.395H35.1192C35.4682 36.395 35.7514 36.6782 35.7514 37.0272C35.7514 37.3762 35.4682 37.6594 35.1192 37.6594Z" fill="black"/>
<path d="M47.8419 37.6594H46.1791C45.83 37.6594 45.5469 37.3762 45.5469 37.0272C45.5469 36.6782 45.83 36.395 46.1791 36.395H47.8419C48.1909 36.395 48.4741 36.6782 48.4741 37.0272C48.4741 37.3762 48.1909 37.6594 47.8419 37.6594Z" fill="black"/>
<path d="M22.4054 33.6873H14.6302C14.2812 33.6873 13.998 33.4041 13.998 33.0551C13.998 32.706 14.2812 32.4229 14.6302 32.4229H22.4054C24.7432 32.4229 26.6452 30.8402 26.6452 28.8942V22.8521C26.6452 20.2092 29.1148 18.0591 32.1495 18.0591H42.8606C43.2096 18.0591 43.4928 18.3423 43.4928 18.6913C43.4928 19.0403 43.2096 19.3235 42.8606 19.3235H32.1495C29.8117 19.3235 27.9096 20.9062 27.9096 22.8521V28.8942C27.9096 31.5371 25.4401 33.6873 22.4054 33.6873Z" fill="black"/>
<path d="M38.7518 22.2046C38.5532 22.2046 38.3567 22.1113 38.2338 21.9357C38.0329 21.6503 38.1032 21.2552 38.3885 21.0554L41.7591 18.6924L38.3885 16.3293C38.1032 16.1285 38.0329 15.7344 38.2338 15.4491C38.4346 15.1637 38.8286 15.0935 39.114 15.2943L43.2233 18.1754C43.3923 18.294 43.4922 18.4871 43.4922 18.6935C43.4922 18.8998 43.3912 19.093 43.2233 19.2115L39.114 22.0926C39.0043 22.1672 38.8769 22.2046 38.7518 22.2046Z" fill="black"/>
<path d="M13.6402 35.4711H9.7461C8.85268 35.4711 8.125 34.7445 8.125 33.85V32.2596C8.125 31.3662 8.85159 30.6396 9.7461 30.6396H13.6413C14.5348 30.6396 15.2624 31.3662 15.2624 32.2596V33.85C15.2613 34.7434 14.5348 35.4711 13.6402 35.4711ZM9.7461 31.904C9.55293 31.904 9.38939 32.0676 9.38939 32.2607V33.8511C9.38939 34.0443 9.55293 34.2078 9.7461 34.2078H13.6413C13.8345 34.2078 13.998 34.0443 13.998 33.8511V32.2607C13.998 32.0676 13.8345 31.904 13.6413 31.904H9.7461Z" fill="black"/>
</svg>
