<svg width="54" height="54" viewBox="0 0 54 54" fill="none" xmlns="http://www.w3.org/2000/svg">
<path d="M11.6339 29.6405L18.1139 32.9573C18.1912 32.9969 18.2755 33.0167 18.36 33.0167C18.4443 33.0167 18.5287 32.997 18.606 32.9573L25.086 29.6405C25.1277 29.6235 25.2212 29.5783 25.2937 29.4765C25.3894 29.3423 25.3832 29.2006 25.38 29.1598V21.5998C25.3801 21.5498 25.3734 21.4483 25.3139 21.3399C25.2406 21.2063 25.1311 21.1425 25.087 21.1198L18.607 17.7863C18.4519 17.7067 18.2679 17.7067 18.1129 17.7863L11.6329 21.1198C11.5908 21.1404 11.4844 21.1994 11.4104 21.3264C11.343 21.4423 11.3389 21.5526 11.34 21.5999V29.1599C11.3398 29.2078 11.3455 29.3251 11.421 29.4462C11.4934 29.5624 11.591 29.6188 11.6339 29.6405ZM24.2999 28.2123L19.5059 25.3724L24.2999 22.545V28.2123ZM12.4199 22.5451L17.2138 25.3724L12.4199 28.2123V22.5451ZM17.8199 26.2687V31.5935L12.9975 29.1253L17.8199 26.2687ZM18.8999 31.5934V26.2686L23.7222 29.1252L18.8999 31.5934ZM18.8999 24.476V19.1512L23.7222 21.6319L18.8999 24.476ZM17.8199 19.1513V24.4761L12.9975 21.6321L17.8199 19.1513Z" fill="black"/>
<path d="M45.6722 8.20117H8.32674C7.01049 8.20117 5.93945 9.27221 5.93945 10.5885V38.6526C5.93945 39.9689 7.01049 41.0399 8.32674 41.0399H19.9795V45.8999H14.2446C13.9464 45.8999 13.7046 46.1418 13.7046 46.4399C13.7046 46.7381 13.9464 46.9799 14.2446 46.9799H20.5195H33.4795H39.7543C40.0528 46.9799 40.2943 46.7381 40.2943 46.4399C40.2943 46.1418 40.0528 45.8999 39.7543 45.8999H34.0195V41.0399H45.6722C46.9884 41.0399 48.0595 39.9689 48.0595 38.6526V10.5885C48.0595 9.27221 46.9884 8.20117 45.6722 8.20117ZM8.32674 9.28117H45.6722C46.393 9.28117 46.9795 9.86758 46.9795 10.5885V35.1202C46.9458 35.1136 46.9148 35.0999 46.8793 35.0999H31.3195V14.5799H44.2795C44.5779 14.5799 44.8195 14.3381 44.8195 14.0399C44.8195 13.7418 44.5779 13.4999 44.2795 13.4999H9.71945C9.42129 13.4999 9.17945 13.7418 9.17945 14.0399C9.17945 14.3381 9.42129 14.5799 9.71945 14.5799H30.2395V35.0999H7.11965C7.08411 35.0999 7.0531 35.1136 7.01945 35.1202V10.5885C7.01945 9.86758 7.60586 9.28117 8.32674 9.28117ZM32.9395 45.8999H21.0595V41.0399H32.9395V45.8999ZM45.6722 39.9599H33.4795H20.5195H8.32674C7.60586 39.9599 7.01945 39.3735 7.01945 38.6526V36.1597C7.0531 36.1662 7.08411 36.1799 7.11965 36.1799H46.8793C46.9148 36.1799 46.9458 36.1662 46.9795 36.1597V38.6526C46.9795 39.3735 46.393 39.9599 45.6722 39.9599Z" fill="black"/>
<path d="M44.0744 19.4398H39.8829C39.6414 18.5109 38.8033 17.8198 37.7995 17.8198C36.7958 17.8198 35.9577 18.5109 35.7162 19.4398H34.5595C34.2611 19.4398 34.0195 19.6817 34.0195 19.9798C34.0195 20.278 34.2611 20.5198 34.5595 20.5198H35.7162C35.9576 21.4488 36.7958 22.1398 37.7995 22.1398C38.8033 22.1398 39.6413 21.4488 39.8829 20.5198H44.0744C44.3729 20.5198 44.6144 20.278 44.6144 19.9798C44.6144 19.6817 44.3729 19.4398 44.0744 19.4398ZM37.7995 21.0598C37.2042 21.0598 36.7195 20.5754 36.7195 19.9798C36.7195 19.3842 37.2042 18.8998 37.7995 18.8998C38.3949 18.8998 38.8795 19.3842 38.8795 19.9798C38.8795 20.5754 38.3949 21.0598 37.7995 21.0598Z" fill="black"/>
<path d="M44.0744 24.2997H43.1229C42.8814 23.3707 42.0433 22.6797 41.0395 22.6797C40.0358 22.6797 39.1977 23.3707 38.9562 24.2997H34.5595C34.2611 24.2997 34.0195 24.5415 34.0195 24.8397C34.0195 25.1378 34.2611 25.3797 34.5595 25.3797H38.9562C39.1976 26.3087 40.0358 26.9997 41.0395 26.9997C42.0433 26.9997 42.8813 26.3087 43.1229 25.3797H44.0744C44.3729 25.3797 44.6144 25.1378 44.6144 24.8397C44.6144 24.5415 44.3729 24.2997 44.0744 24.2997ZM41.0395 25.9197C40.4442 25.9197 39.9595 25.4353 39.9595 24.8397C39.9595 24.2441 40.4442 23.7597 41.0395 23.7597C41.6349 23.7597 42.1195 24.2441 42.1195 24.8397C42.1195 25.4353 41.6349 25.9197 41.0395 25.9197Z" fill="black"/>
<path d="M44.0744 29.7001H39.3429C39.1014 28.7711 38.2633 28.0801 37.2595 28.0801C36.2558 28.0801 35.4177 28.7711 35.1762 29.7001H34.5595C34.2611 29.7001 34.0195 29.9419 34.0195 30.2401C34.0195 30.5382 34.2611 30.7801 34.5595 30.7801H35.1762C35.4176 31.709 36.2558 32.4001 37.2595 32.4001C38.2633 32.4001 39.1013 31.709 39.3429 30.7801H44.0744C44.3729 30.7801 44.6144 30.5382 44.6144 30.2401C44.6144 29.9419 44.3729 29.7001 44.0744 29.7001ZM37.2595 31.3201C36.6642 31.3201 36.1795 30.8357 36.1795 30.2401C36.1795 29.6445 36.6642 29.1601 37.2595 29.1601C37.8549 29.1601 38.3395 29.6445 38.3395 30.2401C38.3395 30.8357 37.8549 31.3201 37.2595 31.3201Z" fill="black"/>
</svg>
